M48
;DRILL file {KiCad 4.0.7-e2-6376~58~ubuntu17.04.1} date Tue Nov 28 13:42:32 2017
;FORMAT={-:-/ absolute / metric / decimal}
FMAT,2
METRIC,TZ
T1C1.000
T2C3.200
%
G90
G05
M71
T1
X99.06Y-102.87
X99.06Y-105.41
X101.6Y-102.87
X101.6Y-105.41
X104.14Y-102.87
X104.14Y-105.41
X106.68Y-102.87
X106.68Y-105.41
X109.22Y-102.87
X109.22Y-105.41
X114.3Y-102.87
X114.3Y-105.41
X116.84Y-102.87
X116.84Y-105.41
X119.38Y-102.87
X119.38Y-105.41
X121.92Y-102.87
X121.92Y-105.41
X124.46Y-102.87
X124.46Y-105.41
X127.Y-102.87
X127.Y-105.41
X129.54Y-102.87
X129.54Y-105.41
X132.08Y-102.87
X132.08Y-105.41
X134.62Y-102.87
X134.62Y-105.41
X137.16Y-102.87
X137.16Y-105.41
X139.7Y-102.87
X139.7Y-105.41
X142.24Y-102.87
X142.24Y-105.41
X144.78Y-102.87
X144.78Y-105.41
X147.32Y-102.87
X147.32Y-105.41
X149.86Y-102.87
X149.86Y-105.41
X152.4Y-102.87
X152.4Y-105.41
X154.94Y-102.87
X154.94Y-105.41
X157.48Y-102.87
X157.48Y-105.41
X160.02Y-102.87
X160.02Y-105.41
X162.56Y-102.87
X162.56Y-105.41
X165.1Y-102.87
X165.1Y-105.41
X167.64Y-102.87
X167.64Y-105.41
X170.18Y-102.87
X170.18Y-105.41
X172.72Y-102.87
X172.72Y-105.41
X175.26Y-102.87
X175.26Y-105.41
X177.8Y-102.87
X177.8Y-105.41
X180.34Y-102.87
X180.34Y-105.41
X182.88Y-102.87
X182.88Y-105.41
X185.42Y-102.87
X185.42Y-105.41
X187.96Y-102.87
X187.96Y-105.41
X190.5Y-102.87
X190.5Y-105.41
X193.04Y-102.87
X193.04Y-105.41
T2
X100.Y-91.5
X100.Y-111.
X192.Y-91.5
X192.Y-111.
T0
M30
