G04 #@! TF.FileFunction,Copper,L2,Bot,Signal*
%FSLAX46Y46*%
G04 Gerber Fmt 4.6, Leading zero omitted, Abs format (unit mm)*
G04 Created by KiCad (PCBNEW 4.0.7-e2-6376~58~ubuntu17.04.1) date Tue Dec  5 16:05:34 2017*
%MOMM*%
%LPD*%
G01*
G04 APERTURE LIST*
%ADD10C,0.100000*%
%ADD11C,5.600000*%
%ADD12R,1.700000X1.700000*%
%ADD13O,1.700000X1.700000*%
G04 APERTURE END LIST*
D10*
D11*
X96000000Y-21500000D03*
X4000000Y-21500000D03*
X96000000Y-41000000D03*
D12*
X18300000Y-35410000D03*
D13*
X18300000Y-32870000D03*
X20840000Y-35410000D03*
X20840000Y-32870000D03*
X23380000Y-35410000D03*
X23380000Y-32870000D03*
X25920000Y-35410000D03*
X25920000Y-32870000D03*
X28460000Y-35410000D03*
X28460000Y-32870000D03*
X31000000Y-35410000D03*
X31000000Y-32870000D03*
X33540000Y-35410000D03*
X33540000Y-32870000D03*
X36080000Y-35410000D03*
X36080000Y-32870000D03*
X38620000Y-35410000D03*
X38620000Y-32870000D03*
X41160000Y-35410000D03*
X41160000Y-32870000D03*
X43700000Y-35410000D03*
X43700000Y-32870000D03*
X46240000Y-35410000D03*
X46240000Y-32870000D03*
X48780000Y-35410000D03*
X48780000Y-32870000D03*
X51320000Y-35410000D03*
X51320000Y-32870000D03*
X53860000Y-35410000D03*
X53860000Y-32870000D03*
X56400000Y-35410000D03*
X56400000Y-32870000D03*
X58940000Y-35410000D03*
X58940000Y-32870000D03*
X61480000Y-35410000D03*
X61480000Y-32870000D03*
X64020000Y-35410000D03*
X64020000Y-32870000D03*
X66560000Y-35410000D03*
X66560000Y-32870000D03*
X69100000Y-35410000D03*
X69100000Y-32870000D03*
X71640000Y-35410000D03*
X71640000Y-32870000D03*
X74180000Y-35410000D03*
X74180000Y-32870000D03*
X76720000Y-35410000D03*
X76720000Y-32870000D03*
X79260000Y-35410000D03*
X79260000Y-32870000D03*
X81800000Y-35410000D03*
X81800000Y-32870000D03*
X84340000Y-35410000D03*
X84340000Y-32870000D03*
X86880000Y-35410000D03*
X86880000Y-32870000D03*
X89420000Y-35410000D03*
X89420000Y-32870000D03*
X91960000Y-35410000D03*
X91960000Y-32870000D03*
X94500000Y-35410000D03*
X94500000Y-32870000D03*
X97040000Y-35410000D03*
X97040000Y-32870000D03*
D12*
X3060000Y-35410000D03*
D13*
X3060000Y-32870000D03*
X5600000Y-35410000D03*
X5600000Y-32870000D03*
X8140000Y-35410000D03*
X8140000Y-32870000D03*
X10680000Y-35410000D03*
X10680000Y-32870000D03*
X13220000Y-35410000D03*
X13220000Y-32870000D03*
D11*
X4000000Y-41000000D03*
D10*
G36*
X97950618Y-705002D02*
X98756514Y-1243485D01*
X99294998Y-2049383D01*
X99494000Y-3049835D01*
X99494000Y-41950165D01*
X99294998Y-42950617D01*
X98756514Y-43756515D01*
X97950618Y-44294998D01*
X96950165Y-44494000D01*
X3049835Y-44494000D01*
X2049383Y-44294998D01*
X1243485Y-43756514D01*
X705002Y-42950618D01*
X506000Y-41950165D01*
X506000Y-41639866D01*
X768440Y-41639866D01*
X1259294Y-42827823D01*
X2167396Y-43737511D01*
X3354495Y-44230438D01*
X4639866Y-44231560D01*
X5827823Y-43740706D01*
X6737511Y-42832604D01*
X7230438Y-41645505D01*
X7230442Y-41639866D01*
X92768440Y-41639866D01*
X93259294Y-42827823D01*
X94167396Y-43737511D01*
X95354495Y-44230438D01*
X96639866Y-44231560D01*
X97827823Y-43740706D01*
X98737511Y-42832604D01*
X99230438Y-41645505D01*
X99231560Y-40360134D01*
X98740706Y-39172177D01*
X97832604Y-38262489D01*
X96645505Y-37769562D01*
X95360134Y-37768440D01*
X94172177Y-38259294D01*
X93262489Y-39167396D01*
X92769562Y-40354495D01*
X92768440Y-41639866D01*
X7230442Y-41639866D01*
X7231560Y-40360134D01*
X6740706Y-39172177D01*
X5832604Y-38262489D01*
X4645505Y-37769562D01*
X3360134Y-37768440D01*
X2172177Y-38259294D01*
X1262489Y-39167396D01*
X769562Y-40354495D01*
X768440Y-41639866D01*
X506000Y-41639866D01*
X506000Y-35672500D01*
X1960000Y-35672500D01*
X1960000Y-36309728D01*
X1998060Y-36401614D01*
X2068386Y-36471940D01*
X2160272Y-36510000D01*
X2797500Y-36510000D01*
X2860000Y-36447500D01*
X2860000Y-35610000D01*
X3260000Y-35610000D01*
X3260000Y-36447500D01*
X3322500Y-36510000D01*
X3959728Y-36510000D01*
X4051614Y-36471940D01*
X4121940Y-36401614D01*
X4160000Y-36309728D01*
X4160000Y-35776751D01*
X4562918Y-35776751D01*
X4782211Y-36145708D01*
X5126005Y-36402660D01*
X5233253Y-36447061D01*
X5400000Y-36428040D01*
X5400000Y-35610000D01*
X5800000Y-35610000D01*
X5800000Y-36428040D01*
X5966747Y-36447061D01*
X6073995Y-36402660D01*
X6417789Y-36145708D01*
X6637082Y-35776751D01*
X7102918Y-35776751D01*
X7322211Y-36145708D01*
X7666005Y-36402660D01*
X7773253Y-36447061D01*
X7940000Y-36428040D01*
X7940000Y-35610000D01*
X8340000Y-35610000D01*
X8340000Y-36428040D01*
X8506747Y-36447061D01*
X8613995Y-36402660D01*
X8957789Y-36145708D01*
X9177082Y-35776751D01*
X9642918Y-35776751D01*
X9862211Y-36145708D01*
X10206005Y-36402660D01*
X10313253Y-36447061D01*
X10480000Y-36428040D01*
X10480000Y-35610000D01*
X10880000Y-35610000D01*
X10880000Y-36428040D01*
X11046747Y-36447061D01*
X11153995Y-36402660D01*
X11497789Y-36145708D01*
X11717082Y-35776751D01*
X12182918Y-35776751D01*
X12402211Y-36145708D01*
X12746005Y-36402660D01*
X12853253Y-36447061D01*
X13020000Y-36428040D01*
X13020000Y-35610000D01*
X13420000Y-35610000D01*
X13420000Y-36428040D01*
X13586747Y-36447061D01*
X13693995Y-36402660D01*
X14037789Y-36145708D01*
X14257082Y-35776751D01*
X14239186Y-35610000D01*
X13420000Y-35610000D01*
X13020000Y-35610000D01*
X12200814Y-35610000D01*
X12182918Y-35776751D01*
X11717082Y-35776751D01*
X11699186Y-35610000D01*
X10880000Y-35610000D01*
X10480000Y-35610000D01*
X9660814Y-35610000D01*
X9642918Y-35776751D01*
X9177082Y-35776751D01*
X9159186Y-35610000D01*
X8340000Y-35610000D01*
X7940000Y-35610000D01*
X7120814Y-35610000D01*
X7102918Y-35776751D01*
X6637082Y-35776751D01*
X6619186Y-35610000D01*
X5800000Y-35610000D01*
X5400000Y-35610000D01*
X4580814Y-35610000D01*
X4562918Y-35776751D01*
X4160000Y-35776751D01*
X4160000Y-35672500D01*
X4097500Y-35610000D01*
X3260000Y-35610000D01*
X2860000Y-35610000D01*
X2022500Y-35610000D01*
X1960000Y-35672500D01*
X506000Y-35672500D01*
X506000Y-34510272D01*
X1960000Y-34510272D01*
X1960000Y-35147500D01*
X2022500Y-35210000D01*
X2860000Y-35210000D01*
X2860000Y-34372500D01*
X3260000Y-34372500D01*
X3260000Y-35210000D01*
X4097500Y-35210000D01*
X4160000Y-35147500D01*
X4160000Y-35043249D01*
X4562918Y-35043249D01*
X4580814Y-35210000D01*
X5400000Y-35210000D01*
X5400000Y-34391960D01*
X5800000Y-34391960D01*
X5800000Y-35210000D01*
X6619186Y-35210000D01*
X6637082Y-35043249D01*
X7102918Y-35043249D01*
X7120814Y-35210000D01*
X7940000Y-35210000D01*
X7940000Y-34391960D01*
X8340000Y-34391960D01*
X8340000Y-35210000D01*
X9159186Y-35210000D01*
X9177082Y-35043249D01*
X9642918Y-35043249D01*
X9660814Y-35210000D01*
X10480000Y-35210000D01*
X10480000Y-34391960D01*
X10880000Y-34391960D01*
X10880000Y-35210000D01*
X11699186Y-35210000D01*
X11717082Y-35043249D01*
X12182918Y-35043249D01*
X12200814Y-35210000D01*
X13020000Y-35210000D01*
X13020000Y-34391960D01*
X13420000Y-34391960D01*
X13420000Y-35210000D01*
X14239186Y-35210000D01*
X14257082Y-35043249D01*
X14037789Y-34674292D01*
X13884870Y-34560000D01*
X17010557Y-34560000D01*
X17010557Y-36260000D01*
X17040610Y-36419719D01*
X17135004Y-36566411D01*
X17279032Y-36664821D01*
X17450000Y-36699443D01*
X19150000Y-36699443D01*
X19309719Y-36669390D01*
X19456411Y-36574996D01*
X19554821Y-36430968D01*
X19589443Y-36260000D01*
X19589443Y-35588144D01*
X19656510Y-35925313D01*
X19934196Y-36340900D01*
X20349783Y-36618586D01*
X20840000Y-36716096D01*
X21330217Y-36618586D01*
X21745804Y-36340900D01*
X22023490Y-35925313D01*
X22110000Y-35490397D01*
X22196510Y-35925313D01*
X22474196Y-36340900D01*
X22889783Y-36618586D01*
X23380000Y-36716096D01*
X23870217Y-36618586D01*
X24285804Y-36340900D01*
X24563490Y-35925313D01*
X24650000Y-35490397D01*
X24736510Y-35925313D01*
X25014196Y-36340900D01*
X25429783Y-36618586D01*
X25920000Y-36716096D01*
X26410217Y-36618586D01*
X26825804Y-36340900D01*
X27103490Y-35925313D01*
X27190000Y-35490397D01*
X27276510Y-35925313D01*
X27554196Y-36340900D01*
X27969783Y-36618586D01*
X28460000Y-36716096D01*
X28950217Y-36618586D01*
X29365804Y-36340900D01*
X29643490Y-35925313D01*
X29730000Y-35490397D01*
X29816510Y-35925313D01*
X30094196Y-36340900D01*
X30509783Y-36618586D01*
X31000000Y-36716096D01*
X31490217Y-36618586D01*
X31905804Y-36340900D01*
X32183490Y-35925313D01*
X32270000Y-35490397D01*
X32356510Y-35925313D01*
X32634196Y-36340900D01*
X33049783Y-36618586D01*
X33540000Y-36716096D01*
X34030217Y-36618586D01*
X34445804Y-36340900D01*
X34723490Y-35925313D01*
X34810000Y-35490397D01*
X34896510Y-35925313D01*
X35174196Y-36340900D01*
X35589783Y-36618586D01*
X36080000Y-36716096D01*
X36570217Y-36618586D01*
X36985804Y-36340900D01*
X37263490Y-35925313D01*
X37350000Y-35490397D01*
X37436510Y-35925313D01*
X37714196Y-36340900D01*
X38129783Y-36618586D01*
X38620000Y-36716096D01*
X39110217Y-36618586D01*
X39525804Y-36340900D01*
X39803490Y-35925313D01*
X39890000Y-35490397D01*
X39976510Y-35925313D01*
X40254196Y-36340900D01*
X40669783Y-36618586D01*
X41160000Y-36716096D01*
X41650217Y-36618586D01*
X42065804Y-36340900D01*
X42343490Y-35925313D01*
X42430000Y-35490397D01*
X42516510Y-35925313D01*
X42794196Y-36340900D01*
X43209783Y-36618586D01*
X43700000Y-36716096D01*
X44190217Y-36618586D01*
X44605804Y-36340900D01*
X44883490Y-35925313D01*
X44970000Y-35490397D01*
X45056510Y-35925313D01*
X45334196Y-36340900D01*
X45749783Y-36618586D01*
X46240000Y-36716096D01*
X46730217Y-36618586D01*
X47145804Y-36340900D01*
X47423490Y-35925313D01*
X47510000Y-35490397D01*
X47596510Y-35925313D01*
X47874196Y-36340900D01*
X48289783Y-36618586D01*
X48780000Y-36716096D01*
X49270217Y-36618586D01*
X49685804Y-36340900D01*
X49963490Y-35925313D01*
X50050000Y-35490397D01*
X50136510Y-35925313D01*
X50414196Y-36340900D01*
X50829783Y-36618586D01*
X51320000Y-36716096D01*
X51810217Y-36618586D01*
X52225804Y-36340900D01*
X52503490Y-35925313D01*
X52590000Y-35490397D01*
X52676510Y-35925313D01*
X52954196Y-36340900D01*
X53369783Y-36618586D01*
X53860000Y-36716096D01*
X54350217Y-36618586D01*
X54765804Y-36340900D01*
X55043490Y-35925313D01*
X55130000Y-35490397D01*
X55216510Y-35925313D01*
X55494196Y-36340900D01*
X55909783Y-36618586D01*
X56400000Y-36716096D01*
X56890217Y-36618586D01*
X57305804Y-36340900D01*
X57583490Y-35925313D01*
X57670000Y-35490397D01*
X57756510Y-35925313D01*
X58034196Y-36340900D01*
X58449783Y-36618586D01*
X58940000Y-36716096D01*
X59430217Y-36618586D01*
X59845804Y-36340900D01*
X60123490Y-35925313D01*
X60210000Y-35490397D01*
X60296510Y-35925313D01*
X60574196Y-36340900D01*
X60989783Y-36618586D01*
X61480000Y-36716096D01*
X61970217Y-36618586D01*
X62385804Y-36340900D01*
X62663490Y-35925313D01*
X62750000Y-35490397D01*
X62836510Y-35925313D01*
X63114196Y-36340900D01*
X63529783Y-36618586D01*
X64020000Y-36716096D01*
X64510217Y-36618586D01*
X64925804Y-36340900D01*
X65203490Y-35925313D01*
X65290000Y-35490397D01*
X65376510Y-35925313D01*
X65654196Y-36340900D01*
X66069783Y-36618586D01*
X66560000Y-36716096D01*
X67050217Y-36618586D01*
X67465804Y-36340900D01*
X67743490Y-35925313D01*
X67830000Y-35490397D01*
X67916510Y-35925313D01*
X68194196Y-36340900D01*
X68609783Y-36618586D01*
X69100000Y-36716096D01*
X69590217Y-36618586D01*
X70005804Y-36340900D01*
X70283490Y-35925313D01*
X70370000Y-35490397D01*
X70456510Y-35925313D01*
X70734196Y-36340900D01*
X71149783Y-36618586D01*
X71640000Y-36716096D01*
X72130217Y-36618586D01*
X72545804Y-36340900D01*
X72823490Y-35925313D01*
X72910000Y-35490397D01*
X72996510Y-35925313D01*
X73274196Y-36340900D01*
X73689783Y-36618586D01*
X74180000Y-36716096D01*
X74670217Y-36618586D01*
X75085804Y-36340900D01*
X75363490Y-35925313D01*
X75450000Y-35490397D01*
X75536510Y-35925313D01*
X75814196Y-36340900D01*
X76229783Y-36618586D01*
X76720000Y-36716096D01*
X77210217Y-36618586D01*
X77625804Y-36340900D01*
X77903490Y-35925313D01*
X77990000Y-35490397D01*
X78076510Y-35925313D01*
X78354196Y-36340900D01*
X78769783Y-36618586D01*
X79260000Y-36716096D01*
X79750217Y-36618586D01*
X80165804Y-36340900D01*
X80443490Y-35925313D01*
X80530000Y-35490397D01*
X80616510Y-35925313D01*
X80894196Y-36340900D01*
X81309783Y-36618586D01*
X81800000Y-36716096D01*
X82290217Y-36618586D01*
X82705804Y-36340900D01*
X82983490Y-35925313D01*
X83070000Y-35490397D01*
X83156510Y-35925313D01*
X83434196Y-36340900D01*
X83849783Y-36618586D01*
X84340000Y-36716096D01*
X84830217Y-36618586D01*
X85245804Y-36340900D01*
X85523490Y-35925313D01*
X85610000Y-35490397D01*
X85696510Y-35925313D01*
X85974196Y-36340900D01*
X86389783Y-36618586D01*
X86880000Y-36716096D01*
X87370217Y-36618586D01*
X87785804Y-36340900D01*
X88063490Y-35925313D01*
X88150000Y-35490397D01*
X88236510Y-35925313D01*
X88514196Y-36340900D01*
X88929783Y-36618586D01*
X89420000Y-36716096D01*
X89910217Y-36618586D01*
X90325804Y-36340900D01*
X90603490Y-35925313D01*
X90690000Y-35490397D01*
X90776510Y-35925313D01*
X91054196Y-36340900D01*
X91469783Y-36618586D01*
X91960000Y-36716096D01*
X92450217Y-36618586D01*
X92865804Y-36340900D01*
X93143490Y-35925313D01*
X93230000Y-35490397D01*
X93316510Y-35925313D01*
X93594196Y-36340900D01*
X94009783Y-36618586D01*
X94500000Y-36716096D01*
X94990217Y-36618586D01*
X95405804Y-36340900D01*
X95683490Y-35925313D01*
X95770000Y-35490397D01*
X95856510Y-35925313D01*
X96134196Y-36340900D01*
X96549783Y-36618586D01*
X97040000Y-36716096D01*
X97530217Y-36618586D01*
X97945804Y-36340900D01*
X98223490Y-35925313D01*
X98321000Y-35435096D01*
X98321000Y-35384904D01*
X98223490Y-34894687D01*
X97945804Y-34479100D01*
X97530217Y-34201414D01*
X97221467Y-34140000D01*
X97530217Y-34078586D01*
X97945804Y-33800900D01*
X98223490Y-33385313D01*
X98321000Y-32895096D01*
X98321000Y-32844904D01*
X98223490Y-32354687D01*
X97945804Y-31939100D01*
X97530217Y-31661414D01*
X97040000Y-31563904D01*
X96549783Y-31661414D01*
X96134196Y-31939100D01*
X95856510Y-32354687D01*
X95770000Y-32789603D01*
X95683490Y-32354687D01*
X95405804Y-31939100D01*
X94990217Y-31661414D01*
X94500000Y-31563904D01*
X94009783Y-31661414D01*
X93594196Y-31939100D01*
X93316510Y-32354687D01*
X93230000Y-32789603D01*
X93143490Y-32354687D01*
X92865804Y-31939100D01*
X92450217Y-31661414D01*
X91960000Y-31563904D01*
X91469783Y-31661414D01*
X91054196Y-31939100D01*
X90776510Y-32354687D01*
X90690000Y-32789603D01*
X90603490Y-32354687D01*
X90325804Y-31939100D01*
X89910217Y-31661414D01*
X89420000Y-31563904D01*
X88929783Y-31661414D01*
X88514196Y-31939100D01*
X88236510Y-32354687D01*
X88150000Y-32789603D01*
X88063490Y-32354687D01*
X87785804Y-31939100D01*
X87370217Y-31661414D01*
X86880000Y-31563904D01*
X86389783Y-31661414D01*
X85974196Y-31939100D01*
X85696510Y-32354687D01*
X85610000Y-32789603D01*
X85523490Y-32354687D01*
X85245804Y-31939100D01*
X84830217Y-31661414D01*
X84340000Y-31563904D01*
X83849783Y-31661414D01*
X83434196Y-31939100D01*
X83156510Y-32354687D01*
X83070000Y-32789603D01*
X82983490Y-32354687D01*
X82705804Y-31939100D01*
X82290217Y-31661414D01*
X81800000Y-31563904D01*
X81309783Y-31661414D01*
X80894196Y-31939100D01*
X80616510Y-32354687D01*
X80530000Y-32789603D01*
X80443490Y-32354687D01*
X80165804Y-31939100D01*
X79750217Y-31661414D01*
X79260000Y-31563904D01*
X78769783Y-31661414D01*
X78354196Y-31939100D01*
X78076510Y-32354687D01*
X77990000Y-32789603D01*
X77903490Y-32354687D01*
X77625804Y-31939100D01*
X77210217Y-31661414D01*
X76720000Y-31563904D01*
X76229783Y-31661414D01*
X75814196Y-31939100D01*
X75536510Y-32354687D01*
X75450000Y-32789603D01*
X75363490Y-32354687D01*
X75085804Y-31939100D01*
X74670217Y-31661414D01*
X74180000Y-31563904D01*
X73689783Y-31661414D01*
X73274196Y-31939100D01*
X72996510Y-32354687D01*
X72910000Y-32789603D01*
X72823490Y-32354687D01*
X72545804Y-31939100D01*
X72130217Y-31661414D01*
X71640000Y-31563904D01*
X71149783Y-31661414D01*
X70734196Y-31939100D01*
X70456510Y-32354687D01*
X70370000Y-32789603D01*
X70283490Y-32354687D01*
X70005804Y-31939100D01*
X69590217Y-31661414D01*
X69100000Y-31563904D01*
X68609783Y-31661414D01*
X68194196Y-31939100D01*
X67916510Y-32354687D01*
X67830000Y-32789603D01*
X67743490Y-32354687D01*
X67465804Y-31939100D01*
X67050217Y-31661414D01*
X66560000Y-31563904D01*
X66069783Y-31661414D01*
X65654196Y-31939100D01*
X65376510Y-32354687D01*
X65290000Y-32789603D01*
X65203490Y-32354687D01*
X64925804Y-31939100D01*
X64510217Y-31661414D01*
X64020000Y-31563904D01*
X63529783Y-31661414D01*
X63114196Y-31939100D01*
X62836510Y-32354687D01*
X62750000Y-32789603D01*
X62663490Y-32354687D01*
X62385804Y-31939100D01*
X61970217Y-31661414D01*
X61480000Y-31563904D01*
X60989783Y-31661414D01*
X60574196Y-31939100D01*
X60296510Y-32354687D01*
X60210000Y-32789603D01*
X60123490Y-32354687D01*
X59845804Y-31939100D01*
X59430217Y-31661414D01*
X58940000Y-31563904D01*
X58449783Y-31661414D01*
X58034196Y-31939100D01*
X57756510Y-32354687D01*
X57670000Y-32789603D01*
X57583490Y-32354687D01*
X57305804Y-31939100D01*
X56890217Y-31661414D01*
X56400000Y-31563904D01*
X55909783Y-31661414D01*
X55494196Y-31939100D01*
X55216510Y-32354687D01*
X55130000Y-32789603D01*
X55043490Y-32354687D01*
X54765804Y-31939100D01*
X54350217Y-31661414D01*
X53860000Y-31563904D01*
X53369783Y-31661414D01*
X52954196Y-31939100D01*
X52676510Y-32354687D01*
X52590000Y-32789603D01*
X52503490Y-32354687D01*
X52225804Y-31939100D01*
X51810217Y-31661414D01*
X51320000Y-31563904D01*
X50829783Y-31661414D01*
X50414196Y-31939100D01*
X50136510Y-32354687D01*
X50050000Y-32789603D01*
X49963490Y-32354687D01*
X49685804Y-31939100D01*
X49270217Y-31661414D01*
X48780000Y-31563904D01*
X48289783Y-31661414D01*
X47874196Y-31939100D01*
X47596510Y-32354687D01*
X47510000Y-32789603D01*
X47423490Y-32354687D01*
X47145804Y-31939100D01*
X46730217Y-31661414D01*
X46240000Y-31563904D01*
X45749783Y-31661414D01*
X45334196Y-31939100D01*
X45056510Y-32354687D01*
X44970000Y-32789603D01*
X44883490Y-32354687D01*
X44605804Y-31939100D01*
X44190217Y-31661414D01*
X43700000Y-31563904D01*
X43209783Y-31661414D01*
X42794196Y-31939100D01*
X42516510Y-32354687D01*
X42430000Y-32789603D01*
X42343490Y-32354687D01*
X42065804Y-31939100D01*
X41650217Y-31661414D01*
X41160000Y-31563904D01*
X40669783Y-31661414D01*
X40254196Y-31939100D01*
X39976510Y-32354687D01*
X39890000Y-32789603D01*
X39803490Y-32354687D01*
X39525804Y-31939100D01*
X39110217Y-31661414D01*
X38620000Y-31563904D01*
X38129783Y-31661414D01*
X37714196Y-31939100D01*
X37436510Y-32354687D01*
X37350000Y-32789603D01*
X37263490Y-32354687D01*
X36985804Y-31939100D01*
X36570217Y-31661414D01*
X36080000Y-31563904D01*
X35589783Y-31661414D01*
X35174196Y-31939100D01*
X34896510Y-32354687D01*
X34810000Y-32789603D01*
X34723490Y-32354687D01*
X34445804Y-31939100D01*
X34030217Y-31661414D01*
X33540000Y-31563904D01*
X33049783Y-31661414D01*
X32634196Y-31939100D01*
X32356510Y-32354687D01*
X32270000Y-32789603D01*
X32183490Y-32354687D01*
X31905804Y-31939100D01*
X31490217Y-31661414D01*
X31000000Y-31563904D01*
X30509783Y-31661414D01*
X30094196Y-31939100D01*
X29816510Y-32354687D01*
X29730000Y-32789603D01*
X29643490Y-32354687D01*
X29365804Y-31939100D01*
X28950217Y-31661414D01*
X28460000Y-31563904D01*
X27969783Y-31661414D01*
X27554196Y-31939100D01*
X27276510Y-32354687D01*
X27190000Y-32789603D01*
X27103490Y-32354687D01*
X26825804Y-31939100D01*
X26410217Y-31661414D01*
X25920000Y-31563904D01*
X25429783Y-31661414D01*
X25014196Y-31939100D01*
X24736510Y-32354687D01*
X24650000Y-32789603D01*
X24563490Y-32354687D01*
X24285804Y-31939100D01*
X23870217Y-31661414D01*
X23380000Y-31563904D01*
X22889783Y-31661414D01*
X22474196Y-31939100D01*
X22196510Y-32354687D01*
X22110000Y-32789603D01*
X22023490Y-32354687D01*
X21745804Y-31939100D01*
X21330217Y-31661414D01*
X20840000Y-31563904D01*
X20349783Y-31661414D01*
X19934196Y-31939100D01*
X19656510Y-32354687D01*
X19570000Y-32789603D01*
X19483490Y-32354687D01*
X19205804Y-31939100D01*
X18790217Y-31661414D01*
X18300000Y-31563904D01*
X17809783Y-31661414D01*
X17394196Y-31939100D01*
X17116510Y-32354687D01*
X17019000Y-32844904D01*
X17019000Y-32895096D01*
X17116510Y-33385313D01*
X17394196Y-33800900D01*
X17809783Y-34078586D01*
X18020786Y-34120557D01*
X17450000Y-34120557D01*
X17290281Y-34150610D01*
X17143589Y-34245004D01*
X17045179Y-34389032D01*
X17010557Y-34560000D01*
X13884870Y-34560000D01*
X13693995Y-34417340D01*
X13586747Y-34372939D01*
X13420000Y-34391960D01*
X13020000Y-34391960D01*
X12853253Y-34372939D01*
X12746005Y-34417340D01*
X12402211Y-34674292D01*
X12182918Y-35043249D01*
X11717082Y-35043249D01*
X11497789Y-34674292D01*
X11153995Y-34417340D01*
X11046747Y-34372939D01*
X10880000Y-34391960D01*
X10480000Y-34391960D01*
X10313253Y-34372939D01*
X10206005Y-34417340D01*
X9862211Y-34674292D01*
X9642918Y-35043249D01*
X9177082Y-35043249D01*
X8957789Y-34674292D01*
X8613995Y-34417340D01*
X8506747Y-34372939D01*
X8340000Y-34391960D01*
X7940000Y-34391960D01*
X7773253Y-34372939D01*
X7666005Y-34417340D01*
X7322211Y-34674292D01*
X7102918Y-35043249D01*
X6637082Y-35043249D01*
X6417789Y-34674292D01*
X6073995Y-34417340D01*
X5966747Y-34372939D01*
X5800000Y-34391960D01*
X5400000Y-34391960D01*
X5233253Y-34372939D01*
X5126005Y-34417340D01*
X4782211Y-34674292D01*
X4562918Y-35043249D01*
X4160000Y-35043249D01*
X4160000Y-34510272D01*
X4121940Y-34418386D01*
X4051614Y-34348060D01*
X3959728Y-34310000D01*
X3322500Y-34310000D01*
X3260000Y-34372500D01*
X2860000Y-34372500D01*
X2797500Y-34310000D01*
X2160272Y-34310000D01*
X2068386Y-34348060D01*
X1998060Y-34418386D01*
X1960000Y-34510272D01*
X506000Y-34510272D01*
X506000Y-33236751D01*
X2022918Y-33236751D01*
X2242211Y-33605708D01*
X2586005Y-33862660D01*
X2693253Y-33907061D01*
X2860000Y-33888040D01*
X2860000Y-33070000D01*
X3260000Y-33070000D01*
X3260000Y-33888040D01*
X3426747Y-33907061D01*
X3533995Y-33862660D01*
X3877789Y-33605708D01*
X4097082Y-33236751D01*
X4562918Y-33236751D01*
X4782211Y-33605708D01*
X5126005Y-33862660D01*
X5233253Y-33907061D01*
X5400000Y-33888040D01*
X5400000Y-33070000D01*
X5800000Y-33070000D01*
X5800000Y-33888040D01*
X5966747Y-33907061D01*
X6073995Y-33862660D01*
X6417789Y-33605708D01*
X6637082Y-33236751D01*
X7102918Y-33236751D01*
X7322211Y-33605708D01*
X7666005Y-33862660D01*
X7773253Y-33907061D01*
X7940000Y-33888040D01*
X7940000Y-33070000D01*
X8340000Y-33070000D01*
X8340000Y-33888040D01*
X8506747Y-33907061D01*
X8613995Y-33862660D01*
X8957789Y-33605708D01*
X9177082Y-33236751D01*
X9642918Y-33236751D01*
X9862211Y-33605708D01*
X10206005Y-33862660D01*
X10313253Y-33907061D01*
X10480000Y-33888040D01*
X10480000Y-33070000D01*
X10880000Y-33070000D01*
X10880000Y-33888040D01*
X11046747Y-33907061D01*
X11153995Y-33862660D01*
X11497789Y-33605708D01*
X11717082Y-33236751D01*
X12182918Y-33236751D01*
X12402211Y-33605708D01*
X12746005Y-33862660D01*
X12853253Y-33907061D01*
X13020000Y-33888040D01*
X13020000Y-33070000D01*
X13420000Y-33070000D01*
X13420000Y-33888040D01*
X13586747Y-33907061D01*
X13693995Y-33862660D01*
X14037789Y-33605708D01*
X14257082Y-33236751D01*
X14239186Y-33070000D01*
X13420000Y-33070000D01*
X13020000Y-33070000D01*
X12200814Y-33070000D01*
X12182918Y-33236751D01*
X11717082Y-33236751D01*
X11699186Y-33070000D01*
X10880000Y-33070000D01*
X10480000Y-33070000D01*
X9660814Y-33070000D01*
X9642918Y-33236751D01*
X9177082Y-33236751D01*
X9159186Y-33070000D01*
X8340000Y-33070000D01*
X7940000Y-33070000D01*
X7120814Y-33070000D01*
X7102918Y-33236751D01*
X6637082Y-33236751D01*
X6619186Y-33070000D01*
X5800000Y-33070000D01*
X5400000Y-33070000D01*
X4580814Y-33070000D01*
X4562918Y-33236751D01*
X4097082Y-33236751D01*
X4079186Y-33070000D01*
X3260000Y-33070000D01*
X2860000Y-33070000D01*
X2040814Y-33070000D01*
X2022918Y-33236751D01*
X506000Y-33236751D01*
X506000Y-32503249D01*
X2022918Y-32503249D01*
X2040814Y-32670000D01*
X2860000Y-32670000D01*
X2860000Y-31851960D01*
X3260000Y-31851960D01*
X3260000Y-32670000D01*
X4079186Y-32670000D01*
X4097082Y-32503249D01*
X4562918Y-32503249D01*
X4580814Y-32670000D01*
X5400000Y-32670000D01*
X5400000Y-31851960D01*
X5800000Y-31851960D01*
X5800000Y-32670000D01*
X6619186Y-32670000D01*
X6637082Y-32503249D01*
X7102918Y-32503249D01*
X7120814Y-32670000D01*
X7940000Y-32670000D01*
X7940000Y-31851960D01*
X8340000Y-31851960D01*
X8340000Y-32670000D01*
X9159186Y-32670000D01*
X9177082Y-32503249D01*
X9642918Y-32503249D01*
X9660814Y-32670000D01*
X10480000Y-32670000D01*
X10480000Y-31851960D01*
X10880000Y-31851960D01*
X10880000Y-32670000D01*
X11699186Y-32670000D01*
X11717082Y-32503249D01*
X12182918Y-32503249D01*
X12200814Y-32670000D01*
X13020000Y-32670000D01*
X13020000Y-31851960D01*
X13420000Y-31851960D01*
X13420000Y-32670000D01*
X14239186Y-32670000D01*
X14257082Y-32503249D01*
X14037789Y-32134292D01*
X13693995Y-31877340D01*
X13586747Y-31832939D01*
X13420000Y-31851960D01*
X13020000Y-31851960D01*
X12853253Y-31832939D01*
X12746005Y-31877340D01*
X12402211Y-32134292D01*
X12182918Y-32503249D01*
X11717082Y-32503249D01*
X11497789Y-32134292D01*
X11153995Y-31877340D01*
X11046747Y-31832939D01*
X10880000Y-31851960D01*
X10480000Y-31851960D01*
X10313253Y-31832939D01*
X10206005Y-31877340D01*
X9862211Y-32134292D01*
X9642918Y-32503249D01*
X9177082Y-32503249D01*
X8957789Y-32134292D01*
X8613995Y-31877340D01*
X8506747Y-31832939D01*
X8340000Y-31851960D01*
X7940000Y-31851960D01*
X7773253Y-31832939D01*
X7666005Y-31877340D01*
X7322211Y-32134292D01*
X7102918Y-32503249D01*
X6637082Y-32503249D01*
X6417789Y-32134292D01*
X6073995Y-31877340D01*
X5966747Y-31832939D01*
X5800000Y-31851960D01*
X5400000Y-31851960D01*
X5233253Y-31832939D01*
X5126005Y-31877340D01*
X4782211Y-32134292D01*
X4562918Y-32503249D01*
X4097082Y-32503249D01*
X3877789Y-32134292D01*
X3533995Y-31877340D01*
X3426747Y-31832939D01*
X3260000Y-31851960D01*
X2860000Y-31851960D01*
X2693253Y-31832939D01*
X2586005Y-31877340D01*
X2242211Y-32134292D01*
X2022918Y-32503249D01*
X506000Y-32503249D01*
X506000Y-22139866D01*
X768440Y-22139866D01*
X1259294Y-23327823D01*
X2167396Y-24237511D01*
X3354495Y-24730438D01*
X4639866Y-24731560D01*
X5827823Y-24240706D01*
X6737511Y-23332604D01*
X7230438Y-22145505D01*
X7230442Y-22139866D01*
X92768440Y-22139866D01*
X93259294Y-23327823D01*
X94167396Y-24237511D01*
X95354495Y-24730438D01*
X96639866Y-24731560D01*
X97827823Y-24240706D01*
X98737511Y-23332604D01*
X99230438Y-22145505D01*
X99231560Y-20860134D01*
X98740706Y-19672177D01*
X97832604Y-18762489D01*
X96645505Y-18269562D01*
X95360134Y-18268440D01*
X94172177Y-18759294D01*
X93262489Y-19667396D01*
X92769562Y-20854495D01*
X92768440Y-22139866D01*
X7230442Y-22139866D01*
X7231560Y-20860134D01*
X6740706Y-19672177D01*
X5832604Y-18762489D01*
X4645505Y-18269562D01*
X3360134Y-18268440D01*
X2172177Y-18759294D01*
X1262489Y-19667396D01*
X769562Y-20854495D01*
X768440Y-22139866D01*
X506000Y-22139866D01*
X506000Y-3049835D01*
X705002Y-2049382D01*
X1243485Y-1243486D01*
X2049383Y-705002D01*
X3049835Y-506000D01*
X96950165Y-506000D01*
X97950618Y-705002D01*
X97950618Y-705002D01*
G37*
X97950618Y-705002D02*
X98756514Y-1243485D01*
X99294998Y-2049383D01*
X99494000Y-3049835D01*
X99494000Y-41950165D01*
X99294998Y-42950617D01*
X98756514Y-43756515D01*
X97950618Y-44294998D01*
X96950165Y-44494000D01*
X3049835Y-44494000D01*
X2049383Y-44294998D01*
X1243485Y-43756514D01*
X705002Y-42950618D01*
X506000Y-41950165D01*
X506000Y-41639866D01*
X768440Y-41639866D01*
X1259294Y-42827823D01*
X2167396Y-43737511D01*
X3354495Y-44230438D01*
X4639866Y-44231560D01*
X5827823Y-43740706D01*
X6737511Y-42832604D01*
X7230438Y-41645505D01*
X7230442Y-41639866D01*
X92768440Y-41639866D01*
X93259294Y-42827823D01*
X94167396Y-43737511D01*
X95354495Y-44230438D01*
X96639866Y-44231560D01*
X97827823Y-43740706D01*
X98737511Y-42832604D01*
X99230438Y-41645505D01*
X99231560Y-40360134D01*
X98740706Y-39172177D01*
X97832604Y-38262489D01*
X96645505Y-37769562D01*
X95360134Y-37768440D01*
X94172177Y-38259294D01*
X93262489Y-39167396D01*
X92769562Y-40354495D01*
X92768440Y-41639866D01*
X7230442Y-41639866D01*
X7231560Y-40360134D01*
X6740706Y-39172177D01*
X5832604Y-38262489D01*
X4645505Y-37769562D01*
X3360134Y-37768440D01*
X2172177Y-38259294D01*
X1262489Y-39167396D01*
X769562Y-40354495D01*
X768440Y-41639866D01*
X506000Y-41639866D01*
X506000Y-35672500D01*
X1960000Y-35672500D01*
X1960000Y-36309728D01*
X1998060Y-36401614D01*
X2068386Y-36471940D01*
X2160272Y-36510000D01*
X2797500Y-36510000D01*
X2860000Y-36447500D01*
X2860000Y-35610000D01*
X3260000Y-35610000D01*
X3260000Y-36447500D01*
X3322500Y-36510000D01*
X3959728Y-36510000D01*
X4051614Y-36471940D01*
X4121940Y-36401614D01*
X4160000Y-36309728D01*
X4160000Y-35776751D01*
X4562918Y-35776751D01*
X4782211Y-36145708D01*
X5126005Y-36402660D01*
X5233253Y-36447061D01*
X5400000Y-36428040D01*
X5400000Y-35610000D01*
X5800000Y-35610000D01*
X5800000Y-36428040D01*
X5966747Y-36447061D01*
X6073995Y-36402660D01*
X6417789Y-36145708D01*
X6637082Y-35776751D01*
X7102918Y-35776751D01*
X7322211Y-36145708D01*
X7666005Y-36402660D01*
X7773253Y-36447061D01*
X7940000Y-36428040D01*
X7940000Y-35610000D01*
X8340000Y-35610000D01*
X8340000Y-36428040D01*
X8506747Y-36447061D01*
X8613995Y-36402660D01*
X8957789Y-36145708D01*
X9177082Y-35776751D01*
X9642918Y-35776751D01*
X9862211Y-36145708D01*
X10206005Y-36402660D01*
X10313253Y-36447061D01*
X10480000Y-36428040D01*
X10480000Y-35610000D01*
X10880000Y-35610000D01*
X10880000Y-36428040D01*
X11046747Y-36447061D01*
X11153995Y-36402660D01*
X11497789Y-36145708D01*
X11717082Y-35776751D01*
X12182918Y-35776751D01*
X12402211Y-36145708D01*
X12746005Y-36402660D01*
X12853253Y-36447061D01*
X13020000Y-36428040D01*
X13020000Y-35610000D01*
X13420000Y-35610000D01*
X13420000Y-36428040D01*
X13586747Y-36447061D01*
X13693995Y-36402660D01*
X14037789Y-36145708D01*
X14257082Y-35776751D01*
X14239186Y-35610000D01*
X13420000Y-35610000D01*
X13020000Y-35610000D01*
X12200814Y-35610000D01*
X12182918Y-35776751D01*
X11717082Y-35776751D01*
X11699186Y-35610000D01*
X10880000Y-35610000D01*
X10480000Y-35610000D01*
X9660814Y-35610000D01*
X9642918Y-35776751D01*
X9177082Y-35776751D01*
X9159186Y-35610000D01*
X8340000Y-35610000D01*
X7940000Y-35610000D01*
X7120814Y-35610000D01*
X7102918Y-35776751D01*
X6637082Y-35776751D01*
X6619186Y-35610000D01*
X5800000Y-35610000D01*
X5400000Y-35610000D01*
X4580814Y-35610000D01*
X4562918Y-35776751D01*
X4160000Y-35776751D01*
X4160000Y-35672500D01*
X4097500Y-35610000D01*
X3260000Y-35610000D01*
X2860000Y-35610000D01*
X2022500Y-35610000D01*
X1960000Y-35672500D01*
X506000Y-35672500D01*
X506000Y-34510272D01*
X1960000Y-34510272D01*
X1960000Y-35147500D01*
X2022500Y-35210000D01*
X2860000Y-35210000D01*
X2860000Y-34372500D01*
X3260000Y-34372500D01*
X3260000Y-35210000D01*
X4097500Y-35210000D01*
X4160000Y-35147500D01*
X4160000Y-35043249D01*
X4562918Y-35043249D01*
X4580814Y-35210000D01*
X5400000Y-35210000D01*
X5400000Y-34391960D01*
X5800000Y-34391960D01*
X5800000Y-35210000D01*
X6619186Y-35210000D01*
X6637082Y-35043249D01*
X7102918Y-35043249D01*
X7120814Y-35210000D01*
X7940000Y-35210000D01*
X7940000Y-34391960D01*
X8340000Y-34391960D01*
X8340000Y-35210000D01*
X9159186Y-35210000D01*
X9177082Y-35043249D01*
X9642918Y-35043249D01*
X9660814Y-35210000D01*
X10480000Y-35210000D01*
X10480000Y-34391960D01*
X10880000Y-34391960D01*
X10880000Y-35210000D01*
X11699186Y-35210000D01*
X11717082Y-35043249D01*
X12182918Y-35043249D01*
X12200814Y-35210000D01*
X13020000Y-35210000D01*
X13020000Y-34391960D01*
X13420000Y-34391960D01*
X13420000Y-35210000D01*
X14239186Y-35210000D01*
X14257082Y-35043249D01*
X14037789Y-34674292D01*
X13884870Y-34560000D01*
X17010557Y-34560000D01*
X17010557Y-36260000D01*
X17040610Y-36419719D01*
X17135004Y-36566411D01*
X17279032Y-36664821D01*
X17450000Y-36699443D01*
X19150000Y-36699443D01*
X19309719Y-36669390D01*
X19456411Y-36574996D01*
X19554821Y-36430968D01*
X19589443Y-36260000D01*
X19589443Y-35588144D01*
X19656510Y-35925313D01*
X19934196Y-36340900D01*
X20349783Y-36618586D01*
X20840000Y-36716096D01*
X21330217Y-36618586D01*
X21745804Y-36340900D01*
X22023490Y-35925313D01*
X22110000Y-35490397D01*
X22196510Y-35925313D01*
X22474196Y-36340900D01*
X22889783Y-36618586D01*
X23380000Y-36716096D01*
X23870217Y-36618586D01*
X24285804Y-36340900D01*
X24563490Y-35925313D01*
X24650000Y-35490397D01*
X24736510Y-35925313D01*
X25014196Y-36340900D01*
X25429783Y-36618586D01*
X25920000Y-36716096D01*
X26410217Y-36618586D01*
X26825804Y-36340900D01*
X27103490Y-35925313D01*
X27190000Y-35490397D01*
X27276510Y-35925313D01*
X27554196Y-36340900D01*
X27969783Y-36618586D01*
X28460000Y-36716096D01*
X28950217Y-36618586D01*
X29365804Y-36340900D01*
X29643490Y-35925313D01*
X29730000Y-35490397D01*
X29816510Y-35925313D01*
X30094196Y-36340900D01*
X30509783Y-36618586D01*
X31000000Y-36716096D01*
X31490217Y-36618586D01*
X31905804Y-36340900D01*
X32183490Y-35925313D01*
X32270000Y-35490397D01*
X32356510Y-35925313D01*
X32634196Y-36340900D01*
X33049783Y-36618586D01*
X33540000Y-36716096D01*
X34030217Y-36618586D01*
X34445804Y-36340900D01*
X34723490Y-35925313D01*
X34810000Y-35490397D01*
X34896510Y-35925313D01*
X35174196Y-36340900D01*
X35589783Y-36618586D01*
X36080000Y-36716096D01*
X36570217Y-36618586D01*
X36985804Y-36340900D01*
X37263490Y-35925313D01*
X37350000Y-35490397D01*
X37436510Y-35925313D01*
X37714196Y-36340900D01*
X38129783Y-36618586D01*
X38620000Y-36716096D01*
X39110217Y-36618586D01*
X39525804Y-36340900D01*
X39803490Y-35925313D01*
X39890000Y-35490397D01*
X39976510Y-35925313D01*
X40254196Y-36340900D01*
X40669783Y-36618586D01*
X41160000Y-36716096D01*
X41650217Y-36618586D01*
X42065804Y-36340900D01*
X42343490Y-35925313D01*
X42430000Y-35490397D01*
X42516510Y-35925313D01*
X42794196Y-36340900D01*
X43209783Y-36618586D01*
X43700000Y-36716096D01*
X44190217Y-36618586D01*
X44605804Y-36340900D01*
X44883490Y-35925313D01*
X44970000Y-35490397D01*
X45056510Y-35925313D01*
X45334196Y-36340900D01*
X45749783Y-36618586D01*
X46240000Y-36716096D01*
X46730217Y-36618586D01*
X47145804Y-36340900D01*
X47423490Y-35925313D01*
X47510000Y-35490397D01*
X47596510Y-35925313D01*
X47874196Y-36340900D01*
X48289783Y-36618586D01*
X48780000Y-36716096D01*
X49270217Y-36618586D01*
X49685804Y-36340900D01*
X49963490Y-35925313D01*
X50050000Y-35490397D01*
X50136510Y-35925313D01*
X50414196Y-36340900D01*
X50829783Y-36618586D01*
X51320000Y-36716096D01*
X51810217Y-36618586D01*
X52225804Y-36340900D01*
X52503490Y-35925313D01*
X52590000Y-35490397D01*
X52676510Y-35925313D01*
X52954196Y-36340900D01*
X53369783Y-36618586D01*
X53860000Y-36716096D01*
X54350217Y-36618586D01*
X54765804Y-36340900D01*
X55043490Y-35925313D01*
X55130000Y-35490397D01*
X55216510Y-35925313D01*
X55494196Y-36340900D01*
X55909783Y-36618586D01*
X56400000Y-36716096D01*
X56890217Y-36618586D01*
X57305804Y-36340900D01*
X57583490Y-35925313D01*
X57670000Y-35490397D01*
X57756510Y-35925313D01*
X58034196Y-36340900D01*
X58449783Y-36618586D01*
X58940000Y-36716096D01*
X59430217Y-36618586D01*
X59845804Y-36340900D01*
X60123490Y-35925313D01*
X60210000Y-35490397D01*
X60296510Y-35925313D01*
X60574196Y-36340900D01*
X60989783Y-36618586D01*
X61480000Y-36716096D01*
X61970217Y-36618586D01*
X62385804Y-36340900D01*
X62663490Y-35925313D01*
X62750000Y-35490397D01*
X62836510Y-35925313D01*
X63114196Y-36340900D01*
X63529783Y-36618586D01*
X64020000Y-36716096D01*
X64510217Y-36618586D01*
X64925804Y-36340900D01*
X65203490Y-35925313D01*
X65290000Y-35490397D01*
X65376510Y-35925313D01*
X65654196Y-36340900D01*
X66069783Y-36618586D01*
X66560000Y-36716096D01*
X67050217Y-36618586D01*
X67465804Y-36340900D01*
X67743490Y-35925313D01*
X67830000Y-35490397D01*
X67916510Y-35925313D01*
X68194196Y-36340900D01*
X68609783Y-36618586D01*
X69100000Y-36716096D01*
X69590217Y-36618586D01*
X70005804Y-36340900D01*
X70283490Y-35925313D01*
X70370000Y-35490397D01*
X70456510Y-35925313D01*
X70734196Y-36340900D01*
X71149783Y-36618586D01*
X71640000Y-36716096D01*
X72130217Y-36618586D01*
X72545804Y-36340900D01*
X72823490Y-35925313D01*
X72910000Y-35490397D01*
X72996510Y-35925313D01*
X73274196Y-36340900D01*
X73689783Y-36618586D01*
X74180000Y-36716096D01*
X74670217Y-36618586D01*
X75085804Y-36340900D01*
X75363490Y-35925313D01*
X75450000Y-35490397D01*
X75536510Y-35925313D01*
X75814196Y-36340900D01*
X76229783Y-36618586D01*
X76720000Y-36716096D01*
X77210217Y-36618586D01*
X77625804Y-36340900D01*
X77903490Y-35925313D01*
X77990000Y-35490397D01*
X78076510Y-35925313D01*
X78354196Y-36340900D01*
X78769783Y-36618586D01*
X79260000Y-36716096D01*
X79750217Y-36618586D01*
X80165804Y-36340900D01*
X80443490Y-35925313D01*
X80530000Y-35490397D01*
X80616510Y-35925313D01*
X80894196Y-36340900D01*
X81309783Y-36618586D01*
X81800000Y-36716096D01*
X82290217Y-36618586D01*
X82705804Y-36340900D01*
X82983490Y-35925313D01*
X83070000Y-35490397D01*
X83156510Y-35925313D01*
X83434196Y-36340900D01*
X83849783Y-36618586D01*
X84340000Y-36716096D01*
X84830217Y-36618586D01*
X85245804Y-36340900D01*
X85523490Y-35925313D01*
X85610000Y-35490397D01*
X85696510Y-35925313D01*
X85974196Y-36340900D01*
X86389783Y-36618586D01*
X86880000Y-36716096D01*
X87370217Y-36618586D01*
X87785804Y-36340900D01*
X88063490Y-35925313D01*
X88150000Y-35490397D01*
X88236510Y-35925313D01*
X88514196Y-36340900D01*
X88929783Y-36618586D01*
X89420000Y-36716096D01*
X89910217Y-36618586D01*
X90325804Y-36340900D01*
X90603490Y-35925313D01*
X90690000Y-35490397D01*
X90776510Y-35925313D01*
X91054196Y-36340900D01*
X91469783Y-36618586D01*
X91960000Y-36716096D01*
X92450217Y-36618586D01*
X92865804Y-36340900D01*
X93143490Y-35925313D01*
X93230000Y-35490397D01*
X93316510Y-35925313D01*
X93594196Y-36340900D01*
X94009783Y-36618586D01*
X94500000Y-36716096D01*
X94990217Y-36618586D01*
X95405804Y-36340900D01*
X95683490Y-35925313D01*
X95770000Y-35490397D01*
X95856510Y-35925313D01*
X96134196Y-36340900D01*
X96549783Y-36618586D01*
X97040000Y-36716096D01*
X97530217Y-36618586D01*
X97945804Y-36340900D01*
X98223490Y-35925313D01*
X98321000Y-35435096D01*
X98321000Y-35384904D01*
X98223490Y-34894687D01*
X97945804Y-34479100D01*
X97530217Y-34201414D01*
X97221467Y-34140000D01*
X97530217Y-34078586D01*
X97945804Y-33800900D01*
X98223490Y-33385313D01*
X98321000Y-32895096D01*
X98321000Y-32844904D01*
X98223490Y-32354687D01*
X97945804Y-31939100D01*
X97530217Y-31661414D01*
X97040000Y-31563904D01*
X96549783Y-31661414D01*
X96134196Y-31939100D01*
X95856510Y-32354687D01*
X95770000Y-32789603D01*
X95683490Y-32354687D01*
X95405804Y-31939100D01*
X94990217Y-31661414D01*
X94500000Y-31563904D01*
X94009783Y-31661414D01*
X93594196Y-31939100D01*
X93316510Y-32354687D01*
X93230000Y-32789603D01*
X93143490Y-32354687D01*
X92865804Y-31939100D01*
X92450217Y-31661414D01*
X91960000Y-31563904D01*
X91469783Y-31661414D01*
X91054196Y-31939100D01*
X90776510Y-32354687D01*
X90690000Y-32789603D01*
X90603490Y-32354687D01*
X90325804Y-31939100D01*
X89910217Y-31661414D01*
X89420000Y-31563904D01*
X88929783Y-31661414D01*
X88514196Y-31939100D01*
X88236510Y-32354687D01*
X88150000Y-32789603D01*
X88063490Y-32354687D01*
X87785804Y-31939100D01*
X87370217Y-31661414D01*
X86880000Y-31563904D01*
X86389783Y-31661414D01*
X85974196Y-31939100D01*
X85696510Y-32354687D01*
X85610000Y-32789603D01*
X85523490Y-32354687D01*
X85245804Y-31939100D01*
X84830217Y-31661414D01*
X84340000Y-31563904D01*
X83849783Y-31661414D01*
X83434196Y-31939100D01*
X83156510Y-32354687D01*
X83070000Y-32789603D01*
X82983490Y-32354687D01*
X82705804Y-31939100D01*
X82290217Y-31661414D01*
X81800000Y-31563904D01*
X81309783Y-31661414D01*
X80894196Y-31939100D01*
X80616510Y-32354687D01*
X80530000Y-32789603D01*
X80443490Y-32354687D01*
X80165804Y-31939100D01*
X79750217Y-31661414D01*
X79260000Y-31563904D01*
X78769783Y-31661414D01*
X78354196Y-31939100D01*
X78076510Y-32354687D01*
X77990000Y-32789603D01*
X77903490Y-32354687D01*
X77625804Y-31939100D01*
X77210217Y-31661414D01*
X76720000Y-31563904D01*
X76229783Y-31661414D01*
X75814196Y-31939100D01*
X75536510Y-32354687D01*
X75450000Y-32789603D01*
X75363490Y-32354687D01*
X75085804Y-31939100D01*
X74670217Y-31661414D01*
X74180000Y-31563904D01*
X73689783Y-31661414D01*
X73274196Y-31939100D01*
X72996510Y-32354687D01*
X72910000Y-32789603D01*
X72823490Y-32354687D01*
X72545804Y-31939100D01*
X72130217Y-31661414D01*
X71640000Y-31563904D01*
X71149783Y-31661414D01*
X70734196Y-31939100D01*
X70456510Y-32354687D01*
X70370000Y-32789603D01*
X70283490Y-32354687D01*
X70005804Y-31939100D01*
X69590217Y-31661414D01*
X69100000Y-31563904D01*
X68609783Y-31661414D01*
X68194196Y-31939100D01*
X67916510Y-32354687D01*
X67830000Y-32789603D01*
X67743490Y-32354687D01*
X67465804Y-31939100D01*
X67050217Y-31661414D01*
X66560000Y-31563904D01*
X66069783Y-31661414D01*
X65654196Y-31939100D01*
X65376510Y-32354687D01*
X65290000Y-32789603D01*
X65203490Y-32354687D01*
X64925804Y-31939100D01*
X64510217Y-31661414D01*
X64020000Y-31563904D01*
X63529783Y-31661414D01*
X63114196Y-31939100D01*
X62836510Y-32354687D01*
X62750000Y-32789603D01*
X62663490Y-32354687D01*
X62385804Y-31939100D01*
X61970217Y-31661414D01*
X61480000Y-31563904D01*
X60989783Y-31661414D01*
X60574196Y-31939100D01*
X60296510Y-32354687D01*
X60210000Y-32789603D01*
X60123490Y-32354687D01*
X59845804Y-31939100D01*
X59430217Y-31661414D01*
X58940000Y-31563904D01*
X58449783Y-31661414D01*
X58034196Y-31939100D01*
X57756510Y-32354687D01*
X57670000Y-32789603D01*
X57583490Y-32354687D01*
X57305804Y-31939100D01*
X56890217Y-31661414D01*
X56400000Y-31563904D01*
X55909783Y-31661414D01*
X55494196Y-31939100D01*
X55216510Y-32354687D01*
X55130000Y-32789603D01*
X55043490Y-32354687D01*
X54765804Y-31939100D01*
X54350217Y-31661414D01*
X53860000Y-31563904D01*
X53369783Y-31661414D01*
X52954196Y-31939100D01*
X52676510Y-32354687D01*
X52590000Y-32789603D01*
X52503490Y-32354687D01*
X52225804Y-31939100D01*
X51810217Y-31661414D01*
X51320000Y-31563904D01*
X50829783Y-31661414D01*
X50414196Y-31939100D01*
X50136510Y-32354687D01*
X50050000Y-32789603D01*
X49963490Y-32354687D01*
X49685804Y-31939100D01*
X49270217Y-31661414D01*
X48780000Y-31563904D01*
X48289783Y-31661414D01*
X47874196Y-31939100D01*
X47596510Y-32354687D01*
X47510000Y-32789603D01*
X47423490Y-32354687D01*
X47145804Y-31939100D01*
X46730217Y-31661414D01*
X46240000Y-31563904D01*
X45749783Y-31661414D01*
X45334196Y-31939100D01*
X45056510Y-32354687D01*
X44970000Y-32789603D01*
X44883490Y-32354687D01*
X44605804Y-31939100D01*
X44190217Y-31661414D01*
X43700000Y-31563904D01*
X43209783Y-31661414D01*
X42794196Y-31939100D01*
X42516510Y-32354687D01*
X42430000Y-32789603D01*
X42343490Y-32354687D01*
X42065804Y-31939100D01*
X41650217Y-31661414D01*
X41160000Y-31563904D01*
X40669783Y-31661414D01*
X40254196Y-31939100D01*
X39976510Y-32354687D01*
X39890000Y-32789603D01*
X39803490Y-32354687D01*
X39525804Y-31939100D01*
X39110217Y-31661414D01*
X38620000Y-31563904D01*
X38129783Y-31661414D01*
X37714196Y-31939100D01*
X37436510Y-32354687D01*
X37350000Y-32789603D01*
X37263490Y-32354687D01*
X36985804Y-31939100D01*
X36570217Y-31661414D01*
X36080000Y-31563904D01*
X35589783Y-31661414D01*
X35174196Y-31939100D01*
X34896510Y-32354687D01*
X34810000Y-32789603D01*
X34723490Y-32354687D01*
X34445804Y-31939100D01*
X34030217Y-31661414D01*
X33540000Y-31563904D01*
X33049783Y-31661414D01*
X32634196Y-31939100D01*
X32356510Y-32354687D01*
X32270000Y-32789603D01*
X32183490Y-32354687D01*
X31905804Y-31939100D01*
X31490217Y-31661414D01*
X31000000Y-31563904D01*
X30509783Y-31661414D01*
X30094196Y-31939100D01*
X29816510Y-32354687D01*
X29730000Y-32789603D01*
X29643490Y-32354687D01*
X29365804Y-31939100D01*
X28950217Y-31661414D01*
X28460000Y-31563904D01*
X27969783Y-31661414D01*
X27554196Y-31939100D01*
X27276510Y-32354687D01*
X27190000Y-32789603D01*
X27103490Y-32354687D01*
X26825804Y-31939100D01*
X26410217Y-31661414D01*
X25920000Y-31563904D01*
X25429783Y-31661414D01*
X25014196Y-31939100D01*
X24736510Y-32354687D01*
X24650000Y-32789603D01*
X24563490Y-32354687D01*
X24285804Y-31939100D01*
X23870217Y-31661414D01*
X23380000Y-31563904D01*
X22889783Y-31661414D01*
X22474196Y-31939100D01*
X22196510Y-32354687D01*
X22110000Y-32789603D01*
X22023490Y-32354687D01*
X21745804Y-31939100D01*
X21330217Y-31661414D01*
X20840000Y-31563904D01*
X20349783Y-31661414D01*
X19934196Y-31939100D01*
X19656510Y-32354687D01*
X19570000Y-32789603D01*
X19483490Y-32354687D01*
X19205804Y-31939100D01*
X18790217Y-31661414D01*
X18300000Y-31563904D01*
X17809783Y-31661414D01*
X17394196Y-31939100D01*
X17116510Y-32354687D01*
X17019000Y-32844904D01*
X17019000Y-32895096D01*
X17116510Y-33385313D01*
X17394196Y-33800900D01*
X17809783Y-34078586D01*
X18020786Y-34120557D01*
X17450000Y-34120557D01*
X17290281Y-34150610D01*
X17143589Y-34245004D01*
X17045179Y-34389032D01*
X17010557Y-34560000D01*
X13884870Y-34560000D01*
X13693995Y-34417340D01*
X13586747Y-34372939D01*
X13420000Y-34391960D01*
X13020000Y-34391960D01*
X12853253Y-34372939D01*
X12746005Y-34417340D01*
X12402211Y-34674292D01*
X12182918Y-35043249D01*
X11717082Y-35043249D01*
X11497789Y-34674292D01*
X11153995Y-34417340D01*
X11046747Y-34372939D01*
X10880000Y-34391960D01*
X10480000Y-34391960D01*
X10313253Y-34372939D01*
X10206005Y-34417340D01*
X9862211Y-34674292D01*
X9642918Y-35043249D01*
X9177082Y-35043249D01*
X8957789Y-34674292D01*
X8613995Y-34417340D01*
X8506747Y-34372939D01*
X8340000Y-34391960D01*
X7940000Y-34391960D01*
X7773253Y-34372939D01*
X7666005Y-34417340D01*
X7322211Y-34674292D01*
X7102918Y-35043249D01*
X6637082Y-35043249D01*
X6417789Y-34674292D01*
X6073995Y-34417340D01*
X5966747Y-34372939D01*
X5800000Y-34391960D01*
X5400000Y-34391960D01*
X5233253Y-34372939D01*
X5126005Y-34417340D01*
X4782211Y-34674292D01*
X4562918Y-35043249D01*
X4160000Y-35043249D01*
X4160000Y-34510272D01*
X4121940Y-34418386D01*
X4051614Y-34348060D01*
X3959728Y-34310000D01*
X3322500Y-34310000D01*
X3260000Y-34372500D01*
X2860000Y-34372500D01*
X2797500Y-34310000D01*
X2160272Y-34310000D01*
X2068386Y-34348060D01*
X1998060Y-34418386D01*
X1960000Y-34510272D01*
X506000Y-34510272D01*
X506000Y-33236751D01*
X2022918Y-33236751D01*
X2242211Y-33605708D01*
X2586005Y-33862660D01*
X2693253Y-33907061D01*
X2860000Y-33888040D01*
X2860000Y-33070000D01*
X3260000Y-33070000D01*
X3260000Y-33888040D01*
X3426747Y-33907061D01*
X3533995Y-33862660D01*
X3877789Y-33605708D01*
X4097082Y-33236751D01*
X4562918Y-33236751D01*
X4782211Y-33605708D01*
X5126005Y-33862660D01*
X5233253Y-33907061D01*
X5400000Y-33888040D01*
X5400000Y-33070000D01*
X5800000Y-33070000D01*
X5800000Y-33888040D01*
X5966747Y-33907061D01*
X6073995Y-33862660D01*
X6417789Y-33605708D01*
X6637082Y-33236751D01*
X7102918Y-33236751D01*
X7322211Y-33605708D01*
X7666005Y-33862660D01*
X7773253Y-33907061D01*
X7940000Y-33888040D01*
X7940000Y-33070000D01*
X8340000Y-33070000D01*
X8340000Y-33888040D01*
X8506747Y-33907061D01*
X8613995Y-33862660D01*
X8957789Y-33605708D01*
X9177082Y-33236751D01*
X9642918Y-33236751D01*
X9862211Y-33605708D01*
X10206005Y-33862660D01*
X10313253Y-33907061D01*
X10480000Y-33888040D01*
X10480000Y-33070000D01*
X10880000Y-33070000D01*
X10880000Y-33888040D01*
X11046747Y-33907061D01*
X11153995Y-33862660D01*
X11497789Y-33605708D01*
X11717082Y-33236751D01*
X12182918Y-33236751D01*
X12402211Y-33605708D01*
X12746005Y-33862660D01*
X12853253Y-33907061D01*
X13020000Y-33888040D01*
X13020000Y-33070000D01*
X13420000Y-33070000D01*
X13420000Y-33888040D01*
X13586747Y-33907061D01*
X13693995Y-33862660D01*
X14037789Y-33605708D01*
X14257082Y-33236751D01*
X14239186Y-33070000D01*
X13420000Y-33070000D01*
X13020000Y-33070000D01*
X12200814Y-33070000D01*
X12182918Y-33236751D01*
X11717082Y-33236751D01*
X11699186Y-33070000D01*
X10880000Y-33070000D01*
X10480000Y-33070000D01*
X9660814Y-33070000D01*
X9642918Y-33236751D01*
X9177082Y-33236751D01*
X9159186Y-33070000D01*
X8340000Y-33070000D01*
X7940000Y-33070000D01*
X7120814Y-33070000D01*
X7102918Y-33236751D01*
X6637082Y-33236751D01*
X6619186Y-33070000D01*
X5800000Y-33070000D01*
X5400000Y-33070000D01*
X4580814Y-33070000D01*
X4562918Y-33236751D01*
X4097082Y-33236751D01*
X4079186Y-33070000D01*
X3260000Y-33070000D01*
X2860000Y-33070000D01*
X2040814Y-33070000D01*
X2022918Y-33236751D01*
X506000Y-33236751D01*
X506000Y-32503249D01*
X2022918Y-32503249D01*
X2040814Y-32670000D01*
X2860000Y-32670000D01*
X2860000Y-31851960D01*
X3260000Y-31851960D01*
X3260000Y-32670000D01*
X4079186Y-32670000D01*
X4097082Y-32503249D01*
X4562918Y-32503249D01*
X4580814Y-32670000D01*
X5400000Y-32670000D01*
X5400000Y-31851960D01*
X5800000Y-31851960D01*
X5800000Y-32670000D01*
X6619186Y-32670000D01*
X6637082Y-32503249D01*
X7102918Y-32503249D01*
X7120814Y-32670000D01*
X7940000Y-32670000D01*
X7940000Y-31851960D01*
X8340000Y-31851960D01*
X8340000Y-32670000D01*
X9159186Y-32670000D01*
X9177082Y-32503249D01*
X9642918Y-32503249D01*
X9660814Y-32670000D01*
X10480000Y-32670000D01*
X10480000Y-31851960D01*
X10880000Y-31851960D01*
X10880000Y-32670000D01*
X11699186Y-32670000D01*
X11717082Y-32503249D01*
X12182918Y-32503249D01*
X12200814Y-32670000D01*
X13020000Y-32670000D01*
X13020000Y-31851960D01*
X13420000Y-31851960D01*
X13420000Y-32670000D01*
X14239186Y-32670000D01*
X14257082Y-32503249D01*
X14037789Y-32134292D01*
X13693995Y-31877340D01*
X13586747Y-31832939D01*
X13420000Y-31851960D01*
X13020000Y-31851960D01*
X12853253Y-31832939D01*
X12746005Y-31877340D01*
X12402211Y-32134292D01*
X12182918Y-32503249D01*
X11717082Y-32503249D01*
X11497789Y-32134292D01*
X11153995Y-31877340D01*
X11046747Y-31832939D01*
X10880000Y-31851960D01*
X10480000Y-31851960D01*
X10313253Y-31832939D01*
X10206005Y-31877340D01*
X9862211Y-32134292D01*
X9642918Y-32503249D01*
X9177082Y-32503249D01*
X8957789Y-32134292D01*
X8613995Y-31877340D01*
X8506747Y-31832939D01*
X8340000Y-31851960D01*
X7940000Y-31851960D01*
X7773253Y-31832939D01*
X7666005Y-31877340D01*
X7322211Y-32134292D01*
X7102918Y-32503249D01*
X6637082Y-32503249D01*
X6417789Y-32134292D01*
X6073995Y-31877340D01*
X5966747Y-31832939D01*
X5800000Y-31851960D01*
X5400000Y-31851960D01*
X5233253Y-31832939D01*
X5126005Y-31877340D01*
X4782211Y-32134292D01*
X4562918Y-32503249D01*
X4097082Y-32503249D01*
X3877789Y-32134292D01*
X3533995Y-31877340D01*
X3426747Y-31832939D01*
X3260000Y-31851960D01*
X2860000Y-31851960D01*
X2693253Y-31832939D01*
X2586005Y-31877340D01*
X2242211Y-32134292D01*
X2022918Y-32503249D01*
X506000Y-32503249D01*
X506000Y-22139866D01*
X768440Y-22139866D01*
X1259294Y-23327823D01*
X2167396Y-24237511D01*
X3354495Y-24730438D01*
X4639866Y-24731560D01*
X5827823Y-24240706D01*
X6737511Y-23332604D01*
X7230438Y-22145505D01*
X7230442Y-22139866D01*
X92768440Y-22139866D01*
X93259294Y-23327823D01*
X94167396Y-24237511D01*
X95354495Y-24730438D01*
X96639866Y-24731560D01*
X97827823Y-24240706D01*
X98737511Y-23332604D01*
X99230438Y-22145505D01*
X99231560Y-20860134D01*
X98740706Y-19672177D01*
X97832604Y-18762489D01*
X96645505Y-18269562D01*
X95360134Y-18268440D01*
X94172177Y-18759294D01*
X93262489Y-19667396D01*
X92769562Y-20854495D01*
X92768440Y-22139866D01*
X7230442Y-22139866D01*
X7231560Y-20860134D01*
X6740706Y-19672177D01*
X5832604Y-18762489D01*
X4645505Y-18269562D01*
X3360134Y-18268440D01*
X2172177Y-18759294D01*
X1262489Y-19667396D01*
X769562Y-20854495D01*
X768440Y-22139866D01*
X506000Y-22139866D01*
X506000Y-3049835D01*
X705002Y-2049382D01*
X1243485Y-1243486D01*
X2049383Y-705002D01*
X3049835Y-506000D01*
X96950165Y-506000D01*
X97950618Y-705002D01*
M02*
