G04 #@! TF.FileFunction,Copper,L1,Top,Signal*
%FSLAX46Y46*%
G04 Gerber Fmt 4.6, Leading zero omitted, Abs format (unit mm)*
G04 Created by KiCad (PCBNEW 4.0.7-e2-6376~58~ubuntu17.04.1) date Tue Nov 28 13:42:15 2017*
%MOMM*%
%LPD*%
G01*
G04 APERTURE LIST*
%ADD10C,0.100000*%
%ADD11C,5.600000*%
%ADD12R,1.700000X1.700000*%
%ADD13O,1.700000X1.700000*%
%ADD14R,2.000000X5.000000*%
%ADD15C,0.200000*%
G04 APERTURE END LIST*
D10*
D11*
X192000000Y-91500000D03*
X100000000Y-91500000D03*
X192000000Y-111000000D03*
D12*
X114300000Y-105410000D03*
D13*
X114300000Y-102870000D03*
X116840000Y-105410000D03*
X116840000Y-102870000D03*
X119380000Y-105410000D03*
X119380000Y-102870000D03*
X121920000Y-105410000D03*
X121920000Y-102870000D03*
X124460000Y-105410000D03*
X124460000Y-102870000D03*
X127000000Y-105410000D03*
X127000000Y-102870000D03*
X129540000Y-105410000D03*
X129540000Y-102870000D03*
X132080000Y-105410000D03*
X132080000Y-102870000D03*
X134620000Y-105410000D03*
X134620000Y-102870000D03*
X137160000Y-105410000D03*
X137160000Y-102870000D03*
X139700000Y-105410000D03*
X139700000Y-102870000D03*
X142240000Y-105410000D03*
X142240000Y-102870000D03*
X144780000Y-105410000D03*
X144780000Y-102870000D03*
X147320000Y-105410000D03*
X147320000Y-102870000D03*
X149860000Y-105410000D03*
X149860000Y-102870000D03*
X152400000Y-105410000D03*
X152400000Y-102870000D03*
X154940000Y-105410000D03*
X154940000Y-102870000D03*
X157480000Y-105410000D03*
X157480000Y-102870000D03*
X160020000Y-105410000D03*
X160020000Y-102870000D03*
X162560000Y-105410000D03*
X162560000Y-102870000D03*
X165100000Y-105410000D03*
X165100000Y-102870000D03*
X167640000Y-105410000D03*
X167640000Y-102870000D03*
X170180000Y-105410000D03*
X170180000Y-102870000D03*
X172720000Y-105410000D03*
X172720000Y-102870000D03*
X175260000Y-105410000D03*
X175260000Y-102870000D03*
X177800000Y-105410000D03*
X177800000Y-102870000D03*
X180340000Y-105410000D03*
X180340000Y-102870000D03*
X182880000Y-105410000D03*
X182880000Y-102870000D03*
X185420000Y-105410000D03*
X185420000Y-102870000D03*
X187960000Y-105410000D03*
X187960000Y-102870000D03*
X190500000Y-105410000D03*
X190500000Y-102870000D03*
X193040000Y-105410000D03*
X193040000Y-102870000D03*
D12*
X99060000Y-105410000D03*
D13*
X99060000Y-102870000D03*
X101600000Y-105410000D03*
X101600000Y-102870000D03*
X104140000Y-105410000D03*
X104140000Y-102870000D03*
X106680000Y-105410000D03*
X106680000Y-102870000D03*
X109220000Y-105410000D03*
X109220000Y-102870000D03*
D11*
X100000000Y-111000000D03*
D14*
X99500000Y-73500000D03*
X99500000Y-85000000D03*
X102500000Y-73500000D03*
X102500000Y-85000000D03*
X105500000Y-73500000D03*
X105500000Y-85000000D03*
X108500000Y-73500000D03*
X108500000Y-85000000D03*
X111500000Y-73500000D03*
X111500000Y-85000000D03*
X114500000Y-73500000D03*
X114500000Y-85000000D03*
X117500000Y-73500000D03*
X117500000Y-85000000D03*
X120500000Y-73500000D03*
X120500000Y-85000000D03*
X123500000Y-73500000D03*
X123500000Y-85000000D03*
X126500000Y-73500000D03*
X126500000Y-85000000D03*
X129500000Y-73500000D03*
X129500000Y-85000000D03*
X132500000Y-73500000D03*
X132500000Y-85000000D03*
X135500000Y-73500000D03*
X135500000Y-85000000D03*
X138500000Y-73500000D03*
X138500000Y-85000000D03*
X141500000Y-73500000D03*
X141500000Y-85000000D03*
X144500000Y-73500000D03*
X144500000Y-85000000D03*
X147500000Y-73500000D03*
X147500000Y-85000000D03*
X150500000Y-73500000D03*
X150500000Y-85000000D03*
X153500000Y-73500000D03*
X153500000Y-85000000D03*
X156500000Y-73500000D03*
X156500000Y-85000000D03*
X159500000Y-73500000D03*
X159500000Y-85000000D03*
X162500000Y-73500000D03*
X162500000Y-85000000D03*
X165500000Y-73500000D03*
X165500000Y-85000000D03*
X168500000Y-73500000D03*
X168500000Y-85000000D03*
X171500000Y-73500000D03*
X171500000Y-85000000D03*
X174500000Y-73500000D03*
X174500000Y-85000000D03*
X177500000Y-73500000D03*
X177500000Y-85000000D03*
X180500000Y-73500000D03*
X180500000Y-85000000D03*
X183500000Y-73500000D03*
X183500000Y-85000000D03*
X186500000Y-73500000D03*
X186500000Y-85000000D03*
X189500000Y-73500000D03*
X189500000Y-85000000D03*
X192500000Y-73500000D03*
X192500000Y-85000000D03*
D15*
X99500000Y-73500000D02*
X98839000Y-73500000D01*
X98839000Y-73500000D02*
X96393000Y-75946000D01*
X96393000Y-75946000D02*
X96393000Y-98552000D01*
X96393000Y-98552000D02*
X99187000Y-101346000D01*
X99187000Y-101346000D02*
X110236000Y-101346000D01*
X110236000Y-101346000D02*
X114300000Y-105410000D01*
X99500000Y-85000000D02*
X99500000Y-86809000D01*
X99500000Y-86809000D02*
X96793002Y-89515998D01*
X96793002Y-89515998D02*
X96793002Y-97936002D01*
X96793002Y-97936002D02*
X99695000Y-100838000D01*
X99695000Y-100838000D02*
X112268000Y-100838000D01*
X112268000Y-100838000D02*
X114300000Y-102870000D01*
X114300000Y-102870000D02*
X113665000Y-102870000D01*
X116840000Y-105410000D02*
X116840000Y-105029000D01*
X116840000Y-105029000D02*
X115570000Y-103759000D01*
X115570000Y-103759000D02*
X115570000Y-101473000D01*
X115570000Y-101473000D02*
X114280998Y-100183998D01*
X114280998Y-100183998D02*
X104755998Y-100183998D01*
X104755998Y-100183998D02*
X103251000Y-98679000D01*
X103251000Y-98679000D02*
X103251000Y-89916000D01*
X103251000Y-89916000D02*
X100965000Y-87630000D01*
X100965000Y-87630000D02*
X100965000Y-75035000D01*
X100965000Y-75035000D02*
X102500000Y-73500000D01*
X116840000Y-102870000D02*
X116840000Y-100711000D01*
X102500000Y-88149000D02*
X102500000Y-85000000D01*
X103886000Y-89535000D02*
X102500000Y-88149000D01*
X103886000Y-97917000D02*
X103886000Y-89535000D01*
X105537000Y-99568000D02*
X103886000Y-97917000D01*
X115697000Y-99568000D02*
X105537000Y-99568000D01*
X116840000Y-100711000D02*
X115697000Y-99568000D01*
X116840000Y-102870000D02*
X116840000Y-102616000D01*
X116840000Y-102870000D02*
X116459000Y-102870000D01*
X103251000Y-85751000D02*
X102500000Y-85000000D01*
X119380000Y-105410000D02*
X119380000Y-105283000D01*
X119380000Y-105283000D02*
X118110000Y-104013000D01*
X118110000Y-104013000D02*
X118110000Y-99822000D01*
X118110000Y-99822000D02*
X117348000Y-99060000D01*
X117348000Y-99060000D02*
X106553000Y-99060000D01*
X106553000Y-99060000D02*
X104394000Y-96901000D01*
X104394000Y-96901000D02*
X104394000Y-88265000D01*
X104394000Y-88265000D02*
X104013000Y-87884000D01*
X104013000Y-87884000D02*
X104013000Y-74987000D01*
X104013000Y-74987000D02*
X105500000Y-73500000D01*
X119380000Y-102870000D02*
X119380000Y-99822000D01*
X105500000Y-96483000D02*
X105500000Y-85000000D01*
X107569000Y-98552000D02*
X105500000Y-96483000D01*
X118110000Y-98552000D02*
X107569000Y-98552000D01*
X119380000Y-99822000D02*
X118110000Y-98552000D01*
X119380000Y-102870000D02*
X120142000Y-102870000D01*
X121920000Y-105410000D02*
X121920000Y-105029000D01*
X121920000Y-105029000D02*
X120650000Y-103759000D01*
X120650000Y-103759000D02*
X120650000Y-99822000D01*
X120650000Y-99822000D02*
X118745000Y-97917000D01*
X118745000Y-97917000D02*
X108585000Y-97917000D01*
X108585000Y-97917000D02*
X107061000Y-96393000D01*
X107061000Y-96393000D02*
X107061000Y-74939000D01*
X107061000Y-74939000D02*
X108500000Y-73500000D01*
X121920000Y-102870000D02*
X121920000Y-99822000D01*
X108500000Y-96266000D02*
X108500000Y-85000000D01*
X109516000Y-97282000D02*
X108500000Y-96266000D01*
X119380000Y-97282000D02*
X109516000Y-97282000D01*
X121920000Y-99822000D02*
X119380000Y-97282000D01*
X121920000Y-102870000D02*
X121920000Y-102616000D01*
X124460000Y-105410000D02*
X124460000Y-105156000D01*
X124460000Y-105156000D02*
X123190000Y-103886000D01*
X123190000Y-103886000D02*
X123190000Y-99822000D01*
X123190000Y-99822000D02*
X120015000Y-96647000D01*
X120015000Y-96647000D02*
X111252000Y-96647000D01*
X111252000Y-96647000D02*
X109982000Y-95377000D01*
X109982000Y-95377000D02*
X109982000Y-75018000D01*
X109982000Y-75018000D02*
X111500000Y-73500000D01*
X124460000Y-102870000D02*
X124460000Y-99822000D01*
X124460000Y-99822000D02*
X120650000Y-96012000D01*
X120650000Y-96012000D02*
X112770000Y-96012000D01*
X112770000Y-96012000D02*
X111500000Y-94742000D01*
X111500000Y-94742000D02*
X111500000Y-85000000D01*
X127000000Y-105410000D02*
X127000000Y-105029000D01*
X127000000Y-105029000D02*
X125730000Y-103759000D01*
X125730000Y-103759000D02*
X125730000Y-99822000D01*
X125730000Y-99822000D02*
X121285000Y-95377000D01*
X121285000Y-95377000D02*
X114300000Y-95377000D01*
X114300000Y-95377000D02*
X113030000Y-94107000D01*
X113030000Y-94107000D02*
X113030000Y-74970000D01*
X113030000Y-74970000D02*
X114500000Y-73500000D01*
X127000000Y-102870000D02*
X127000000Y-99822000D01*
X127000000Y-99822000D02*
X121920000Y-94742000D01*
X121920000Y-94742000D02*
X115570000Y-94742000D01*
X115570000Y-94742000D02*
X114500000Y-93672000D01*
X114500000Y-93672000D02*
X114500000Y-85000000D01*
X129540000Y-105410000D02*
X129540000Y-105029000D01*
X129540000Y-105029000D02*
X128270000Y-103759000D01*
X115951000Y-75049000D02*
X117500000Y-73500000D01*
X115951000Y-93218000D02*
X115951000Y-75049000D01*
X116840000Y-94107000D02*
X115951000Y-93218000D01*
X122555000Y-94107000D02*
X116840000Y-94107000D01*
X128270000Y-99822000D02*
X122555000Y-94107000D01*
X128270000Y-103759000D02*
X128270000Y-99822000D01*
X129540000Y-102870000D02*
X129540000Y-99822000D01*
X129540000Y-99822000D02*
X123063000Y-93345000D01*
X123063000Y-93345000D02*
X117983000Y-93345000D01*
X117983000Y-93345000D02*
X117500000Y-92862000D01*
X117500000Y-92862000D02*
X117500000Y-85000000D01*
X132080000Y-105410000D02*
X132080000Y-105156000D01*
X132080000Y-105156000D02*
X130810000Y-103886000D01*
X130810000Y-103886000D02*
X130810000Y-99822000D01*
X130810000Y-99822000D02*
X118999000Y-88011000D01*
X118999000Y-88011000D02*
X118999000Y-75001000D01*
X118999000Y-75001000D02*
X120500000Y-73500000D01*
X132080000Y-102870000D02*
X132080000Y-99822000D01*
X132080000Y-99822000D02*
X120500000Y-88242000D01*
X120500000Y-88242000D02*
X120500000Y-85000000D01*
X134620000Y-105410000D02*
X134620000Y-105029000D01*
X134620000Y-105029000D02*
X133350000Y-103759000D01*
X133350000Y-103759000D02*
X133350000Y-99822000D01*
X133350000Y-99822000D02*
X122047000Y-88519000D01*
X122047000Y-88519000D02*
X122047000Y-74953000D01*
X122047000Y-74953000D02*
X123500000Y-73500000D01*
X134620000Y-102870000D02*
X134620000Y-99822000D01*
X123500000Y-88702000D02*
X123500000Y-85000000D01*
X134620000Y-99822000D02*
X123500000Y-88702000D01*
X134620000Y-102870000D02*
X134620000Y-102489000D01*
X137160000Y-105410000D02*
X137160000Y-105156000D01*
X137160000Y-105156000D02*
X135890000Y-103886000D01*
X135890000Y-103886000D02*
X135890000Y-99822000D01*
X135890000Y-99822000D02*
X124968000Y-88900000D01*
X124968000Y-88900000D02*
X124968000Y-75032000D01*
X124968000Y-75032000D02*
X126500000Y-73500000D01*
X137160000Y-102870000D02*
X137160000Y-99822000D01*
X137160000Y-99822000D02*
X126500000Y-89162000D01*
X126500000Y-89162000D02*
X126500000Y-85000000D01*
X139700000Y-105410000D02*
X139700000Y-104902000D01*
X139700000Y-104902000D02*
X138430000Y-103632000D01*
X138430000Y-103632000D02*
X138430000Y-99822000D01*
X138430000Y-99822000D02*
X128016000Y-89408000D01*
X128016000Y-89408000D02*
X128016000Y-74984000D01*
X128016000Y-74984000D02*
X129500000Y-73500000D01*
X139700000Y-102870000D02*
X139700000Y-99822000D01*
X129500000Y-89622000D02*
X129500000Y-85000000D01*
X139700000Y-99822000D02*
X129500000Y-89622000D01*
X142240000Y-105410000D02*
X142240000Y-105029000D01*
X142240000Y-105029000D02*
X140970000Y-103759000D01*
X140970000Y-103759000D02*
X140970000Y-99822000D01*
X140970000Y-99822000D02*
X130937000Y-89789000D01*
X130937000Y-89789000D02*
X130937000Y-75063000D01*
X130937000Y-75063000D02*
X132500000Y-73500000D01*
X142240000Y-102870000D02*
X142240000Y-99822000D01*
X132500000Y-90082000D02*
X132500000Y-85000000D01*
X142240000Y-99822000D02*
X132500000Y-90082000D01*
X144780000Y-105410000D02*
X144780000Y-105029000D01*
X144780000Y-105029000D02*
X143510000Y-103759000D01*
X143510000Y-103759000D02*
X143510000Y-99822000D01*
X143510000Y-99822000D02*
X133985000Y-90297000D01*
X133985000Y-90297000D02*
X133985000Y-75015000D01*
X133985000Y-75015000D02*
X135500000Y-73500000D01*
X144780000Y-102870000D02*
X144780000Y-99822000D01*
X144780000Y-99822000D02*
X135500000Y-90542000D01*
X135500000Y-90542000D02*
X135500000Y-85000000D01*
X147320000Y-105410000D02*
X147320000Y-105029000D01*
X147320000Y-105029000D02*
X146050000Y-103759000D01*
X146050000Y-103759000D02*
X146050000Y-99822000D01*
X146050000Y-99822000D02*
X137033000Y-90805000D01*
X137033000Y-90805000D02*
X137033000Y-74967000D01*
X137033000Y-74967000D02*
X138500000Y-73500000D01*
X147320000Y-102870000D02*
X147320000Y-99822000D01*
X138500000Y-91002000D02*
X138500000Y-85000000D01*
X147320000Y-99822000D02*
X138500000Y-91002000D01*
X147320000Y-102870000D02*
X147320000Y-102108000D01*
X149860000Y-105410000D02*
X149860000Y-105283000D01*
X149860000Y-105283000D02*
X148590000Y-104013000D01*
X148590000Y-104013000D02*
X148590000Y-99822000D01*
X148590000Y-99822000D02*
X139954000Y-91186000D01*
X139954000Y-91186000D02*
X139954000Y-75046000D01*
X139954000Y-75046000D02*
X141500000Y-73500000D01*
X149860000Y-102870000D02*
X149860000Y-99822000D01*
X149860000Y-99822000D02*
X141500000Y-91462000D01*
X141500000Y-91462000D02*
X141500000Y-85000000D01*
X152400000Y-105410000D02*
X152400000Y-104902000D01*
X152400000Y-104902000D02*
X151130000Y-103632000D01*
X151130000Y-103632000D02*
X151130000Y-99822000D01*
X151130000Y-99822000D02*
X143002000Y-91694000D01*
X143002000Y-91694000D02*
X143002000Y-74998000D01*
X143002000Y-74998000D02*
X144500000Y-73500000D01*
X152400000Y-102870000D02*
X152400000Y-99822000D01*
X144500000Y-91922000D02*
X144500000Y-85000000D01*
X152400000Y-99822000D02*
X144500000Y-91922000D01*
X154940000Y-105410000D02*
X154940000Y-105029000D01*
X154940000Y-105029000D02*
X153670000Y-103759000D01*
X153670000Y-103759000D02*
X153670000Y-99822000D01*
X153670000Y-99822000D02*
X146050000Y-92202000D01*
X146050000Y-92202000D02*
X146050000Y-74950000D01*
X146050000Y-74950000D02*
X147500000Y-73500000D01*
X154940000Y-102870000D02*
X154940000Y-99822000D01*
X147500000Y-92382000D02*
X147500000Y-85000000D01*
X154940000Y-99822000D02*
X147500000Y-92382000D01*
X157480000Y-105410000D02*
X157480000Y-104775000D01*
X157480000Y-104775000D02*
X156210000Y-103505000D01*
X156210000Y-103505000D02*
X156210000Y-99822000D01*
X156210000Y-99822000D02*
X148971000Y-92583000D01*
X148971000Y-92583000D02*
X148971000Y-75029000D01*
X148971000Y-75029000D02*
X150500000Y-73500000D01*
X157480000Y-102870000D02*
X157480000Y-99822000D01*
X150500000Y-92842000D02*
X150500000Y-85000000D01*
X157480000Y-99822000D02*
X150500000Y-92842000D01*
X160020000Y-105410000D02*
X160020000Y-105156000D01*
X160020000Y-105156000D02*
X158750000Y-103886000D01*
X158750000Y-103886000D02*
X158750000Y-99822000D01*
X158750000Y-99822000D02*
X152019000Y-93091000D01*
X152019000Y-93091000D02*
X152019000Y-74981000D01*
X152019000Y-74981000D02*
X153500000Y-73500000D01*
X160020000Y-102870000D02*
X160020000Y-99822000D01*
X153500000Y-93302000D02*
X153500000Y-85000000D01*
X160020000Y-99822000D02*
X153500000Y-93302000D01*
X162560000Y-105410000D02*
X162560000Y-104902000D01*
X162560000Y-104902000D02*
X161290000Y-103632000D01*
X161290000Y-103632000D02*
X161290000Y-99822000D01*
X161290000Y-99822000D02*
X154940000Y-93472000D01*
X154940000Y-93472000D02*
X154940000Y-75060000D01*
X154940000Y-75060000D02*
X156500000Y-73500000D01*
X162560000Y-102870000D02*
X162560000Y-99822000D01*
X156500000Y-93762000D02*
X156500000Y-85000000D01*
X162560000Y-99822000D02*
X156500000Y-93762000D01*
X165100000Y-105410000D02*
X165100000Y-104775000D01*
X165100000Y-104775000D02*
X163830000Y-103505000D01*
X163830000Y-103505000D02*
X163830000Y-99822000D01*
X163830000Y-99822000D02*
X157988000Y-93980000D01*
X157988000Y-93980000D02*
X157988000Y-75012000D01*
X157988000Y-75012000D02*
X159500000Y-73500000D01*
X165100000Y-102870000D02*
X165100000Y-99822000D01*
X159500000Y-94222000D02*
X159500000Y-85000000D01*
X165100000Y-99822000D02*
X159500000Y-94222000D01*
X167640000Y-105410000D02*
X167640000Y-104902000D01*
X167640000Y-104902000D02*
X166370000Y-103632000D01*
X166370000Y-103632000D02*
X166370000Y-99822000D01*
X166370000Y-99822000D02*
X161036000Y-94488000D01*
X161036000Y-94488000D02*
X161036000Y-74964000D01*
X161036000Y-74964000D02*
X162500000Y-73500000D01*
X167640000Y-102870000D02*
X167640000Y-99822000D01*
X162500000Y-94682000D02*
X162500000Y-85000000D01*
X167640000Y-99822000D02*
X162500000Y-94682000D01*
X170180000Y-105410000D02*
X170180000Y-104902000D01*
X170180000Y-104902000D02*
X168910000Y-103632000D01*
X168910000Y-103632000D02*
X168910000Y-99822000D01*
X168910000Y-99822000D02*
X163957000Y-94869000D01*
X163957000Y-94869000D02*
X163957000Y-75043000D01*
X163957000Y-75043000D02*
X165500000Y-73500000D01*
X170180000Y-102870000D02*
X170180000Y-99822000D01*
X165500000Y-95142000D02*
X165500000Y-85000000D01*
X170180000Y-99822000D02*
X165500000Y-95142000D01*
X172720000Y-105410000D02*
X172720000Y-105156000D01*
X172720000Y-105156000D02*
X171450000Y-103886000D01*
X171450000Y-103886000D02*
X171450000Y-99822000D01*
X171450000Y-99822000D02*
X167005000Y-95377000D01*
X167005000Y-95377000D02*
X167005000Y-74995000D01*
X167005000Y-74995000D02*
X168500000Y-73500000D01*
X172720000Y-102870000D02*
X172720000Y-99822000D01*
X168500000Y-95602000D02*
X168500000Y-85000000D01*
X172720000Y-99822000D02*
X168500000Y-95602000D01*
X175260000Y-105410000D02*
X175260000Y-105156000D01*
X175260000Y-105156000D02*
X173990000Y-103886000D01*
X173990000Y-103886000D02*
X173990000Y-99822000D01*
X173990000Y-99822000D02*
X170053000Y-95885000D01*
X170053000Y-95885000D02*
X170053000Y-74947000D01*
X170053000Y-74947000D02*
X171500000Y-73500000D01*
X175260000Y-102870000D02*
X175260000Y-99822000D01*
X171500000Y-96062000D02*
X171500000Y-85000000D01*
X175260000Y-99822000D02*
X171500000Y-96062000D01*
X177800000Y-105410000D02*
X177800000Y-105029000D01*
X177800000Y-105029000D02*
X176530000Y-103759000D01*
X176530000Y-103759000D02*
X176530000Y-99822000D01*
X176530000Y-99822000D02*
X173101000Y-96393000D01*
X173101000Y-96393000D02*
X173101000Y-74899000D01*
X173101000Y-74899000D02*
X174500000Y-73500000D01*
X177800000Y-102870000D02*
X177800000Y-99822000D01*
X174500000Y-96522000D02*
X174500000Y-85000000D01*
X177800000Y-99822000D02*
X174500000Y-96522000D01*
X180340000Y-105410000D02*
X180340000Y-105029000D01*
X180340000Y-105029000D02*
X179070000Y-103759000D01*
X179070000Y-103759000D02*
X179070000Y-99822000D01*
X179070000Y-99822000D02*
X176022000Y-96774000D01*
X176022000Y-96774000D02*
X176022000Y-74978000D01*
X176022000Y-74978000D02*
X177500000Y-73500000D01*
X180340000Y-102870000D02*
X180340000Y-99822000D01*
X177500000Y-96982000D02*
X177500000Y-85000000D01*
X180340000Y-99822000D02*
X177500000Y-96982000D01*
X182880000Y-105410000D02*
X182880000Y-105283000D01*
X182880000Y-105283000D02*
X181610000Y-104013000D01*
X181610000Y-104013000D02*
X181610000Y-99822000D01*
X181610000Y-99822000D02*
X178943000Y-97155000D01*
X178943000Y-97155000D02*
X178943000Y-75057000D01*
X178943000Y-75057000D02*
X180500000Y-73500000D01*
X182880000Y-102870000D02*
X182880000Y-99822000D01*
X180500000Y-97442000D02*
X180500000Y-85000000D01*
X182880000Y-99822000D02*
X180500000Y-97442000D01*
X185420000Y-105410000D02*
X185420000Y-104902000D01*
X185420000Y-104902000D02*
X184150000Y-103632000D01*
X184150000Y-103632000D02*
X184150000Y-99822000D01*
X184150000Y-99822000D02*
X181991000Y-97663000D01*
X181991000Y-97663000D02*
X181991000Y-75009000D01*
X181991000Y-75009000D02*
X183500000Y-73500000D01*
X185420000Y-102870000D02*
X185420000Y-99949000D01*
X183500000Y-98029000D02*
X183500000Y-85000000D01*
X185420000Y-99949000D02*
X183500000Y-98029000D01*
X187960000Y-105410000D02*
X187833000Y-105410000D01*
X187833000Y-105410000D02*
X186690000Y-104267000D01*
X186690000Y-104267000D02*
X186690000Y-99949000D01*
X186690000Y-99949000D02*
X185039000Y-98298000D01*
X185039000Y-98298000D02*
X185039000Y-74961000D01*
X185039000Y-74961000D02*
X186500000Y-73500000D01*
X187960000Y-102870000D02*
X187960000Y-99949000D01*
X186500000Y-98489000D02*
X186500000Y-85000000D01*
X187960000Y-99949000D02*
X186500000Y-98489000D01*
X190500000Y-105410000D02*
X190500000Y-105156000D01*
X190500000Y-105156000D02*
X189230000Y-103886000D01*
X189230000Y-103886000D02*
X189230000Y-99949000D01*
X189230000Y-99949000D02*
X187960000Y-98679000D01*
X187960000Y-98679000D02*
X187960000Y-75040000D01*
X187960000Y-75040000D02*
X189500000Y-73500000D01*
X190500000Y-102870000D02*
X190500000Y-99949000D01*
X188722000Y-98171000D02*
X188722000Y-85778000D01*
X190500000Y-99949000D02*
X188722000Y-98171000D01*
X188722000Y-85778000D02*
X189500000Y-85000000D01*
X193040000Y-105410000D02*
X194691000Y-105410000D01*
X195707000Y-76707000D02*
X192500000Y-73500000D01*
X195707000Y-104394000D02*
X195707000Y-76707000D01*
X194691000Y-105410000D02*
X195707000Y-104394000D01*
X193040000Y-102870000D02*
X193040000Y-99949000D01*
X195199000Y-87699000D02*
X192500000Y-85000000D01*
X195199000Y-97790000D02*
X195199000Y-87699000D01*
X193040000Y-99949000D02*
X195199000Y-97790000D01*
M02*
