M48
;DRILL file {KiCad 4.0.7-e2-6376~58~ubuntu17.04.1} date Mon Dec 11 10:45:50 2017
;FORMAT={-:-/ absolute / metric / decimal}
FMAT,2
METRIC,TZ
T1C1.000
T2C3.200
%
G90
G05
M71
T1
X3.06Y-32.87
X3.06Y-35.41
X5.6Y-32.87
X5.6Y-35.41
X8.14Y-32.87
X8.14Y-35.41
X10.68Y-32.87
X10.68Y-35.41
X13.22Y-32.87
X13.22Y-35.41
X18.3Y-32.87
X18.3Y-35.41
X20.84Y-32.87
X20.84Y-35.41
X23.38Y-32.87
X23.38Y-35.41
X25.92Y-32.87
X25.92Y-35.41
X28.46Y-32.87
X28.46Y-35.41
X31.Y-32.87
X31.Y-35.41
X33.54Y-32.87
X33.54Y-35.41
X36.08Y-32.87
X36.08Y-35.41
X38.62Y-32.87
X38.62Y-35.41
X41.16Y-32.87
X41.16Y-35.41
X43.7Y-32.87
X43.7Y-35.41
X46.24Y-32.87
X46.24Y-35.41
X48.78Y-32.87
X48.78Y-35.41
X51.32Y-32.87
X51.32Y-35.41
X53.86Y-32.87
X53.86Y-35.41
X56.4Y-32.87
X56.4Y-35.41
X58.94Y-32.87
X58.94Y-35.41
X61.48Y-32.87
X61.48Y-35.41
X64.02Y-32.87
X64.02Y-35.41
X66.56Y-32.87
X66.56Y-35.41
X69.1Y-32.87
X69.1Y-35.41
X71.64Y-32.87
X71.64Y-35.41
X74.18Y-32.87
X74.18Y-35.41
X76.72Y-32.87
X76.72Y-35.41
X79.26Y-32.87
X79.26Y-35.41
X81.8Y-32.87
X81.8Y-35.41
X84.34Y-32.87
X84.34Y-35.41
X86.88Y-32.87
X86.88Y-35.41
X89.42Y-32.87
X89.42Y-35.41
X91.96Y-32.87
X91.96Y-35.41
X94.5Y-32.87
X94.5Y-35.41
X97.04Y-32.87
X97.04Y-35.41
T2
X4.Y-21.5
X4.Y-41.
X96.Y-21.5
X96.Y-41.
T0
M30
