G04 #@! TF.FileFunction,Legend,Bot*
%FSLAX46Y46*%
G04 Gerber Fmt 4.6, Leading zero omitted, Abs format (unit mm)*
G04 Created by KiCad (PCBNEW 4.0.7-e2-6376~58~ubuntu17.04.1) date Tue Dec  5 16:05:34 2017*
%MOMM*%
%LPD*%
G01*
G04 APERTURE LIST*
%ADD10C,0.100000*%
%ADD11C,0.300000*%
G04 APERTURE END LIST*
D10*
D11*
X69796286Y-9474143D02*
X69582000Y-9545571D01*
X69224857Y-9545571D01*
X69082000Y-9474143D01*
X69010571Y-9402714D01*
X68939143Y-9259857D01*
X68939143Y-9117000D01*
X69010571Y-8974143D01*
X69082000Y-8902714D01*
X69224857Y-8831286D01*
X69510571Y-8759857D01*
X69653429Y-8688429D01*
X69724857Y-8617000D01*
X69796286Y-8474143D01*
X69796286Y-8331286D01*
X69724857Y-8188429D01*
X69653429Y-8117000D01*
X69510571Y-8045571D01*
X69153429Y-8045571D01*
X68939143Y-8117000D01*
X68082000Y-9545571D02*
X68224858Y-9474143D01*
X68296286Y-9402714D01*
X68367715Y-9259857D01*
X68367715Y-8831286D01*
X68296286Y-8688429D01*
X68224858Y-8617000D01*
X68082000Y-8545571D01*
X67867715Y-8545571D01*
X67724858Y-8617000D01*
X67653429Y-8688429D01*
X67582000Y-8831286D01*
X67582000Y-9259857D01*
X67653429Y-9402714D01*
X67724858Y-9474143D01*
X67867715Y-9545571D01*
X68082000Y-9545571D01*
X66724857Y-9545571D02*
X66867715Y-9474143D01*
X66939143Y-9331286D01*
X66939143Y-8045571D01*
X65510572Y-9545571D02*
X65510572Y-8045571D01*
X65510572Y-9474143D02*
X65653429Y-9545571D01*
X65939143Y-9545571D01*
X66082001Y-9474143D01*
X66153429Y-9402714D01*
X66224858Y-9259857D01*
X66224858Y-8831286D01*
X66153429Y-8688429D01*
X66082001Y-8617000D01*
X65939143Y-8545571D01*
X65653429Y-8545571D01*
X65510572Y-8617000D01*
X64224858Y-9474143D02*
X64367715Y-9545571D01*
X64653429Y-9545571D01*
X64796286Y-9474143D01*
X64867715Y-9331286D01*
X64867715Y-8759857D01*
X64796286Y-8617000D01*
X64653429Y-8545571D01*
X64367715Y-8545571D01*
X64224858Y-8617000D01*
X64153429Y-8759857D01*
X64153429Y-8902714D01*
X64867715Y-9045571D01*
X63510572Y-9545571D02*
X63510572Y-8545571D01*
X63510572Y-8831286D02*
X63439144Y-8688429D01*
X63367715Y-8617000D01*
X63224858Y-8545571D01*
X63082001Y-8545571D01*
X61439144Y-9545571D02*
X61439144Y-8045571D01*
X60796287Y-9545571D02*
X60796287Y-8759857D01*
X60867716Y-8617000D01*
X61010573Y-8545571D01*
X61224858Y-8545571D01*
X61367716Y-8617000D01*
X61439144Y-8688429D01*
X60082001Y-9545571D02*
X60082001Y-8545571D01*
X60082001Y-8045571D02*
X60153430Y-8117000D01*
X60082001Y-8188429D01*
X60010573Y-8117000D01*
X60082001Y-8045571D01*
X60082001Y-8188429D01*
X58724858Y-8545571D02*
X58724858Y-9759857D01*
X58796287Y-9902714D01*
X58867715Y-9974143D01*
X59010572Y-10045571D01*
X59224858Y-10045571D01*
X59367715Y-9974143D01*
X58724858Y-9474143D02*
X58867715Y-9545571D01*
X59153429Y-9545571D01*
X59296287Y-9474143D01*
X59367715Y-9402714D01*
X59439144Y-9259857D01*
X59439144Y-8831286D01*
X59367715Y-8688429D01*
X59296287Y-8617000D01*
X59153429Y-8545571D01*
X58867715Y-8545571D01*
X58724858Y-8617000D01*
X58010572Y-9545571D02*
X58010572Y-8045571D01*
X57367715Y-9545571D02*
X57367715Y-8759857D01*
X57439144Y-8617000D01*
X57582001Y-8545571D01*
X57796286Y-8545571D01*
X57939144Y-8617000D01*
X58010572Y-8688429D01*
X56653429Y-8974143D02*
X55510572Y-8974143D01*
X54867715Y-9474143D02*
X54724858Y-9545571D01*
X54439143Y-9545571D01*
X54296286Y-9474143D01*
X54224858Y-9331286D01*
X54224858Y-9259857D01*
X54296286Y-9117000D01*
X54439143Y-9045571D01*
X54653429Y-9045571D01*
X54796286Y-8974143D01*
X54867715Y-8831286D01*
X54867715Y-8759857D01*
X54796286Y-8617000D01*
X54653429Y-8545571D01*
X54439143Y-8545571D01*
X54296286Y-8617000D01*
X53582000Y-9545571D02*
X53582000Y-8545571D01*
X53582000Y-8045571D02*
X53653429Y-8117000D01*
X53582000Y-8188429D01*
X53510572Y-8117000D01*
X53582000Y-8045571D01*
X53582000Y-8188429D01*
X52224857Y-9545571D02*
X52224857Y-8045571D01*
X52224857Y-9474143D02*
X52367714Y-9545571D01*
X52653428Y-9545571D01*
X52796286Y-9474143D01*
X52867714Y-9402714D01*
X52939143Y-9259857D01*
X52939143Y-8831286D01*
X52867714Y-8688429D01*
X52796286Y-8617000D01*
X52653428Y-8545571D01*
X52367714Y-8545571D01*
X52224857Y-8617000D01*
X50939143Y-9474143D02*
X51082000Y-9545571D01*
X51367714Y-9545571D01*
X51510571Y-9474143D01*
X51582000Y-9331286D01*
X51582000Y-8759857D01*
X51510571Y-8617000D01*
X51367714Y-8545571D01*
X51082000Y-8545571D01*
X50939143Y-8617000D01*
X50867714Y-8759857D01*
X50867714Y-8902714D01*
X51582000Y-9045571D01*
X48867714Y-9545571D02*
X49010572Y-9474143D01*
X49082000Y-9402714D01*
X49153429Y-9259857D01*
X49153429Y-8831286D01*
X49082000Y-8688429D01*
X49010572Y-8617000D01*
X48867714Y-8545571D01*
X48653429Y-8545571D01*
X48510572Y-8617000D01*
X48439143Y-8688429D01*
X48367714Y-8831286D01*
X48367714Y-9259857D01*
X48439143Y-9402714D01*
X48510572Y-9474143D01*
X48653429Y-9545571D01*
X48867714Y-9545571D01*
X47939143Y-8545571D02*
X47367714Y-8545571D01*
X47724857Y-9545571D02*
X47724857Y-8259857D01*
X47653429Y-8117000D01*
X47510571Y-8045571D01*
X47367714Y-8045571D01*
X45010571Y-9545571D02*
X45724857Y-9545571D01*
X45724857Y-8045571D01*
X44510571Y-8759857D02*
X44010571Y-8759857D01*
X43796285Y-9545571D02*
X44510571Y-9545571D01*
X44510571Y-8045571D01*
X43796285Y-8045571D01*
X43153428Y-9545571D02*
X43153428Y-8045571D01*
X42796285Y-8045571D01*
X42582000Y-8117000D01*
X42439142Y-8259857D01*
X42367714Y-8402714D01*
X42296285Y-8688429D01*
X42296285Y-8902714D01*
X42367714Y-9188429D01*
X42439142Y-9331286D01*
X42582000Y-9474143D01*
X42796285Y-9545571D01*
X43153428Y-9545571D01*
X41724857Y-9474143D02*
X41582000Y-9545571D01*
X41296285Y-9545571D01*
X41153428Y-9474143D01*
X41082000Y-9331286D01*
X41082000Y-9259857D01*
X41153428Y-9117000D01*
X41296285Y-9045571D01*
X41510571Y-9045571D01*
X41653428Y-8974143D01*
X41724857Y-8831286D01*
X41724857Y-8759857D01*
X41653428Y-8617000D01*
X41510571Y-8545571D01*
X41296285Y-8545571D01*
X41153428Y-8617000D01*
X39296285Y-9545571D02*
X39296285Y-8045571D01*
X38653428Y-9545571D02*
X38653428Y-8759857D01*
X38724857Y-8617000D01*
X38867714Y-8545571D01*
X39081999Y-8545571D01*
X39224857Y-8617000D01*
X39296285Y-8688429D01*
X37367714Y-9474143D02*
X37510571Y-9545571D01*
X37796285Y-9545571D01*
X37939142Y-9474143D01*
X38010571Y-9331286D01*
X38010571Y-8759857D01*
X37939142Y-8617000D01*
X37796285Y-8545571D01*
X37510571Y-8545571D01*
X37367714Y-8617000D01*
X37296285Y-8759857D01*
X37296285Y-8902714D01*
X38010571Y-9045571D01*
X36653428Y-9545571D02*
X36653428Y-8545571D01*
X36653428Y-8831286D02*
X36582000Y-8688429D01*
X36510571Y-8617000D01*
X36367714Y-8545571D01*
X36224857Y-8545571D01*
X35153429Y-9474143D02*
X35296286Y-9545571D01*
X35582000Y-9545571D01*
X35724857Y-9474143D01*
X35796286Y-9331286D01*
X35796286Y-8759857D01*
X35724857Y-8617000D01*
X35582000Y-8545571D01*
X35296286Y-8545571D01*
X35153429Y-8617000D01*
X35082000Y-8759857D01*
X35082000Y-8902714D01*
X35796286Y-9045571D01*
X34439143Y-9402714D02*
X34367715Y-9474143D01*
X34439143Y-9545571D01*
X34510572Y-9474143D01*
X34439143Y-9402714D01*
X34439143Y-9545571D01*
M02*
