G04 #@! TF.FileFunction,Soldermask,Top*
%FSLAX46Y46*%
G04 Gerber Fmt 4.6, Leading zero omitted, Abs format (unit mm)*
G04 Created by KiCad (PCBNEW 4.0.7-e2-6376~58~ubuntu17.04.1) date Mon Dec 11 10:45:46 2017*
%MOMM*%
%LPD*%
G01*
G04 APERTURE LIST*
%ADD10C,0.100000*%
%ADD11C,6.000000*%
%ADD12R,2.100000X2.100000*%
%ADD13O,2.100000X2.100000*%
%ADD14R,2.400000X5.400000*%
G04 APERTURE END LIST*
D10*
D11*
X96000000Y-21500000D03*
X4000000Y-21500000D03*
X96000000Y-41000000D03*
D12*
X18300000Y-35410000D03*
D13*
X18300000Y-32870000D03*
X20840000Y-35410000D03*
X20840000Y-32870000D03*
X23380000Y-35410000D03*
X23380000Y-32870000D03*
X25920000Y-35410000D03*
X25920000Y-32870000D03*
X28460000Y-35410000D03*
X28460000Y-32870000D03*
X31000000Y-35410000D03*
X31000000Y-32870000D03*
X33540000Y-35410000D03*
X33540000Y-32870000D03*
X36080000Y-35410000D03*
X36080000Y-32870000D03*
X38620000Y-35410000D03*
X38620000Y-32870000D03*
X41160000Y-35410000D03*
X41160000Y-32870000D03*
X43700000Y-35410000D03*
X43700000Y-32870000D03*
X46240000Y-35410000D03*
X46240000Y-32870000D03*
X48780000Y-35410000D03*
X48780000Y-32870000D03*
X51320000Y-35410000D03*
X51320000Y-32870000D03*
X53860000Y-35410000D03*
X53860000Y-32870000D03*
X56400000Y-35410000D03*
X56400000Y-32870000D03*
X58940000Y-35410000D03*
X58940000Y-32870000D03*
X61480000Y-35410000D03*
X61480000Y-32870000D03*
X64020000Y-35410000D03*
X64020000Y-32870000D03*
X66560000Y-35410000D03*
X66560000Y-32870000D03*
X69100000Y-35410000D03*
X69100000Y-32870000D03*
X71640000Y-35410000D03*
X71640000Y-32870000D03*
X74180000Y-35410000D03*
X74180000Y-32870000D03*
X76720000Y-35410000D03*
X76720000Y-32870000D03*
X79260000Y-35410000D03*
X79260000Y-32870000D03*
X81800000Y-35410000D03*
X81800000Y-32870000D03*
X84340000Y-35410000D03*
X84340000Y-32870000D03*
X86880000Y-35410000D03*
X86880000Y-32870000D03*
X89420000Y-35410000D03*
X89420000Y-32870000D03*
X91960000Y-35410000D03*
X91960000Y-32870000D03*
X94500000Y-35410000D03*
X94500000Y-32870000D03*
X97040000Y-35410000D03*
X97040000Y-32870000D03*
D12*
X3060000Y-35410000D03*
D13*
X3060000Y-32870000D03*
X5600000Y-35410000D03*
X5600000Y-32870000D03*
X8140000Y-35410000D03*
X8140000Y-32870000D03*
X10680000Y-35410000D03*
X10680000Y-32870000D03*
X13220000Y-35410000D03*
X13220000Y-32870000D03*
D11*
X4000000Y-41000000D03*
D14*
X3500000Y-3500000D03*
X3500000Y-15000000D03*
X6500000Y-3500000D03*
X6500000Y-15000000D03*
X9500000Y-3500000D03*
X9500000Y-15000000D03*
X12500000Y-3500000D03*
X12500000Y-15000000D03*
X15500000Y-3500000D03*
X15500000Y-15000000D03*
X18500000Y-3500000D03*
X18500000Y-15000000D03*
X21500000Y-3500000D03*
X21500000Y-15000000D03*
X24500000Y-3500000D03*
X24500000Y-15000000D03*
X27500000Y-3500000D03*
X27500000Y-15000000D03*
X30500000Y-3500000D03*
X30500000Y-15000000D03*
X33500000Y-3500000D03*
X33500000Y-15000000D03*
X36500000Y-3500000D03*
X36500000Y-15000000D03*
X39500000Y-3500000D03*
X39500000Y-15000000D03*
X42500000Y-3500000D03*
X42500000Y-15000000D03*
X45500000Y-3500000D03*
X45500000Y-15000000D03*
X48500000Y-3500000D03*
X48500000Y-15000000D03*
X51500000Y-3500000D03*
X51500000Y-15000000D03*
X54500000Y-3500000D03*
X54500000Y-15000000D03*
X57500000Y-3500000D03*
X57500000Y-15000000D03*
X60500000Y-3500000D03*
X60500000Y-15000000D03*
X63500000Y-3500000D03*
X63500000Y-15000000D03*
X66500000Y-3500000D03*
X66500000Y-15000000D03*
X69500000Y-3500000D03*
X69500000Y-15000000D03*
X72500000Y-3500000D03*
X72500000Y-15000000D03*
X75500000Y-3500000D03*
X75500000Y-15000000D03*
X78500000Y-3500000D03*
X78500000Y-15000000D03*
X81500000Y-3500000D03*
X81500000Y-15000000D03*
X84500000Y-3500000D03*
X84500000Y-15000000D03*
X87500000Y-3500000D03*
X87500000Y-15000000D03*
X90500000Y-3500000D03*
X90500000Y-15000000D03*
X93500000Y-3500000D03*
X93500000Y-15000000D03*
X96500000Y-3500000D03*
X96500000Y-15000000D03*
M02*
