G04 #@! TF.FileFunction,Copper,L2,Bot,Signal*
%FSLAX46Y46*%
G04 Gerber Fmt 4.6, Leading zero omitted, Abs format (unit mm)*
G04 Created by KiCad (PCBNEW 4.0.7-e2-6376~58~ubuntu17.04.1) date Tue Nov 28 13:42:15 2017*
%MOMM*%
%LPD*%
G01*
G04 APERTURE LIST*
%ADD10C,0.100000*%
%ADD11C,5.600000*%
%ADD12R,1.700000X1.700000*%
%ADD13O,1.700000X1.700000*%
G04 APERTURE END LIST*
D10*
D11*
X192000000Y-91500000D03*
X100000000Y-91500000D03*
X192000000Y-111000000D03*
D12*
X114300000Y-105410000D03*
D13*
X114300000Y-102870000D03*
X116840000Y-105410000D03*
X116840000Y-102870000D03*
X119380000Y-105410000D03*
X119380000Y-102870000D03*
X121920000Y-105410000D03*
X121920000Y-102870000D03*
X124460000Y-105410000D03*
X124460000Y-102870000D03*
X127000000Y-105410000D03*
X127000000Y-102870000D03*
X129540000Y-105410000D03*
X129540000Y-102870000D03*
X132080000Y-105410000D03*
X132080000Y-102870000D03*
X134620000Y-105410000D03*
X134620000Y-102870000D03*
X137160000Y-105410000D03*
X137160000Y-102870000D03*
X139700000Y-105410000D03*
X139700000Y-102870000D03*
X142240000Y-105410000D03*
X142240000Y-102870000D03*
X144780000Y-105410000D03*
X144780000Y-102870000D03*
X147320000Y-105410000D03*
X147320000Y-102870000D03*
X149860000Y-105410000D03*
X149860000Y-102870000D03*
X152400000Y-105410000D03*
X152400000Y-102870000D03*
X154940000Y-105410000D03*
X154940000Y-102870000D03*
X157480000Y-105410000D03*
X157480000Y-102870000D03*
X160020000Y-105410000D03*
X160020000Y-102870000D03*
X162560000Y-105410000D03*
X162560000Y-102870000D03*
X165100000Y-105410000D03*
X165100000Y-102870000D03*
X167640000Y-105410000D03*
X167640000Y-102870000D03*
X170180000Y-105410000D03*
X170180000Y-102870000D03*
X172720000Y-105410000D03*
X172720000Y-102870000D03*
X175260000Y-105410000D03*
X175260000Y-102870000D03*
X177800000Y-105410000D03*
X177800000Y-102870000D03*
X180340000Y-105410000D03*
X180340000Y-102870000D03*
X182880000Y-105410000D03*
X182880000Y-102870000D03*
X185420000Y-105410000D03*
X185420000Y-102870000D03*
X187960000Y-105410000D03*
X187960000Y-102870000D03*
X190500000Y-105410000D03*
X190500000Y-102870000D03*
X193040000Y-105410000D03*
X193040000Y-102870000D03*
D12*
X99060000Y-105410000D03*
D13*
X99060000Y-102870000D03*
X101600000Y-105410000D03*
X101600000Y-102870000D03*
X104140000Y-105410000D03*
X104140000Y-102870000D03*
X106680000Y-105410000D03*
X106680000Y-102870000D03*
X109220000Y-105410000D03*
X109220000Y-102870000D03*
D11*
X100000000Y-111000000D03*
D10*
G36*
X193950618Y-70705002D02*
X194756514Y-71243485D01*
X195294998Y-72049383D01*
X195494000Y-73049835D01*
X195494000Y-111950165D01*
X195294998Y-112950617D01*
X194756514Y-113756515D01*
X193950618Y-114294998D01*
X192950165Y-114494000D01*
X99049835Y-114494000D01*
X98049383Y-114294998D01*
X97243485Y-113756514D01*
X96705002Y-112950618D01*
X96506000Y-111950165D01*
X96506000Y-111639866D01*
X96768440Y-111639866D01*
X97259294Y-112827823D01*
X98167396Y-113737511D01*
X99354495Y-114230438D01*
X100639866Y-114231560D01*
X101827823Y-113740706D01*
X102737511Y-112832604D01*
X103230438Y-111645505D01*
X103230442Y-111639866D01*
X188768440Y-111639866D01*
X189259294Y-112827823D01*
X190167396Y-113737511D01*
X191354495Y-114230438D01*
X192639866Y-114231560D01*
X193827823Y-113740706D01*
X194737511Y-112832604D01*
X195230438Y-111645505D01*
X195231560Y-110360134D01*
X194740706Y-109172177D01*
X193832604Y-108262489D01*
X192645505Y-107769562D01*
X191360134Y-107768440D01*
X190172177Y-108259294D01*
X189262489Y-109167396D01*
X188769562Y-110354495D01*
X188768440Y-111639866D01*
X103230442Y-111639866D01*
X103231560Y-110360134D01*
X102740706Y-109172177D01*
X101832604Y-108262489D01*
X100645505Y-107769562D01*
X99360134Y-107768440D01*
X98172177Y-108259294D01*
X97262489Y-109167396D01*
X96769562Y-110354495D01*
X96768440Y-111639866D01*
X96506000Y-111639866D01*
X96506000Y-105672500D01*
X97960000Y-105672500D01*
X97960000Y-106309728D01*
X97998060Y-106401614D01*
X98068386Y-106471940D01*
X98160272Y-106510000D01*
X98797500Y-106510000D01*
X98860000Y-106447500D01*
X98860000Y-105610000D01*
X99260000Y-105610000D01*
X99260000Y-106447500D01*
X99322500Y-106510000D01*
X99959728Y-106510000D01*
X100051614Y-106471940D01*
X100121940Y-106401614D01*
X100160000Y-106309728D01*
X100160000Y-105776751D01*
X100562918Y-105776751D01*
X100782211Y-106145708D01*
X101126005Y-106402660D01*
X101233253Y-106447061D01*
X101400000Y-106428040D01*
X101400000Y-105610000D01*
X101800000Y-105610000D01*
X101800000Y-106428040D01*
X101966747Y-106447061D01*
X102073995Y-106402660D01*
X102417789Y-106145708D01*
X102637082Y-105776751D01*
X103102918Y-105776751D01*
X103322211Y-106145708D01*
X103666005Y-106402660D01*
X103773253Y-106447061D01*
X103940000Y-106428040D01*
X103940000Y-105610000D01*
X104340000Y-105610000D01*
X104340000Y-106428040D01*
X104506747Y-106447061D01*
X104613995Y-106402660D01*
X104957789Y-106145708D01*
X105177082Y-105776751D01*
X105642918Y-105776751D01*
X105862211Y-106145708D01*
X106206005Y-106402660D01*
X106313253Y-106447061D01*
X106480000Y-106428040D01*
X106480000Y-105610000D01*
X106880000Y-105610000D01*
X106880000Y-106428040D01*
X107046747Y-106447061D01*
X107153995Y-106402660D01*
X107497789Y-106145708D01*
X107717082Y-105776751D01*
X108182918Y-105776751D01*
X108402211Y-106145708D01*
X108746005Y-106402660D01*
X108853253Y-106447061D01*
X109020000Y-106428040D01*
X109020000Y-105610000D01*
X109420000Y-105610000D01*
X109420000Y-106428040D01*
X109586747Y-106447061D01*
X109693995Y-106402660D01*
X110037789Y-106145708D01*
X110257082Y-105776751D01*
X110239186Y-105610000D01*
X109420000Y-105610000D01*
X109020000Y-105610000D01*
X108200814Y-105610000D01*
X108182918Y-105776751D01*
X107717082Y-105776751D01*
X107699186Y-105610000D01*
X106880000Y-105610000D01*
X106480000Y-105610000D01*
X105660814Y-105610000D01*
X105642918Y-105776751D01*
X105177082Y-105776751D01*
X105159186Y-105610000D01*
X104340000Y-105610000D01*
X103940000Y-105610000D01*
X103120814Y-105610000D01*
X103102918Y-105776751D01*
X102637082Y-105776751D01*
X102619186Y-105610000D01*
X101800000Y-105610000D01*
X101400000Y-105610000D01*
X100580814Y-105610000D01*
X100562918Y-105776751D01*
X100160000Y-105776751D01*
X100160000Y-105672500D01*
X100097500Y-105610000D01*
X99260000Y-105610000D01*
X98860000Y-105610000D01*
X98022500Y-105610000D01*
X97960000Y-105672500D01*
X96506000Y-105672500D01*
X96506000Y-104510272D01*
X97960000Y-104510272D01*
X97960000Y-105147500D01*
X98022500Y-105210000D01*
X98860000Y-105210000D01*
X98860000Y-104372500D01*
X99260000Y-104372500D01*
X99260000Y-105210000D01*
X100097500Y-105210000D01*
X100160000Y-105147500D01*
X100160000Y-105043249D01*
X100562918Y-105043249D01*
X100580814Y-105210000D01*
X101400000Y-105210000D01*
X101400000Y-104391960D01*
X101800000Y-104391960D01*
X101800000Y-105210000D01*
X102619186Y-105210000D01*
X102637082Y-105043249D01*
X103102918Y-105043249D01*
X103120814Y-105210000D01*
X103940000Y-105210000D01*
X103940000Y-104391960D01*
X104340000Y-104391960D01*
X104340000Y-105210000D01*
X105159186Y-105210000D01*
X105177082Y-105043249D01*
X105642918Y-105043249D01*
X105660814Y-105210000D01*
X106480000Y-105210000D01*
X106480000Y-104391960D01*
X106880000Y-104391960D01*
X106880000Y-105210000D01*
X107699186Y-105210000D01*
X107717082Y-105043249D01*
X108182918Y-105043249D01*
X108200814Y-105210000D01*
X109020000Y-105210000D01*
X109020000Y-104391960D01*
X109420000Y-104391960D01*
X109420000Y-105210000D01*
X110239186Y-105210000D01*
X110257082Y-105043249D01*
X110037789Y-104674292D01*
X109884870Y-104560000D01*
X113010557Y-104560000D01*
X113010557Y-106260000D01*
X113040610Y-106419719D01*
X113135004Y-106566411D01*
X113279032Y-106664821D01*
X113450000Y-106699443D01*
X115150000Y-106699443D01*
X115309719Y-106669390D01*
X115456411Y-106574996D01*
X115554821Y-106430968D01*
X115589443Y-106260000D01*
X115589443Y-105588144D01*
X115656510Y-105925313D01*
X115934196Y-106340900D01*
X116349783Y-106618586D01*
X116840000Y-106716096D01*
X117330217Y-106618586D01*
X117745804Y-106340900D01*
X118023490Y-105925313D01*
X118110000Y-105490397D01*
X118196510Y-105925313D01*
X118474196Y-106340900D01*
X118889783Y-106618586D01*
X119380000Y-106716096D01*
X119870217Y-106618586D01*
X120285804Y-106340900D01*
X120563490Y-105925313D01*
X120650000Y-105490397D01*
X120736510Y-105925313D01*
X121014196Y-106340900D01*
X121429783Y-106618586D01*
X121920000Y-106716096D01*
X122410217Y-106618586D01*
X122825804Y-106340900D01*
X123103490Y-105925313D01*
X123190000Y-105490397D01*
X123276510Y-105925313D01*
X123554196Y-106340900D01*
X123969783Y-106618586D01*
X124460000Y-106716096D01*
X124950217Y-106618586D01*
X125365804Y-106340900D01*
X125643490Y-105925313D01*
X125730000Y-105490397D01*
X125816510Y-105925313D01*
X126094196Y-106340900D01*
X126509783Y-106618586D01*
X127000000Y-106716096D01*
X127490217Y-106618586D01*
X127905804Y-106340900D01*
X128183490Y-105925313D01*
X128270000Y-105490397D01*
X128356510Y-105925313D01*
X128634196Y-106340900D01*
X129049783Y-106618586D01*
X129540000Y-106716096D01*
X130030217Y-106618586D01*
X130445804Y-106340900D01*
X130723490Y-105925313D01*
X130810000Y-105490397D01*
X130896510Y-105925313D01*
X131174196Y-106340900D01*
X131589783Y-106618586D01*
X132080000Y-106716096D01*
X132570217Y-106618586D01*
X132985804Y-106340900D01*
X133263490Y-105925313D01*
X133350000Y-105490397D01*
X133436510Y-105925313D01*
X133714196Y-106340900D01*
X134129783Y-106618586D01*
X134620000Y-106716096D01*
X135110217Y-106618586D01*
X135525804Y-106340900D01*
X135803490Y-105925313D01*
X135890000Y-105490397D01*
X135976510Y-105925313D01*
X136254196Y-106340900D01*
X136669783Y-106618586D01*
X137160000Y-106716096D01*
X137650217Y-106618586D01*
X138065804Y-106340900D01*
X138343490Y-105925313D01*
X138430000Y-105490397D01*
X138516510Y-105925313D01*
X138794196Y-106340900D01*
X139209783Y-106618586D01*
X139700000Y-106716096D01*
X140190217Y-106618586D01*
X140605804Y-106340900D01*
X140883490Y-105925313D01*
X140970000Y-105490397D01*
X141056510Y-105925313D01*
X141334196Y-106340900D01*
X141749783Y-106618586D01*
X142240000Y-106716096D01*
X142730217Y-106618586D01*
X143145804Y-106340900D01*
X143423490Y-105925313D01*
X143510000Y-105490397D01*
X143596510Y-105925313D01*
X143874196Y-106340900D01*
X144289783Y-106618586D01*
X144780000Y-106716096D01*
X145270217Y-106618586D01*
X145685804Y-106340900D01*
X145963490Y-105925313D01*
X146050000Y-105490397D01*
X146136510Y-105925313D01*
X146414196Y-106340900D01*
X146829783Y-106618586D01*
X147320000Y-106716096D01*
X147810217Y-106618586D01*
X148225804Y-106340900D01*
X148503490Y-105925313D01*
X148590000Y-105490397D01*
X148676510Y-105925313D01*
X148954196Y-106340900D01*
X149369783Y-106618586D01*
X149860000Y-106716096D01*
X150350217Y-106618586D01*
X150765804Y-106340900D01*
X151043490Y-105925313D01*
X151130000Y-105490397D01*
X151216510Y-105925313D01*
X151494196Y-106340900D01*
X151909783Y-106618586D01*
X152400000Y-106716096D01*
X152890217Y-106618586D01*
X153305804Y-106340900D01*
X153583490Y-105925313D01*
X153670000Y-105490397D01*
X153756510Y-105925313D01*
X154034196Y-106340900D01*
X154449783Y-106618586D01*
X154940000Y-106716096D01*
X155430217Y-106618586D01*
X155845804Y-106340900D01*
X156123490Y-105925313D01*
X156210000Y-105490397D01*
X156296510Y-105925313D01*
X156574196Y-106340900D01*
X156989783Y-106618586D01*
X157480000Y-106716096D01*
X157970217Y-106618586D01*
X158385804Y-106340900D01*
X158663490Y-105925313D01*
X158750000Y-105490397D01*
X158836510Y-105925313D01*
X159114196Y-106340900D01*
X159529783Y-106618586D01*
X160020000Y-106716096D01*
X160510217Y-106618586D01*
X160925804Y-106340900D01*
X161203490Y-105925313D01*
X161290000Y-105490397D01*
X161376510Y-105925313D01*
X161654196Y-106340900D01*
X162069783Y-106618586D01*
X162560000Y-106716096D01*
X163050217Y-106618586D01*
X163465804Y-106340900D01*
X163743490Y-105925313D01*
X163830000Y-105490397D01*
X163916510Y-105925313D01*
X164194196Y-106340900D01*
X164609783Y-106618586D01*
X165100000Y-106716096D01*
X165590217Y-106618586D01*
X166005804Y-106340900D01*
X166283490Y-105925313D01*
X166370000Y-105490397D01*
X166456510Y-105925313D01*
X166734196Y-106340900D01*
X167149783Y-106618586D01*
X167640000Y-106716096D01*
X168130217Y-106618586D01*
X168545804Y-106340900D01*
X168823490Y-105925313D01*
X168910000Y-105490397D01*
X168996510Y-105925313D01*
X169274196Y-106340900D01*
X169689783Y-106618586D01*
X170180000Y-106716096D01*
X170670217Y-106618586D01*
X171085804Y-106340900D01*
X171363490Y-105925313D01*
X171450000Y-105490397D01*
X171536510Y-105925313D01*
X171814196Y-106340900D01*
X172229783Y-106618586D01*
X172720000Y-106716096D01*
X173210217Y-106618586D01*
X173625804Y-106340900D01*
X173903490Y-105925313D01*
X173990000Y-105490397D01*
X174076510Y-105925313D01*
X174354196Y-106340900D01*
X174769783Y-106618586D01*
X175260000Y-106716096D01*
X175750217Y-106618586D01*
X176165804Y-106340900D01*
X176443490Y-105925313D01*
X176530000Y-105490397D01*
X176616510Y-105925313D01*
X176894196Y-106340900D01*
X177309783Y-106618586D01*
X177800000Y-106716096D01*
X178290217Y-106618586D01*
X178705804Y-106340900D01*
X178983490Y-105925313D01*
X179070000Y-105490397D01*
X179156510Y-105925313D01*
X179434196Y-106340900D01*
X179849783Y-106618586D01*
X180340000Y-106716096D01*
X180830217Y-106618586D01*
X181245804Y-106340900D01*
X181523490Y-105925313D01*
X181610000Y-105490397D01*
X181696510Y-105925313D01*
X181974196Y-106340900D01*
X182389783Y-106618586D01*
X182880000Y-106716096D01*
X183370217Y-106618586D01*
X183785804Y-106340900D01*
X184063490Y-105925313D01*
X184150000Y-105490397D01*
X184236510Y-105925313D01*
X184514196Y-106340900D01*
X184929783Y-106618586D01*
X185420000Y-106716096D01*
X185910217Y-106618586D01*
X186325804Y-106340900D01*
X186603490Y-105925313D01*
X186690000Y-105490397D01*
X186776510Y-105925313D01*
X187054196Y-106340900D01*
X187469783Y-106618586D01*
X187960000Y-106716096D01*
X188450217Y-106618586D01*
X188865804Y-106340900D01*
X189143490Y-105925313D01*
X189230000Y-105490397D01*
X189316510Y-105925313D01*
X189594196Y-106340900D01*
X190009783Y-106618586D01*
X190500000Y-106716096D01*
X190990217Y-106618586D01*
X191405804Y-106340900D01*
X191683490Y-105925313D01*
X191770000Y-105490397D01*
X191856510Y-105925313D01*
X192134196Y-106340900D01*
X192549783Y-106618586D01*
X193040000Y-106716096D01*
X193530217Y-106618586D01*
X193945804Y-106340900D01*
X194223490Y-105925313D01*
X194321000Y-105435096D01*
X194321000Y-105384904D01*
X194223490Y-104894687D01*
X193945804Y-104479100D01*
X193530217Y-104201414D01*
X193221467Y-104140000D01*
X193530217Y-104078586D01*
X193945804Y-103800900D01*
X194223490Y-103385313D01*
X194321000Y-102895096D01*
X194321000Y-102844904D01*
X194223490Y-102354687D01*
X193945804Y-101939100D01*
X193530217Y-101661414D01*
X193040000Y-101563904D01*
X192549783Y-101661414D01*
X192134196Y-101939100D01*
X191856510Y-102354687D01*
X191770000Y-102789603D01*
X191683490Y-102354687D01*
X191405804Y-101939100D01*
X190990217Y-101661414D01*
X190500000Y-101563904D01*
X190009783Y-101661414D01*
X189594196Y-101939100D01*
X189316510Y-102354687D01*
X189230000Y-102789603D01*
X189143490Y-102354687D01*
X188865804Y-101939100D01*
X188450217Y-101661414D01*
X187960000Y-101563904D01*
X187469783Y-101661414D01*
X187054196Y-101939100D01*
X186776510Y-102354687D01*
X186690000Y-102789603D01*
X186603490Y-102354687D01*
X186325804Y-101939100D01*
X185910217Y-101661414D01*
X185420000Y-101563904D01*
X184929783Y-101661414D01*
X184514196Y-101939100D01*
X184236510Y-102354687D01*
X184150000Y-102789603D01*
X184063490Y-102354687D01*
X183785804Y-101939100D01*
X183370217Y-101661414D01*
X182880000Y-101563904D01*
X182389783Y-101661414D01*
X181974196Y-101939100D01*
X181696510Y-102354687D01*
X181610000Y-102789603D01*
X181523490Y-102354687D01*
X181245804Y-101939100D01*
X180830217Y-101661414D01*
X180340000Y-101563904D01*
X179849783Y-101661414D01*
X179434196Y-101939100D01*
X179156510Y-102354687D01*
X179070000Y-102789603D01*
X178983490Y-102354687D01*
X178705804Y-101939100D01*
X178290217Y-101661414D01*
X177800000Y-101563904D01*
X177309783Y-101661414D01*
X176894196Y-101939100D01*
X176616510Y-102354687D01*
X176530000Y-102789603D01*
X176443490Y-102354687D01*
X176165804Y-101939100D01*
X175750217Y-101661414D01*
X175260000Y-101563904D01*
X174769783Y-101661414D01*
X174354196Y-101939100D01*
X174076510Y-102354687D01*
X173990000Y-102789603D01*
X173903490Y-102354687D01*
X173625804Y-101939100D01*
X173210217Y-101661414D01*
X172720000Y-101563904D01*
X172229783Y-101661414D01*
X171814196Y-101939100D01*
X171536510Y-102354687D01*
X171450000Y-102789603D01*
X171363490Y-102354687D01*
X171085804Y-101939100D01*
X170670217Y-101661414D01*
X170180000Y-101563904D01*
X169689783Y-101661414D01*
X169274196Y-101939100D01*
X168996510Y-102354687D01*
X168910000Y-102789603D01*
X168823490Y-102354687D01*
X168545804Y-101939100D01*
X168130217Y-101661414D01*
X167640000Y-101563904D01*
X167149783Y-101661414D01*
X166734196Y-101939100D01*
X166456510Y-102354687D01*
X166370000Y-102789603D01*
X166283490Y-102354687D01*
X166005804Y-101939100D01*
X165590217Y-101661414D01*
X165100000Y-101563904D01*
X164609783Y-101661414D01*
X164194196Y-101939100D01*
X163916510Y-102354687D01*
X163830000Y-102789603D01*
X163743490Y-102354687D01*
X163465804Y-101939100D01*
X163050217Y-101661414D01*
X162560000Y-101563904D01*
X162069783Y-101661414D01*
X161654196Y-101939100D01*
X161376510Y-102354687D01*
X161290000Y-102789603D01*
X161203490Y-102354687D01*
X160925804Y-101939100D01*
X160510217Y-101661414D01*
X160020000Y-101563904D01*
X159529783Y-101661414D01*
X159114196Y-101939100D01*
X158836510Y-102354687D01*
X158750000Y-102789603D01*
X158663490Y-102354687D01*
X158385804Y-101939100D01*
X157970217Y-101661414D01*
X157480000Y-101563904D01*
X156989783Y-101661414D01*
X156574196Y-101939100D01*
X156296510Y-102354687D01*
X156210000Y-102789603D01*
X156123490Y-102354687D01*
X155845804Y-101939100D01*
X155430217Y-101661414D01*
X154940000Y-101563904D01*
X154449783Y-101661414D01*
X154034196Y-101939100D01*
X153756510Y-102354687D01*
X153670000Y-102789603D01*
X153583490Y-102354687D01*
X153305804Y-101939100D01*
X152890217Y-101661414D01*
X152400000Y-101563904D01*
X151909783Y-101661414D01*
X151494196Y-101939100D01*
X151216510Y-102354687D01*
X151130000Y-102789603D01*
X151043490Y-102354687D01*
X150765804Y-101939100D01*
X150350217Y-101661414D01*
X149860000Y-101563904D01*
X149369783Y-101661414D01*
X148954196Y-101939100D01*
X148676510Y-102354687D01*
X148590000Y-102789603D01*
X148503490Y-102354687D01*
X148225804Y-101939100D01*
X147810217Y-101661414D01*
X147320000Y-101563904D01*
X146829783Y-101661414D01*
X146414196Y-101939100D01*
X146136510Y-102354687D01*
X146050000Y-102789603D01*
X145963490Y-102354687D01*
X145685804Y-101939100D01*
X145270217Y-101661414D01*
X144780000Y-101563904D01*
X144289783Y-101661414D01*
X143874196Y-101939100D01*
X143596510Y-102354687D01*
X143510000Y-102789603D01*
X143423490Y-102354687D01*
X143145804Y-101939100D01*
X142730217Y-101661414D01*
X142240000Y-101563904D01*
X141749783Y-101661414D01*
X141334196Y-101939100D01*
X141056510Y-102354687D01*
X140970000Y-102789603D01*
X140883490Y-102354687D01*
X140605804Y-101939100D01*
X140190217Y-101661414D01*
X139700000Y-101563904D01*
X139209783Y-101661414D01*
X138794196Y-101939100D01*
X138516510Y-102354687D01*
X138430000Y-102789603D01*
X138343490Y-102354687D01*
X138065804Y-101939100D01*
X137650217Y-101661414D01*
X137160000Y-101563904D01*
X136669783Y-101661414D01*
X136254196Y-101939100D01*
X135976510Y-102354687D01*
X135890000Y-102789603D01*
X135803490Y-102354687D01*
X135525804Y-101939100D01*
X135110217Y-101661414D01*
X134620000Y-101563904D01*
X134129783Y-101661414D01*
X133714196Y-101939100D01*
X133436510Y-102354687D01*
X133350000Y-102789603D01*
X133263490Y-102354687D01*
X132985804Y-101939100D01*
X132570217Y-101661414D01*
X132080000Y-101563904D01*
X131589783Y-101661414D01*
X131174196Y-101939100D01*
X130896510Y-102354687D01*
X130810000Y-102789603D01*
X130723490Y-102354687D01*
X130445804Y-101939100D01*
X130030217Y-101661414D01*
X129540000Y-101563904D01*
X129049783Y-101661414D01*
X128634196Y-101939100D01*
X128356510Y-102354687D01*
X128270000Y-102789603D01*
X128183490Y-102354687D01*
X127905804Y-101939100D01*
X127490217Y-101661414D01*
X127000000Y-101563904D01*
X126509783Y-101661414D01*
X126094196Y-101939100D01*
X125816510Y-102354687D01*
X125730000Y-102789603D01*
X125643490Y-102354687D01*
X125365804Y-101939100D01*
X124950217Y-101661414D01*
X124460000Y-101563904D01*
X123969783Y-101661414D01*
X123554196Y-101939100D01*
X123276510Y-102354687D01*
X123190000Y-102789603D01*
X123103490Y-102354687D01*
X122825804Y-101939100D01*
X122410217Y-101661414D01*
X121920000Y-101563904D01*
X121429783Y-101661414D01*
X121014196Y-101939100D01*
X120736510Y-102354687D01*
X120650000Y-102789603D01*
X120563490Y-102354687D01*
X120285804Y-101939100D01*
X119870217Y-101661414D01*
X119380000Y-101563904D01*
X118889783Y-101661414D01*
X118474196Y-101939100D01*
X118196510Y-102354687D01*
X118110000Y-102789603D01*
X118023490Y-102354687D01*
X117745804Y-101939100D01*
X117330217Y-101661414D01*
X116840000Y-101563904D01*
X116349783Y-101661414D01*
X115934196Y-101939100D01*
X115656510Y-102354687D01*
X115570000Y-102789603D01*
X115483490Y-102354687D01*
X115205804Y-101939100D01*
X114790217Y-101661414D01*
X114300000Y-101563904D01*
X113809783Y-101661414D01*
X113394196Y-101939100D01*
X113116510Y-102354687D01*
X113019000Y-102844904D01*
X113019000Y-102895096D01*
X113116510Y-103385313D01*
X113394196Y-103800900D01*
X113809783Y-104078586D01*
X114020786Y-104120557D01*
X113450000Y-104120557D01*
X113290281Y-104150610D01*
X113143589Y-104245004D01*
X113045179Y-104389032D01*
X113010557Y-104560000D01*
X109884870Y-104560000D01*
X109693995Y-104417340D01*
X109586747Y-104372939D01*
X109420000Y-104391960D01*
X109020000Y-104391960D01*
X108853253Y-104372939D01*
X108746005Y-104417340D01*
X108402211Y-104674292D01*
X108182918Y-105043249D01*
X107717082Y-105043249D01*
X107497789Y-104674292D01*
X107153995Y-104417340D01*
X107046747Y-104372939D01*
X106880000Y-104391960D01*
X106480000Y-104391960D01*
X106313253Y-104372939D01*
X106206005Y-104417340D01*
X105862211Y-104674292D01*
X105642918Y-105043249D01*
X105177082Y-105043249D01*
X104957789Y-104674292D01*
X104613995Y-104417340D01*
X104506747Y-104372939D01*
X104340000Y-104391960D01*
X103940000Y-104391960D01*
X103773253Y-104372939D01*
X103666005Y-104417340D01*
X103322211Y-104674292D01*
X103102918Y-105043249D01*
X102637082Y-105043249D01*
X102417789Y-104674292D01*
X102073995Y-104417340D01*
X101966747Y-104372939D01*
X101800000Y-104391960D01*
X101400000Y-104391960D01*
X101233253Y-104372939D01*
X101126005Y-104417340D01*
X100782211Y-104674292D01*
X100562918Y-105043249D01*
X100160000Y-105043249D01*
X100160000Y-104510272D01*
X100121940Y-104418386D01*
X100051614Y-104348060D01*
X99959728Y-104310000D01*
X99322500Y-104310000D01*
X99260000Y-104372500D01*
X98860000Y-104372500D01*
X98797500Y-104310000D01*
X98160272Y-104310000D01*
X98068386Y-104348060D01*
X97998060Y-104418386D01*
X97960000Y-104510272D01*
X96506000Y-104510272D01*
X96506000Y-103236751D01*
X98022918Y-103236751D01*
X98242211Y-103605708D01*
X98586005Y-103862660D01*
X98693253Y-103907061D01*
X98860000Y-103888040D01*
X98860000Y-103070000D01*
X99260000Y-103070000D01*
X99260000Y-103888040D01*
X99426747Y-103907061D01*
X99533995Y-103862660D01*
X99877789Y-103605708D01*
X100097082Y-103236751D01*
X100562918Y-103236751D01*
X100782211Y-103605708D01*
X101126005Y-103862660D01*
X101233253Y-103907061D01*
X101400000Y-103888040D01*
X101400000Y-103070000D01*
X101800000Y-103070000D01*
X101800000Y-103888040D01*
X101966747Y-103907061D01*
X102073995Y-103862660D01*
X102417789Y-103605708D01*
X102637082Y-103236751D01*
X103102918Y-103236751D01*
X103322211Y-103605708D01*
X103666005Y-103862660D01*
X103773253Y-103907061D01*
X103940000Y-103888040D01*
X103940000Y-103070000D01*
X104340000Y-103070000D01*
X104340000Y-103888040D01*
X104506747Y-103907061D01*
X104613995Y-103862660D01*
X104957789Y-103605708D01*
X105177082Y-103236751D01*
X105642918Y-103236751D01*
X105862211Y-103605708D01*
X106206005Y-103862660D01*
X106313253Y-103907061D01*
X106480000Y-103888040D01*
X106480000Y-103070000D01*
X106880000Y-103070000D01*
X106880000Y-103888040D01*
X107046747Y-103907061D01*
X107153995Y-103862660D01*
X107497789Y-103605708D01*
X107717082Y-103236751D01*
X108182918Y-103236751D01*
X108402211Y-103605708D01*
X108746005Y-103862660D01*
X108853253Y-103907061D01*
X109020000Y-103888040D01*
X109020000Y-103070000D01*
X109420000Y-103070000D01*
X109420000Y-103888040D01*
X109586747Y-103907061D01*
X109693995Y-103862660D01*
X110037789Y-103605708D01*
X110257082Y-103236751D01*
X110239186Y-103070000D01*
X109420000Y-103070000D01*
X109020000Y-103070000D01*
X108200814Y-103070000D01*
X108182918Y-103236751D01*
X107717082Y-103236751D01*
X107699186Y-103070000D01*
X106880000Y-103070000D01*
X106480000Y-103070000D01*
X105660814Y-103070000D01*
X105642918Y-103236751D01*
X105177082Y-103236751D01*
X105159186Y-103070000D01*
X104340000Y-103070000D01*
X103940000Y-103070000D01*
X103120814Y-103070000D01*
X103102918Y-103236751D01*
X102637082Y-103236751D01*
X102619186Y-103070000D01*
X101800000Y-103070000D01*
X101400000Y-103070000D01*
X100580814Y-103070000D01*
X100562918Y-103236751D01*
X100097082Y-103236751D01*
X100079186Y-103070000D01*
X99260000Y-103070000D01*
X98860000Y-103070000D01*
X98040814Y-103070000D01*
X98022918Y-103236751D01*
X96506000Y-103236751D01*
X96506000Y-102503249D01*
X98022918Y-102503249D01*
X98040814Y-102670000D01*
X98860000Y-102670000D01*
X98860000Y-101851960D01*
X99260000Y-101851960D01*
X99260000Y-102670000D01*
X100079186Y-102670000D01*
X100097082Y-102503249D01*
X100562918Y-102503249D01*
X100580814Y-102670000D01*
X101400000Y-102670000D01*
X101400000Y-101851960D01*
X101800000Y-101851960D01*
X101800000Y-102670000D01*
X102619186Y-102670000D01*
X102637082Y-102503249D01*
X103102918Y-102503249D01*
X103120814Y-102670000D01*
X103940000Y-102670000D01*
X103940000Y-101851960D01*
X104340000Y-101851960D01*
X104340000Y-102670000D01*
X105159186Y-102670000D01*
X105177082Y-102503249D01*
X105642918Y-102503249D01*
X105660814Y-102670000D01*
X106480000Y-102670000D01*
X106480000Y-101851960D01*
X106880000Y-101851960D01*
X106880000Y-102670000D01*
X107699186Y-102670000D01*
X107717082Y-102503249D01*
X108182918Y-102503249D01*
X108200814Y-102670000D01*
X109020000Y-102670000D01*
X109020000Y-101851960D01*
X109420000Y-101851960D01*
X109420000Y-102670000D01*
X110239186Y-102670000D01*
X110257082Y-102503249D01*
X110037789Y-102134292D01*
X109693995Y-101877340D01*
X109586747Y-101832939D01*
X109420000Y-101851960D01*
X109020000Y-101851960D01*
X108853253Y-101832939D01*
X108746005Y-101877340D01*
X108402211Y-102134292D01*
X108182918Y-102503249D01*
X107717082Y-102503249D01*
X107497789Y-102134292D01*
X107153995Y-101877340D01*
X107046747Y-101832939D01*
X106880000Y-101851960D01*
X106480000Y-101851960D01*
X106313253Y-101832939D01*
X106206005Y-101877340D01*
X105862211Y-102134292D01*
X105642918Y-102503249D01*
X105177082Y-102503249D01*
X104957789Y-102134292D01*
X104613995Y-101877340D01*
X104506747Y-101832939D01*
X104340000Y-101851960D01*
X103940000Y-101851960D01*
X103773253Y-101832939D01*
X103666005Y-101877340D01*
X103322211Y-102134292D01*
X103102918Y-102503249D01*
X102637082Y-102503249D01*
X102417789Y-102134292D01*
X102073995Y-101877340D01*
X101966747Y-101832939D01*
X101800000Y-101851960D01*
X101400000Y-101851960D01*
X101233253Y-101832939D01*
X101126005Y-101877340D01*
X100782211Y-102134292D01*
X100562918Y-102503249D01*
X100097082Y-102503249D01*
X99877789Y-102134292D01*
X99533995Y-101877340D01*
X99426747Y-101832939D01*
X99260000Y-101851960D01*
X98860000Y-101851960D01*
X98693253Y-101832939D01*
X98586005Y-101877340D01*
X98242211Y-102134292D01*
X98022918Y-102503249D01*
X96506000Y-102503249D01*
X96506000Y-92139866D01*
X96768440Y-92139866D01*
X97259294Y-93327823D01*
X98167396Y-94237511D01*
X99354495Y-94730438D01*
X100639866Y-94731560D01*
X101827823Y-94240706D01*
X102737511Y-93332604D01*
X103230438Y-92145505D01*
X103230442Y-92139866D01*
X188768440Y-92139866D01*
X189259294Y-93327823D01*
X190167396Y-94237511D01*
X191354495Y-94730438D01*
X192639866Y-94731560D01*
X193827823Y-94240706D01*
X194737511Y-93332604D01*
X195230438Y-92145505D01*
X195231560Y-90860134D01*
X194740706Y-89672177D01*
X193832604Y-88762489D01*
X192645505Y-88269562D01*
X191360134Y-88268440D01*
X190172177Y-88759294D01*
X189262489Y-89667396D01*
X188769562Y-90854495D01*
X188768440Y-92139866D01*
X103230442Y-92139866D01*
X103231560Y-90860134D01*
X102740706Y-89672177D01*
X101832604Y-88762489D01*
X100645505Y-88269562D01*
X99360134Y-88268440D01*
X98172177Y-88759294D01*
X97262489Y-89667396D01*
X96769562Y-90854495D01*
X96768440Y-92139866D01*
X96506000Y-92139866D01*
X96506000Y-73049835D01*
X96705002Y-72049382D01*
X97243485Y-71243486D01*
X98049383Y-70705002D01*
X99049835Y-70506000D01*
X192950165Y-70506000D01*
X193950618Y-70705002D01*
X193950618Y-70705002D01*
G37*
X193950618Y-70705002D02*
X194756514Y-71243485D01*
X195294998Y-72049383D01*
X195494000Y-73049835D01*
X195494000Y-111950165D01*
X195294998Y-112950617D01*
X194756514Y-113756515D01*
X193950618Y-114294998D01*
X192950165Y-114494000D01*
X99049835Y-114494000D01*
X98049383Y-114294998D01*
X97243485Y-113756514D01*
X96705002Y-112950618D01*
X96506000Y-111950165D01*
X96506000Y-111639866D01*
X96768440Y-111639866D01*
X97259294Y-112827823D01*
X98167396Y-113737511D01*
X99354495Y-114230438D01*
X100639866Y-114231560D01*
X101827823Y-113740706D01*
X102737511Y-112832604D01*
X103230438Y-111645505D01*
X103230442Y-111639866D01*
X188768440Y-111639866D01*
X189259294Y-112827823D01*
X190167396Y-113737511D01*
X191354495Y-114230438D01*
X192639866Y-114231560D01*
X193827823Y-113740706D01*
X194737511Y-112832604D01*
X195230438Y-111645505D01*
X195231560Y-110360134D01*
X194740706Y-109172177D01*
X193832604Y-108262489D01*
X192645505Y-107769562D01*
X191360134Y-107768440D01*
X190172177Y-108259294D01*
X189262489Y-109167396D01*
X188769562Y-110354495D01*
X188768440Y-111639866D01*
X103230442Y-111639866D01*
X103231560Y-110360134D01*
X102740706Y-109172177D01*
X101832604Y-108262489D01*
X100645505Y-107769562D01*
X99360134Y-107768440D01*
X98172177Y-108259294D01*
X97262489Y-109167396D01*
X96769562Y-110354495D01*
X96768440Y-111639866D01*
X96506000Y-111639866D01*
X96506000Y-105672500D01*
X97960000Y-105672500D01*
X97960000Y-106309728D01*
X97998060Y-106401614D01*
X98068386Y-106471940D01*
X98160272Y-106510000D01*
X98797500Y-106510000D01*
X98860000Y-106447500D01*
X98860000Y-105610000D01*
X99260000Y-105610000D01*
X99260000Y-106447500D01*
X99322500Y-106510000D01*
X99959728Y-106510000D01*
X100051614Y-106471940D01*
X100121940Y-106401614D01*
X100160000Y-106309728D01*
X100160000Y-105776751D01*
X100562918Y-105776751D01*
X100782211Y-106145708D01*
X101126005Y-106402660D01*
X101233253Y-106447061D01*
X101400000Y-106428040D01*
X101400000Y-105610000D01*
X101800000Y-105610000D01*
X101800000Y-106428040D01*
X101966747Y-106447061D01*
X102073995Y-106402660D01*
X102417789Y-106145708D01*
X102637082Y-105776751D01*
X103102918Y-105776751D01*
X103322211Y-106145708D01*
X103666005Y-106402660D01*
X103773253Y-106447061D01*
X103940000Y-106428040D01*
X103940000Y-105610000D01*
X104340000Y-105610000D01*
X104340000Y-106428040D01*
X104506747Y-106447061D01*
X104613995Y-106402660D01*
X104957789Y-106145708D01*
X105177082Y-105776751D01*
X105642918Y-105776751D01*
X105862211Y-106145708D01*
X106206005Y-106402660D01*
X106313253Y-106447061D01*
X106480000Y-106428040D01*
X106480000Y-105610000D01*
X106880000Y-105610000D01*
X106880000Y-106428040D01*
X107046747Y-106447061D01*
X107153995Y-106402660D01*
X107497789Y-106145708D01*
X107717082Y-105776751D01*
X108182918Y-105776751D01*
X108402211Y-106145708D01*
X108746005Y-106402660D01*
X108853253Y-106447061D01*
X109020000Y-106428040D01*
X109020000Y-105610000D01*
X109420000Y-105610000D01*
X109420000Y-106428040D01*
X109586747Y-106447061D01*
X109693995Y-106402660D01*
X110037789Y-106145708D01*
X110257082Y-105776751D01*
X110239186Y-105610000D01*
X109420000Y-105610000D01*
X109020000Y-105610000D01*
X108200814Y-105610000D01*
X108182918Y-105776751D01*
X107717082Y-105776751D01*
X107699186Y-105610000D01*
X106880000Y-105610000D01*
X106480000Y-105610000D01*
X105660814Y-105610000D01*
X105642918Y-105776751D01*
X105177082Y-105776751D01*
X105159186Y-105610000D01*
X104340000Y-105610000D01*
X103940000Y-105610000D01*
X103120814Y-105610000D01*
X103102918Y-105776751D01*
X102637082Y-105776751D01*
X102619186Y-105610000D01*
X101800000Y-105610000D01*
X101400000Y-105610000D01*
X100580814Y-105610000D01*
X100562918Y-105776751D01*
X100160000Y-105776751D01*
X100160000Y-105672500D01*
X100097500Y-105610000D01*
X99260000Y-105610000D01*
X98860000Y-105610000D01*
X98022500Y-105610000D01*
X97960000Y-105672500D01*
X96506000Y-105672500D01*
X96506000Y-104510272D01*
X97960000Y-104510272D01*
X97960000Y-105147500D01*
X98022500Y-105210000D01*
X98860000Y-105210000D01*
X98860000Y-104372500D01*
X99260000Y-104372500D01*
X99260000Y-105210000D01*
X100097500Y-105210000D01*
X100160000Y-105147500D01*
X100160000Y-105043249D01*
X100562918Y-105043249D01*
X100580814Y-105210000D01*
X101400000Y-105210000D01*
X101400000Y-104391960D01*
X101800000Y-104391960D01*
X101800000Y-105210000D01*
X102619186Y-105210000D01*
X102637082Y-105043249D01*
X103102918Y-105043249D01*
X103120814Y-105210000D01*
X103940000Y-105210000D01*
X103940000Y-104391960D01*
X104340000Y-104391960D01*
X104340000Y-105210000D01*
X105159186Y-105210000D01*
X105177082Y-105043249D01*
X105642918Y-105043249D01*
X105660814Y-105210000D01*
X106480000Y-105210000D01*
X106480000Y-104391960D01*
X106880000Y-104391960D01*
X106880000Y-105210000D01*
X107699186Y-105210000D01*
X107717082Y-105043249D01*
X108182918Y-105043249D01*
X108200814Y-105210000D01*
X109020000Y-105210000D01*
X109020000Y-104391960D01*
X109420000Y-104391960D01*
X109420000Y-105210000D01*
X110239186Y-105210000D01*
X110257082Y-105043249D01*
X110037789Y-104674292D01*
X109884870Y-104560000D01*
X113010557Y-104560000D01*
X113010557Y-106260000D01*
X113040610Y-106419719D01*
X113135004Y-106566411D01*
X113279032Y-106664821D01*
X113450000Y-106699443D01*
X115150000Y-106699443D01*
X115309719Y-106669390D01*
X115456411Y-106574996D01*
X115554821Y-106430968D01*
X115589443Y-106260000D01*
X115589443Y-105588144D01*
X115656510Y-105925313D01*
X115934196Y-106340900D01*
X116349783Y-106618586D01*
X116840000Y-106716096D01*
X117330217Y-106618586D01*
X117745804Y-106340900D01*
X118023490Y-105925313D01*
X118110000Y-105490397D01*
X118196510Y-105925313D01*
X118474196Y-106340900D01*
X118889783Y-106618586D01*
X119380000Y-106716096D01*
X119870217Y-106618586D01*
X120285804Y-106340900D01*
X120563490Y-105925313D01*
X120650000Y-105490397D01*
X120736510Y-105925313D01*
X121014196Y-106340900D01*
X121429783Y-106618586D01*
X121920000Y-106716096D01*
X122410217Y-106618586D01*
X122825804Y-106340900D01*
X123103490Y-105925313D01*
X123190000Y-105490397D01*
X123276510Y-105925313D01*
X123554196Y-106340900D01*
X123969783Y-106618586D01*
X124460000Y-106716096D01*
X124950217Y-106618586D01*
X125365804Y-106340900D01*
X125643490Y-105925313D01*
X125730000Y-105490397D01*
X125816510Y-105925313D01*
X126094196Y-106340900D01*
X126509783Y-106618586D01*
X127000000Y-106716096D01*
X127490217Y-106618586D01*
X127905804Y-106340900D01*
X128183490Y-105925313D01*
X128270000Y-105490397D01*
X128356510Y-105925313D01*
X128634196Y-106340900D01*
X129049783Y-106618586D01*
X129540000Y-106716096D01*
X130030217Y-106618586D01*
X130445804Y-106340900D01*
X130723490Y-105925313D01*
X130810000Y-105490397D01*
X130896510Y-105925313D01*
X131174196Y-106340900D01*
X131589783Y-106618586D01*
X132080000Y-106716096D01*
X132570217Y-106618586D01*
X132985804Y-106340900D01*
X133263490Y-105925313D01*
X133350000Y-105490397D01*
X133436510Y-105925313D01*
X133714196Y-106340900D01*
X134129783Y-106618586D01*
X134620000Y-106716096D01*
X135110217Y-106618586D01*
X135525804Y-106340900D01*
X135803490Y-105925313D01*
X135890000Y-105490397D01*
X135976510Y-105925313D01*
X136254196Y-106340900D01*
X136669783Y-106618586D01*
X137160000Y-106716096D01*
X137650217Y-106618586D01*
X138065804Y-106340900D01*
X138343490Y-105925313D01*
X138430000Y-105490397D01*
X138516510Y-105925313D01*
X138794196Y-106340900D01*
X139209783Y-106618586D01*
X139700000Y-106716096D01*
X140190217Y-106618586D01*
X140605804Y-106340900D01*
X140883490Y-105925313D01*
X140970000Y-105490397D01*
X141056510Y-105925313D01*
X141334196Y-106340900D01*
X141749783Y-106618586D01*
X142240000Y-106716096D01*
X142730217Y-106618586D01*
X143145804Y-106340900D01*
X143423490Y-105925313D01*
X143510000Y-105490397D01*
X143596510Y-105925313D01*
X143874196Y-106340900D01*
X144289783Y-106618586D01*
X144780000Y-106716096D01*
X145270217Y-106618586D01*
X145685804Y-106340900D01*
X145963490Y-105925313D01*
X146050000Y-105490397D01*
X146136510Y-105925313D01*
X146414196Y-106340900D01*
X146829783Y-106618586D01*
X147320000Y-106716096D01*
X147810217Y-106618586D01*
X148225804Y-106340900D01*
X148503490Y-105925313D01*
X148590000Y-105490397D01*
X148676510Y-105925313D01*
X148954196Y-106340900D01*
X149369783Y-106618586D01*
X149860000Y-106716096D01*
X150350217Y-106618586D01*
X150765804Y-106340900D01*
X151043490Y-105925313D01*
X151130000Y-105490397D01*
X151216510Y-105925313D01*
X151494196Y-106340900D01*
X151909783Y-106618586D01*
X152400000Y-106716096D01*
X152890217Y-106618586D01*
X153305804Y-106340900D01*
X153583490Y-105925313D01*
X153670000Y-105490397D01*
X153756510Y-105925313D01*
X154034196Y-106340900D01*
X154449783Y-106618586D01*
X154940000Y-106716096D01*
X155430217Y-106618586D01*
X155845804Y-106340900D01*
X156123490Y-105925313D01*
X156210000Y-105490397D01*
X156296510Y-105925313D01*
X156574196Y-106340900D01*
X156989783Y-106618586D01*
X157480000Y-106716096D01*
X157970217Y-106618586D01*
X158385804Y-106340900D01*
X158663490Y-105925313D01*
X158750000Y-105490397D01*
X158836510Y-105925313D01*
X159114196Y-106340900D01*
X159529783Y-106618586D01*
X160020000Y-106716096D01*
X160510217Y-106618586D01*
X160925804Y-106340900D01*
X161203490Y-105925313D01*
X161290000Y-105490397D01*
X161376510Y-105925313D01*
X161654196Y-106340900D01*
X162069783Y-106618586D01*
X162560000Y-106716096D01*
X163050217Y-106618586D01*
X163465804Y-106340900D01*
X163743490Y-105925313D01*
X163830000Y-105490397D01*
X163916510Y-105925313D01*
X164194196Y-106340900D01*
X164609783Y-106618586D01*
X165100000Y-106716096D01*
X165590217Y-106618586D01*
X166005804Y-106340900D01*
X166283490Y-105925313D01*
X166370000Y-105490397D01*
X166456510Y-105925313D01*
X166734196Y-106340900D01*
X167149783Y-106618586D01*
X167640000Y-106716096D01*
X168130217Y-106618586D01*
X168545804Y-106340900D01*
X168823490Y-105925313D01*
X168910000Y-105490397D01*
X168996510Y-105925313D01*
X169274196Y-106340900D01*
X169689783Y-106618586D01*
X170180000Y-106716096D01*
X170670217Y-106618586D01*
X171085804Y-106340900D01*
X171363490Y-105925313D01*
X171450000Y-105490397D01*
X171536510Y-105925313D01*
X171814196Y-106340900D01*
X172229783Y-106618586D01*
X172720000Y-106716096D01*
X173210217Y-106618586D01*
X173625804Y-106340900D01*
X173903490Y-105925313D01*
X173990000Y-105490397D01*
X174076510Y-105925313D01*
X174354196Y-106340900D01*
X174769783Y-106618586D01*
X175260000Y-106716096D01*
X175750217Y-106618586D01*
X176165804Y-106340900D01*
X176443490Y-105925313D01*
X176530000Y-105490397D01*
X176616510Y-105925313D01*
X176894196Y-106340900D01*
X177309783Y-106618586D01*
X177800000Y-106716096D01*
X178290217Y-106618586D01*
X178705804Y-106340900D01*
X178983490Y-105925313D01*
X179070000Y-105490397D01*
X179156510Y-105925313D01*
X179434196Y-106340900D01*
X179849783Y-106618586D01*
X180340000Y-106716096D01*
X180830217Y-106618586D01*
X181245804Y-106340900D01*
X181523490Y-105925313D01*
X181610000Y-105490397D01*
X181696510Y-105925313D01*
X181974196Y-106340900D01*
X182389783Y-106618586D01*
X182880000Y-106716096D01*
X183370217Y-106618586D01*
X183785804Y-106340900D01*
X184063490Y-105925313D01*
X184150000Y-105490397D01*
X184236510Y-105925313D01*
X184514196Y-106340900D01*
X184929783Y-106618586D01*
X185420000Y-106716096D01*
X185910217Y-106618586D01*
X186325804Y-106340900D01*
X186603490Y-105925313D01*
X186690000Y-105490397D01*
X186776510Y-105925313D01*
X187054196Y-106340900D01*
X187469783Y-106618586D01*
X187960000Y-106716096D01*
X188450217Y-106618586D01*
X188865804Y-106340900D01*
X189143490Y-105925313D01*
X189230000Y-105490397D01*
X189316510Y-105925313D01*
X189594196Y-106340900D01*
X190009783Y-106618586D01*
X190500000Y-106716096D01*
X190990217Y-106618586D01*
X191405804Y-106340900D01*
X191683490Y-105925313D01*
X191770000Y-105490397D01*
X191856510Y-105925313D01*
X192134196Y-106340900D01*
X192549783Y-106618586D01*
X193040000Y-106716096D01*
X193530217Y-106618586D01*
X193945804Y-106340900D01*
X194223490Y-105925313D01*
X194321000Y-105435096D01*
X194321000Y-105384904D01*
X194223490Y-104894687D01*
X193945804Y-104479100D01*
X193530217Y-104201414D01*
X193221467Y-104140000D01*
X193530217Y-104078586D01*
X193945804Y-103800900D01*
X194223490Y-103385313D01*
X194321000Y-102895096D01*
X194321000Y-102844904D01*
X194223490Y-102354687D01*
X193945804Y-101939100D01*
X193530217Y-101661414D01*
X193040000Y-101563904D01*
X192549783Y-101661414D01*
X192134196Y-101939100D01*
X191856510Y-102354687D01*
X191770000Y-102789603D01*
X191683490Y-102354687D01*
X191405804Y-101939100D01*
X190990217Y-101661414D01*
X190500000Y-101563904D01*
X190009783Y-101661414D01*
X189594196Y-101939100D01*
X189316510Y-102354687D01*
X189230000Y-102789603D01*
X189143490Y-102354687D01*
X188865804Y-101939100D01*
X188450217Y-101661414D01*
X187960000Y-101563904D01*
X187469783Y-101661414D01*
X187054196Y-101939100D01*
X186776510Y-102354687D01*
X186690000Y-102789603D01*
X186603490Y-102354687D01*
X186325804Y-101939100D01*
X185910217Y-101661414D01*
X185420000Y-101563904D01*
X184929783Y-101661414D01*
X184514196Y-101939100D01*
X184236510Y-102354687D01*
X184150000Y-102789603D01*
X184063490Y-102354687D01*
X183785804Y-101939100D01*
X183370217Y-101661414D01*
X182880000Y-101563904D01*
X182389783Y-101661414D01*
X181974196Y-101939100D01*
X181696510Y-102354687D01*
X181610000Y-102789603D01*
X181523490Y-102354687D01*
X181245804Y-101939100D01*
X180830217Y-101661414D01*
X180340000Y-101563904D01*
X179849783Y-101661414D01*
X179434196Y-101939100D01*
X179156510Y-102354687D01*
X179070000Y-102789603D01*
X178983490Y-102354687D01*
X178705804Y-101939100D01*
X178290217Y-101661414D01*
X177800000Y-101563904D01*
X177309783Y-101661414D01*
X176894196Y-101939100D01*
X176616510Y-102354687D01*
X176530000Y-102789603D01*
X176443490Y-102354687D01*
X176165804Y-101939100D01*
X175750217Y-101661414D01*
X175260000Y-101563904D01*
X174769783Y-101661414D01*
X174354196Y-101939100D01*
X174076510Y-102354687D01*
X173990000Y-102789603D01*
X173903490Y-102354687D01*
X173625804Y-101939100D01*
X173210217Y-101661414D01*
X172720000Y-101563904D01*
X172229783Y-101661414D01*
X171814196Y-101939100D01*
X171536510Y-102354687D01*
X171450000Y-102789603D01*
X171363490Y-102354687D01*
X171085804Y-101939100D01*
X170670217Y-101661414D01*
X170180000Y-101563904D01*
X169689783Y-101661414D01*
X169274196Y-101939100D01*
X168996510Y-102354687D01*
X168910000Y-102789603D01*
X168823490Y-102354687D01*
X168545804Y-101939100D01*
X168130217Y-101661414D01*
X167640000Y-101563904D01*
X167149783Y-101661414D01*
X166734196Y-101939100D01*
X166456510Y-102354687D01*
X166370000Y-102789603D01*
X166283490Y-102354687D01*
X166005804Y-101939100D01*
X165590217Y-101661414D01*
X165100000Y-101563904D01*
X164609783Y-101661414D01*
X164194196Y-101939100D01*
X163916510Y-102354687D01*
X163830000Y-102789603D01*
X163743490Y-102354687D01*
X163465804Y-101939100D01*
X163050217Y-101661414D01*
X162560000Y-101563904D01*
X162069783Y-101661414D01*
X161654196Y-101939100D01*
X161376510Y-102354687D01*
X161290000Y-102789603D01*
X161203490Y-102354687D01*
X160925804Y-101939100D01*
X160510217Y-101661414D01*
X160020000Y-101563904D01*
X159529783Y-101661414D01*
X159114196Y-101939100D01*
X158836510Y-102354687D01*
X158750000Y-102789603D01*
X158663490Y-102354687D01*
X158385804Y-101939100D01*
X157970217Y-101661414D01*
X157480000Y-101563904D01*
X156989783Y-101661414D01*
X156574196Y-101939100D01*
X156296510Y-102354687D01*
X156210000Y-102789603D01*
X156123490Y-102354687D01*
X155845804Y-101939100D01*
X155430217Y-101661414D01*
X154940000Y-101563904D01*
X154449783Y-101661414D01*
X154034196Y-101939100D01*
X153756510Y-102354687D01*
X153670000Y-102789603D01*
X153583490Y-102354687D01*
X153305804Y-101939100D01*
X152890217Y-101661414D01*
X152400000Y-101563904D01*
X151909783Y-101661414D01*
X151494196Y-101939100D01*
X151216510Y-102354687D01*
X151130000Y-102789603D01*
X151043490Y-102354687D01*
X150765804Y-101939100D01*
X150350217Y-101661414D01*
X149860000Y-101563904D01*
X149369783Y-101661414D01*
X148954196Y-101939100D01*
X148676510Y-102354687D01*
X148590000Y-102789603D01*
X148503490Y-102354687D01*
X148225804Y-101939100D01*
X147810217Y-101661414D01*
X147320000Y-101563904D01*
X146829783Y-101661414D01*
X146414196Y-101939100D01*
X146136510Y-102354687D01*
X146050000Y-102789603D01*
X145963490Y-102354687D01*
X145685804Y-101939100D01*
X145270217Y-101661414D01*
X144780000Y-101563904D01*
X144289783Y-101661414D01*
X143874196Y-101939100D01*
X143596510Y-102354687D01*
X143510000Y-102789603D01*
X143423490Y-102354687D01*
X143145804Y-101939100D01*
X142730217Y-101661414D01*
X142240000Y-101563904D01*
X141749783Y-101661414D01*
X141334196Y-101939100D01*
X141056510Y-102354687D01*
X140970000Y-102789603D01*
X140883490Y-102354687D01*
X140605804Y-101939100D01*
X140190217Y-101661414D01*
X139700000Y-101563904D01*
X139209783Y-101661414D01*
X138794196Y-101939100D01*
X138516510Y-102354687D01*
X138430000Y-102789603D01*
X138343490Y-102354687D01*
X138065804Y-101939100D01*
X137650217Y-101661414D01*
X137160000Y-101563904D01*
X136669783Y-101661414D01*
X136254196Y-101939100D01*
X135976510Y-102354687D01*
X135890000Y-102789603D01*
X135803490Y-102354687D01*
X135525804Y-101939100D01*
X135110217Y-101661414D01*
X134620000Y-101563904D01*
X134129783Y-101661414D01*
X133714196Y-101939100D01*
X133436510Y-102354687D01*
X133350000Y-102789603D01*
X133263490Y-102354687D01*
X132985804Y-101939100D01*
X132570217Y-101661414D01*
X132080000Y-101563904D01*
X131589783Y-101661414D01*
X131174196Y-101939100D01*
X130896510Y-102354687D01*
X130810000Y-102789603D01*
X130723490Y-102354687D01*
X130445804Y-101939100D01*
X130030217Y-101661414D01*
X129540000Y-101563904D01*
X129049783Y-101661414D01*
X128634196Y-101939100D01*
X128356510Y-102354687D01*
X128270000Y-102789603D01*
X128183490Y-102354687D01*
X127905804Y-101939100D01*
X127490217Y-101661414D01*
X127000000Y-101563904D01*
X126509783Y-101661414D01*
X126094196Y-101939100D01*
X125816510Y-102354687D01*
X125730000Y-102789603D01*
X125643490Y-102354687D01*
X125365804Y-101939100D01*
X124950217Y-101661414D01*
X124460000Y-101563904D01*
X123969783Y-101661414D01*
X123554196Y-101939100D01*
X123276510Y-102354687D01*
X123190000Y-102789603D01*
X123103490Y-102354687D01*
X122825804Y-101939100D01*
X122410217Y-101661414D01*
X121920000Y-101563904D01*
X121429783Y-101661414D01*
X121014196Y-101939100D01*
X120736510Y-102354687D01*
X120650000Y-102789603D01*
X120563490Y-102354687D01*
X120285804Y-101939100D01*
X119870217Y-101661414D01*
X119380000Y-101563904D01*
X118889783Y-101661414D01*
X118474196Y-101939100D01*
X118196510Y-102354687D01*
X118110000Y-102789603D01*
X118023490Y-102354687D01*
X117745804Y-101939100D01*
X117330217Y-101661414D01*
X116840000Y-101563904D01*
X116349783Y-101661414D01*
X115934196Y-101939100D01*
X115656510Y-102354687D01*
X115570000Y-102789603D01*
X115483490Y-102354687D01*
X115205804Y-101939100D01*
X114790217Y-101661414D01*
X114300000Y-101563904D01*
X113809783Y-101661414D01*
X113394196Y-101939100D01*
X113116510Y-102354687D01*
X113019000Y-102844904D01*
X113019000Y-102895096D01*
X113116510Y-103385313D01*
X113394196Y-103800900D01*
X113809783Y-104078586D01*
X114020786Y-104120557D01*
X113450000Y-104120557D01*
X113290281Y-104150610D01*
X113143589Y-104245004D01*
X113045179Y-104389032D01*
X113010557Y-104560000D01*
X109884870Y-104560000D01*
X109693995Y-104417340D01*
X109586747Y-104372939D01*
X109420000Y-104391960D01*
X109020000Y-104391960D01*
X108853253Y-104372939D01*
X108746005Y-104417340D01*
X108402211Y-104674292D01*
X108182918Y-105043249D01*
X107717082Y-105043249D01*
X107497789Y-104674292D01*
X107153995Y-104417340D01*
X107046747Y-104372939D01*
X106880000Y-104391960D01*
X106480000Y-104391960D01*
X106313253Y-104372939D01*
X106206005Y-104417340D01*
X105862211Y-104674292D01*
X105642918Y-105043249D01*
X105177082Y-105043249D01*
X104957789Y-104674292D01*
X104613995Y-104417340D01*
X104506747Y-104372939D01*
X104340000Y-104391960D01*
X103940000Y-104391960D01*
X103773253Y-104372939D01*
X103666005Y-104417340D01*
X103322211Y-104674292D01*
X103102918Y-105043249D01*
X102637082Y-105043249D01*
X102417789Y-104674292D01*
X102073995Y-104417340D01*
X101966747Y-104372939D01*
X101800000Y-104391960D01*
X101400000Y-104391960D01*
X101233253Y-104372939D01*
X101126005Y-104417340D01*
X100782211Y-104674292D01*
X100562918Y-105043249D01*
X100160000Y-105043249D01*
X100160000Y-104510272D01*
X100121940Y-104418386D01*
X100051614Y-104348060D01*
X99959728Y-104310000D01*
X99322500Y-104310000D01*
X99260000Y-104372500D01*
X98860000Y-104372500D01*
X98797500Y-104310000D01*
X98160272Y-104310000D01*
X98068386Y-104348060D01*
X97998060Y-104418386D01*
X97960000Y-104510272D01*
X96506000Y-104510272D01*
X96506000Y-103236751D01*
X98022918Y-103236751D01*
X98242211Y-103605708D01*
X98586005Y-103862660D01*
X98693253Y-103907061D01*
X98860000Y-103888040D01*
X98860000Y-103070000D01*
X99260000Y-103070000D01*
X99260000Y-103888040D01*
X99426747Y-103907061D01*
X99533995Y-103862660D01*
X99877789Y-103605708D01*
X100097082Y-103236751D01*
X100562918Y-103236751D01*
X100782211Y-103605708D01*
X101126005Y-103862660D01*
X101233253Y-103907061D01*
X101400000Y-103888040D01*
X101400000Y-103070000D01*
X101800000Y-103070000D01*
X101800000Y-103888040D01*
X101966747Y-103907061D01*
X102073995Y-103862660D01*
X102417789Y-103605708D01*
X102637082Y-103236751D01*
X103102918Y-103236751D01*
X103322211Y-103605708D01*
X103666005Y-103862660D01*
X103773253Y-103907061D01*
X103940000Y-103888040D01*
X103940000Y-103070000D01*
X104340000Y-103070000D01*
X104340000Y-103888040D01*
X104506747Y-103907061D01*
X104613995Y-103862660D01*
X104957789Y-103605708D01*
X105177082Y-103236751D01*
X105642918Y-103236751D01*
X105862211Y-103605708D01*
X106206005Y-103862660D01*
X106313253Y-103907061D01*
X106480000Y-103888040D01*
X106480000Y-103070000D01*
X106880000Y-103070000D01*
X106880000Y-103888040D01*
X107046747Y-103907061D01*
X107153995Y-103862660D01*
X107497789Y-103605708D01*
X107717082Y-103236751D01*
X108182918Y-103236751D01*
X108402211Y-103605708D01*
X108746005Y-103862660D01*
X108853253Y-103907061D01*
X109020000Y-103888040D01*
X109020000Y-103070000D01*
X109420000Y-103070000D01*
X109420000Y-103888040D01*
X109586747Y-103907061D01*
X109693995Y-103862660D01*
X110037789Y-103605708D01*
X110257082Y-103236751D01*
X110239186Y-103070000D01*
X109420000Y-103070000D01*
X109020000Y-103070000D01*
X108200814Y-103070000D01*
X108182918Y-103236751D01*
X107717082Y-103236751D01*
X107699186Y-103070000D01*
X106880000Y-103070000D01*
X106480000Y-103070000D01*
X105660814Y-103070000D01*
X105642918Y-103236751D01*
X105177082Y-103236751D01*
X105159186Y-103070000D01*
X104340000Y-103070000D01*
X103940000Y-103070000D01*
X103120814Y-103070000D01*
X103102918Y-103236751D01*
X102637082Y-103236751D01*
X102619186Y-103070000D01*
X101800000Y-103070000D01*
X101400000Y-103070000D01*
X100580814Y-103070000D01*
X100562918Y-103236751D01*
X100097082Y-103236751D01*
X100079186Y-103070000D01*
X99260000Y-103070000D01*
X98860000Y-103070000D01*
X98040814Y-103070000D01*
X98022918Y-103236751D01*
X96506000Y-103236751D01*
X96506000Y-102503249D01*
X98022918Y-102503249D01*
X98040814Y-102670000D01*
X98860000Y-102670000D01*
X98860000Y-101851960D01*
X99260000Y-101851960D01*
X99260000Y-102670000D01*
X100079186Y-102670000D01*
X100097082Y-102503249D01*
X100562918Y-102503249D01*
X100580814Y-102670000D01*
X101400000Y-102670000D01*
X101400000Y-101851960D01*
X101800000Y-101851960D01*
X101800000Y-102670000D01*
X102619186Y-102670000D01*
X102637082Y-102503249D01*
X103102918Y-102503249D01*
X103120814Y-102670000D01*
X103940000Y-102670000D01*
X103940000Y-101851960D01*
X104340000Y-101851960D01*
X104340000Y-102670000D01*
X105159186Y-102670000D01*
X105177082Y-102503249D01*
X105642918Y-102503249D01*
X105660814Y-102670000D01*
X106480000Y-102670000D01*
X106480000Y-101851960D01*
X106880000Y-101851960D01*
X106880000Y-102670000D01*
X107699186Y-102670000D01*
X107717082Y-102503249D01*
X108182918Y-102503249D01*
X108200814Y-102670000D01*
X109020000Y-102670000D01*
X109020000Y-101851960D01*
X109420000Y-101851960D01*
X109420000Y-102670000D01*
X110239186Y-102670000D01*
X110257082Y-102503249D01*
X110037789Y-102134292D01*
X109693995Y-101877340D01*
X109586747Y-101832939D01*
X109420000Y-101851960D01*
X109020000Y-101851960D01*
X108853253Y-101832939D01*
X108746005Y-101877340D01*
X108402211Y-102134292D01*
X108182918Y-102503249D01*
X107717082Y-102503249D01*
X107497789Y-102134292D01*
X107153995Y-101877340D01*
X107046747Y-101832939D01*
X106880000Y-101851960D01*
X106480000Y-101851960D01*
X106313253Y-101832939D01*
X106206005Y-101877340D01*
X105862211Y-102134292D01*
X105642918Y-102503249D01*
X105177082Y-102503249D01*
X104957789Y-102134292D01*
X104613995Y-101877340D01*
X104506747Y-101832939D01*
X104340000Y-101851960D01*
X103940000Y-101851960D01*
X103773253Y-101832939D01*
X103666005Y-101877340D01*
X103322211Y-102134292D01*
X103102918Y-102503249D01*
X102637082Y-102503249D01*
X102417789Y-102134292D01*
X102073995Y-101877340D01*
X101966747Y-101832939D01*
X101800000Y-101851960D01*
X101400000Y-101851960D01*
X101233253Y-101832939D01*
X101126005Y-101877340D01*
X100782211Y-102134292D01*
X100562918Y-102503249D01*
X100097082Y-102503249D01*
X99877789Y-102134292D01*
X99533995Y-101877340D01*
X99426747Y-101832939D01*
X99260000Y-101851960D01*
X98860000Y-101851960D01*
X98693253Y-101832939D01*
X98586005Y-101877340D01*
X98242211Y-102134292D01*
X98022918Y-102503249D01*
X96506000Y-102503249D01*
X96506000Y-92139866D01*
X96768440Y-92139866D01*
X97259294Y-93327823D01*
X98167396Y-94237511D01*
X99354495Y-94730438D01*
X100639866Y-94731560D01*
X101827823Y-94240706D01*
X102737511Y-93332604D01*
X103230438Y-92145505D01*
X103230442Y-92139866D01*
X188768440Y-92139866D01*
X189259294Y-93327823D01*
X190167396Y-94237511D01*
X191354495Y-94730438D01*
X192639866Y-94731560D01*
X193827823Y-94240706D01*
X194737511Y-93332604D01*
X195230438Y-92145505D01*
X195231560Y-90860134D01*
X194740706Y-89672177D01*
X193832604Y-88762489D01*
X192645505Y-88269562D01*
X191360134Y-88268440D01*
X190172177Y-88759294D01*
X189262489Y-89667396D01*
X188769562Y-90854495D01*
X188768440Y-92139866D01*
X103230442Y-92139866D01*
X103231560Y-90860134D01*
X102740706Y-89672177D01*
X101832604Y-88762489D01*
X100645505Y-88269562D01*
X99360134Y-88268440D01*
X98172177Y-88759294D01*
X97262489Y-89667396D01*
X96769562Y-90854495D01*
X96768440Y-92139866D01*
X96506000Y-92139866D01*
X96506000Y-73049835D01*
X96705002Y-72049382D01*
X97243485Y-71243486D01*
X98049383Y-70705002D01*
X99049835Y-70506000D01*
X192950165Y-70506000D01*
X193950618Y-70705002D01*
M02*
