M48
;DRILL file {KiCad 4.0.7-e2-6376~58~ubuntu17.04.1} date Wed Dec  6 15:02:33 2017
;FORMAT={-:-/ absolute / metric / decimal}
FMAT,2
METRIC,TZ
T1C0.300
T2C0.500
T3C0.700
T4C1.000
T5C2.100
%
G90
G05
M71
T1
X2.787Y-17.77
X2.808Y-13.474
X2.808Y-24.396
X2.808Y-28.944
X2.854Y-8.438
X2.854Y-19.36
X3.473Y-11.166
X3.473Y-22.215
X4.108Y-11.928
X4.108Y-22.85
X4.235Y-8.372
X4.235Y-19.294
X4.362Y-16.5
X4.362Y-27.422
X4.854Y-20.31
X5.279Y-23.934
X5.886Y-16.5
X5.886Y-27.422
X6.179Y-13.012
X6.537Y-8.438
X6.537Y-19.36
X6.775Y-11.293
X6.775Y-22.215
X7.283Y-11.928
X7.283Y-22.85
X7.359Y-17.77
X7.918Y-8.372
X7.918Y-19.294
X8.537Y-20.31
X8.553Y-24.628
X8.629Y-15.992
X8.629Y-17.77
X8.629Y-26.914
X8.629Y-28.946
X8.65Y-12.966
X8.65Y-23.888
X8.68Y-13.706
X10.089Y-19.294
X10.174Y-13.474
X10.174Y-14.974
X10.174Y-24.396
X10.174Y-25.896
X10.204Y-10.404
X10.204Y-21.199
X10.22Y-8.438
X10.458Y-22.215
X10.839Y-11.293
X11.474Y-11.928
X11.474Y-22.85
X11.601Y-8.372
X11.601Y-19.294
X11.728Y-16.512
X11.728Y-27.422
X13.252Y-16.5
X13.252Y-27.422
X13.545Y-13.012
X13.545Y-23.934
X13.903Y-8.438
X13.903Y-19.36
X14.014Y-22.215
X14.141Y-11.293
X14.649Y-11.928
X14.649Y-22.85
X15.284Y-8.372
X15.284Y-19.294
X15.903Y-20.31
X15.995Y-15.484
X15.995Y-18.024
X15.995Y-24.628
X16.016Y-12.966
X16.016Y-23.888
X16.046Y-13.706
X16.249Y-26.914
X16.249Y-28.946
X17.54Y-13.474
X17.54Y-14.974
X17.54Y-25.896
X17.57Y-10.404
X17.57Y-21.199
X17.586Y-8.438
X17.586Y-19.36
X18.205Y-11.293
X18.459Y-22.088
X18.84Y-11.928
X18.84Y-19.294
X18.84Y-22.85
X18.967Y-8.372
X19.094Y-16.5
X19.094Y-27.434
X19.297Y-81.016
X19.678Y-20.31
X20.011Y-23.934
X20.618Y-16.5
X20.643Y-27.422
X20.911Y-13.912
X21.075Y-56.632
X21.269Y-8.438
X21.269Y-19.36
X21.329Y-81.016
X21.507Y-11.293
X21.507Y-22.139
X22.015Y-11.928
X22.015Y-22.85
X22.625Y-8.372
X22.777Y-19.294
X23.107Y-81.016
X23.269Y-20.31
X23.361Y-12.956
X23.361Y-13.694
X23.382Y-23.888
X23.382Y-24.626
X23.615Y-15.992
X23.615Y-18.024
X23.615Y-26.914
X23.615Y-28.946
X24.821Y-8.372
X24.821Y-19.294
X24.885Y-81.016
X24.906Y-25.896
X24.911Y-15.103
X24.936Y-21.199
X24.952Y-10.338
X25.698Y-22.088
X25.8Y-11.293
X26.206Y-11.928
X26.206Y-22.85
X26.308Y-8.372
X26.333Y-19.294
X26.435Y-16.5
X26.46Y-27.422
X26.917Y-56.632
X26.917Y-81.016
X26.952Y-20.31
X27.171Y-46.218
X27.971Y-30.724
X27.984Y-16.5
X27.984Y-27.422
X28.056Y-40.069
X28.277Y-14.039
X28.277Y-23.934
X28.504Y-8.372
X28.635Y-19.36
X28.695Y-56.632
X28.949Y-81.016
X28.975Y-33.518
X29.Y-11.293
X29.Y-22.215
X29.203Y-46.218
X29.381Y-11.928
X29.381Y-34.153
X29.483Y-30.724
X29.508Y-22.85
X29.61Y-38.598
X29.991Y-8.372
X30.016Y-19.294
X30.127Y-31.74
X30.219Y-28.946
X30.635Y-20.31
X30.714Y-58.41
X30.727Y-15.992
X30.727Y-18.024
X30.727Y-81.016
X30.748Y-13.093
X30.748Y-13.831
X30.748Y-23.888
X30.748Y-24.626
X31.108Y-38.573
X31.413Y-35.296
X31.654Y-30.724
X32.15Y-33.543
X32.162Y-8.372
X32.272Y-15.101
X32.272Y-25.896
X32.277Y-10.404
X32.302Y-21.199
X32.318Y-19.36
X32.505Y-81.016
X32.556Y-34.153
X32.628Y-40.069
X32.759Y-56.632
X33.013Y-46.218
X33.166Y-11.293
X33.166Y-30.724
X33.191Y-22.215
X33.572Y-11.928
X33.572Y-19.294
X33.572Y-22.85
X33.674Y-8.372
X33.801Y-16.5
X33.826Y-27.422
X33.826Y-36.058
X33.851Y-31.74
X33.898Y-35.267
X34.41Y-20.31
X34.537Y-56.632
X34.537Y-81.016
X34.791Y-46.218
X35.35Y-16.5
X35.35Y-27.422
X35.362Y-30.724
X35.422Y-40.069
X35.426Y-37.328
X35.493Y-32.69
X35.643Y-14.039
X35.643Y-23.934
X35.845Y-8.372
X35.87Y-19.294
X36.087Y-33.518
X36.239Y-11.293
X36.239Y-22.215
X36.315Y-56.632
X36.747Y-11.928
X36.747Y-34.153
X36.823Y-46.218
X36.849Y-30.724
X36.874Y-22.85
X36.976Y-38.598
X37.357Y-8.372
X37.382Y-19.294
X37.493Y-31.74
X37.585Y-28.946
X38.001Y-20.31
X38.093Y-15.992
X38.093Y-18.024
X38.114Y-13.093
X38.114Y-13.831
X38.114Y-23.888
X38.114Y-24.626
X38.347Y-56.632
X38.474Y-38.573
X38.793Y-35.313
X39.045Y-30.724
X39.414Y-33.569
X39.553Y-8.372
X39.553Y-19.294
X39.638Y-15.101
X39.643Y-10.404
X39.668Y-25.898
X39.684Y-21.26
X39.922Y-34.153
X39.994Y-40.069
X40.379Y-56.632
X40.405Y-11.166
X40.43Y-22.215
X40.532Y-30.724
X40.633Y-46.218
X40.938Y-11.928
X40.938Y-22.85
X41.04Y-8.372
X41.065Y-19.294
X41.167Y-16.5
X41.192Y-27.422
X41.192Y-36.058
X41.217Y-31.765
X41.264Y-35.267
X41.684Y-20.31
X42.411Y-46.218
X42.716Y-16.5
X42.716Y-27.422
X42.728Y-30.724
X42.788Y-40.069
X42.792Y-37.328
X42.859Y-32.69
X43.009Y-14.039
X43.009Y-23.934
X43.236Y-8.372
X43.236Y-19.294
X43.351Y-66.03
X43.453Y-33.518
X43.605Y-22.215
X43.732Y-11.293
X44.113Y-11.928
X44.113Y-22.85
X44.113Y-34.153
X44.189Y-56.632
X44.342Y-30.724
X44.342Y-38.598
X44.443Y-46.218
X44.723Y-8.372
X44.748Y-19.294
X44.859Y-31.74
X44.951Y-28.946
X45.367Y-20.31
X45.459Y-15.992
X45.459Y-18.024
X45.48Y-13.093
X45.48Y-13.831
X45.48Y-23.888
X45.48Y-24.626
X45.866Y-38.598
X45.967Y-56.632
X46.159Y-35.313
X46.411Y-30.724
X46.475Y-46.218
X46.882Y-33.569
X46.919Y-8.372
X46.919Y-19.294
X47.004Y-15.101
X47.009Y-10.404
X47.009Y-25.898
X47.05Y-21.26
X47.288Y-34.153
X47.36Y-40.069
X47.745Y-56.632
X47.771Y-11.166
X47.796Y-22.215
X47.898Y-30.724
X48.253Y-46.218
X48.304Y-11.928
X48.304Y-22.85
X48.406Y-8.372
X48.431Y-19.294
X48.533Y-16.5
X48.558Y-27.422
X48.558Y-31.765
X48.558Y-36.058
X48.63Y-35.267
X49.05Y-20.31
X49.777Y-56.632
X49.777Y-81.016
X50.031Y-46.218
X50.082Y-16.5
X50.094Y-30.724
X50.133Y-27.447
X50.154Y-40.069
X50.184Y-37.328
X50.225Y-32.69
X50.375Y-14.039
X50.375Y-23.934
X50.602Y-8.372
X50.733Y-19.36
X50.92Y-64.379
X50.92Y-76.063
X50.946Y-33.518
X50.971Y-11.293
X51.047Y-65.522
X51.047Y-66.538
X51.047Y-69.586
X51.047Y-70.602
X51.047Y-71.618
X51.047Y-72.634
X51.047Y-73.65
X51.047Y-74.666
X51.123Y-22.19
X51.479Y-11.928
X51.479Y-22.85
X51.479Y-34.153
X51.581Y-30.724
X51.708Y-38.598
X51.809Y-56.632
X51.809Y-81.016
X51.936Y-64.379
X51.936Y-76.063
X52.063Y-46.218
X52.089Y-8.372
X52.114Y-19.294
X52.225Y-31.74
X52.317Y-28.946
X52.733Y-20.31
X52.749Y-24.628
X52.825Y-15.992
X52.825Y-18.024
X52.846Y-13.093
X52.846Y-23.888
X52.876Y-13.833
X52.952Y-64.379
X52.952Y-76.063
X53.232Y-38.573
X53.525Y-35.313
X53.587Y-56.632
X53.587Y-81.016
X53.777Y-30.724
X53.968Y-64.379
X53.968Y-76.063
X54.095Y-46.218
X54.197Y-33.543
X54.285Y-8.372
X54.285Y-19.294
X54.37Y-14.974
X54.375Y-10.277
X54.4Y-25.898
X54.416Y-21.26
X54.654Y-34.153
X54.726Y-40.069
X54.984Y-64.379
X55.264Y-11.293
X55.264Y-30.724
X55.289Y-22.088
X55.365Y-81.016
X55.67Y-11.928
X55.67Y-22.85
X55.772Y-8.372
X55.797Y-19.294
X55.899Y-16.5
X55.908Y-31.74
X55.924Y-27.422
X55.924Y-36.058
X55.996Y-35.267
X56.Y-64.379
X56.416Y-20.31
X57.016Y-64.379
X57.181Y-61.166
X57.397Y-56.632
X57.397Y-81.016
X57.448Y-16.5
X57.473Y-27.447
X57.52Y-37.275
X57.52Y-40.069
X57.55Y-32.756
X57.591Y-30.79
X57.651Y-46.218
X57.741Y-23.934
X57.88Y-13.477
X57.968Y-8.372
X57.968Y-19.294
X58.032Y-64.379
X58.185Y-33.518
X58.337Y-11.293
X58.489Y-22.164
X58.845Y-11.928
X58.845Y-22.85
X58.845Y-34.153
X58.947Y-30.724
X59.048Y-64.379
X59.048Y-76.063
X59.074Y-38.598
X59.429Y-56.632
X59.429Y-81.016
X59.455Y-8.372
X59.48Y-19.294
X59.591Y-31.74
X59.693Y-74.206
X59.937Y-16.5
X59.937Y-18.024
X60.064Y-64.379
X60.064Y-76.063
X60.099Y-20.31
X60.191Y-24.628
X60.191Y-26.914
X60.191Y-28.946
X60.212Y-12.966
X60.212Y-23.888
X60.242Y-13.706
X60.598Y-38.573
X60.64Y-70.95
X60.64Y-71.85
X60.852Y-68.875
X60.891Y-35.313
X61.08Y-64.379
X61.08Y-76.063
X61.143Y-30.724
X61.207Y-56.632
X61.207Y-81.016
X61.344Y-74.206
X61.537Y-33.569
X61.54Y-70.95
X61.54Y-71.85
X61.651Y-8.372
X61.651Y-19.294
X61.741Y-14.976
X61.766Y-25.898
X61.782Y-10.338
X61.782Y-21.26
X62.02Y-34.153
X62.092Y-40.069
X62.096Y-64.379
X62.096Y-76.063
X62.198Y-59.731
X62.63Y-11.293
X62.63Y-30.724
X62.985Y-81.016
X62.995Y-74.206
X63.036Y-11.928
X63.036Y-22.85
X63.099Y-51.425
X63.112Y-64.379
X63.112Y-76.063
X63.138Y-8.372
X63.163Y-19.294
X63.265Y-16.5
X63.265Y-31.74
X63.265Y-36.007
X63.29Y-27.422
X63.362Y-35.267
X63.493Y-46.218
X63.544Y-22.215
X63.782Y-20.31
X63.988Y-58.473
X64.128Y-64.379
X64.128Y-76.063
X64.814Y-27.422
X64.826Y-30.724
X64.839Y-16.525
X64.865Y-37.303
X64.886Y-40.069
X64.957Y-32.69
X65.017Y-56.632
X65.017Y-81.016
X65.107Y-23.934
X65.144Y-64.379
X65.271Y-13.477
X65.271Y-46.218
X65.334Y-8.372
X65.465Y-19.36
X65.678Y-33.518
X65.703Y-22.215
X65.881Y-11.242
X66.16Y-64.379
X66.211Y-11.928
X66.211Y-22.85
X66.211Y-34.153
X66.287Y-65.522
X66.287Y-66.538
X66.287Y-67.554
X66.287Y-68.57
X66.287Y-69.586
X66.287Y-73.65
X66.287Y-74.666
X66.287Y-75.682
X66.313Y-30.724
X66.44Y-38.598
X66.821Y-8.372
X66.846Y-19.294
X66.957Y-31.74
X67.049Y-56.632
X67.049Y-81.016
X67.456Y-20.31
X67.557Y-16.754
X67.557Y-17.77
X67.557Y-24.628
X67.578Y-12.966
X67.578Y-23.888
X67.608Y-13.706
X67.811Y-27.168
X67.811Y-28.946
X67.964Y-38.573
X68.257Y-35.313
X68.509Y-30.724
X68.827Y-56.632
X68.827Y-81.016
X68.929Y-33.569
X69.017Y-8.372
X69.017Y-19.294
X69.102Y-14.974
X69.107Y-10.277
X69.132Y-25.898
X69.148Y-21.26
X69.386Y-34.153
X69.458Y-40.069
X69.894Y-22.088
X69.996Y-11.166
X69.996Y-30.724
X70.402Y-11.928
X70.402Y-22.85
X70.504Y-8.372
X70.529Y-19.294
X70.605Y-56.632
X70.605Y-81.016
X70.631Y-16.5
X70.64Y-31.74
X70.656Y-27.422
X70.728Y-35.267
X70.783Y-36.058
X71.164Y-20.31
X72.18Y-16.576
X72.18Y-27.422
X72.473Y-13.912
X72.473Y-23.934
X72.637Y-56.632
X72.637Y-81.016
X72.7Y-8.372
X72.7Y-19.294
X73.069Y-22.215
X73.221Y-11.268
X73.577Y-11.928
X73.577Y-22.85
X74.187Y-8.372
X74.212Y-19.294
X74.669Y-56.632
X74.669Y-81.016
X74.831Y-20.31
X74.923Y-12.956
X74.923Y-13.706
X74.923Y-26.406
X74.923Y-28.692
X74.944Y-23.888
X74.974Y-24.628
X75.177Y-15.992
X75.177Y-17.77
X76.383Y-8.372
X76.447Y-56.632
X76.447Y-81.016
X76.468Y-14.974
X76.468Y-25.896
X76.473Y-10.404
X76.498Y-21.199
X76.514Y-19.36
X76.701Y-46.345
X77.235Y-11.166
X77.26Y-22.088
X77.768Y-11.928
X77.768Y-22.85
X77.87Y-8.372
X77.895Y-19.294
X77.997Y-16.5
X78.022Y-27.422
X78.225Y-81.016
X78.514Y-20.31
X79.546Y-16.5
X79.546Y-27.422
X79.839Y-13.912
X79.839Y-23.934
X80.066Y-8.372
X80.066Y-19.294
X80.257Y-81.016
X80.435Y-22.215
X80.562Y-11.293
X80.943Y-11.928
X81.07Y-22.85
X81.553Y-8.372
X81.578Y-19.294
X82.213Y-20.31
X82.289Y-26.406
X82.289Y-28.692
X82.289Y-81.016
X82.31Y-12.966
X82.31Y-23.888
X82.34Y-13.706
X82.34Y-24.628
X82.543Y-15.992
X82.543Y-17.77
X83.749Y-8.372
X83.834Y-14.974
X83.839Y-10.277
X83.864Y-25.898
X83.88Y-19.36
X83.88Y-21.26
X84.728Y-11.293
X84.753Y-22.215
X85.134Y-11.928
X85.134Y-22.85
X85.236Y-8.372
X85.261Y-19.294
X85.363Y-16.5
X85.388Y-27.422
X85.88Y-20.31
X86.912Y-27.422
X86.963Y-16.551
X87.205Y-13.912
X87.205Y-23.934
X87.432Y-8.372
X87.432Y-19.294
X87.801Y-22.215
X87.877Y-11.268
X88.309Y-11.928
X88.309Y-22.85
X88.36Y-15.586
X88.919Y-8.372
X88.944Y-19.294
X89.563Y-20.31
X89.579Y-13.706
X89.676Y-12.966
X89.676Y-23.888
X89.706Y-24.628
X89.909Y-15.992
X89.909Y-17.77
X89.909Y-26.406
X89.909Y-28.438
X91.115Y-8.372
X91.115Y-19.294
X91.2Y-14.974
X91.205Y-10.404
X91.23Y-18.012
X91.23Y-25.898
X91.246Y-21.26
X91.967Y-11.166
X92.246Y-22.088
X92.5Y-11.928
X92.5Y-22.85
X92.602Y-8.372
X92.627Y-19.294
X92.729Y-16.5
X92.754Y-27.422
X93.246Y-9.388
X93.246Y-20.31
X94.278Y-16.5
X94.278Y-27.422
X94.571Y-13.012
X94.571Y-23.934
X94.798Y-8.372
X94.929Y-19.36
X95.167Y-11.293
X95.294Y-22.215
X95.675Y-11.928
X95.675Y-22.85
X95.802Y-18.012
X96.285Y-8.372
X96.31Y-19.294
X96.929Y-20.31
X97.042Y-5.334
X97.042Y-12.966
X97.042Y-23.888
X97.047Y-24.628
X97.072Y-13.706
X97.275Y-15.992
X97.275Y-17.77
X97.275Y-26.406
X97.275Y-28.438
T2
X53.362Y-70.638
X57.194Y-49.266
X59.734Y-46.726
X62.274Y-49.266
T3
X26.416Y-66.472
X26.441Y-65.1
X27.711Y-65.075
X27.73Y-66.485
X29.134Y-65.126
X29.185Y-66.497
T4
X2.808Y-2.794
X2.808Y-5.334
X5.348Y-2.794
X5.348Y-5.334
X7.888Y-2.794
X7.888Y-5.334
X10.428Y-2.794
X10.428Y-5.334
X12.968Y-2.794
X12.968Y-5.334
X18.25Y-31.74
X18.25Y-34.28
X18.25Y-36.82
X18.25Y-39.36
X18.25Y-41.9
X18.25Y-44.44
X18.25Y-46.98
X18.25Y-49.52
X18.25Y-52.06
X18.25Y-54.6
X18.25Y-57.14
X18.25Y-59.68
X18.25Y-62.22
X18.25Y-64.76
X18.25Y-67.3
X18.25Y-69.84
X18.25Y-72.38
X18.25Y-74.92
X18.25Y-77.46
X18.302Y-2.794
X18.302Y-5.334
X20.79Y-31.74
X20.79Y-34.28
X20.79Y-36.82
X20.79Y-39.36
X20.79Y-41.9
X20.79Y-44.44
X20.79Y-46.98
X20.79Y-49.52
X20.79Y-52.06
X20.79Y-54.6
X20.79Y-57.14
X20.79Y-59.68
X20.79Y-62.22
X20.79Y-64.76
X20.79Y-67.3
X20.79Y-69.84
X20.79Y-72.38
X20.79Y-74.92
X20.79Y-77.46
X20.842Y-2.794
X20.842Y-5.334
X23.382Y-2.794
X23.382Y-5.334
X25.922Y-2.794
X25.922Y-5.334
X28.462Y-2.794
X28.462Y-5.334
X29.076Y-43.043
X31.002Y-2.794
X31.002Y-5.334
X31.616Y-43.043
X33.542Y-2.794
X33.542Y-5.334
X34.156Y-43.043
X36.082Y-2.794
X36.082Y-5.334
X36.696Y-43.043
X38.5Y-78.4
X38.565Y-59.553
X38.622Y-2.794
X38.622Y-5.334
X39.236Y-43.043
X41.Y-78.4
X41.065Y-59.553
X41.162Y-2.794
X41.162Y-5.334
X43.5Y-78.4
X43.565Y-59.553
X43.702Y-2.794
X43.702Y-5.334
X46.242Y-2.794
X46.242Y-5.334
X48.782Y-2.794
X48.782Y-5.334
X51.322Y-2.794
X51.322Y-5.334
X53.13Y-43.043
X53.862Y-2.794
X53.862Y-5.334
X55.67Y-43.043
X56.402Y-2.794
X56.402Y-5.334
X58.21Y-43.043
X58.942Y-2.794
X58.942Y-5.334
X60.75Y-43.043
X61.482Y-2.794
X61.482Y-5.334
X63.29Y-43.043
X64.022Y-2.794
X64.022Y-5.334
X65.83Y-43.043
X65.83Y-47.615
X65.83Y-50.155
X65.83Y-52.695
X66.562Y-2.794
X66.562Y-5.334
X68.37Y-43.043
X68.37Y-47.615
X68.37Y-50.155
X68.37Y-52.695
X69.102Y-2.794
X69.102Y-5.334
X69.281Y-72.299
X69.281Y-76.799
X70.91Y-43.043
X71.642Y-2.794
X71.642Y-5.334
X74.182Y-2.794
X74.182Y-5.334
X75.781Y-72.299
X75.781Y-76.799
X76.722Y-2.794
X76.722Y-5.334
X79.21Y-31.74
X79.21Y-34.28
X79.21Y-36.82
X79.21Y-39.36
X79.21Y-41.9
X79.21Y-44.44
X79.21Y-46.98
X79.21Y-49.52
X79.21Y-52.06
X79.21Y-54.6
X79.21Y-57.14
X79.21Y-59.68
X79.21Y-62.22
X79.21Y-64.76
X79.21Y-67.3
X79.21Y-69.84
X79.21Y-72.38
X79.21Y-74.92
X79.21Y-77.46
X79.262Y-2.794
X79.262Y-5.334
X81.75Y-31.74
X81.75Y-34.28
X81.75Y-36.82
X81.75Y-39.36
X81.75Y-41.9
X81.75Y-44.44
X81.75Y-46.98
X81.75Y-49.52
X81.75Y-52.06
X81.75Y-54.6
X81.75Y-57.14
X81.75Y-59.68
X81.75Y-62.22
X81.75Y-64.76
X81.75Y-67.3
X81.75Y-69.84
X81.75Y-72.38
X81.75Y-74.92
X81.75Y-77.46
X81.802Y-2.794
X81.802Y-5.334
X84.342Y-2.794
X84.342Y-5.334
X86.882Y-2.794
X86.882Y-5.334
X89.422Y-2.794
X89.422Y-5.334
X91.962Y-2.794
X91.962Y-5.334
X94.502Y-2.794
X94.502Y-5.334
X97.042Y-2.794
X97.042Y-5.334
T5
X34.4Y-70.9
X34.465Y-52.053
X47.6Y-70.9
X47.665Y-52.053
T4
X26.73Y-72.38G85X28.73Y-72.38
G05
X26.73Y-78.38G85X28.73Y-78.38
G05
X32.43Y-76.38G85X32.43Y-74.38
G05
T0
M30
