G04 #@! TF.FileFunction,Soldermask,Bot*
%FSLAX46Y46*%
G04 Gerber Fmt 4.6, Leading zero omitted, Abs format (unit mm)*
G04 Created by KiCad (PCBNEW 4.0.7-e2-6376~58~ubuntu17.04.1) date Wed Dec  6 15:02:30 2017*
%MOMM*%
%LPD*%
G01*
G04 APERTURE LIST*
%ADD10C,0.100000*%
%ADD11C,3.000000*%
%ADD12C,1.500000*%
%ADD13C,1.800000*%
%ADD14R,0.900000X0.500000*%
%ADD15R,1.700000X1.700000*%
%ADD16O,1.700000X1.700000*%
%ADD17R,3.500000X3.500000*%
%ADD18C,1.000000*%
%ADD19R,0.500000X0.900000*%
G04 APERTURE END LIST*
D10*
D11*
X34465000Y-52053000D03*
D12*
X43565000Y-59553000D03*
X38565000Y-59553000D03*
X41065000Y-59553000D03*
D11*
X47665000Y-52053000D03*
D13*
X75781000Y-72299000D03*
X75781000Y-76799000D03*
X69281000Y-72299000D03*
X69281000Y-76799000D03*
D14*
X8650000Y-13704000D03*
X8650000Y-12204000D03*
X8650000Y-24626000D03*
X8650000Y-23126000D03*
X16016000Y-13704000D03*
X16016000Y-12204000D03*
X16016000Y-24626000D03*
X16016000Y-23126000D03*
X23361200Y-13694000D03*
X23361200Y-12194000D03*
X23382000Y-24626000D03*
X23382000Y-23126000D03*
X30748000Y-13831000D03*
X30748000Y-12331000D03*
X30748000Y-24626000D03*
X30748000Y-23126000D03*
X38114000Y-13831000D03*
X38114000Y-12331000D03*
X38114000Y-24626000D03*
X38114000Y-23126000D03*
X45480000Y-13831000D03*
X45480000Y-12331000D03*
X45480000Y-24626000D03*
X45480000Y-23126000D03*
X52846000Y-13831000D03*
X52846000Y-12331000D03*
X52846000Y-24626000D03*
X52846000Y-23126000D03*
X60212000Y-13704000D03*
X60212000Y-12204000D03*
X60212000Y-24626000D03*
X60212000Y-23126000D03*
X70727600Y-36005200D03*
X70727600Y-34505200D03*
X63361600Y-36005200D03*
X63361600Y-34505200D03*
X55995600Y-36005200D03*
X55995600Y-34505200D03*
X48629600Y-36005200D03*
X48629600Y-34505200D03*
X41263600Y-36005200D03*
X41263600Y-34505200D03*
X33897600Y-36005200D03*
X33897600Y-34505200D03*
X97042000Y-24626000D03*
X97042000Y-23126000D03*
X97042000Y-13704000D03*
X97042000Y-12204000D03*
X89676000Y-24626000D03*
X89676000Y-23126000D03*
X89676000Y-13704000D03*
X89676000Y-12204000D03*
X82310000Y-24626000D03*
X82310000Y-23126000D03*
X82310000Y-13704000D03*
X82310000Y-12204000D03*
X74944000Y-24626000D03*
X74944000Y-23126000D03*
X74923200Y-13694000D03*
X74923200Y-12194000D03*
X67578000Y-24626000D03*
X67578000Y-23126000D03*
X67578000Y-13704000D03*
X67578000Y-12204000D03*
D15*
X18302000Y-5334000D03*
D16*
X18302000Y-2794000D03*
X20842000Y-5334000D03*
X20842000Y-2794000D03*
X23382000Y-5334000D03*
X23382000Y-2794000D03*
X25922000Y-5334000D03*
X25922000Y-2794000D03*
X28462000Y-5334000D03*
X28462000Y-2794000D03*
X31002000Y-5334000D03*
X31002000Y-2794000D03*
X33542000Y-5334000D03*
X33542000Y-2794000D03*
X36082000Y-5334000D03*
X36082000Y-2794000D03*
X38622000Y-5334000D03*
X38622000Y-2794000D03*
X41162000Y-5334000D03*
X41162000Y-2794000D03*
X43702000Y-5334000D03*
X43702000Y-2794000D03*
X46242000Y-5334000D03*
X46242000Y-2794000D03*
X48782000Y-5334000D03*
X48782000Y-2794000D03*
X51322000Y-5334000D03*
X51322000Y-2794000D03*
X53862000Y-5334000D03*
X53862000Y-2794000D03*
X56402000Y-5334000D03*
X56402000Y-2794000D03*
X58942000Y-5334000D03*
X58942000Y-2794000D03*
X61482000Y-5334000D03*
X61482000Y-2794000D03*
X64022000Y-5334000D03*
X64022000Y-2794000D03*
X66562000Y-5334000D03*
X66562000Y-2794000D03*
X69102000Y-5334000D03*
X69102000Y-2794000D03*
X71642000Y-5334000D03*
X71642000Y-2794000D03*
X74182000Y-5334000D03*
X74182000Y-2794000D03*
X76722000Y-5334000D03*
X76722000Y-2794000D03*
X79262000Y-5334000D03*
X79262000Y-2794000D03*
X81802000Y-5334000D03*
X81802000Y-2794000D03*
X84342000Y-5334000D03*
X84342000Y-2794000D03*
X86882000Y-5334000D03*
X86882000Y-2794000D03*
X89422000Y-5334000D03*
X89422000Y-2794000D03*
X91962000Y-5334000D03*
X91962000Y-2794000D03*
X94502000Y-5334000D03*
X94502000Y-2794000D03*
X97042000Y-5334000D03*
X97042000Y-2794000D03*
D15*
X65830000Y-47615000D03*
D16*
X68370000Y-47615000D03*
X65830000Y-50155000D03*
X68370000Y-50155000D03*
X65830000Y-52695000D03*
X68370000Y-52695000D03*
D15*
X39236200Y-43043000D03*
D16*
X36696200Y-43043000D03*
X34156200Y-43043000D03*
X31616200Y-43043000D03*
X29076200Y-43043000D03*
D15*
X2808000Y-5334000D03*
D16*
X2808000Y-2794000D03*
X5348000Y-5334000D03*
X5348000Y-2794000D03*
X7888000Y-5334000D03*
X7888000Y-2794000D03*
X10428000Y-5334000D03*
X10428000Y-2794000D03*
X12968000Y-5334000D03*
X12968000Y-2794000D03*
D15*
X20790000Y-31740000D03*
D16*
X18250000Y-31740000D03*
X20790000Y-34280000D03*
X18250000Y-34280000D03*
X20790000Y-36820000D03*
X18250000Y-36820000D03*
X20790000Y-39360000D03*
X18250000Y-39360000D03*
X20790000Y-41900000D03*
X18250000Y-41900000D03*
X20790000Y-44440000D03*
X18250000Y-44440000D03*
X20790000Y-46980000D03*
X18250000Y-46980000D03*
X20790000Y-49520000D03*
X18250000Y-49520000D03*
X20790000Y-52060000D03*
X18250000Y-52060000D03*
X20790000Y-54600000D03*
X18250000Y-54600000D03*
X20790000Y-57140000D03*
X18250000Y-57140000D03*
X20790000Y-59680000D03*
X18250000Y-59680000D03*
X20790000Y-62220000D03*
X18250000Y-62220000D03*
X20790000Y-64760000D03*
X18250000Y-64760000D03*
X20790000Y-67300000D03*
X18250000Y-67300000D03*
X20790000Y-69840000D03*
X18250000Y-69840000D03*
X20790000Y-72380000D03*
X18250000Y-72380000D03*
X20790000Y-74920000D03*
X18250000Y-74920000D03*
X20790000Y-77460000D03*
X18250000Y-77460000D03*
D15*
X81750000Y-31740000D03*
D16*
X79210000Y-31740000D03*
X81750000Y-34280000D03*
X79210000Y-34280000D03*
X81750000Y-36820000D03*
X79210000Y-36820000D03*
X81750000Y-39360000D03*
X79210000Y-39360000D03*
X81750000Y-41900000D03*
X79210000Y-41900000D03*
X81750000Y-44440000D03*
X79210000Y-44440000D03*
X81750000Y-46980000D03*
X79210000Y-46980000D03*
X81750000Y-49520000D03*
X79210000Y-49520000D03*
X81750000Y-52060000D03*
X79210000Y-52060000D03*
X81750000Y-54600000D03*
X79210000Y-54600000D03*
X81750000Y-57140000D03*
X79210000Y-57140000D03*
X81750000Y-59680000D03*
X79210000Y-59680000D03*
X81750000Y-62220000D03*
X79210000Y-62220000D03*
X81750000Y-64760000D03*
X79210000Y-64760000D03*
X81750000Y-67300000D03*
X79210000Y-67300000D03*
X81750000Y-69840000D03*
X79210000Y-69840000D03*
X81750000Y-72380000D03*
X79210000Y-72380000D03*
X81750000Y-74920000D03*
X79210000Y-74920000D03*
X81750000Y-77460000D03*
X79210000Y-77460000D03*
D11*
X34400000Y-70900000D03*
D12*
X43500000Y-78400000D03*
X38500000Y-78400000D03*
X41000000Y-78400000D03*
D11*
X47600000Y-70900000D03*
D15*
X53130000Y-43043000D03*
D16*
X55670000Y-43043000D03*
X58210000Y-43043000D03*
X60750000Y-43043000D03*
X63290000Y-43043000D03*
X65830000Y-43043000D03*
X68370000Y-43043000D03*
X70910000Y-43043000D03*
D17*
X27730000Y-72380000D03*
X27730000Y-78380000D03*
X32430000Y-75380000D03*
D18*
X62274000Y-49266000D03*
X57194000Y-49266000D03*
X59734000Y-46726000D03*
D19*
X6406000Y-8372000D03*
X7906000Y-8372000D03*
X4223000Y-8372000D03*
X2723000Y-8372000D03*
X6406000Y-19294000D03*
X7906000Y-19294000D03*
X4223000Y-19294000D03*
X2723000Y-19294000D03*
X13772000Y-8372000D03*
X15272000Y-8372000D03*
X11589000Y-8372000D03*
X10089000Y-8372000D03*
X13772000Y-19294000D03*
X15272000Y-19294000D03*
X11589000Y-19294000D03*
X10089000Y-19294000D03*
X21138000Y-8372000D03*
X22638000Y-8372000D03*
X18955000Y-8372000D03*
X17455000Y-8372000D03*
X21138000Y-19294000D03*
X22638000Y-19294000D03*
X18955000Y-19294000D03*
X17455000Y-19294000D03*
X28504000Y-8372000D03*
X30004000Y-8372000D03*
X26321000Y-8372000D03*
X24821000Y-8372000D03*
X28504000Y-19294000D03*
X30004000Y-19294000D03*
X26321000Y-19294000D03*
X24821000Y-19294000D03*
X35844600Y-8372000D03*
X37344600Y-8372000D03*
X33661600Y-8372000D03*
X32161600Y-8372000D03*
X35870000Y-19294000D03*
X37370000Y-19294000D03*
X33687000Y-19294000D03*
X32187000Y-19294000D03*
X43236000Y-8372000D03*
X44736000Y-8372000D03*
X41053000Y-8372000D03*
X39553000Y-8372000D03*
X43236000Y-19294000D03*
X44736000Y-19294000D03*
X41053000Y-19294000D03*
X39553000Y-19294000D03*
X50602000Y-8372000D03*
X52102000Y-8372000D03*
X48419000Y-8372000D03*
X46919000Y-8372000D03*
X50602000Y-19294000D03*
X52102000Y-19294000D03*
X48419000Y-19294000D03*
X46919000Y-19294000D03*
X57968000Y-8372000D03*
X59468000Y-8372000D03*
X55785000Y-8372000D03*
X54285000Y-8372000D03*
X57968000Y-19294000D03*
X59468000Y-19294000D03*
X55785000Y-19294000D03*
X54285000Y-19294000D03*
X68509000Y-30724000D03*
X70009000Y-30724000D03*
X66326000Y-30724000D03*
X64826000Y-30724000D03*
X61143000Y-30724000D03*
X62643000Y-30724000D03*
X58960000Y-30724000D03*
X57460000Y-30724000D03*
X53777000Y-30724000D03*
X55277000Y-30724000D03*
X51594000Y-30724000D03*
X50094000Y-30724000D03*
X46411000Y-30724000D03*
X47911000Y-30724000D03*
X44228000Y-30724000D03*
X42728000Y-30724000D03*
X39045000Y-30724000D03*
X40545000Y-30724000D03*
X36862000Y-30724000D03*
X35362000Y-30724000D03*
X31653600Y-30724000D03*
X33153600Y-30724000D03*
X29470600Y-30724000D03*
X27970600Y-30724000D03*
X94798000Y-19294000D03*
X96298000Y-19294000D03*
X92615000Y-19294000D03*
X91115000Y-19294000D03*
X94798000Y-8372000D03*
X96298000Y-8372000D03*
X92615000Y-8372000D03*
X91115000Y-8372000D03*
X87432000Y-19294000D03*
X88932000Y-19294000D03*
X85249000Y-19294000D03*
X83749000Y-19294000D03*
X87432000Y-8372000D03*
X88932000Y-8372000D03*
X85249000Y-8372000D03*
X83749000Y-8372000D03*
X80066000Y-19294000D03*
X81566000Y-19294000D03*
X77883000Y-19294000D03*
X76383000Y-19294000D03*
X80066000Y-8372000D03*
X81566000Y-8372000D03*
X77883000Y-8372000D03*
X76383000Y-8372000D03*
X72700000Y-19294000D03*
X74200000Y-19294000D03*
X70517000Y-19294000D03*
X69017000Y-19294000D03*
X72700000Y-8372000D03*
X74200000Y-8372000D03*
X70517000Y-8372000D03*
X69017000Y-8372000D03*
X65334000Y-19294000D03*
X66834000Y-19294000D03*
X63151000Y-19294000D03*
X61651000Y-19294000D03*
X65334000Y-8372000D03*
X66834000Y-8372000D03*
X63151000Y-8372000D03*
X61651000Y-8372000D03*
M02*
