G04 #@! TF.FileFunction,Legend,Bot*
%FSLAX46Y46*%
G04 Gerber Fmt 4.6, Leading zero omitted, Abs format (unit mm)*
G04 Created by KiCad (PCBNEW 4.0.7-e2-6376~58~ubuntu17.04.1) date Mon Dec 11 10:41:26 2017*
%MOMM*%
%LPD*%
G01*
G04 APERTURE LIST*
%ADD10C,0.100000*%
%ADD11C,0.250000*%
%ADD12C,0.300000*%
%ADD13C,0.120000*%
%ADD14C,0.150000*%
G04 APERTURE END LIST*
D10*
D11*
X76598057Y-40078571D02*
X76598057Y-39078571D01*
X76598057Y-39221429D02*
X76526629Y-39150000D01*
X76383771Y-39078571D01*
X76169486Y-39078571D01*
X76026629Y-39150000D01*
X75955200Y-39292857D01*
X75955200Y-40078571D01*
X75955200Y-39292857D02*
X75883771Y-39150000D01*
X75740914Y-39078571D01*
X75526629Y-39078571D01*
X75383771Y-39150000D01*
X75312343Y-39292857D01*
X75312343Y-40078571D01*
X73955200Y-40078571D02*
X73955200Y-39292857D01*
X74026629Y-39150000D01*
X74169486Y-39078571D01*
X74455200Y-39078571D01*
X74598057Y-39150000D01*
X73955200Y-40007143D02*
X74098057Y-40078571D01*
X74455200Y-40078571D01*
X74598057Y-40007143D01*
X74669486Y-39864286D01*
X74669486Y-39721429D01*
X74598057Y-39578571D01*
X74455200Y-39507143D01*
X74098057Y-39507143D01*
X73955200Y-39435714D01*
X73383771Y-40078571D02*
X72598057Y-39078571D01*
X73383771Y-39078571D02*
X72598057Y-40078571D01*
X72026628Y-39935714D02*
X71955200Y-40007143D01*
X72026628Y-40078571D01*
X72098057Y-40007143D01*
X72026628Y-39935714D01*
X72026628Y-40078571D01*
X76669486Y-41221429D02*
X76598057Y-41150000D01*
X76455200Y-41078571D01*
X76098057Y-41078571D01*
X75955200Y-41150000D01*
X75883771Y-41221429D01*
X75812343Y-41364286D01*
X75812343Y-41507143D01*
X75883771Y-41721429D01*
X76740914Y-42578571D01*
X75812343Y-42578571D01*
X74883772Y-41078571D02*
X74740915Y-41078571D01*
X74598058Y-41150000D01*
X74526629Y-41221429D01*
X74455200Y-41364286D01*
X74383772Y-41650000D01*
X74383772Y-42007143D01*
X74455200Y-42292857D01*
X74526629Y-42435714D01*
X74598058Y-42507143D01*
X74740915Y-42578571D01*
X74883772Y-42578571D01*
X75026629Y-42507143D01*
X75098058Y-42435714D01*
X75169486Y-42292857D01*
X75240915Y-42007143D01*
X75240915Y-41650000D01*
X75169486Y-41364286D01*
X75098058Y-41221429D01*
X75026629Y-41150000D01*
X74883772Y-41078571D01*
X73455201Y-41078571D02*
X73312344Y-41078571D01*
X73169487Y-41150000D01*
X73098058Y-41221429D01*
X73026629Y-41364286D01*
X72955201Y-41650000D01*
X72955201Y-42007143D01*
X73026629Y-42292857D01*
X73098058Y-42435714D01*
X73169487Y-42507143D01*
X73312344Y-42578571D01*
X73455201Y-42578571D01*
X73598058Y-42507143D01*
X73669487Y-42435714D01*
X73740915Y-42292857D01*
X73812344Y-42007143D01*
X73812344Y-41650000D01*
X73740915Y-41364286D01*
X73669487Y-41221429D01*
X73598058Y-41150000D01*
X73455201Y-41078571D01*
X71169487Y-42578571D02*
X71169487Y-41578571D01*
X71169487Y-41721429D02*
X71098059Y-41650000D01*
X70955201Y-41578571D01*
X70740916Y-41578571D01*
X70598059Y-41650000D01*
X70526630Y-41792857D01*
X70526630Y-42578571D01*
X70526630Y-41792857D02*
X70455201Y-41650000D01*
X70312344Y-41578571D01*
X70098059Y-41578571D01*
X69955201Y-41650000D01*
X69883773Y-41792857D01*
X69883773Y-42578571D01*
X69240916Y-42150000D02*
X68526630Y-42150000D01*
X69383773Y-42578571D02*
X68883773Y-41078571D01*
X68383773Y-42578571D01*
X65669488Y-41007143D02*
X66955202Y-42935714D01*
X76812343Y-44078571D02*
X76240914Y-44078571D01*
X76598057Y-43578571D02*
X76598057Y-44864286D01*
X76526629Y-45007143D01*
X76383771Y-45078571D01*
X76240914Y-45078571D01*
X75740914Y-45078571D02*
X75740914Y-44078571D01*
X75740914Y-44364286D02*
X75669486Y-44221429D01*
X75598057Y-44150000D01*
X75455200Y-44078571D01*
X75312343Y-44078571D01*
X74169486Y-45078571D02*
X74169486Y-44292857D01*
X74240915Y-44150000D01*
X74383772Y-44078571D01*
X74669486Y-44078571D01*
X74812343Y-44150000D01*
X74169486Y-45007143D02*
X74312343Y-45078571D01*
X74669486Y-45078571D01*
X74812343Y-45007143D01*
X74883772Y-44864286D01*
X74883772Y-44721429D01*
X74812343Y-44578571D01*
X74669486Y-44507143D01*
X74312343Y-44507143D01*
X74169486Y-44435714D01*
X73455200Y-44078571D02*
X73455200Y-45078571D01*
X73455200Y-44221429D02*
X73383772Y-44150000D01*
X73240914Y-44078571D01*
X73026629Y-44078571D01*
X72883772Y-44150000D01*
X72812343Y-44292857D01*
X72812343Y-45078571D01*
X72169486Y-45007143D02*
X72026629Y-45078571D01*
X71740914Y-45078571D01*
X71598057Y-45007143D01*
X71526629Y-44864286D01*
X71526629Y-44792857D01*
X71598057Y-44650000D01*
X71740914Y-44578571D01*
X71955200Y-44578571D01*
X72098057Y-44507143D01*
X72169486Y-44364286D01*
X72169486Y-44292857D01*
X72098057Y-44150000D01*
X71955200Y-44078571D01*
X71740914Y-44078571D01*
X71598057Y-44150000D01*
X70883771Y-45078571D02*
X70883771Y-44078571D01*
X70883771Y-43578571D02*
X70955200Y-43650000D01*
X70883771Y-43721429D01*
X70812343Y-43650000D01*
X70883771Y-43578571D01*
X70883771Y-43721429D01*
X70240914Y-45007143D02*
X70098057Y-45078571D01*
X69812342Y-45078571D01*
X69669485Y-45007143D01*
X69598057Y-44864286D01*
X69598057Y-44792857D01*
X69669485Y-44650000D01*
X69812342Y-44578571D01*
X70026628Y-44578571D01*
X70169485Y-44507143D01*
X70240914Y-44364286D01*
X70240914Y-44292857D01*
X70169485Y-44150000D01*
X70026628Y-44078571D01*
X69812342Y-44078571D01*
X69669485Y-44150000D01*
X69169485Y-44078571D02*
X68598056Y-44078571D01*
X68955199Y-43578571D02*
X68955199Y-44864286D01*
X68883771Y-45007143D01*
X68740913Y-45078571D01*
X68598056Y-45078571D01*
X67883770Y-45078571D02*
X68026628Y-45007143D01*
X68098056Y-44935714D01*
X68169485Y-44792857D01*
X68169485Y-44364286D01*
X68098056Y-44221429D01*
X68026628Y-44150000D01*
X67883770Y-44078571D01*
X67669485Y-44078571D01*
X67526628Y-44150000D01*
X67455199Y-44221429D01*
X67383770Y-44364286D01*
X67383770Y-44792857D01*
X67455199Y-44935714D01*
X67526628Y-45007143D01*
X67669485Y-45078571D01*
X67883770Y-45078571D01*
X66740913Y-45078571D02*
X66740913Y-44078571D01*
X66740913Y-44364286D02*
X66669485Y-44221429D01*
X66598056Y-44150000D01*
X66455199Y-44078571D01*
X66312342Y-44078571D01*
D12*
X76609143Y-57578571D02*
X76109143Y-59078571D01*
X75609143Y-57578571D01*
X74537715Y-59007143D02*
X74680572Y-59078571D01*
X74966286Y-59078571D01*
X75109143Y-59007143D01*
X75180572Y-58864286D01*
X75180572Y-58292857D01*
X75109143Y-58150000D01*
X74966286Y-58078571D01*
X74680572Y-58078571D01*
X74537715Y-58150000D01*
X74466286Y-58292857D01*
X74466286Y-58435714D01*
X75180572Y-58578571D01*
X73823429Y-59078571D02*
X73823429Y-58078571D01*
X73823429Y-58364286D02*
X73752001Y-58221429D01*
X73680572Y-58150000D01*
X73537715Y-58078571D01*
X73394858Y-58078571D01*
X72966287Y-59007143D02*
X72823430Y-59078571D01*
X72537715Y-59078571D01*
X72394858Y-59007143D01*
X72323430Y-58864286D01*
X72323430Y-58792857D01*
X72394858Y-58650000D01*
X72537715Y-58578571D01*
X72752001Y-58578571D01*
X72894858Y-58507143D01*
X72966287Y-58364286D01*
X72966287Y-58292857D01*
X72894858Y-58150000D01*
X72752001Y-58078571D01*
X72537715Y-58078571D01*
X72394858Y-58150000D01*
X71680572Y-59078571D02*
X71680572Y-58078571D01*
X71680572Y-57578571D02*
X71752001Y-57650000D01*
X71680572Y-57721429D01*
X71609144Y-57650000D01*
X71680572Y-57578571D01*
X71680572Y-57721429D01*
X70752000Y-59078571D02*
X70894858Y-59007143D01*
X70966286Y-58935714D01*
X71037715Y-58792857D01*
X71037715Y-58364286D01*
X70966286Y-58221429D01*
X70894858Y-58150000D01*
X70752000Y-58078571D01*
X70537715Y-58078571D01*
X70394858Y-58150000D01*
X70323429Y-58221429D01*
X70252000Y-58364286D01*
X70252000Y-58792857D01*
X70323429Y-58935714D01*
X70394858Y-59007143D01*
X70537715Y-59078571D01*
X70752000Y-59078571D01*
X69609143Y-58078571D02*
X69609143Y-59078571D01*
X69609143Y-58221429D02*
X69537715Y-58150000D01*
X69394857Y-58078571D01*
X69180572Y-58078571D01*
X69037715Y-58150000D01*
X68966286Y-58292857D01*
X68966286Y-59078571D01*
X66323429Y-59078571D02*
X67180572Y-59078571D01*
X66752000Y-59078571D02*
X66752000Y-57578571D01*
X66894857Y-57792857D01*
X67037715Y-57935714D01*
X67180572Y-58007143D01*
X65680572Y-58935714D02*
X65609144Y-59007143D01*
X65680572Y-59078571D01*
X65752001Y-59007143D01*
X65680572Y-58935714D01*
X65680572Y-59078571D01*
X64680572Y-57578571D02*
X64537715Y-57578571D01*
X64394858Y-57650000D01*
X64323429Y-57721429D01*
X64252000Y-57864286D01*
X64180572Y-58150000D01*
X64180572Y-58507143D01*
X64252000Y-58792857D01*
X64323429Y-58935714D01*
X64394858Y-59007143D01*
X64537715Y-59078571D01*
X64680572Y-59078571D01*
X64823429Y-59007143D01*
X64894858Y-58935714D01*
X64966286Y-58792857D01*
X65037715Y-58507143D01*
X65037715Y-58150000D01*
X64966286Y-57864286D01*
X64894858Y-57721429D01*
X64823429Y-57650000D01*
X64680572Y-57578571D01*
X76394857Y-61628571D02*
X76394857Y-60128571D01*
X75537714Y-61628571D01*
X75537714Y-60128571D01*
X74609142Y-61628571D02*
X74752000Y-61557143D01*
X74823428Y-61485714D01*
X74894857Y-61342857D01*
X74894857Y-60914286D01*
X74823428Y-60771429D01*
X74752000Y-60700000D01*
X74609142Y-60628571D01*
X74394857Y-60628571D01*
X74252000Y-60700000D01*
X74180571Y-60771429D01*
X74109142Y-60914286D01*
X74109142Y-61342857D01*
X74180571Y-61485714D01*
X74252000Y-61557143D01*
X74394857Y-61628571D01*
X74609142Y-61628571D01*
X73609142Y-60628571D02*
X73251999Y-61628571D01*
X72894857Y-60628571D01*
X71752000Y-61557143D02*
X71894857Y-61628571D01*
X72180571Y-61628571D01*
X72323428Y-61557143D01*
X72394857Y-61414286D01*
X72394857Y-60842857D01*
X72323428Y-60700000D01*
X72180571Y-60628571D01*
X71894857Y-60628571D01*
X71752000Y-60700000D01*
X71680571Y-60842857D01*
X71680571Y-60985714D01*
X72394857Y-61128571D01*
X71037714Y-61628571D02*
X71037714Y-60628571D01*
X71037714Y-60771429D02*
X70966286Y-60700000D01*
X70823428Y-60628571D01*
X70609143Y-60628571D01*
X70466286Y-60700000D01*
X70394857Y-60842857D01*
X70394857Y-61628571D01*
X70394857Y-60842857D02*
X70323428Y-60700000D01*
X70180571Y-60628571D01*
X69966286Y-60628571D01*
X69823428Y-60700000D01*
X69752000Y-60842857D01*
X69752000Y-61628571D01*
X69037714Y-61628571D02*
X69037714Y-60128571D01*
X69037714Y-60700000D02*
X68894857Y-60628571D01*
X68609143Y-60628571D01*
X68466286Y-60700000D01*
X68394857Y-60771429D01*
X68323428Y-60914286D01*
X68323428Y-61342857D01*
X68394857Y-61485714D01*
X68466286Y-61557143D01*
X68609143Y-61628571D01*
X68894857Y-61628571D01*
X69037714Y-61557143D01*
X67109143Y-61557143D02*
X67252000Y-61628571D01*
X67537714Y-61628571D01*
X67680571Y-61557143D01*
X67752000Y-61414286D01*
X67752000Y-60842857D01*
X67680571Y-60700000D01*
X67537714Y-60628571D01*
X67252000Y-60628571D01*
X67109143Y-60700000D01*
X67037714Y-60842857D01*
X67037714Y-60985714D01*
X67752000Y-61128571D01*
X66394857Y-61628571D02*
X66394857Y-60628571D01*
X66394857Y-60914286D02*
X66323429Y-60771429D01*
X66252000Y-60700000D01*
X66109143Y-60628571D01*
X65966286Y-60628571D01*
X64394858Y-60271429D02*
X64323429Y-60200000D01*
X64180572Y-60128571D01*
X63823429Y-60128571D01*
X63680572Y-60200000D01*
X63609143Y-60271429D01*
X63537715Y-60414286D01*
X63537715Y-60557143D01*
X63609143Y-60771429D01*
X64466286Y-61628571D01*
X63537715Y-61628571D01*
X62609144Y-60128571D02*
X62466287Y-60128571D01*
X62323430Y-60200000D01*
X62252001Y-60271429D01*
X62180572Y-60414286D01*
X62109144Y-60700000D01*
X62109144Y-61057143D01*
X62180572Y-61342857D01*
X62252001Y-61485714D01*
X62323430Y-61557143D01*
X62466287Y-61628571D01*
X62609144Y-61628571D01*
X62752001Y-61557143D01*
X62823430Y-61485714D01*
X62894858Y-61342857D01*
X62966287Y-61057143D01*
X62966287Y-60700000D01*
X62894858Y-60414286D01*
X62823430Y-60271429D01*
X62752001Y-60200000D01*
X62609144Y-60128571D01*
X60680573Y-61628571D02*
X61537716Y-61628571D01*
X61109144Y-61628571D02*
X61109144Y-60128571D01*
X61252001Y-60342857D01*
X61394859Y-60485714D01*
X61537716Y-60557143D01*
X60180573Y-60128571D02*
X59180573Y-60128571D01*
X59823430Y-61628571D01*
X76394857Y-64178571D02*
X76394857Y-62678571D01*
X76037714Y-62678571D01*
X75823429Y-62750000D01*
X75680571Y-62892857D01*
X75609143Y-63035714D01*
X75537714Y-63321429D01*
X75537714Y-63535714D01*
X75609143Y-63821429D01*
X75680571Y-63964286D01*
X75823429Y-64107143D01*
X76037714Y-64178571D01*
X76394857Y-64178571D01*
X74323429Y-64107143D02*
X74466286Y-64178571D01*
X74752000Y-64178571D01*
X74894857Y-64107143D01*
X74966286Y-63964286D01*
X74966286Y-63392857D01*
X74894857Y-63250000D01*
X74752000Y-63178571D01*
X74466286Y-63178571D01*
X74323429Y-63250000D01*
X74252000Y-63392857D01*
X74252000Y-63535714D01*
X74966286Y-63678571D01*
X73680572Y-64107143D02*
X73537715Y-64178571D01*
X73252000Y-64178571D01*
X73109143Y-64107143D01*
X73037715Y-63964286D01*
X73037715Y-63892857D01*
X73109143Y-63750000D01*
X73252000Y-63678571D01*
X73466286Y-63678571D01*
X73609143Y-63607143D01*
X73680572Y-63464286D01*
X73680572Y-63392857D01*
X73609143Y-63250000D01*
X73466286Y-63178571D01*
X73252000Y-63178571D01*
X73109143Y-63250000D01*
X72394857Y-64178571D02*
X72394857Y-63178571D01*
X72394857Y-62678571D02*
X72466286Y-62750000D01*
X72394857Y-62821429D01*
X72323429Y-62750000D01*
X72394857Y-62678571D01*
X72394857Y-62821429D01*
X71037714Y-63178571D02*
X71037714Y-64392857D01*
X71109143Y-64535714D01*
X71180571Y-64607143D01*
X71323428Y-64678571D01*
X71537714Y-64678571D01*
X71680571Y-64607143D01*
X71037714Y-64107143D02*
X71180571Y-64178571D01*
X71466285Y-64178571D01*
X71609143Y-64107143D01*
X71680571Y-64035714D01*
X71752000Y-63892857D01*
X71752000Y-63464286D01*
X71680571Y-63321429D01*
X71609143Y-63250000D01*
X71466285Y-63178571D01*
X71180571Y-63178571D01*
X71037714Y-63250000D01*
X70323428Y-63178571D02*
X70323428Y-64178571D01*
X70323428Y-63321429D02*
X70252000Y-63250000D01*
X70109142Y-63178571D01*
X69894857Y-63178571D01*
X69752000Y-63250000D01*
X69680571Y-63392857D01*
X69680571Y-64178571D01*
X68394857Y-64107143D02*
X68537714Y-64178571D01*
X68823428Y-64178571D01*
X68966285Y-64107143D01*
X69037714Y-63964286D01*
X69037714Y-63392857D01*
X68966285Y-63250000D01*
X68823428Y-63178571D01*
X68537714Y-63178571D01*
X68394857Y-63250000D01*
X68323428Y-63392857D01*
X68323428Y-63535714D01*
X69037714Y-63678571D01*
X67037714Y-64178571D02*
X67037714Y-62678571D01*
X67037714Y-64107143D02*
X67180571Y-64178571D01*
X67466285Y-64178571D01*
X67609143Y-64107143D01*
X67680571Y-64035714D01*
X67752000Y-63892857D01*
X67752000Y-63464286D01*
X67680571Y-63321429D01*
X67609143Y-63250000D01*
X67466285Y-63178571D01*
X67180571Y-63178571D01*
X67037714Y-63250000D01*
X65394857Y-63178571D02*
X64823428Y-63178571D01*
X65180571Y-64178571D02*
X65180571Y-62892857D01*
X65109143Y-62750000D01*
X64966285Y-62678571D01*
X64823428Y-62678571D01*
X64109142Y-64178571D02*
X64252000Y-64107143D01*
X64323428Y-64035714D01*
X64394857Y-63892857D01*
X64394857Y-63464286D01*
X64323428Y-63321429D01*
X64252000Y-63250000D01*
X64109142Y-63178571D01*
X63894857Y-63178571D01*
X63752000Y-63250000D01*
X63680571Y-63321429D01*
X63609142Y-63464286D01*
X63609142Y-63892857D01*
X63680571Y-64035714D01*
X63752000Y-64107143D01*
X63894857Y-64178571D01*
X64109142Y-64178571D01*
X62966285Y-64178571D02*
X62966285Y-63178571D01*
X62966285Y-63464286D02*
X62894857Y-63321429D01*
X62823428Y-63250000D01*
X62680571Y-63178571D01*
X62537714Y-63178571D01*
X61109143Y-63178571D02*
X60537714Y-63178571D01*
X60894857Y-62678571D02*
X60894857Y-63964286D01*
X60823429Y-64107143D01*
X60680571Y-64178571D01*
X60537714Y-64178571D01*
X60037714Y-64178571D02*
X60037714Y-62678571D01*
X59394857Y-64178571D02*
X59394857Y-63392857D01*
X59466286Y-63250000D01*
X59609143Y-63178571D01*
X59823428Y-63178571D01*
X59966286Y-63250000D01*
X60037714Y-63321429D01*
X58109143Y-64107143D02*
X58252000Y-64178571D01*
X58537714Y-64178571D01*
X58680571Y-64107143D01*
X58752000Y-63964286D01*
X58752000Y-63392857D01*
X58680571Y-63250000D01*
X58537714Y-63178571D01*
X58252000Y-63178571D01*
X58109143Y-63250000D01*
X58037714Y-63392857D01*
X58037714Y-63535714D01*
X58752000Y-63678571D01*
X56252000Y-64178571D02*
X56252000Y-62678571D01*
X55394857Y-64178571D01*
X55394857Y-62678571D01*
X54037714Y-63178571D02*
X54037714Y-64178571D01*
X54680571Y-63178571D02*
X54680571Y-63964286D01*
X54609143Y-64107143D01*
X54466285Y-64178571D01*
X54252000Y-64178571D01*
X54109143Y-64107143D01*
X54037714Y-64035714D01*
X52680571Y-64107143D02*
X52823428Y-64178571D01*
X53109142Y-64178571D01*
X53252000Y-64107143D01*
X53323428Y-64035714D01*
X53394857Y-63892857D01*
X53394857Y-63464286D01*
X53323428Y-63321429D01*
X53252000Y-63250000D01*
X53109142Y-63178571D01*
X52823428Y-63178571D01*
X52680571Y-63250000D01*
X51823428Y-64178571D02*
X51966286Y-64107143D01*
X52037714Y-63964286D01*
X52037714Y-62678571D01*
X50680572Y-64107143D02*
X50823429Y-64178571D01*
X51109143Y-64178571D01*
X51252000Y-64107143D01*
X51323429Y-63964286D01*
X51323429Y-63392857D01*
X51252000Y-63250000D01*
X51109143Y-63178571D01*
X50823429Y-63178571D01*
X50680572Y-63250000D01*
X50609143Y-63392857D01*
X50609143Y-63535714D01*
X51323429Y-63678571D01*
X49752000Y-64178571D02*
X49894858Y-64107143D01*
X49966286Y-64035714D01*
X50037715Y-63892857D01*
X50037715Y-63464286D01*
X49966286Y-63321429D01*
X49894858Y-63250000D01*
X49752000Y-63178571D01*
X49537715Y-63178571D01*
X49394858Y-63250000D01*
X49323429Y-63321429D01*
X49252000Y-63464286D01*
X49252000Y-63892857D01*
X49323429Y-64035714D01*
X49394858Y-64107143D01*
X49537715Y-64178571D01*
X49752000Y-64178571D01*
X48609143Y-63607143D02*
X47466286Y-63607143D01*
X46252000Y-63392857D02*
X46752000Y-63392857D01*
X46752000Y-64178571D02*
X46752000Y-62678571D01*
X46037714Y-62678571D01*
X44680572Y-64178571D02*
X45537715Y-64178571D01*
X45109143Y-64178571D02*
X45109143Y-62678571D01*
X45252000Y-62892857D01*
X45394858Y-63035714D01*
X45537715Y-63107143D01*
X43752001Y-62678571D02*
X43609144Y-62678571D01*
X43466287Y-62750000D01*
X43394858Y-62821429D01*
X43323429Y-62964286D01*
X43252001Y-63250000D01*
X43252001Y-63607143D01*
X43323429Y-63892857D01*
X43394858Y-64035714D01*
X43466287Y-64107143D01*
X43609144Y-64178571D01*
X43752001Y-64178571D01*
X43894858Y-64107143D01*
X43966287Y-64035714D01*
X44037715Y-63892857D01*
X44109144Y-63607143D01*
X44109144Y-63250000D01*
X44037715Y-62964286D01*
X43966287Y-62821429D01*
X43894858Y-62750000D01*
X43752001Y-62678571D01*
X42752001Y-62678571D02*
X41823430Y-62678571D01*
X42323430Y-63250000D01*
X42109144Y-63250000D01*
X41966287Y-63321429D01*
X41894858Y-63392857D01*
X41823430Y-63535714D01*
X41823430Y-63892857D01*
X41894858Y-64035714D01*
X41966287Y-64107143D01*
X42109144Y-64178571D01*
X42537716Y-64178571D01*
X42680573Y-64107143D01*
X42752001Y-64035714D01*
X40323430Y-64178571D02*
X40823430Y-63464286D01*
X41180573Y-64178571D02*
X41180573Y-62678571D01*
X40609145Y-62678571D01*
X40466287Y-62750000D01*
X40394859Y-62821429D01*
X40323430Y-62964286D01*
X40323430Y-63178571D01*
X40394859Y-63321429D01*
X40466287Y-63392857D01*
X40609145Y-63464286D01*
X41180573Y-63464286D01*
X39180573Y-63392857D02*
X38966287Y-63464286D01*
X38894859Y-63535714D01*
X38823430Y-63678571D01*
X38823430Y-63892857D01*
X38894859Y-64035714D01*
X38966287Y-64107143D01*
X39109145Y-64178571D01*
X39680573Y-64178571D01*
X39680573Y-62678571D01*
X39180573Y-62678571D01*
X39037716Y-62750000D01*
X38966287Y-62821429D01*
X38894859Y-62964286D01*
X38894859Y-63107143D01*
X38966287Y-63250000D01*
X39037716Y-63321429D01*
X39180573Y-63392857D01*
X39680573Y-63392857D01*
D13*
X7970000Y-12454000D02*
X7970000Y-13454000D01*
X9330000Y-13454000D02*
X9330000Y-12454000D01*
X7970000Y-23376000D02*
X7970000Y-24376000D01*
X9330000Y-24376000D02*
X9330000Y-23376000D01*
X15336000Y-12454000D02*
X15336000Y-13454000D01*
X16696000Y-13454000D02*
X16696000Y-12454000D01*
X15336000Y-23376000D02*
X15336000Y-24376000D01*
X16696000Y-24376000D02*
X16696000Y-23376000D01*
X22681200Y-12444000D02*
X22681200Y-13444000D01*
X24041200Y-13444000D02*
X24041200Y-12444000D01*
X22702000Y-23376000D02*
X22702000Y-24376000D01*
X24062000Y-24376000D02*
X24062000Y-23376000D01*
X30068000Y-12581000D02*
X30068000Y-13581000D01*
X31428000Y-13581000D02*
X31428000Y-12581000D01*
X30068000Y-23376000D02*
X30068000Y-24376000D01*
X31428000Y-24376000D02*
X31428000Y-23376000D01*
X37434000Y-12581000D02*
X37434000Y-13581000D01*
X38794000Y-13581000D02*
X38794000Y-12581000D01*
X37434000Y-23376000D02*
X37434000Y-24376000D01*
X38794000Y-24376000D02*
X38794000Y-23376000D01*
X44800000Y-12581000D02*
X44800000Y-13581000D01*
X46160000Y-13581000D02*
X46160000Y-12581000D01*
X44800000Y-23376000D02*
X44800000Y-24376000D01*
X46160000Y-24376000D02*
X46160000Y-23376000D01*
X52166000Y-12581000D02*
X52166000Y-13581000D01*
X53526000Y-13581000D02*
X53526000Y-12581000D01*
X52166000Y-23376000D02*
X52166000Y-24376000D01*
X53526000Y-24376000D02*
X53526000Y-23376000D01*
X59532000Y-12454000D02*
X59532000Y-13454000D01*
X60892000Y-13454000D02*
X60892000Y-12454000D01*
X59532000Y-23376000D02*
X59532000Y-24376000D01*
X60892000Y-24376000D02*
X60892000Y-23376000D01*
X70047600Y-34755200D02*
X70047600Y-35755200D01*
X71407600Y-35755200D02*
X71407600Y-34755200D01*
X62681600Y-34755200D02*
X62681600Y-35755200D01*
X64041600Y-35755200D02*
X64041600Y-34755200D01*
X55315600Y-34755200D02*
X55315600Y-35755200D01*
X56675600Y-35755200D02*
X56675600Y-34755200D01*
X47949600Y-34755200D02*
X47949600Y-35755200D01*
X49309600Y-35755200D02*
X49309600Y-34755200D01*
X40583600Y-34755200D02*
X40583600Y-35755200D01*
X41943600Y-35755200D02*
X41943600Y-34755200D01*
X33217600Y-34755200D02*
X33217600Y-35755200D01*
X34577600Y-35755200D02*
X34577600Y-34755200D01*
X96362000Y-23376000D02*
X96362000Y-24376000D01*
X97722000Y-24376000D02*
X97722000Y-23376000D01*
X96362000Y-12454000D02*
X96362000Y-13454000D01*
X97722000Y-13454000D02*
X97722000Y-12454000D01*
X88996000Y-23376000D02*
X88996000Y-24376000D01*
X90356000Y-24376000D02*
X90356000Y-23376000D01*
X88996000Y-12454000D02*
X88996000Y-13454000D01*
X90356000Y-13454000D02*
X90356000Y-12454000D01*
X81630000Y-23376000D02*
X81630000Y-24376000D01*
X82990000Y-24376000D02*
X82990000Y-23376000D01*
X81630000Y-12454000D02*
X81630000Y-13454000D01*
X82990000Y-13454000D02*
X82990000Y-12454000D01*
X74264000Y-23376000D02*
X74264000Y-24376000D01*
X75624000Y-24376000D02*
X75624000Y-23376000D01*
X74243200Y-12444000D02*
X74243200Y-13444000D01*
X75603200Y-13444000D02*
X75603200Y-12444000D01*
X66898000Y-23376000D02*
X66898000Y-24376000D01*
X68258000Y-24376000D02*
X68258000Y-23376000D01*
X66898000Y-12454000D02*
X66898000Y-13454000D01*
X68258000Y-13454000D02*
X68258000Y-12454000D01*
X22120000Y-78790000D02*
X16920000Y-78790000D01*
X22120000Y-33010000D02*
X22120000Y-78790000D01*
X16920000Y-30410000D02*
X16920000Y-78790000D01*
X22120000Y-33010000D02*
X19520000Y-33010000D01*
X19520000Y-33010000D02*
X19520000Y-30410000D01*
X19520000Y-30410000D02*
X16920000Y-30410000D01*
X22120000Y-31740000D02*
X22120000Y-30410000D01*
X22120000Y-30410000D02*
X20790000Y-30410000D01*
X83080000Y-78790000D02*
X77880000Y-78790000D01*
X83080000Y-33010000D02*
X83080000Y-78790000D01*
X77880000Y-30410000D02*
X77880000Y-78790000D01*
X83080000Y-33010000D02*
X80480000Y-33010000D01*
X80480000Y-33010000D02*
X80480000Y-30410000D01*
X80480000Y-30410000D02*
X77880000Y-30410000D01*
X83080000Y-31740000D02*
X83080000Y-30410000D01*
X83080000Y-30410000D02*
X81750000Y-30410000D01*
X7656000Y-7692000D02*
X6656000Y-7692000D01*
X6656000Y-9052000D02*
X7656000Y-9052000D01*
X2973000Y-9052000D02*
X3973000Y-9052000D01*
X3973000Y-7692000D02*
X2973000Y-7692000D01*
X7656000Y-18614000D02*
X6656000Y-18614000D01*
X6656000Y-19974000D02*
X7656000Y-19974000D01*
X2973000Y-19974000D02*
X3973000Y-19974000D01*
X3973000Y-18614000D02*
X2973000Y-18614000D01*
X15022000Y-7692000D02*
X14022000Y-7692000D01*
X14022000Y-9052000D02*
X15022000Y-9052000D01*
X10339000Y-9052000D02*
X11339000Y-9052000D01*
X11339000Y-7692000D02*
X10339000Y-7692000D01*
X15022000Y-18614000D02*
X14022000Y-18614000D01*
X14022000Y-19974000D02*
X15022000Y-19974000D01*
X10339000Y-19974000D02*
X11339000Y-19974000D01*
X11339000Y-18614000D02*
X10339000Y-18614000D01*
X22388000Y-7692000D02*
X21388000Y-7692000D01*
X21388000Y-9052000D02*
X22388000Y-9052000D01*
X17705000Y-9052000D02*
X18705000Y-9052000D01*
X18705000Y-7692000D02*
X17705000Y-7692000D01*
X22388000Y-18614000D02*
X21388000Y-18614000D01*
X21388000Y-19974000D02*
X22388000Y-19974000D01*
X17705000Y-19974000D02*
X18705000Y-19974000D01*
X18705000Y-18614000D02*
X17705000Y-18614000D01*
X29754000Y-7692000D02*
X28754000Y-7692000D01*
X28754000Y-9052000D02*
X29754000Y-9052000D01*
X25071000Y-9052000D02*
X26071000Y-9052000D01*
X26071000Y-7692000D02*
X25071000Y-7692000D01*
X29754000Y-18614000D02*
X28754000Y-18614000D01*
X28754000Y-19974000D02*
X29754000Y-19974000D01*
X25071000Y-19974000D02*
X26071000Y-19974000D01*
X26071000Y-18614000D02*
X25071000Y-18614000D01*
X37094600Y-7692000D02*
X36094600Y-7692000D01*
X36094600Y-9052000D02*
X37094600Y-9052000D01*
X32411600Y-9052000D02*
X33411600Y-9052000D01*
X33411600Y-7692000D02*
X32411600Y-7692000D01*
X37120000Y-18614000D02*
X36120000Y-18614000D01*
X36120000Y-19974000D02*
X37120000Y-19974000D01*
X32437000Y-19974000D02*
X33437000Y-19974000D01*
X33437000Y-18614000D02*
X32437000Y-18614000D01*
X44486000Y-7692000D02*
X43486000Y-7692000D01*
X43486000Y-9052000D02*
X44486000Y-9052000D01*
X39803000Y-9052000D02*
X40803000Y-9052000D01*
X40803000Y-7692000D02*
X39803000Y-7692000D01*
X44486000Y-18614000D02*
X43486000Y-18614000D01*
X43486000Y-19974000D02*
X44486000Y-19974000D01*
X39803000Y-19974000D02*
X40803000Y-19974000D01*
X40803000Y-18614000D02*
X39803000Y-18614000D01*
X51852000Y-7692000D02*
X50852000Y-7692000D01*
X50852000Y-9052000D02*
X51852000Y-9052000D01*
X47169000Y-9052000D02*
X48169000Y-9052000D01*
X48169000Y-7692000D02*
X47169000Y-7692000D01*
X51852000Y-18614000D02*
X50852000Y-18614000D01*
X50852000Y-19974000D02*
X51852000Y-19974000D01*
X47169000Y-19974000D02*
X48169000Y-19974000D01*
X48169000Y-18614000D02*
X47169000Y-18614000D01*
X59218000Y-7692000D02*
X58218000Y-7692000D01*
X58218000Y-9052000D02*
X59218000Y-9052000D01*
X54535000Y-9052000D02*
X55535000Y-9052000D01*
X55535000Y-7692000D02*
X54535000Y-7692000D01*
X59218000Y-18614000D02*
X58218000Y-18614000D01*
X58218000Y-19974000D02*
X59218000Y-19974000D01*
X54535000Y-19974000D02*
X55535000Y-19974000D01*
X55535000Y-18614000D02*
X54535000Y-18614000D01*
X69759000Y-30044000D02*
X68759000Y-30044000D01*
X68759000Y-31404000D02*
X69759000Y-31404000D01*
X65076000Y-31404000D02*
X66076000Y-31404000D01*
X66076000Y-30044000D02*
X65076000Y-30044000D01*
X62393000Y-30044000D02*
X61393000Y-30044000D01*
X61393000Y-31404000D02*
X62393000Y-31404000D01*
X57710000Y-31404000D02*
X58710000Y-31404000D01*
X58710000Y-30044000D02*
X57710000Y-30044000D01*
X55027000Y-30044000D02*
X54027000Y-30044000D01*
X54027000Y-31404000D02*
X55027000Y-31404000D01*
X50344000Y-31404000D02*
X51344000Y-31404000D01*
X51344000Y-30044000D02*
X50344000Y-30044000D01*
X47661000Y-30044000D02*
X46661000Y-30044000D01*
X46661000Y-31404000D02*
X47661000Y-31404000D01*
X42978000Y-31404000D02*
X43978000Y-31404000D01*
X43978000Y-30044000D02*
X42978000Y-30044000D01*
X40295000Y-30044000D02*
X39295000Y-30044000D01*
X39295000Y-31404000D02*
X40295000Y-31404000D01*
X35612000Y-31404000D02*
X36612000Y-31404000D01*
X36612000Y-30044000D02*
X35612000Y-30044000D01*
X32903600Y-30044000D02*
X31903600Y-30044000D01*
X31903600Y-31404000D02*
X32903600Y-31404000D01*
X28220600Y-31404000D02*
X29220600Y-31404000D01*
X29220600Y-30044000D02*
X28220600Y-30044000D01*
X96048000Y-18614000D02*
X95048000Y-18614000D01*
X95048000Y-19974000D02*
X96048000Y-19974000D01*
X91365000Y-19974000D02*
X92365000Y-19974000D01*
X92365000Y-18614000D02*
X91365000Y-18614000D01*
X96048000Y-7692000D02*
X95048000Y-7692000D01*
X95048000Y-9052000D02*
X96048000Y-9052000D01*
X91365000Y-9052000D02*
X92365000Y-9052000D01*
X92365000Y-7692000D02*
X91365000Y-7692000D01*
X88682000Y-18614000D02*
X87682000Y-18614000D01*
X87682000Y-19974000D02*
X88682000Y-19974000D01*
X83999000Y-19974000D02*
X84999000Y-19974000D01*
X84999000Y-18614000D02*
X83999000Y-18614000D01*
X88682000Y-7692000D02*
X87682000Y-7692000D01*
X87682000Y-9052000D02*
X88682000Y-9052000D01*
X83999000Y-9052000D02*
X84999000Y-9052000D01*
X84999000Y-7692000D02*
X83999000Y-7692000D01*
X81316000Y-18614000D02*
X80316000Y-18614000D01*
X80316000Y-19974000D02*
X81316000Y-19974000D01*
X76633000Y-19974000D02*
X77633000Y-19974000D01*
X77633000Y-18614000D02*
X76633000Y-18614000D01*
X81316000Y-7692000D02*
X80316000Y-7692000D01*
X80316000Y-9052000D02*
X81316000Y-9052000D01*
X76633000Y-9052000D02*
X77633000Y-9052000D01*
X77633000Y-7692000D02*
X76633000Y-7692000D01*
X73950000Y-18614000D02*
X72950000Y-18614000D01*
X72950000Y-19974000D02*
X73950000Y-19974000D01*
X69267000Y-19974000D02*
X70267000Y-19974000D01*
X70267000Y-18614000D02*
X69267000Y-18614000D01*
X73950000Y-7692000D02*
X72950000Y-7692000D01*
X72950000Y-9052000D02*
X73950000Y-9052000D01*
X69267000Y-9052000D02*
X70267000Y-9052000D01*
X70267000Y-7692000D02*
X69267000Y-7692000D01*
X66584000Y-18614000D02*
X65584000Y-18614000D01*
X65584000Y-19974000D02*
X66584000Y-19974000D01*
X61901000Y-19974000D02*
X62901000Y-19974000D01*
X62901000Y-18614000D02*
X61901000Y-18614000D01*
X66584000Y-7692000D02*
X65584000Y-7692000D01*
X65584000Y-9052000D02*
X66584000Y-9052000D01*
X61901000Y-9052000D02*
X62901000Y-9052000D01*
X62901000Y-7692000D02*
X61901000Y-7692000D01*
D14*
X10624666Y-13301143D02*
X10672285Y-13348762D01*
X10815142Y-13396381D01*
X10910380Y-13396381D01*
X11053238Y-13348762D01*
X11148476Y-13253524D01*
X11196095Y-13158286D01*
X11243714Y-12967810D01*
X11243714Y-12824952D01*
X11196095Y-12634476D01*
X11148476Y-12539238D01*
X11053238Y-12444000D01*
X10910380Y-12396381D01*
X10815142Y-12396381D01*
X10672285Y-12444000D01*
X10624666Y-12491619D01*
X9767523Y-12729714D02*
X9767523Y-13396381D01*
X10005619Y-12348762D02*
X10243714Y-13063048D01*
X9624666Y-13063048D01*
X10497666Y-24223143D02*
X10545285Y-24270762D01*
X10688142Y-24318381D01*
X10783380Y-24318381D01*
X10926238Y-24270762D01*
X11021476Y-24175524D01*
X11069095Y-24080286D01*
X11116714Y-23889810D01*
X11116714Y-23746952D01*
X11069095Y-23556476D01*
X11021476Y-23461238D01*
X10926238Y-23366000D01*
X10783380Y-23318381D01*
X10688142Y-23318381D01*
X10545285Y-23366000D01*
X10497666Y-23413619D01*
X9926238Y-23746952D02*
X10021476Y-23699333D01*
X10069095Y-23651714D01*
X10116714Y-23556476D01*
X10116714Y-23508857D01*
X10069095Y-23413619D01*
X10021476Y-23366000D01*
X9926238Y-23318381D01*
X9735761Y-23318381D01*
X9640523Y-23366000D01*
X9592904Y-23413619D01*
X9545285Y-23508857D01*
X9545285Y-23556476D01*
X9592904Y-23651714D01*
X9640523Y-23699333D01*
X9735761Y-23746952D01*
X9926238Y-23746952D01*
X10021476Y-23794571D01*
X10069095Y-23842190D01*
X10116714Y-23937429D01*
X10116714Y-24127905D01*
X10069095Y-24223143D01*
X10021476Y-24270762D01*
X9926238Y-24318381D01*
X9735761Y-24318381D01*
X9640523Y-24270762D01*
X9592904Y-24223143D01*
X9545285Y-24127905D01*
X9545285Y-23937429D01*
X9592904Y-23842190D01*
X9640523Y-23794571D01*
X9735761Y-23746952D01*
X18974857Y-13301143D02*
X19022476Y-13348762D01*
X19165333Y-13396381D01*
X19260571Y-13396381D01*
X19403429Y-13348762D01*
X19498667Y-13253524D01*
X19546286Y-13158286D01*
X19593905Y-12967810D01*
X19593905Y-12824952D01*
X19546286Y-12634476D01*
X19498667Y-12539238D01*
X19403429Y-12444000D01*
X19260571Y-12396381D01*
X19165333Y-12396381D01*
X19022476Y-12444000D01*
X18974857Y-12491619D01*
X18022476Y-13396381D02*
X18593905Y-13396381D01*
X18308191Y-13396381D02*
X18308191Y-12396381D01*
X18403429Y-12539238D01*
X18498667Y-12634476D01*
X18593905Y-12682095D01*
X17641524Y-12491619D02*
X17593905Y-12444000D01*
X17498667Y-12396381D01*
X17260571Y-12396381D01*
X17165333Y-12444000D01*
X17117714Y-12491619D01*
X17070095Y-12586857D01*
X17070095Y-12682095D01*
X17117714Y-12824952D01*
X17689143Y-13396381D01*
X17070095Y-13396381D01*
X18847857Y-24223143D02*
X18895476Y-24270762D01*
X19038333Y-24318381D01*
X19133571Y-24318381D01*
X19276429Y-24270762D01*
X19371667Y-24175524D01*
X19419286Y-24080286D01*
X19466905Y-23889810D01*
X19466905Y-23746952D01*
X19419286Y-23556476D01*
X19371667Y-23461238D01*
X19276429Y-23366000D01*
X19133571Y-23318381D01*
X19038333Y-23318381D01*
X18895476Y-23366000D01*
X18847857Y-23413619D01*
X17895476Y-24318381D02*
X18466905Y-24318381D01*
X18181191Y-24318381D02*
X18181191Y-23318381D01*
X18276429Y-23461238D01*
X18371667Y-23556476D01*
X18466905Y-23604095D01*
X17038333Y-23318381D02*
X17228810Y-23318381D01*
X17324048Y-23366000D01*
X17371667Y-23413619D01*
X17466905Y-23556476D01*
X17514524Y-23746952D01*
X17514524Y-24127905D01*
X17466905Y-24223143D01*
X17419286Y-24270762D01*
X17324048Y-24318381D01*
X17133571Y-24318381D01*
X17038333Y-24270762D01*
X16990714Y-24223143D01*
X16943095Y-24127905D01*
X16943095Y-23889810D01*
X16990714Y-23794571D01*
X17038333Y-23746952D01*
X17133571Y-23699333D01*
X17324048Y-23699333D01*
X17419286Y-23746952D01*
X17466905Y-23794571D01*
X17514524Y-23889810D01*
X26213857Y-13301143D02*
X26261476Y-13348762D01*
X26404333Y-13396381D01*
X26499571Y-13396381D01*
X26642429Y-13348762D01*
X26737667Y-13253524D01*
X26785286Y-13158286D01*
X26832905Y-12967810D01*
X26832905Y-12824952D01*
X26785286Y-12634476D01*
X26737667Y-12539238D01*
X26642429Y-12444000D01*
X26499571Y-12396381D01*
X26404333Y-12396381D01*
X26261476Y-12444000D01*
X26213857Y-12491619D01*
X25832905Y-12491619D02*
X25785286Y-12444000D01*
X25690048Y-12396381D01*
X25451952Y-12396381D01*
X25356714Y-12444000D01*
X25309095Y-12491619D01*
X25261476Y-12586857D01*
X25261476Y-12682095D01*
X25309095Y-12824952D01*
X25880524Y-13396381D01*
X25261476Y-13396381D01*
X24642429Y-12396381D02*
X24547190Y-12396381D01*
X24451952Y-12444000D01*
X24404333Y-12491619D01*
X24356714Y-12586857D01*
X24309095Y-12777333D01*
X24309095Y-13015429D01*
X24356714Y-13205905D01*
X24404333Y-13301143D01*
X24451952Y-13348762D01*
X24547190Y-13396381D01*
X24642429Y-13396381D01*
X24737667Y-13348762D01*
X24785286Y-13301143D01*
X24832905Y-13205905D01*
X24880524Y-13015429D01*
X24880524Y-12777333D01*
X24832905Y-12586857D01*
X24785286Y-12491619D01*
X24737667Y-12444000D01*
X24642429Y-12396381D01*
X26340857Y-24223143D02*
X26388476Y-24270762D01*
X26531333Y-24318381D01*
X26626571Y-24318381D01*
X26769429Y-24270762D01*
X26864667Y-24175524D01*
X26912286Y-24080286D01*
X26959905Y-23889810D01*
X26959905Y-23746952D01*
X26912286Y-23556476D01*
X26864667Y-23461238D01*
X26769429Y-23366000D01*
X26626571Y-23318381D01*
X26531333Y-23318381D01*
X26388476Y-23366000D01*
X26340857Y-23413619D01*
X25959905Y-23413619D02*
X25912286Y-23366000D01*
X25817048Y-23318381D01*
X25578952Y-23318381D01*
X25483714Y-23366000D01*
X25436095Y-23413619D01*
X25388476Y-23508857D01*
X25388476Y-23604095D01*
X25436095Y-23746952D01*
X26007524Y-24318381D01*
X25388476Y-24318381D01*
X24531333Y-23651714D02*
X24531333Y-24318381D01*
X24769429Y-23270762D02*
X25007524Y-23985048D01*
X24388476Y-23985048D01*
X33579857Y-13428143D02*
X33627476Y-13475762D01*
X33770333Y-13523381D01*
X33865571Y-13523381D01*
X34008429Y-13475762D01*
X34103667Y-13380524D01*
X34151286Y-13285286D01*
X34198905Y-13094810D01*
X34198905Y-12951952D01*
X34151286Y-12761476D01*
X34103667Y-12666238D01*
X34008429Y-12571000D01*
X33865571Y-12523381D01*
X33770333Y-12523381D01*
X33627476Y-12571000D01*
X33579857Y-12618619D01*
X33198905Y-12618619D02*
X33151286Y-12571000D01*
X33056048Y-12523381D01*
X32817952Y-12523381D01*
X32722714Y-12571000D01*
X32675095Y-12618619D01*
X32627476Y-12713857D01*
X32627476Y-12809095D01*
X32675095Y-12951952D01*
X33246524Y-13523381D01*
X32627476Y-13523381D01*
X32056048Y-12951952D02*
X32151286Y-12904333D01*
X32198905Y-12856714D01*
X32246524Y-12761476D01*
X32246524Y-12713857D01*
X32198905Y-12618619D01*
X32151286Y-12571000D01*
X32056048Y-12523381D01*
X31865571Y-12523381D01*
X31770333Y-12571000D01*
X31722714Y-12618619D01*
X31675095Y-12713857D01*
X31675095Y-12761476D01*
X31722714Y-12856714D01*
X31770333Y-12904333D01*
X31865571Y-12951952D01*
X32056048Y-12951952D01*
X32151286Y-12999571D01*
X32198905Y-13047190D01*
X32246524Y-13142429D01*
X32246524Y-13332905D01*
X32198905Y-13428143D01*
X32151286Y-13475762D01*
X32056048Y-13523381D01*
X31865571Y-13523381D01*
X31770333Y-13475762D01*
X31722714Y-13428143D01*
X31675095Y-13332905D01*
X31675095Y-13142429D01*
X31722714Y-13047190D01*
X31770333Y-12999571D01*
X31865571Y-12951952D01*
X33706857Y-24223143D02*
X33754476Y-24270762D01*
X33897333Y-24318381D01*
X33992571Y-24318381D01*
X34135429Y-24270762D01*
X34230667Y-24175524D01*
X34278286Y-24080286D01*
X34325905Y-23889810D01*
X34325905Y-23746952D01*
X34278286Y-23556476D01*
X34230667Y-23461238D01*
X34135429Y-23366000D01*
X33992571Y-23318381D01*
X33897333Y-23318381D01*
X33754476Y-23366000D01*
X33706857Y-23413619D01*
X33373524Y-23318381D02*
X32754476Y-23318381D01*
X33087810Y-23699333D01*
X32944952Y-23699333D01*
X32849714Y-23746952D01*
X32802095Y-23794571D01*
X32754476Y-23889810D01*
X32754476Y-24127905D01*
X32802095Y-24223143D01*
X32849714Y-24270762D01*
X32944952Y-24318381D01*
X33230667Y-24318381D01*
X33325905Y-24270762D01*
X33373524Y-24223143D01*
X32373524Y-23413619D02*
X32325905Y-23366000D01*
X32230667Y-23318381D01*
X31992571Y-23318381D01*
X31897333Y-23366000D01*
X31849714Y-23413619D01*
X31802095Y-23508857D01*
X31802095Y-23604095D01*
X31849714Y-23746952D01*
X32421143Y-24318381D01*
X31802095Y-24318381D01*
X40945857Y-13428143D02*
X40993476Y-13475762D01*
X41136333Y-13523381D01*
X41231571Y-13523381D01*
X41374429Y-13475762D01*
X41469667Y-13380524D01*
X41517286Y-13285286D01*
X41564905Y-13094810D01*
X41564905Y-12951952D01*
X41517286Y-12761476D01*
X41469667Y-12666238D01*
X41374429Y-12571000D01*
X41231571Y-12523381D01*
X41136333Y-12523381D01*
X40993476Y-12571000D01*
X40945857Y-12618619D01*
X40612524Y-12523381D02*
X39993476Y-12523381D01*
X40326810Y-12904333D01*
X40183952Y-12904333D01*
X40088714Y-12951952D01*
X40041095Y-12999571D01*
X39993476Y-13094810D01*
X39993476Y-13332905D01*
X40041095Y-13428143D01*
X40088714Y-13475762D01*
X40183952Y-13523381D01*
X40469667Y-13523381D01*
X40564905Y-13475762D01*
X40612524Y-13428143D01*
X39136333Y-12523381D02*
X39326810Y-12523381D01*
X39422048Y-12571000D01*
X39469667Y-12618619D01*
X39564905Y-12761476D01*
X39612524Y-12951952D01*
X39612524Y-13332905D01*
X39564905Y-13428143D01*
X39517286Y-13475762D01*
X39422048Y-13523381D01*
X39231571Y-13523381D01*
X39136333Y-13475762D01*
X39088714Y-13428143D01*
X39041095Y-13332905D01*
X39041095Y-13094810D01*
X39088714Y-12999571D01*
X39136333Y-12951952D01*
X39231571Y-12904333D01*
X39422048Y-12904333D01*
X39517286Y-12951952D01*
X39564905Y-12999571D01*
X39612524Y-13094810D01*
X41072857Y-24223143D02*
X41120476Y-24270762D01*
X41263333Y-24318381D01*
X41358571Y-24318381D01*
X41501429Y-24270762D01*
X41596667Y-24175524D01*
X41644286Y-24080286D01*
X41691905Y-23889810D01*
X41691905Y-23746952D01*
X41644286Y-23556476D01*
X41596667Y-23461238D01*
X41501429Y-23366000D01*
X41358571Y-23318381D01*
X41263333Y-23318381D01*
X41120476Y-23366000D01*
X41072857Y-23413619D01*
X40215714Y-23651714D02*
X40215714Y-24318381D01*
X40453810Y-23270762D02*
X40691905Y-23985048D01*
X40072857Y-23985048D01*
X39501429Y-23318381D02*
X39406190Y-23318381D01*
X39310952Y-23366000D01*
X39263333Y-23413619D01*
X39215714Y-23508857D01*
X39168095Y-23699333D01*
X39168095Y-23937429D01*
X39215714Y-24127905D01*
X39263333Y-24223143D01*
X39310952Y-24270762D01*
X39406190Y-24318381D01*
X39501429Y-24318381D01*
X39596667Y-24270762D01*
X39644286Y-24223143D01*
X39691905Y-24127905D01*
X39739524Y-23937429D01*
X39739524Y-23699333D01*
X39691905Y-23508857D01*
X39644286Y-23413619D01*
X39596667Y-23366000D01*
X39501429Y-23318381D01*
X48311857Y-13428143D02*
X48359476Y-13475762D01*
X48502333Y-13523381D01*
X48597571Y-13523381D01*
X48740429Y-13475762D01*
X48835667Y-13380524D01*
X48883286Y-13285286D01*
X48930905Y-13094810D01*
X48930905Y-12951952D01*
X48883286Y-12761476D01*
X48835667Y-12666238D01*
X48740429Y-12571000D01*
X48597571Y-12523381D01*
X48502333Y-12523381D01*
X48359476Y-12571000D01*
X48311857Y-12618619D01*
X47454714Y-12856714D02*
X47454714Y-13523381D01*
X47692810Y-12475762D02*
X47930905Y-13190048D01*
X47311857Y-13190048D01*
X46502333Y-12856714D02*
X46502333Y-13523381D01*
X46740429Y-12475762D02*
X46978524Y-13190048D01*
X46359476Y-13190048D01*
X48438857Y-24223143D02*
X48486476Y-24270762D01*
X48629333Y-24318381D01*
X48724571Y-24318381D01*
X48867429Y-24270762D01*
X48962667Y-24175524D01*
X49010286Y-24080286D01*
X49057905Y-23889810D01*
X49057905Y-23746952D01*
X49010286Y-23556476D01*
X48962667Y-23461238D01*
X48867429Y-23366000D01*
X48724571Y-23318381D01*
X48629333Y-23318381D01*
X48486476Y-23366000D01*
X48438857Y-23413619D01*
X47581714Y-23651714D02*
X47581714Y-24318381D01*
X47819810Y-23270762D02*
X48057905Y-23985048D01*
X47438857Y-23985048D01*
X46915048Y-23746952D02*
X47010286Y-23699333D01*
X47057905Y-23651714D01*
X47105524Y-23556476D01*
X47105524Y-23508857D01*
X47057905Y-23413619D01*
X47010286Y-23366000D01*
X46915048Y-23318381D01*
X46724571Y-23318381D01*
X46629333Y-23366000D01*
X46581714Y-23413619D01*
X46534095Y-23508857D01*
X46534095Y-23556476D01*
X46581714Y-23651714D01*
X46629333Y-23699333D01*
X46724571Y-23746952D01*
X46915048Y-23746952D01*
X47010286Y-23794571D01*
X47057905Y-23842190D01*
X47105524Y-23937429D01*
X47105524Y-24127905D01*
X47057905Y-24223143D01*
X47010286Y-24270762D01*
X46915048Y-24318381D01*
X46724571Y-24318381D01*
X46629333Y-24270762D01*
X46581714Y-24223143D01*
X46534095Y-24127905D01*
X46534095Y-23937429D01*
X46581714Y-23842190D01*
X46629333Y-23794571D01*
X46724571Y-23746952D01*
X55677857Y-13428143D02*
X55725476Y-13475762D01*
X55868333Y-13523381D01*
X55963571Y-13523381D01*
X56106429Y-13475762D01*
X56201667Y-13380524D01*
X56249286Y-13285286D01*
X56296905Y-13094810D01*
X56296905Y-12951952D01*
X56249286Y-12761476D01*
X56201667Y-12666238D01*
X56106429Y-12571000D01*
X55963571Y-12523381D01*
X55868333Y-12523381D01*
X55725476Y-12571000D01*
X55677857Y-12618619D01*
X54773095Y-12523381D02*
X55249286Y-12523381D01*
X55296905Y-12999571D01*
X55249286Y-12951952D01*
X55154048Y-12904333D01*
X54915952Y-12904333D01*
X54820714Y-12951952D01*
X54773095Y-12999571D01*
X54725476Y-13094810D01*
X54725476Y-13332905D01*
X54773095Y-13428143D01*
X54820714Y-13475762D01*
X54915952Y-13523381D01*
X55154048Y-13523381D01*
X55249286Y-13475762D01*
X55296905Y-13428143D01*
X54344524Y-12618619D02*
X54296905Y-12571000D01*
X54201667Y-12523381D01*
X53963571Y-12523381D01*
X53868333Y-12571000D01*
X53820714Y-12618619D01*
X53773095Y-12713857D01*
X53773095Y-12809095D01*
X53820714Y-12951952D01*
X54392143Y-13523381D01*
X53773095Y-13523381D01*
X55804857Y-24223143D02*
X55852476Y-24270762D01*
X55995333Y-24318381D01*
X56090571Y-24318381D01*
X56233429Y-24270762D01*
X56328667Y-24175524D01*
X56376286Y-24080286D01*
X56423905Y-23889810D01*
X56423905Y-23746952D01*
X56376286Y-23556476D01*
X56328667Y-23461238D01*
X56233429Y-23366000D01*
X56090571Y-23318381D01*
X55995333Y-23318381D01*
X55852476Y-23366000D01*
X55804857Y-23413619D01*
X54900095Y-23318381D02*
X55376286Y-23318381D01*
X55423905Y-23794571D01*
X55376286Y-23746952D01*
X55281048Y-23699333D01*
X55042952Y-23699333D01*
X54947714Y-23746952D01*
X54900095Y-23794571D01*
X54852476Y-23889810D01*
X54852476Y-24127905D01*
X54900095Y-24223143D01*
X54947714Y-24270762D01*
X55042952Y-24318381D01*
X55281048Y-24318381D01*
X55376286Y-24270762D01*
X55423905Y-24223143D01*
X53995333Y-23318381D02*
X54185810Y-23318381D01*
X54281048Y-23366000D01*
X54328667Y-23413619D01*
X54423905Y-23556476D01*
X54471524Y-23746952D01*
X54471524Y-24127905D01*
X54423905Y-24223143D01*
X54376286Y-24270762D01*
X54281048Y-24318381D01*
X54090571Y-24318381D01*
X53995333Y-24270762D01*
X53947714Y-24223143D01*
X53900095Y-24127905D01*
X53900095Y-23889810D01*
X53947714Y-23794571D01*
X53995333Y-23746952D01*
X54090571Y-23699333D01*
X54281048Y-23699333D01*
X54376286Y-23746952D01*
X54423905Y-23794571D01*
X54471524Y-23889810D01*
X63043857Y-13301143D02*
X63091476Y-13348762D01*
X63234333Y-13396381D01*
X63329571Y-13396381D01*
X63472429Y-13348762D01*
X63567667Y-13253524D01*
X63615286Y-13158286D01*
X63662905Y-12967810D01*
X63662905Y-12824952D01*
X63615286Y-12634476D01*
X63567667Y-12539238D01*
X63472429Y-12444000D01*
X63329571Y-12396381D01*
X63234333Y-12396381D01*
X63091476Y-12444000D01*
X63043857Y-12491619D01*
X62186714Y-12396381D02*
X62377191Y-12396381D01*
X62472429Y-12444000D01*
X62520048Y-12491619D01*
X62615286Y-12634476D01*
X62662905Y-12824952D01*
X62662905Y-13205905D01*
X62615286Y-13301143D01*
X62567667Y-13348762D01*
X62472429Y-13396381D01*
X62281952Y-13396381D01*
X62186714Y-13348762D01*
X62139095Y-13301143D01*
X62091476Y-13205905D01*
X62091476Y-12967810D01*
X62139095Y-12872571D01*
X62186714Y-12824952D01*
X62281952Y-12777333D01*
X62472429Y-12777333D01*
X62567667Y-12824952D01*
X62615286Y-12872571D01*
X62662905Y-12967810D01*
X61472429Y-12396381D02*
X61377190Y-12396381D01*
X61281952Y-12444000D01*
X61234333Y-12491619D01*
X61186714Y-12586857D01*
X61139095Y-12777333D01*
X61139095Y-13015429D01*
X61186714Y-13205905D01*
X61234333Y-13301143D01*
X61281952Y-13348762D01*
X61377190Y-13396381D01*
X61472429Y-13396381D01*
X61567667Y-13348762D01*
X61615286Y-13301143D01*
X61662905Y-13205905D01*
X61710524Y-13015429D01*
X61710524Y-12777333D01*
X61662905Y-12586857D01*
X61615286Y-12491619D01*
X61567667Y-12444000D01*
X61472429Y-12396381D01*
X63170857Y-24223143D02*
X63218476Y-24270762D01*
X63361333Y-24318381D01*
X63456571Y-24318381D01*
X63599429Y-24270762D01*
X63694667Y-24175524D01*
X63742286Y-24080286D01*
X63789905Y-23889810D01*
X63789905Y-23746952D01*
X63742286Y-23556476D01*
X63694667Y-23461238D01*
X63599429Y-23366000D01*
X63456571Y-23318381D01*
X63361333Y-23318381D01*
X63218476Y-23366000D01*
X63170857Y-23413619D01*
X62313714Y-23318381D02*
X62504191Y-23318381D01*
X62599429Y-23366000D01*
X62647048Y-23413619D01*
X62742286Y-23556476D01*
X62789905Y-23746952D01*
X62789905Y-24127905D01*
X62742286Y-24223143D01*
X62694667Y-24270762D01*
X62599429Y-24318381D01*
X62408952Y-24318381D01*
X62313714Y-24270762D01*
X62266095Y-24223143D01*
X62218476Y-24127905D01*
X62218476Y-23889810D01*
X62266095Y-23794571D01*
X62313714Y-23746952D01*
X62408952Y-23699333D01*
X62599429Y-23699333D01*
X62694667Y-23746952D01*
X62742286Y-23794571D01*
X62789905Y-23889810D01*
X61361333Y-23651714D02*
X61361333Y-24318381D01*
X61599429Y-23270762D02*
X61837524Y-23985048D01*
X61218476Y-23985048D01*
X73584857Y-35653143D02*
X73632476Y-35700762D01*
X73775333Y-35748381D01*
X73870571Y-35748381D01*
X74013429Y-35700762D01*
X74108667Y-35605524D01*
X74156286Y-35510286D01*
X74203905Y-35319810D01*
X74203905Y-35176952D01*
X74156286Y-34986476D01*
X74108667Y-34891238D01*
X74013429Y-34796000D01*
X73870571Y-34748381D01*
X73775333Y-34748381D01*
X73632476Y-34796000D01*
X73584857Y-34843619D01*
X72727714Y-34748381D02*
X72918191Y-34748381D01*
X73013429Y-34796000D01*
X73061048Y-34843619D01*
X73156286Y-34986476D01*
X73203905Y-35176952D01*
X73203905Y-35557905D01*
X73156286Y-35653143D01*
X73108667Y-35700762D01*
X73013429Y-35748381D01*
X72822952Y-35748381D01*
X72727714Y-35700762D01*
X72680095Y-35653143D01*
X72632476Y-35557905D01*
X72632476Y-35319810D01*
X72680095Y-35224571D01*
X72727714Y-35176952D01*
X72822952Y-35129333D01*
X73013429Y-35129333D01*
X73108667Y-35176952D01*
X73156286Y-35224571D01*
X73203905Y-35319810D01*
X72061048Y-35176952D02*
X72156286Y-35129333D01*
X72203905Y-35081714D01*
X72251524Y-34986476D01*
X72251524Y-34938857D01*
X72203905Y-34843619D01*
X72156286Y-34796000D01*
X72061048Y-34748381D01*
X71870571Y-34748381D01*
X71775333Y-34796000D01*
X71727714Y-34843619D01*
X71680095Y-34938857D01*
X71680095Y-34986476D01*
X71727714Y-35081714D01*
X71775333Y-35129333D01*
X71870571Y-35176952D01*
X72061048Y-35176952D01*
X72156286Y-35224571D01*
X72203905Y-35272190D01*
X72251524Y-35367429D01*
X72251524Y-35557905D01*
X72203905Y-35653143D01*
X72156286Y-35700762D01*
X72061048Y-35748381D01*
X71870571Y-35748381D01*
X71775333Y-35700762D01*
X71727714Y-35653143D01*
X71680095Y-35557905D01*
X71680095Y-35367429D01*
X71727714Y-35272190D01*
X71775333Y-35224571D01*
X71870571Y-35176952D01*
X66345857Y-35653143D02*
X66393476Y-35700762D01*
X66536333Y-35748381D01*
X66631571Y-35748381D01*
X66774429Y-35700762D01*
X66869667Y-35605524D01*
X66917286Y-35510286D01*
X66964905Y-35319810D01*
X66964905Y-35176952D01*
X66917286Y-34986476D01*
X66869667Y-34891238D01*
X66774429Y-34796000D01*
X66631571Y-34748381D01*
X66536333Y-34748381D01*
X66393476Y-34796000D01*
X66345857Y-34843619D01*
X66012524Y-34748381D02*
X65345857Y-34748381D01*
X65774429Y-35748381D01*
X65012524Y-34843619D02*
X64964905Y-34796000D01*
X64869667Y-34748381D01*
X64631571Y-34748381D01*
X64536333Y-34796000D01*
X64488714Y-34843619D01*
X64441095Y-34938857D01*
X64441095Y-35034095D01*
X64488714Y-35176952D01*
X65060143Y-35748381D01*
X64441095Y-35748381D01*
X58979857Y-35653143D02*
X59027476Y-35700762D01*
X59170333Y-35748381D01*
X59265571Y-35748381D01*
X59408429Y-35700762D01*
X59503667Y-35605524D01*
X59551286Y-35510286D01*
X59598905Y-35319810D01*
X59598905Y-35176952D01*
X59551286Y-34986476D01*
X59503667Y-34891238D01*
X59408429Y-34796000D01*
X59265571Y-34748381D01*
X59170333Y-34748381D01*
X59027476Y-34796000D01*
X58979857Y-34843619D01*
X58646524Y-34748381D02*
X57979857Y-34748381D01*
X58408429Y-35748381D01*
X57170333Y-34748381D02*
X57360810Y-34748381D01*
X57456048Y-34796000D01*
X57503667Y-34843619D01*
X57598905Y-34986476D01*
X57646524Y-35176952D01*
X57646524Y-35557905D01*
X57598905Y-35653143D01*
X57551286Y-35700762D01*
X57456048Y-35748381D01*
X57265571Y-35748381D01*
X57170333Y-35700762D01*
X57122714Y-35653143D01*
X57075095Y-35557905D01*
X57075095Y-35319810D01*
X57122714Y-35224571D01*
X57170333Y-35176952D01*
X57265571Y-35129333D01*
X57456048Y-35129333D01*
X57551286Y-35176952D01*
X57598905Y-35224571D01*
X57646524Y-35319810D01*
X51486857Y-35653143D02*
X51534476Y-35700762D01*
X51677333Y-35748381D01*
X51772571Y-35748381D01*
X51915429Y-35700762D01*
X52010667Y-35605524D01*
X52058286Y-35510286D01*
X52105905Y-35319810D01*
X52105905Y-35176952D01*
X52058286Y-34986476D01*
X52010667Y-34891238D01*
X51915429Y-34796000D01*
X51772571Y-34748381D01*
X51677333Y-34748381D01*
X51534476Y-34796000D01*
X51486857Y-34843619D01*
X50915429Y-35176952D02*
X51010667Y-35129333D01*
X51058286Y-35081714D01*
X51105905Y-34986476D01*
X51105905Y-34938857D01*
X51058286Y-34843619D01*
X51010667Y-34796000D01*
X50915429Y-34748381D01*
X50724952Y-34748381D01*
X50629714Y-34796000D01*
X50582095Y-34843619D01*
X50534476Y-34938857D01*
X50534476Y-34986476D01*
X50582095Y-35081714D01*
X50629714Y-35129333D01*
X50724952Y-35176952D01*
X50915429Y-35176952D01*
X51010667Y-35224571D01*
X51058286Y-35272190D01*
X51105905Y-35367429D01*
X51105905Y-35557905D01*
X51058286Y-35653143D01*
X51010667Y-35700762D01*
X50915429Y-35748381D01*
X50724952Y-35748381D01*
X50629714Y-35700762D01*
X50582095Y-35653143D01*
X50534476Y-35557905D01*
X50534476Y-35367429D01*
X50582095Y-35272190D01*
X50629714Y-35224571D01*
X50724952Y-35176952D01*
X49915429Y-34748381D02*
X49820190Y-34748381D01*
X49724952Y-34796000D01*
X49677333Y-34843619D01*
X49629714Y-34938857D01*
X49582095Y-35129333D01*
X49582095Y-35367429D01*
X49629714Y-35557905D01*
X49677333Y-35653143D01*
X49724952Y-35700762D01*
X49820190Y-35748381D01*
X49915429Y-35748381D01*
X50010667Y-35700762D01*
X50058286Y-35653143D01*
X50105905Y-35557905D01*
X50153524Y-35367429D01*
X50153524Y-35129333D01*
X50105905Y-34938857D01*
X50058286Y-34843619D01*
X50010667Y-34796000D01*
X49915429Y-34748381D01*
X44247857Y-35653143D02*
X44295476Y-35700762D01*
X44438333Y-35748381D01*
X44533571Y-35748381D01*
X44676429Y-35700762D01*
X44771667Y-35605524D01*
X44819286Y-35510286D01*
X44866905Y-35319810D01*
X44866905Y-35176952D01*
X44819286Y-34986476D01*
X44771667Y-34891238D01*
X44676429Y-34796000D01*
X44533571Y-34748381D01*
X44438333Y-34748381D01*
X44295476Y-34796000D01*
X44247857Y-34843619D01*
X43676429Y-35176952D02*
X43771667Y-35129333D01*
X43819286Y-35081714D01*
X43866905Y-34986476D01*
X43866905Y-34938857D01*
X43819286Y-34843619D01*
X43771667Y-34796000D01*
X43676429Y-34748381D01*
X43485952Y-34748381D01*
X43390714Y-34796000D01*
X43343095Y-34843619D01*
X43295476Y-34938857D01*
X43295476Y-34986476D01*
X43343095Y-35081714D01*
X43390714Y-35129333D01*
X43485952Y-35176952D01*
X43676429Y-35176952D01*
X43771667Y-35224571D01*
X43819286Y-35272190D01*
X43866905Y-35367429D01*
X43866905Y-35557905D01*
X43819286Y-35653143D01*
X43771667Y-35700762D01*
X43676429Y-35748381D01*
X43485952Y-35748381D01*
X43390714Y-35700762D01*
X43343095Y-35653143D01*
X43295476Y-35557905D01*
X43295476Y-35367429D01*
X43343095Y-35272190D01*
X43390714Y-35224571D01*
X43485952Y-35176952D01*
X42438333Y-35081714D02*
X42438333Y-35748381D01*
X42676429Y-34700762D02*
X42914524Y-35415048D01*
X42295476Y-35415048D01*
X36754857Y-35653143D02*
X36802476Y-35700762D01*
X36945333Y-35748381D01*
X37040571Y-35748381D01*
X37183429Y-35700762D01*
X37278667Y-35605524D01*
X37326286Y-35510286D01*
X37373905Y-35319810D01*
X37373905Y-35176952D01*
X37326286Y-34986476D01*
X37278667Y-34891238D01*
X37183429Y-34796000D01*
X37040571Y-34748381D01*
X36945333Y-34748381D01*
X36802476Y-34796000D01*
X36754857Y-34843619D01*
X36183429Y-35176952D02*
X36278667Y-35129333D01*
X36326286Y-35081714D01*
X36373905Y-34986476D01*
X36373905Y-34938857D01*
X36326286Y-34843619D01*
X36278667Y-34796000D01*
X36183429Y-34748381D01*
X35992952Y-34748381D01*
X35897714Y-34796000D01*
X35850095Y-34843619D01*
X35802476Y-34938857D01*
X35802476Y-34986476D01*
X35850095Y-35081714D01*
X35897714Y-35129333D01*
X35992952Y-35176952D01*
X36183429Y-35176952D01*
X36278667Y-35224571D01*
X36326286Y-35272190D01*
X36373905Y-35367429D01*
X36373905Y-35557905D01*
X36326286Y-35653143D01*
X36278667Y-35700762D01*
X36183429Y-35748381D01*
X35992952Y-35748381D01*
X35897714Y-35700762D01*
X35850095Y-35653143D01*
X35802476Y-35557905D01*
X35802476Y-35367429D01*
X35850095Y-35272190D01*
X35897714Y-35224571D01*
X35992952Y-35176952D01*
X35231048Y-35176952D02*
X35326286Y-35129333D01*
X35373905Y-35081714D01*
X35421524Y-34986476D01*
X35421524Y-34938857D01*
X35373905Y-34843619D01*
X35326286Y-34796000D01*
X35231048Y-34748381D01*
X35040571Y-34748381D01*
X34945333Y-34796000D01*
X34897714Y-34843619D01*
X34850095Y-34938857D01*
X34850095Y-34986476D01*
X34897714Y-35081714D01*
X34945333Y-35129333D01*
X35040571Y-35176952D01*
X35231048Y-35176952D01*
X35326286Y-35224571D01*
X35373905Y-35272190D01*
X35421524Y-35367429D01*
X35421524Y-35557905D01*
X35373905Y-35653143D01*
X35326286Y-35700762D01*
X35231048Y-35748381D01*
X35040571Y-35748381D01*
X34945333Y-35700762D01*
X34897714Y-35653143D01*
X34850095Y-35557905D01*
X34850095Y-35367429D01*
X34897714Y-35272190D01*
X34945333Y-35224571D01*
X35040571Y-35176952D01*
X98349857Y-22191143D02*
X98397476Y-22238762D01*
X98540333Y-22286381D01*
X98635571Y-22286381D01*
X98778429Y-22238762D01*
X98873667Y-22143524D01*
X98921286Y-22048286D01*
X98968905Y-21857810D01*
X98968905Y-21714952D01*
X98921286Y-21524476D01*
X98873667Y-21429238D01*
X98778429Y-21334000D01*
X98635571Y-21286381D01*
X98540333Y-21286381D01*
X98397476Y-21334000D01*
X98349857Y-21381619D01*
X97873667Y-22286381D02*
X97683191Y-22286381D01*
X97587952Y-22238762D01*
X97540333Y-22191143D01*
X97445095Y-22048286D01*
X97397476Y-21857810D01*
X97397476Y-21476857D01*
X97445095Y-21381619D01*
X97492714Y-21334000D01*
X97587952Y-21286381D01*
X97778429Y-21286381D01*
X97873667Y-21334000D01*
X97921286Y-21381619D01*
X97968905Y-21476857D01*
X97968905Y-21714952D01*
X97921286Y-21810190D01*
X97873667Y-21857810D01*
X97778429Y-21905429D01*
X97587952Y-21905429D01*
X97492714Y-21857810D01*
X97445095Y-21810190D01*
X97397476Y-21714952D01*
X97016524Y-21381619D02*
X96968905Y-21334000D01*
X96873667Y-21286381D01*
X96635571Y-21286381D01*
X96540333Y-21334000D01*
X96492714Y-21381619D01*
X96445095Y-21476857D01*
X96445095Y-21572095D01*
X96492714Y-21714952D01*
X97064143Y-22286381D01*
X96445095Y-22286381D01*
X98299057Y-15333143D02*
X98346676Y-15380762D01*
X98489533Y-15428381D01*
X98584771Y-15428381D01*
X98727629Y-15380762D01*
X98822867Y-15285524D01*
X98870486Y-15190286D01*
X98918105Y-14999810D01*
X98918105Y-14856952D01*
X98870486Y-14666476D01*
X98822867Y-14571238D01*
X98727629Y-14476000D01*
X98584771Y-14428381D01*
X98489533Y-14428381D01*
X98346676Y-14476000D01*
X98299057Y-14523619D01*
X97822867Y-15428381D02*
X97632391Y-15428381D01*
X97537152Y-15380762D01*
X97489533Y-15333143D01*
X97394295Y-15190286D01*
X97346676Y-14999810D01*
X97346676Y-14618857D01*
X97394295Y-14523619D01*
X97441914Y-14476000D01*
X97537152Y-14428381D01*
X97727629Y-14428381D01*
X97822867Y-14476000D01*
X97870486Y-14523619D01*
X97918105Y-14618857D01*
X97918105Y-14856952D01*
X97870486Y-14952190D01*
X97822867Y-14999810D01*
X97727629Y-15047429D01*
X97537152Y-15047429D01*
X97441914Y-14999810D01*
X97394295Y-14952190D01*
X97346676Y-14856952D01*
X96489533Y-14428381D02*
X96680010Y-14428381D01*
X96775248Y-14476000D01*
X96822867Y-14523619D01*
X96918105Y-14666476D01*
X96965724Y-14856952D01*
X96965724Y-15237905D01*
X96918105Y-15333143D01*
X96870486Y-15380762D01*
X96775248Y-15428381D01*
X96584771Y-15428381D01*
X96489533Y-15380762D01*
X96441914Y-15333143D01*
X96394295Y-15237905D01*
X96394295Y-14999810D01*
X96441914Y-14904571D01*
X96489533Y-14856952D01*
X96584771Y-14809333D01*
X96775248Y-14809333D01*
X96870486Y-14856952D01*
X96918105Y-14904571D01*
X96965724Y-14999810D01*
X93492047Y-24350143D02*
X93539666Y-24397762D01*
X93682523Y-24445381D01*
X93777761Y-24445381D01*
X93920619Y-24397762D01*
X94015857Y-24302524D01*
X94063476Y-24207286D01*
X94111095Y-24016810D01*
X94111095Y-23873952D01*
X94063476Y-23683476D01*
X94015857Y-23588238D01*
X93920619Y-23493000D01*
X93777761Y-23445381D01*
X93682523Y-23445381D01*
X93539666Y-23493000D01*
X93492047Y-23540619D01*
X92539666Y-24445381D02*
X93111095Y-24445381D01*
X92825381Y-24445381D02*
X92825381Y-23445381D01*
X92920619Y-23588238D01*
X93015857Y-23683476D01*
X93111095Y-23731095D01*
X91920619Y-23445381D02*
X91825380Y-23445381D01*
X91730142Y-23493000D01*
X91682523Y-23540619D01*
X91634904Y-23635857D01*
X91587285Y-23826333D01*
X91587285Y-24064429D01*
X91634904Y-24254905D01*
X91682523Y-24350143D01*
X91730142Y-24397762D01*
X91825380Y-24445381D01*
X91920619Y-24445381D01*
X92015857Y-24397762D01*
X92063476Y-24350143D01*
X92111095Y-24254905D01*
X92158714Y-24064429D01*
X92158714Y-23826333D01*
X92111095Y-23635857D01*
X92063476Y-23540619D01*
X92015857Y-23493000D01*
X91920619Y-23445381D01*
X90968238Y-23445381D02*
X90872999Y-23445381D01*
X90777761Y-23493000D01*
X90730142Y-23540619D01*
X90682523Y-23635857D01*
X90634904Y-23826333D01*
X90634904Y-24064429D01*
X90682523Y-24254905D01*
X90730142Y-24350143D01*
X90777761Y-24397762D01*
X90872999Y-24445381D01*
X90968238Y-24445381D01*
X91063476Y-24397762D01*
X91111095Y-24350143D01*
X91158714Y-24254905D01*
X91206333Y-24064429D01*
X91206333Y-23826333D01*
X91158714Y-23635857D01*
X91111095Y-23540619D01*
X91063476Y-23493000D01*
X90968238Y-23445381D01*
X93492047Y-13301143D02*
X93539666Y-13348762D01*
X93682523Y-13396381D01*
X93777761Y-13396381D01*
X93920619Y-13348762D01*
X94015857Y-13253524D01*
X94063476Y-13158286D01*
X94111095Y-12967810D01*
X94111095Y-12824952D01*
X94063476Y-12634476D01*
X94015857Y-12539238D01*
X93920619Y-12444000D01*
X93777761Y-12396381D01*
X93682523Y-12396381D01*
X93539666Y-12444000D01*
X93492047Y-12491619D01*
X92539666Y-13396381D02*
X93111095Y-13396381D01*
X92825381Y-13396381D02*
X92825381Y-12396381D01*
X92920619Y-12539238D01*
X93015857Y-12634476D01*
X93111095Y-12682095D01*
X91920619Y-12396381D02*
X91825380Y-12396381D01*
X91730142Y-12444000D01*
X91682523Y-12491619D01*
X91634904Y-12586857D01*
X91587285Y-12777333D01*
X91587285Y-13015429D01*
X91634904Y-13205905D01*
X91682523Y-13301143D01*
X91730142Y-13348762D01*
X91825380Y-13396381D01*
X91920619Y-13396381D01*
X92015857Y-13348762D01*
X92063476Y-13301143D01*
X92111095Y-13205905D01*
X92158714Y-13015429D01*
X92158714Y-12777333D01*
X92111095Y-12586857D01*
X92063476Y-12491619D01*
X92015857Y-12444000D01*
X91920619Y-12396381D01*
X90730142Y-12729714D02*
X90730142Y-13396381D01*
X90968238Y-12348762D02*
X91206333Y-13063048D01*
X90587285Y-13063048D01*
X86126047Y-24350143D02*
X86173666Y-24397762D01*
X86316523Y-24445381D01*
X86411761Y-24445381D01*
X86554619Y-24397762D01*
X86649857Y-24302524D01*
X86697476Y-24207286D01*
X86745095Y-24016810D01*
X86745095Y-23873952D01*
X86697476Y-23683476D01*
X86649857Y-23588238D01*
X86554619Y-23493000D01*
X86411761Y-23445381D01*
X86316523Y-23445381D01*
X86173666Y-23493000D01*
X86126047Y-23540619D01*
X85173666Y-24445381D02*
X85745095Y-24445381D01*
X85459381Y-24445381D02*
X85459381Y-23445381D01*
X85554619Y-23588238D01*
X85649857Y-23683476D01*
X85745095Y-23731095D01*
X84554619Y-23445381D02*
X84459380Y-23445381D01*
X84364142Y-23493000D01*
X84316523Y-23540619D01*
X84268904Y-23635857D01*
X84221285Y-23826333D01*
X84221285Y-24064429D01*
X84268904Y-24254905D01*
X84316523Y-24350143D01*
X84364142Y-24397762D01*
X84459380Y-24445381D01*
X84554619Y-24445381D01*
X84649857Y-24397762D01*
X84697476Y-24350143D01*
X84745095Y-24254905D01*
X84792714Y-24064429D01*
X84792714Y-23826333D01*
X84745095Y-23635857D01*
X84697476Y-23540619D01*
X84649857Y-23493000D01*
X84554619Y-23445381D01*
X83649857Y-23873952D02*
X83745095Y-23826333D01*
X83792714Y-23778714D01*
X83840333Y-23683476D01*
X83840333Y-23635857D01*
X83792714Y-23540619D01*
X83745095Y-23493000D01*
X83649857Y-23445381D01*
X83459380Y-23445381D01*
X83364142Y-23493000D01*
X83316523Y-23540619D01*
X83268904Y-23635857D01*
X83268904Y-23683476D01*
X83316523Y-23778714D01*
X83364142Y-23826333D01*
X83459380Y-23873952D01*
X83649857Y-23873952D01*
X83745095Y-23921571D01*
X83792714Y-23969190D01*
X83840333Y-24064429D01*
X83840333Y-24254905D01*
X83792714Y-24350143D01*
X83745095Y-24397762D01*
X83649857Y-24445381D01*
X83459380Y-24445381D01*
X83364142Y-24397762D01*
X83316523Y-24350143D01*
X83268904Y-24254905D01*
X83268904Y-24064429D01*
X83316523Y-23969190D01*
X83364142Y-23921571D01*
X83459380Y-23873952D01*
X86126047Y-13301143D02*
X86173666Y-13348762D01*
X86316523Y-13396381D01*
X86411761Y-13396381D01*
X86554619Y-13348762D01*
X86649857Y-13253524D01*
X86697476Y-13158286D01*
X86745095Y-12967810D01*
X86745095Y-12824952D01*
X86697476Y-12634476D01*
X86649857Y-12539238D01*
X86554619Y-12444000D01*
X86411761Y-12396381D01*
X86316523Y-12396381D01*
X86173666Y-12444000D01*
X86126047Y-12491619D01*
X85173666Y-13396381D02*
X85745095Y-13396381D01*
X85459381Y-13396381D02*
X85459381Y-12396381D01*
X85554619Y-12539238D01*
X85649857Y-12634476D01*
X85745095Y-12682095D01*
X84221285Y-13396381D02*
X84792714Y-13396381D01*
X84507000Y-13396381D02*
X84507000Y-12396381D01*
X84602238Y-12539238D01*
X84697476Y-12634476D01*
X84792714Y-12682095D01*
X83840333Y-12491619D02*
X83792714Y-12444000D01*
X83697476Y-12396381D01*
X83459380Y-12396381D01*
X83364142Y-12444000D01*
X83316523Y-12491619D01*
X83268904Y-12586857D01*
X83268904Y-12682095D01*
X83316523Y-12824952D01*
X83887952Y-13396381D01*
X83268904Y-13396381D01*
X78709247Y-24223143D02*
X78756866Y-24270762D01*
X78899723Y-24318381D01*
X78994961Y-24318381D01*
X79137819Y-24270762D01*
X79233057Y-24175524D01*
X79280676Y-24080286D01*
X79328295Y-23889810D01*
X79328295Y-23746952D01*
X79280676Y-23556476D01*
X79233057Y-23461238D01*
X79137819Y-23366000D01*
X78994961Y-23318381D01*
X78899723Y-23318381D01*
X78756866Y-23366000D01*
X78709247Y-23413619D01*
X77756866Y-24318381D02*
X78328295Y-24318381D01*
X78042581Y-24318381D02*
X78042581Y-23318381D01*
X78137819Y-23461238D01*
X78233057Y-23556476D01*
X78328295Y-23604095D01*
X76804485Y-24318381D02*
X77375914Y-24318381D01*
X77090200Y-24318381D02*
X77090200Y-23318381D01*
X77185438Y-23461238D01*
X77280676Y-23556476D01*
X77375914Y-23604095D01*
X75947342Y-23318381D02*
X76137819Y-23318381D01*
X76233057Y-23366000D01*
X76280676Y-23413619D01*
X76375914Y-23556476D01*
X76423533Y-23746952D01*
X76423533Y-24127905D01*
X76375914Y-24223143D01*
X76328295Y-24270762D01*
X76233057Y-24318381D01*
X76042580Y-24318381D01*
X75947342Y-24270762D01*
X75899723Y-24223143D01*
X75852104Y-24127905D01*
X75852104Y-23889810D01*
X75899723Y-23794571D01*
X75947342Y-23746952D01*
X76042580Y-23699333D01*
X76233057Y-23699333D01*
X76328295Y-23746952D01*
X76375914Y-23794571D01*
X76423533Y-23889810D01*
X78760047Y-13301143D02*
X78807666Y-13348762D01*
X78950523Y-13396381D01*
X79045761Y-13396381D01*
X79188619Y-13348762D01*
X79283857Y-13253524D01*
X79331476Y-13158286D01*
X79379095Y-12967810D01*
X79379095Y-12824952D01*
X79331476Y-12634476D01*
X79283857Y-12539238D01*
X79188619Y-12444000D01*
X79045761Y-12396381D01*
X78950523Y-12396381D01*
X78807666Y-12444000D01*
X78760047Y-12491619D01*
X77807666Y-13396381D02*
X78379095Y-13396381D01*
X78093381Y-13396381D02*
X78093381Y-12396381D01*
X78188619Y-12539238D01*
X78283857Y-12634476D01*
X78379095Y-12682095D01*
X77426714Y-12491619D02*
X77379095Y-12444000D01*
X77283857Y-12396381D01*
X77045761Y-12396381D01*
X76950523Y-12444000D01*
X76902904Y-12491619D01*
X76855285Y-12586857D01*
X76855285Y-12682095D01*
X76902904Y-12824952D01*
X77474333Y-13396381D01*
X76855285Y-13396381D01*
X76236238Y-12396381D02*
X76140999Y-12396381D01*
X76045761Y-12444000D01*
X75998142Y-12491619D01*
X75950523Y-12586857D01*
X75902904Y-12777333D01*
X75902904Y-13015429D01*
X75950523Y-13205905D01*
X75998142Y-13301143D01*
X76045761Y-13348762D01*
X76140999Y-13396381D01*
X76236238Y-13396381D01*
X76331476Y-13348762D01*
X76379095Y-13301143D01*
X76426714Y-13205905D01*
X76474333Y-13015429D01*
X76474333Y-12777333D01*
X76426714Y-12586857D01*
X76379095Y-12491619D01*
X76331476Y-12444000D01*
X76236238Y-12396381D01*
X71521047Y-24223143D02*
X71568666Y-24270762D01*
X71711523Y-24318381D01*
X71806761Y-24318381D01*
X71949619Y-24270762D01*
X72044857Y-24175524D01*
X72092476Y-24080286D01*
X72140095Y-23889810D01*
X72140095Y-23746952D01*
X72092476Y-23556476D01*
X72044857Y-23461238D01*
X71949619Y-23366000D01*
X71806761Y-23318381D01*
X71711523Y-23318381D01*
X71568666Y-23366000D01*
X71521047Y-23413619D01*
X70568666Y-24318381D02*
X71140095Y-24318381D01*
X70854381Y-24318381D02*
X70854381Y-23318381D01*
X70949619Y-23461238D01*
X71044857Y-23556476D01*
X71140095Y-23604095D01*
X70187714Y-23413619D02*
X70140095Y-23366000D01*
X70044857Y-23318381D01*
X69806761Y-23318381D01*
X69711523Y-23366000D01*
X69663904Y-23413619D01*
X69616285Y-23508857D01*
X69616285Y-23604095D01*
X69663904Y-23746952D01*
X70235333Y-24318381D01*
X69616285Y-24318381D01*
X68759142Y-23651714D02*
X68759142Y-24318381D01*
X68997238Y-23270762D02*
X69235333Y-23985048D01*
X68616285Y-23985048D01*
X71394047Y-13301143D02*
X71441666Y-13348762D01*
X71584523Y-13396381D01*
X71679761Y-13396381D01*
X71822619Y-13348762D01*
X71917857Y-13253524D01*
X71965476Y-13158286D01*
X72013095Y-12967810D01*
X72013095Y-12824952D01*
X71965476Y-12634476D01*
X71917857Y-12539238D01*
X71822619Y-12444000D01*
X71679761Y-12396381D01*
X71584523Y-12396381D01*
X71441666Y-12444000D01*
X71394047Y-12491619D01*
X70441666Y-13396381D02*
X71013095Y-13396381D01*
X70727381Y-13396381D02*
X70727381Y-12396381D01*
X70822619Y-12539238D01*
X70917857Y-12634476D01*
X71013095Y-12682095D01*
X70060714Y-12491619D02*
X70013095Y-12444000D01*
X69917857Y-12396381D01*
X69679761Y-12396381D01*
X69584523Y-12444000D01*
X69536904Y-12491619D01*
X69489285Y-12586857D01*
X69489285Y-12682095D01*
X69536904Y-12824952D01*
X70108333Y-13396381D01*
X69489285Y-13396381D01*
X68917857Y-12824952D02*
X69013095Y-12777333D01*
X69060714Y-12729714D01*
X69108333Y-12634476D01*
X69108333Y-12586857D01*
X69060714Y-12491619D01*
X69013095Y-12444000D01*
X68917857Y-12396381D01*
X68727380Y-12396381D01*
X68632142Y-12444000D01*
X68584523Y-12491619D01*
X68536904Y-12586857D01*
X68536904Y-12634476D01*
X68584523Y-12729714D01*
X68632142Y-12777333D01*
X68727380Y-12824952D01*
X68917857Y-12824952D01*
X69013095Y-12872571D01*
X69060714Y-12920190D01*
X69108333Y-13015429D01*
X69108333Y-13205905D01*
X69060714Y-13301143D01*
X69013095Y-13348762D01*
X68917857Y-13396381D01*
X68727380Y-13396381D01*
X68632142Y-13348762D01*
X68584523Y-13301143D01*
X68536904Y-13205905D01*
X68536904Y-13015429D01*
X68584523Y-12920190D01*
X68632142Y-12872571D01*
X68727380Y-12824952D01*
X22221333Y-79579381D02*
X22221333Y-80293667D01*
X22268953Y-80436524D01*
X22364191Y-80531762D01*
X22507048Y-80579381D01*
X22602286Y-80579381D01*
X21316571Y-79579381D02*
X21507048Y-79579381D01*
X21602286Y-79627000D01*
X21649905Y-79674619D01*
X21745143Y-79817476D01*
X21792762Y-80007952D01*
X21792762Y-80388905D01*
X21745143Y-80484143D01*
X21697524Y-80531762D01*
X21602286Y-80579381D01*
X21411809Y-80579381D01*
X21316571Y-80531762D01*
X21268952Y-80484143D01*
X21221333Y-80388905D01*
X21221333Y-80150810D01*
X21268952Y-80055571D01*
X21316571Y-80007952D01*
X21411809Y-79960333D01*
X21602286Y-79960333D01*
X21697524Y-80007952D01*
X21745143Y-80055571D01*
X21792762Y-80150810D01*
X83308333Y-79706381D02*
X83308333Y-80420667D01*
X83355953Y-80563524D01*
X83451191Y-80658762D01*
X83594048Y-80706381D01*
X83689286Y-80706381D01*
X82927381Y-79706381D02*
X82260714Y-79706381D01*
X82689286Y-80706381D01*
X8275047Y-10274381D02*
X8608381Y-9798190D01*
X8846476Y-10274381D02*
X8846476Y-9274381D01*
X8465523Y-9274381D01*
X8370285Y-9322000D01*
X8322666Y-9369619D01*
X8275047Y-9464857D01*
X8275047Y-9607714D01*
X8322666Y-9702952D01*
X8370285Y-9750571D01*
X8465523Y-9798190D01*
X8846476Y-9798190D01*
X7894095Y-9369619D02*
X7846476Y-9322000D01*
X7751238Y-9274381D01*
X7513142Y-9274381D01*
X7417904Y-9322000D01*
X7370285Y-9369619D01*
X7322666Y-9464857D01*
X7322666Y-9560095D01*
X7370285Y-9702952D01*
X7941714Y-10274381D01*
X7322666Y-10274381D01*
X6370285Y-10274381D02*
X6941714Y-10274381D01*
X6656000Y-10274381D02*
X6656000Y-9274381D01*
X6751238Y-9417238D01*
X6846476Y-9512476D01*
X6941714Y-9560095D01*
X6036952Y-9274381D02*
X5417904Y-9274381D01*
X5751238Y-9655333D01*
X5608380Y-9655333D01*
X5513142Y-9702952D01*
X5465523Y-9750571D01*
X5417904Y-9845810D01*
X5417904Y-10083905D01*
X5465523Y-10179143D01*
X5513142Y-10226762D01*
X5608380Y-10274381D01*
X5894095Y-10274381D01*
X5989333Y-10226762D01*
X6036952Y-10179143D01*
X4592047Y-7374381D02*
X4925381Y-6898190D01*
X5163476Y-7374381D02*
X5163476Y-6374381D01*
X4782523Y-6374381D01*
X4687285Y-6422000D01*
X4639666Y-6469619D01*
X4592047Y-6564857D01*
X4592047Y-6707714D01*
X4639666Y-6802952D01*
X4687285Y-6850571D01*
X4782523Y-6898190D01*
X5163476Y-6898190D01*
X4211095Y-6469619D02*
X4163476Y-6422000D01*
X4068238Y-6374381D01*
X3830142Y-6374381D01*
X3734904Y-6422000D01*
X3687285Y-6469619D01*
X3639666Y-6564857D01*
X3639666Y-6660095D01*
X3687285Y-6802952D01*
X4258714Y-7374381D01*
X3639666Y-7374381D01*
X2687285Y-7374381D02*
X3258714Y-7374381D01*
X2973000Y-7374381D02*
X2973000Y-6374381D01*
X3068238Y-6517238D01*
X3163476Y-6612476D01*
X3258714Y-6660095D01*
X1830142Y-6707714D02*
X1830142Y-7374381D01*
X2068238Y-6326762D02*
X2306333Y-7041048D01*
X1687285Y-7041048D01*
X8275047Y-21196381D02*
X8608381Y-20720190D01*
X8846476Y-21196381D02*
X8846476Y-20196381D01*
X8465523Y-20196381D01*
X8370285Y-20244000D01*
X8322666Y-20291619D01*
X8275047Y-20386857D01*
X8275047Y-20529714D01*
X8322666Y-20624952D01*
X8370285Y-20672571D01*
X8465523Y-20720190D01*
X8846476Y-20720190D01*
X7894095Y-20291619D02*
X7846476Y-20244000D01*
X7751238Y-20196381D01*
X7513142Y-20196381D01*
X7417904Y-20244000D01*
X7370285Y-20291619D01*
X7322666Y-20386857D01*
X7322666Y-20482095D01*
X7370285Y-20624952D01*
X7941714Y-21196381D01*
X7322666Y-21196381D01*
X6370285Y-21196381D02*
X6941714Y-21196381D01*
X6656000Y-21196381D02*
X6656000Y-20196381D01*
X6751238Y-20339238D01*
X6846476Y-20434476D01*
X6941714Y-20482095D01*
X5465523Y-20196381D02*
X5941714Y-20196381D01*
X5989333Y-20672571D01*
X5941714Y-20624952D01*
X5846476Y-20577333D01*
X5608380Y-20577333D01*
X5513142Y-20624952D01*
X5465523Y-20672571D01*
X5417904Y-20767810D01*
X5417904Y-21005905D01*
X5465523Y-21101143D01*
X5513142Y-21148762D01*
X5608380Y-21196381D01*
X5846476Y-21196381D01*
X5941714Y-21148762D01*
X5989333Y-21101143D01*
X4592047Y-18296381D02*
X4925381Y-17820190D01*
X5163476Y-18296381D02*
X5163476Y-17296381D01*
X4782523Y-17296381D01*
X4687285Y-17344000D01*
X4639666Y-17391619D01*
X4592047Y-17486857D01*
X4592047Y-17629714D01*
X4639666Y-17724952D01*
X4687285Y-17772571D01*
X4782523Y-17820190D01*
X5163476Y-17820190D01*
X4211095Y-17391619D02*
X4163476Y-17344000D01*
X4068238Y-17296381D01*
X3830142Y-17296381D01*
X3734904Y-17344000D01*
X3687285Y-17391619D01*
X3639666Y-17486857D01*
X3639666Y-17582095D01*
X3687285Y-17724952D01*
X4258714Y-18296381D01*
X3639666Y-18296381D01*
X2687285Y-18296381D02*
X3258714Y-18296381D01*
X2973000Y-18296381D02*
X2973000Y-17296381D01*
X3068238Y-17439238D01*
X3163476Y-17534476D01*
X3258714Y-17582095D01*
X1830142Y-17296381D02*
X2020619Y-17296381D01*
X2115857Y-17344000D01*
X2163476Y-17391619D01*
X2258714Y-17534476D01*
X2306333Y-17724952D01*
X2306333Y-18105905D01*
X2258714Y-18201143D01*
X2211095Y-18248762D01*
X2115857Y-18296381D01*
X1925380Y-18296381D01*
X1830142Y-18248762D01*
X1782523Y-18201143D01*
X1734904Y-18105905D01*
X1734904Y-17867810D01*
X1782523Y-17772571D01*
X1830142Y-17724952D01*
X1925380Y-17677333D01*
X2115857Y-17677333D01*
X2211095Y-17724952D01*
X2258714Y-17772571D01*
X2306333Y-17867810D01*
X15641047Y-10274381D02*
X15974381Y-9798190D01*
X16212476Y-10274381D02*
X16212476Y-9274381D01*
X15831523Y-9274381D01*
X15736285Y-9322000D01*
X15688666Y-9369619D01*
X15641047Y-9464857D01*
X15641047Y-9607714D01*
X15688666Y-9702952D01*
X15736285Y-9750571D01*
X15831523Y-9798190D01*
X16212476Y-9798190D01*
X15260095Y-9369619D02*
X15212476Y-9322000D01*
X15117238Y-9274381D01*
X14879142Y-9274381D01*
X14783904Y-9322000D01*
X14736285Y-9369619D01*
X14688666Y-9464857D01*
X14688666Y-9560095D01*
X14736285Y-9702952D01*
X15307714Y-10274381D01*
X14688666Y-10274381D01*
X13736285Y-10274381D02*
X14307714Y-10274381D01*
X14022000Y-10274381D02*
X14022000Y-9274381D01*
X14117238Y-9417238D01*
X14212476Y-9512476D01*
X14307714Y-9560095D01*
X13402952Y-9274381D02*
X12736285Y-9274381D01*
X13164857Y-10274381D01*
X11958047Y-7374381D02*
X12291381Y-6898190D01*
X12529476Y-7374381D02*
X12529476Y-6374381D01*
X12148523Y-6374381D01*
X12053285Y-6422000D01*
X12005666Y-6469619D01*
X11958047Y-6564857D01*
X11958047Y-6707714D01*
X12005666Y-6802952D01*
X12053285Y-6850571D01*
X12148523Y-6898190D01*
X12529476Y-6898190D01*
X11577095Y-6469619D02*
X11529476Y-6422000D01*
X11434238Y-6374381D01*
X11196142Y-6374381D01*
X11100904Y-6422000D01*
X11053285Y-6469619D01*
X11005666Y-6564857D01*
X11005666Y-6660095D01*
X11053285Y-6802952D01*
X11624714Y-7374381D01*
X11005666Y-7374381D01*
X10053285Y-7374381D02*
X10624714Y-7374381D01*
X10339000Y-7374381D02*
X10339000Y-6374381D01*
X10434238Y-6517238D01*
X10529476Y-6612476D01*
X10624714Y-6660095D01*
X9481857Y-6802952D02*
X9577095Y-6755333D01*
X9624714Y-6707714D01*
X9672333Y-6612476D01*
X9672333Y-6564857D01*
X9624714Y-6469619D01*
X9577095Y-6422000D01*
X9481857Y-6374381D01*
X9291380Y-6374381D01*
X9196142Y-6422000D01*
X9148523Y-6469619D01*
X9100904Y-6564857D01*
X9100904Y-6612476D01*
X9148523Y-6707714D01*
X9196142Y-6755333D01*
X9291380Y-6802952D01*
X9481857Y-6802952D01*
X9577095Y-6850571D01*
X9624714Y-6898190D01*
X9672333Y-6993429D01*
X9672333Y-7183905D01*
X9624714Y-7279143D01*
X9577095Y-7326762D01*
X9481857Y-7374381D01*
X9291380Y-7374381D01*
X9196142Y-7326762D01*
X9148523Y-7279143D01*
X9100904Y-7183905D01*
X9100904Y-6993429D01*
X9148523Y-6898190D01*
X9196142Y-6850571D01*
X9291380Y-6802952D01*
X15641047Y-21196381D02*
X15974381Y-20720190D01*
X16212476Y-21196381D02*
X16212476Y-20196381D01*
X15831523Y-20196381D01*
X15736285Y-20244000D01*
X15688666Y-20291619D01*
X15641047Y-20386857D01*
X15641047Y-20529714D01*
X15688666Y-20624952D01*
X15736285Y-20672571D01*
X15831523Y-20720190D01*
X16212476Y-20720190D01*
X15260095Y-20291619D02*
X15212476Y-20244000D01*
X15117238Y-20196381D01*
X14879142Y-20196381D01*
X14783904Y-20244000D01*
X14736285Y-20291619D01*
X14688666Y-20386857D01*
X14688666Y-20482095D01*
X14736285Y-20624952D01*
X15307714Y-21196381D01*
X14688666Y-21196381D01*
X13736285Y-21196381D02*
X14307714Y-21196381D01*
X14022000Y-21196381D02*
X14022000Y-20196381D01*
X14117238Y-20339238D01*
X14212476Y-20434476D01*
X14307714Y-20482095D01*
X13260095Y-21196381D02*
X13069619Y-21196381D01*
X12974380Y-21148762D01*
X12926761Y-21101143D01*
X12831523Y-20958286D01*
X12783904Y-20767810D01*
X12783904Y-20386857D01*
X12831523Y-20291619D01*
X12879142Y-20244000D01*
X12974380Y-20196381D01*
X13164857Y-20196381D01*
X13260095Y-20244000D01*
X13307714Y-20291619D01*
X13355333Y-20386857D01*
X13355333Y-20624952D01*
X13307714Y-20720190D01*
X13260095Y-20767810D01*
X13164857Y-20815429D01*
X12974380Y-20815429D01*
X12879142Y-20767810D01*
X12831523Y-20720190D01*
X12783904Y-20624952D01*
X11958047Y-18296381D02*
X12291381Y-17820190D01*
X12529476Y-18296381D02*
X12529476Y-17296381D01*
X12148523Y-17296381D01*
X12053285Y-17344000D01*
X12005666Y-17391619D01*
X11958047Y-17486857D01*
X11958047Y-17629714D01*
X12005666Y-17724952D01*
X12053285Y-17772571D01*
X12148523Y-17820190D01*
X12529476Y-17820190D01*
X11577095Y-17391619D02*
X11529476Y-17344000D01*
X11434238Y-17296381D01*
X11196142Y-17296381D01*
X11100904Y-17344000D01*
X11053285Y-17391619D01*
X11005666Y-17486857D01*
X11005666Y-17582095D01*
X11053285Y-17724952D01*
X11624714Y-18296381D01*
X11005666Y-18296381D01*
X10624714Y-17391619D02*
X10577095Y-17344000D01*
X10481857Y-17296381D01*
X10243761Y-17296381D01*
X10148523Y-17344000D01*
X10100904Y-17391619D01*
X10053285Y-17486857D01*
X10053285Y-17582095D01*
X10100904Y-17724952D01*
X10672333Y-18296381D01*
X10053285Y-18296381D01*
X9434238Y-17296381D02*
X9338999Y-17296381D01*
X9243761Y-17344000D01*
X9196142Y-17391619D01*
X9148523Y-17486857D01*
X9100904Y-17677333D01*
X9100904Y-17915429D01*
X9148523Y-18105905D01*
X9196142Y-18201143D01*
X9243761Y-18248762D01*
X9338999Y-18296381D01*
X9434238Y-18296381D01*
X9529476Y-18248762D01*
X9577095Y-18201143D01*
X9624714Y-18105905D01*
X9672333Y-17915429D01*
X9672333Y-17677333D01*
X9624714Y-17486857D01*
X9577095Y-17391619D01*
X9529476Y-17344000D01*
X9434238Y-17296381D01*
X23007047Y-10274381D02*
X23340381Y-9798190D01*
X23578476Y-10274381D02*
X23578476Y-9274381D01*
X23197523Y-9274381D01*
X23102285Y-9322000D01*
X23054666Y-9369619D01*
X23007047Y-9464857D01*
X23007047Y-9607714D01*
X23054666Y-9702952D01*
X23102285Y-9750571D01*
X23197523Y-9798190D01*
X23578476Y-9798190D01*
X22626095Y-9369619D02*
X22578476Y-9322000D01*
X22483238Y-9274381D01*
X22245142Y-9274381D01*
X22149904Y-9322000D01*
X22102285Y-9369619D01*
X22054666Y-9464857D01*
X22054666Y-9560095D01*
X22102285Y-9702952D01*
X22673714Y-10274381D01*
X22054666Y-10274381D01*
X21673714Y-9369619D02*
X21626095Y-9322000D01*
X21530857Y-9274381D01*
X21292761Y-9274381D01*
X21197523Y-9322000D01*
X21149904Y-9369619D01*
X21102285Y-9464857D01*
X21102285Y-9560095D01*
X21149904Y-9702952D01*
X21721333Y-10274381D01*
X21102285Y-10274381D01*
X20149904Y-10274381D02*
X20721333Y-10274381D01*
X20435619Y-10274381D02*
X20435619Y-9274381D01*
X20530857Y-9417238D01*
X20626095Y-9512476D01*
X20721333Y-9560095D01*
X19324047Y-7374381D02*
X19657381Y-6898190D01*
X19895476Y-7374381D02*
X19895476Y-6374381D01*
X19514523Y-6374381D01*
X19419285Y-6422000D01*
X19371666Y-6469619D01*
X19324047Y-6564857D01*
X19324047Y-6707714D01*
X19371666Y-6802952D01*
X19419285Y-6850571D01*
X19514523Y-6898190D01*
X19895476Y-6898190D01*
X18943095Y-6469619D02*
X18895476Y-6422000D01*
X18800238Y-6374381D01*
X18562142Y-6374381D01*
X18466904Y-6422000D01*
X18419285Y-6469619D01*
X18371666Y-6564857D01*
X18371666Y-6660095D01*
X18419285Y-6802952D01*
X18990714Y-7374381D01*
X18371666Y-7374381D01*
X17990714Y-6469619D02*
X17943095Y-6422000D01*
X17847857Y-6374381D01*
X17609761Y-6374381D01*
X17514523Y-6422000D01*
X17466904Y-6469619D01*
X17419285Y-6564857D01*
X17419285Y-6660095D01*
X17466904Y-6802952D01*
X18038333Y-7374381D01*
X17419285Y-7374381D01*
X17038333Y-6469619D02*
X16990714Y-6422000D01*
X16895476Y-6374381D01*
X16657380Y-6374381D01*
X16562142Y-6422000D01*
X16514523Y-6469619D01*
X16466904Y-6564857D01*
X16466904Y-6660095D01*
X16514523Y-6802952D01*
X17085952Y-7374381D01*
X16466904Y-7374381D01*
X23007047Y-21196381D02*
X23340381Y-20720190D01*
X23578476Y-21196381D02*
X23578476Y-20196381D01*
X23197523Y-20196381D01*
X23102285Y-20244000D01*
X23054666Y-20291619D01*
X23007047Y-20386857D01*
X23007047Y-20529714D01*
X23054666Y-20624952D01*
X23102285Y-20672571D01*
X23197523Y-20720190D01*
X23578476Y-20720190D01*
X22626095Y-20291619D02*
X22578476Y-20244000D01*
X22483238Y-20196381D01*
X22245142Y-20196381D01*
X22149904Y-20244000D01*
X22102285Y-20291619D01*
X22054666Y-20386857D01*
X22054666Y-20482095D01*
X22102285Y-20624952D01*
X22673714Y-21196381D01*
X22054666Y-21196381D01*
X21673714Y-20291619D02*
X21626095Y-20244000D01*
X21530857Y-20196381D01*
X21292761Y-20196381D01*
X21197523Y-20244000D01*
X21149904Y-20291619D01*
X21102285Y-20386857D01*
X21102285Y-20482095D01*
X21149904Y-20624952D01*
X21721333Y-21196381D01*
X21102285Y-21196381D01*
X20768952Y-20196381D02*
X20149904Y-20196381D01*
X20483238Y-20577333D01*
X20340380Y-20577333D01*
X20245142Y-20624952D01*
X20197523Y-20672571D01*
X20149904Y-20767810D01*
X20149904Y-21005905D01*
X20197523Y-21101143D01*
X20245142Y-21148762D01*
X20340380Y-21196381D01*
X20626095Y-21196381D01*
X20721333Y-21148762D01*
X20768952Y-21101143D01*
X19324047Y-18296381D02*
X19657381Y-17820190D01*
X19895476Y-18296381D02*
X19895476Y-17296381D01*
X19514523Y-17296381D01*
X19419285Y-17344000D01*
X19371666Y-17391619D01*
X19324047Y-17486857D01*
X19324047Y-17629714D01*
X19371666Y-17724952D01*
X19419285Y-17772571D01*
X19514523Y-17820190D01*
X19895476Y-17820190D01*
X18943095Y-17391619D02*
X18895476Y-17344000D01*
X18800238Y-17296381D01*
X18562142Y-17296381D01*
X18466904Y-17344000D01*
X18419285Y-17391619D01*
X18371666Y-17486857D01*
X18371666Y-17582095D01*
X18419285Y-17724952D01*
X18990714Y-18296381D01*
X18371666Y-18296381D01*
X17990714Y-17391619D02*
X17943095Y-17344000D01*
X17847857Y-17296381D01*
X17609761Y-17296381D01*
X17514523Y-17344000D01*
X17466904Y-17391619D01*
X17419285Y-17486857D01*
X17419285Y-17582095D01*
X17466904Y-17724952D01*
X18038333Y-18296381D01*
X17419285Y-18296381D01*
X16562142Y-17629714D02*
X16562142Y-18296381D01*
X16800238Y-17248762D02*
X17038333Y-17963048D01*
X16419285Y-17963048D01*
X30373047Y-10274381D02*
X30706381Y-9798190D01*
X30944476Y-10274381D02*
X30944476Y-9274381D01*
X30563523Y-9274381D01*
X30468285Y-9322000D01*
X30420666Y-9369619D01*
X30373047Y-9464857D01*
X30373047Y-9607714D01*
X30420666Y-9702952D01*
X30468285Y-9750571D01*
X30563523Y-9798190D01*
X30944476Y-9798190D01*
X29992095Y-9369619D02*
X29944476Y-9322000D01*
X29849238Y-9274381D01*
X29611142Y-9274381D01*
X29515904Y-9322000D01*
X29468285Y-9369619D01*
X29420666Y-9464857D01*
X29420666Y-9560095D01*
X29468285Y-9702952D01*
X30039714Y-10274381D01*
X29420666Y-10274381D01*
X29039714Y-9369619D02*
X28992095Y-9322000D01*
X28896857Y-9274381D01*
X28658761Y-9274381D01*
X28563523Y-9322000D01*
X28515904Y-9369619D01*
X28468285Y-9464857D01*
X28468285Y-9560095D01*
X28515904Y-9702952D01*
X29087333Y-10274381D01*
X28468285Y-10274381D01*
X27563523Y-9274381D02*
X28039714Y-9274381D01*
X28087333Y-9750571D01*
X28039714Y-9702952D01*
X27944476Y-9655333D01*
X27706380Y-9655333D01*
X27611142Y-9702952D01*
X27563523Y-9750571D01*
X27515904Y-9845810D01*
X27515904Y-10083905D01*
X27563523Y-10179143D01*
X27611142Y-10226762D01*
X27706380Y-10274381D01*
X27944476Y-10274381D01*
X28039714Y-10226762D01*
X28087333Y-10179143D01*
X26690047Y-7374381D02*
X27023381Y-6898190D01*
X27261476Y-7374381D02*
X27261476Y-6374381D01*
X26880523Y-6374381D01*
X26785285Y-6422000D01*
X26737666Y-6469619D01*
X26690047Y-6564857D01*
X26690047Y-6707714D01*
X26737666Y-6802952D01*
X26785285Y-6850571D01*
X26880523Y-6898190D01*
X27261476Y-6898190D01*
X26309095Y-6469619D02*
X26261476Y-6422000D01*
X26166238Y-6374381D01*
X25928142Y-6374381D01*
X25832904Y-6422000D01*
X25785285Y-6469619D01*
X25737666Y-6564857D01*
X25737666Y-6660095D01*
X25785285Y-6802952D01*
X26356714Y-7374381D01*
X25737666Y-7374381D01*
X25356714Y-6469619D02*
X25309095Y-6422000D01*
X25213857Y-6374381D01*
X24975761Y-6374381D01*
X24880523Y-6422000D01*
X24832904Y-6469619D01*
X24785285Y-6564857D01*
X24785285Y-6660095D01*
X24832904Y-6802952D01*
X25404333Y-7374381D01*
X24785285Y-7374381D01*
X23928142Y-6374381D02*
X24118619Y-6374381D01*
X24213857Y-6422000D01*
X24261476Y-6469619D01*
X24356714Y-6612476D01*
X24404333Y-6802952D01*
X24404333Y-7183905D01*
X24356714Y-7279143D01*
X24309095Y-7326762D01*
X24213857Y-7374381D01*
X24023380Y-7374381D01*
X23928142Y-7326762D01*
X23880523Y-7279143D01*
X23832904Y-7183905D01*
X23832904Y-6945810D01*
X23880523Y-6850571D01*
X23928142Y-6802952D01*
X24023380Y-6755333D01*
X24213857Y-6755333D01*
X24309095Y-6802952D01*
X24356714Y-6850571D01*
X24404333Y-6945810D01*
X30373047Y-21196381D02*
X30706381Y-20720190D01*
X30944476Y-21196381D02*
X30944476Y-20196381D01*
X30563523Y-20196381D01*
X30468285Y-20244000D01*
X30420666Y-20291619D01*
X30373047Y-20386857D01*
X30373047Y-20529714D01*
X30420666Y-20624952D01*
X30468285Y-20672571D01*
X30563523Y-20720190D01*
X30944476Y-20720190D01*
X29992095Y-20291619D02*
X29944476Y-20244000D01*
X29849238Y-20196381D01*
X29611142Y-20196381D01*
X29515904Y-20244000D01*
X29468285Y-20291619D01*
X29420666Y-20386857D01*
X29420666Y-20482095D01*
X29468285Y-20624952D01*
X30039714Y-21196381D01*
X29420666Y-21196381D01*
X29039714Y-20291619D02*
X28992095Y-20244000D01*
X28896857Y-20196381D01*
X28658761Y-20196381D01*
X28563523Y-20244000D01*
X28515904Y-20291619D01*
X28468285Y-20386857D01*
X28468285Y-20482095D01*
X28515904Y-20624952D01*
X29087333Y-21196381D01*
X28468285Y-21196381D01*
X28134952Y-20196381D02*
X27468285Y-20196381D01*
X27896857Y-21196381D01*
X26690047Y-18296381D02*
X27023381Y-17820190D01*
X27261476Y-18296381D02*
X27261476Y-17296381D01*
X26880523Y-17296381D01*
X26785285Y-17344000D01*
X26737666Y-17391619D01*
X26690047Y-17486857D01*
X26690047Y-17629714D01*
X26737666Y-17724952D01*
X26785285Y-17772571D01*
X26880523Y-17820190D01*
X27261476Y-17820190D01*
X26309095Y-17391619D02*
X26261476Y-17344000D01*
X26166238Y-17296381D01*
X25928142Y-17296381D01*
X25832904Y-17344000D01*
X25785285Y-17391619D01*
X25737666Y-17486857D01*
X25737666Y-17582095D01*
X25785285Y-17724952D01*
X26356714Y-18296381D01*
X25737666Y-18296381D01*
X25356714Y-17391619D02*
X25309095Y-17344000D01*
X25213857Y-17296381D01*
X24975761Y-17296381D01*
X24880523Y-17344000D01*
X24832904Y-17391619D01*
X24785285Y-17486857D01*
X24785285Y-17582095D01*
X24832904Y-17724952D01*
X25404333Y-18296381D01*
X24785285Y-18296381D01*
X24213857Y-17724952D02*
X24309095Y-17677333D01*
X24356714Y-17629714D01*
X24404333Y-17534476D01*
X24404333Y-17486857D01*
X24356714Y-17391619D01*
X24309095Y-17344000D01*
X24213857Y-17296381D01*
X24023380Y-17296381D01*
X23928142Y-17344000D01*
X23880523Y-17391619D01*
X23832904Y-17486857D01*
X23832904Y-17534476D01*
X23880523Y-17629714D01*
X23928142Y-17677333D01*
X24023380Y-17724952D01*
X24213857Y-17724952D01*
X24309095Y-17772571D01*
X24356714Y-17820190D01*
X24404333Y-17915429D01*
X24404333Y-18105905D01*
X24356714Y-18201143D01*
X24309095Y-18248762D01*
X24213857Y-18296381D01*
X24023380Y-18296381D01*
X23928142Y-18248762D01*
X23880523Y-18201143D01*
X23832904Y-18105905D01*
X23832904Y-17915429D01*
X23880523Y-17820190D01*
X23928142Y-17772571D01*
X24023380Y-17724952D01*
X37713647Y-10274381D02*
X38046981Y-9798190D01*
X38285076Y-10274381D02*
X38285076Y-9274381D01*
X37904123Y-9274381D01*
X37808885Y-9322000D01*
X37761266Y-9369619D01*
X37713647Y-9464857D01*
X37713647Y-9607714D01*
X37761266Y-9702952D01*
X37808885Y-9750571D01*
X37904123Y-9798190D01*
X38285076Y-9798190D01*
X37332695Y-9369619D02*
X37285076Y-9322000D01*
X37189838Y-9274381D01*
X36951742Y-9274381D01*
X36856504Y-9322000D01*
X36808885Y-9369619D01*
X36761266Y-9464857D01*
X36761266Y-9560095D01*
X36808885Y-9702952D01*
X37380314Y-10274381D01*
X36761266Y-10274381D01*
X36380314Y-9369619D02*
X36332695Y-9322000D01*
X36237457Y-9274381D01*
X35999361Y-9274381D01*
X35904123Y-9322000D01*
X35856504Y-9369619D01*
X35808885Y-9464857D01*
X35808885Y-9560095D01*
X35856504Y-9702952D01*
X36427933Y-10274381D01*
X35808885Y-10274381D01*
X35332695Y-10274381D02*
X35142219Y-10274381D01*
X35046980Y-10226762D01*
X34999361Y-10179143D01*
X34904123Y-10036286D01*
X34856504Y-9845810D01*
X34856504Y-9464857D01*
X34904123Y-9369619D01*
X34951742Y-9322000D01*
X35046980Y-9274381D01*
X35237457Y-9274381D01*
X35332695Y-9322000D01*
X35380314Y-9369619D01*
X35427933Y-9464857D01*
X35427933Y-9702952D01*
X35380314Y-9798190D01*
X35332695Y-9845810D01*
X35237457Y-9893429D01*
X35046980Y-9893429D01*
X34951742Y-9845810D01*
X34904123Y-9798190D01*
X34856504Y-9702952D01*
X34030647Y-7374381D02*
X34363981Y-6898190D01*
X34602076Y-7374381D02*
X34602076Y-6374381D01*
X34221123Y-6374381D01*
X34125885Y-6422000D01*
X34078266Y-6469619D01*
X34030647Y-6564857D01*
X34030647Y-6707714D01*
X34078266Y-6802952D01*
X34125885Y-6850571D01*
X34221123Y-6898190D01*
X34602076Y-6898190D01*
X33649695Y-6469619D02*
X33602076Y-6422000D01*
X33506838Y-6374381D01*
X33268742Y-6374381D01*
X33173504Y-6422000D01*
X33125885Y-6469619D01*
X33078266Y-6564857D01*
X33078266Y-6660095D01*
X33125885Y-6802952D01*
X33697314Y-7374381D01*
X33078266Y-7374381D01*
X32744933Y-6374381D02*
X32125885Y-6374381D01*
X32459219Y-6755333D01*
X32316361Y-6755333D01*
X32221123Y-6802952D01*
X32173504Y-6850571D01*
X32125885Y-6945810D01*
X32125885Y-7183905D01*
X32173504Y-7279143D01*
X32221123Y-7326762D01*
X32316361Y-7374381D01*
X32602076Y-7374381D01*
X32697314Y-7326762D01*
X32744933Y-7279143D01*
X31506838Y-6374381D02*
X31411599Y-6374381D01*
X31316361Y-6422000D01*
X31268742Y-6469619D01*
X31221123Y-6564857D01*
X31173504Y-6755333D01*
X31173504Y-6993429D01*
X31221123Y-7183905D01*
X31268742Y-7279143D01*
X31316361Y-7326762D01*
X31411599Y-7374381D01*
X31506838Y-7374381D01*
X31602076Y-7326762D01*
X31649695Y-7279143D01*
X31697314Y-7183905D01*
X31744933Y-6993429D01*
X31744933Y-6755333D01*
X31697314Y-6564857D01*
X31649695Y-6469619D01*
X31602076Y-6422000D01*
X31506838Y-6374381D01*
X37739047Y-21196381D02*
X38072381Y-20720190D01*
X38310476Y-21196381D02*
X38310476Y-20196381D01*
X37929523Y-20196381D01*
X37834285Y-20244000D01*
X37786666Y-20291619D01*
X37739047Y-20386857D01*
X37739047Y-20529714D01*
X37786666Y-20624952D01*
X37834285Y-20672571D01*
X37929523Y-20720190D01*
X38310476Y-20720190D01*
X37358095Y-20291619D02*
X37310476Y-20244000D01*
X37215238Y-20196381D01*
X36977142Y-20196381D01*
X36881904Y-20244000D01*
X36834285Y-20291619D01*
X36786666Y-20386857D01*
X36786666Y-20482095D01*
X36834285Y-20624952D01*
X37405714Y-21196381D01*
X36786666Y-21196381D01*
X36453333Y-20196381D02*
X35834285Y-20196381D01*
X36167619Y-20577333D01*
X36024761Y-20577333D01*
X35929523Y-20624952D01*
X35881904Y-20672571D01*
X35834285Y-20767810D01*
X35834285Y-21005905D01*
X35881904Y-21101143D01*
X35929523Y-21148762D01*
X36024761Y-21196381D01*
X36310476Y-21196381D01*
X36405714Y-21148762D01*
X36453333Y-21101143D01*
X34881904Y-21196381D02*
X35453333Y-21196381D01*
X35167619Y-21196381D02*
X35167619Y-20196381D01*
X35262857Y-20339238D01*
X35358095Y-20434476D01*
X35453333Y-20482095D01*
X34056047Y-18296381D02*
X34389381Y-17820190D01*
X34627476Y-18296381D02*
X34627476Y-17296381D01*
X34246523Y-17296381D01*
X34151285Y-17344000D01*
X34103666Y-17391619D01*
X34056047Y-17486857D01*
X34056047Y-17629714D01*
X34103666Y-17724952D01*
X34151285Y-17772571D01*
X34246523Y-17820190D01*
X34627476Y-17820190D01*
X33675095Y-17391619D02*
X33627476Y-17344000D01*
X33532238Y-17296381D01*
X33294142Y-17296381D01*
X33198904Y-17344000D01*
X33151285Y-17391619D01*
X33103666Y-17486857D01*
X33103666Y-17582095D01*
X33151285Y-17724952D01*
X33722714Y-18296381D01*
X33103666Y-18296381D01*
X32770333Y-17296381D02*
X32151285Y-17296381D01*
X32484619Y-17677333D01*
X32341761Y-17677333D01*
X32246523Y-17724952D01*
X32198904Y-17772571D01*
X32151285Y-17867810D01*
X32151285Y-18105905D01*
X32198904Y-18201143D01*
X32246523Y-18248762D01*
X32341761Y-18296381D01*
X32627476Y-18296381D01*
X32722714Y-18248762D01*
X32770333Y-18201143D01*
X31770333Y-17391619D02*
X31722714Y-17344000D01*
X31627476Y-17296381D01*
X31389380Y-17296381D01*
X31294142Y-17344000D01*
X31246523Y-17391619D01*
X31198904Y-17486857D01*
X31198904Y-17582095D01*
X31246523Y-17724952D01*
X31817952Y-18296381D01*
X31198904Y-18296381D01*
X45105047Y-10274381D02*
X45438381Y-9798190D01*
X45676476Y-10274381D02*
X45676476Y-9274381D01*
X45295523Y-9274381D01*
X45200285Y-9322000D01*
X45152666Y-9369619D01*
X45105047Y-9464857D01*
X45105047Y-9607714D01*
X45152666Y-9702952D01*
X45200285Y-9750571D01*
X45295523Y-9798190D01*
X45676476Y-9798190D01*
X44724095Y-9369619D02*
X44676476Y-9322000D01*
X44581238Y-9274381D01*
X44343142Y-9274381D01*
X44247904Y-9322000D01*
X44200285Y-9369619D01*
X44152666Y-9464857D01*
X44152666Y-9560095D01*
X44200285Y-9702952D01*
X44771714Y-10274381D01*
X44152666Y-10274381D01*
X43819333Y-9274381D02*
X43200285Y-9274381D01*
X43533619Y-9655333D01*
X43390761Y-9655333D01*
X43295523Y-9702952D01*
X43247904Y-9750571D01*
X43200285Y-9845810D01*
X43200285Y-10083905D01*
X43247904Y-10179143D01*
X43295523Y-10226762D01*
X43390761Y-10274381D01*
X43676476Y-10274381D01*
X43771714Y-10226762D01*
X43819333Y-10179143D01*
X42866952Y-9274381D02*
X42247904Y-9274381D01*
X42581238Y-9655333D01*
X42438380Y-9655333D01*
X42343142Y-9702952D01*
X42295523Y-9750571D01*
X42247904Y-9845810D01*
X42247904Y-10083905D01*
X42295523Y-10179143D01*
X42343142Y-10226762D01*
X42438380Y-10274381D01*
X42724095Y-10274381D01*
X42819333Y-10226762D01*
X42866952Y-10179143D01*
X41422047Y-7374381D02*
X41755381Y-6898190D01*
X41993476Y-7374381D02*
X41993476Y-6374381D01*
X41612523Y-6374381D01*
X41517285Y-6422000D01*
X41469666Y-6469619D01*
X41422047Y-6564857D01*
X41422047Y-6707714D01*
X41469666Y-6802952D01*
X41517285Y-6850571D01*
X41612523Y-6898190D01*
X41993476Y-6898190D01*
X41041095Y-6469619D02*
X40993476Y-6422000D01*
X40898238Y-6374381D01*
X40660142Y-6374381D01*
X40564904Y-6422000D01*
X40517285Y-6469619D01*
X40469666Y-6564857D01*
X40469666Y-6660095D01*
X40517285Y-6802952D01*
X41088714Y-7374381D01*
X40469666Y-7374381D01*
X40136333Y-6374381D02*
X39517285Y-6374381D01*
X39850619Y-6755333D01*
X39707761Y-6755333D01*
X39612523Y-6802952D01*
X39564904Y-6850571D01*
X39517285Y-6945810D01*
X39517285Y-7183905D01*
X39564904Y-7279143D01*
X39612523Y-7326762D01*
X39707761Y-7374381D01*
X39993476Y-7374381D01*
X40088714Y-7326762D01*
X40136333Y-7279143D01*
X38660142Y-6707714D02*
X38660142Y-7374381D01*
X38898238Y-6326762D02*
X39136333Y-7041048D01*
X38517285Y-7041048D01*
X45105047Y-21196381D02*
X45438381Y-20720190D01*
X45676476Y-21196381D02*
X45676476Y-20196381D01*
X45295523Y-20196381D01*
X45200285Y-20244000D01*
X45152666Y-20291619D01*
X45105047Y-20386857D01*
X45105047Y-20529714D01*
X45152666Y-20624952D01*
X45200285Y-20672571D01*
X45295523Y-20720190D01*
X45676476Y-20720190D01*
X44724095Y-20291619D02*
X44676476Y-20244000D01*
X44581238Y-20196381D01*
X44343142Y-20196381D01*
X44247904Y-20244000D01*
X44200285Y-20291619D01*
X44152666Y-20386857D01*
X44152666Y-20482095D01*
X44200285Y-20624952D01*
X44771714Y-21196381D01*
X44152666Y-21196381D01*
X43819333Y-20196381D02*
X43200285Y-20196381D01*
X43533619Y-20577333D01*
X43390761Y-20577333D01*
X43295523Y-20624952D01*
X43247904Y-20672571D01*
X43200285Y-20767810D01*
X43200285Y-21005905D01*
X43247904Y-21101143D01*
X43295523Y-21148762D01*
X43390761Y-21196381D01*
X43676476Y-21196381D01*
X43771714Y-21148762D01*
X43819333Y-21101143D01*
X42295523Y-20196381D02*
X42771714Y-20196381D01*
X42819333Y-20672571D01*
X42771714Y-20624952D01*
X42676476Y-20577333D01*
X42438380Y-20577333D01*
X42343142Y-20624952D01*
X42295523Y-20672571D01*
X42247904Y-20767810D01*
X42247904Y-21005905D01*
X42295523Y-21101143D01*
X42343142Y-21148762D01*
X42438380Y-21196381D01*
X42676476Y-21196381D01*
X42771714Y-21148762D01*
X42819333Y-21101143D01*
X41422047Y-18296381D02*
X41755381Y-17820190D01*
X41993476Y-18296381D02*
X41993476Y-17296381D01*
X41612523Y-17296381D01*
X41517285Y-17344000D01*
X41469666Y-17391619D01*
X41422047Y-17486857D01*
X41422047Y-17629714D01*
X41469666Y-17724952D01*
X41517285Y-17772571D01*
X41612523Y-17820190D01*
X41993476Y-17820190D01*
X41041095Y-17391619D02*
X40993476Y-17344000D01*
X40898238Y-17296381D01*
X40660142Y-17296381D01*
X40564904Y-17344000D01*
X40517285Y-17391619D01*
X40469666Y-17486857D01*
X40469666Y-17582095D01*
X40517285Y-17724952D01*
X41088714Y-18296381D01*
X40469666Y-18296381D01*
X40136333Y-17296381D02*
X39517285Y-17296381D01*
X39850619Y-17677333D01*
X39707761Y-17677333D01*
X39612523Y-17724952D01*
X39564904Y-17772571D01*
X39517285Y-17867810D01*
X39517285Y-18105905D01*
X39564904Y-18201143D01*
X39612523Y-18248762D01*
X39707761Y-18296381D01*
X39993476Y-18296381D01*
X40088714Y-18248762D01*
X40136333Y-18201143D01*
X38660142Y-17296381D02*
X38850619Y-17296381D01*
X38945857Y-17344000D01*
X38993476Y-17391619D01*
X39088714Y-17534476D01*
X39136333Y-17724952D01*
X39136333Y-18105905D01*
X39088714Y-18201143D01*
X39041095Y-18248762D01*
X38945857Y-18296381D01*
X38755380Y-18296381D01*
X38660142Y-18248762D01*
X38612523Y-18201143D01*
X38564904Y-18105905D01*
X38564904Y-17867810D01*
X38612523Y-17772571D01*
X38660142Y-17724952D01*
X38755380Y-17677333D01*
X38945857Y-17677333D01*
X39041095Y-17724952D01*
X39088714Y-17772571D01*
X39136333Y-17867810D01*
X52471047Y-10274381D02*
X52804381Y-9798190D01*
X53042476Y-10274381D02*
X53042476Y-9274381D01*
X52661523Y-9274381D01*
X52566285Y-9322000D01*
X52518666Y-9369619D01*
X52471047Y-9464857D01*
X52471047Y-9607714D01*
X52518666Y-9702952D01*
X52566285Y-9750571D01*
X52661523Y-9798190D01*
X53042476Y-9798190D01*
X52090095Y-9369619D02*
X52042476Y-9322000D01*
X51947238Y-9274381D01*
X51709142Y-9274381D01*
X51613904Y-9322000D01*
X51566285Y-9369619D01*
X51518666Y-9464857D01*
X51518666Y-9560095D01*
X51566285Y-9702952D01*
X52137714Y-10274381D01*
X51518666Y-10274381D01*
X51185333Y-9274381D02*
X50566285Y-9274381D01*
X50899619Y-9655333D01*
X50756761Y-9655333D01*
X50661523Y-9702952D01*
X50613904Y-9750571D01*
X50566285Y-9845810D01*
X50566285Y-10083905D01*
X50613904Y-10179143D01*
X50661523Y-10226762D01*
X50756761Y-10274381D01*
X51042476Y-10274381D01*
X51137714Y-10226762D01*
X51185333Y-10179143D01*
X50232952Y-9274381D02*
X49566285Y-9274381D01*
X49994857Y-10274381D01*
X48788047Y-7374381D02*
X49121381Y-6898190D01*
X49359476Y-7374381D02*
X49359476Y-6374381D01*
X48978523Y-6374381D01*
X48883285Y-6422000D01*
X48835666Y-6469619D01*
X48788047Y-6564857D01*
X48788047Y-6707714D01*
X48835666Y-6802952D01*
X48883285Y-6850571D01*
X48978523Y-6898190D01*
X49359476Y-6898190D01*
X48407095Y-6469619D02*
X48359476Y-6422000D01*
X48264238Y-6374381D01*
X48026142Y-6374381D01*
X47930904Y-6422000D01*
X47883285Y-6469619D01*
X47835666Y-6564857D01*
X47835666Y-6660095D01*
X47883285Y-6802952D01*
X48454714Y-7374381D01*
X47835666Y-7374381D01*
X47502333Y-6374381D02*
X46883285Y-6374381D01*
X47216619Y-6755333D01*
X47073761Y-6755333D01*
X46978523Y-6802952D01*
X46930904Y-6850571D01*
X46883285Y-6945810D01*
X46883285Y-7183905D01*
X46930904Y-7279143D01*
X46978523Y-7326762D01*
X47073761Y-7374381D01*
X47359476Y-7374381D01*
X47454714Y-7326762D01*
X47502333Y-7279143D01*
X46311857Y-6802952D02*
X46407095Y-6755333D01*
X46454714Y-6707714D01*
X46502333Y-6612476D01*
X46502333Y-6564857D01*
X46454714Y-6469619D01*
X46407095Y-6422000D01*
X46311857Y-6374381D01*
X46121380Y-6374381D01*
X46026142Y-6422000D01*
X45978523Y-6469619D01*
X45930904Y-6564857D01*
X45930904Y-6612476D01*
X45978523Y-6707714D01*
X46026142Y-6755333D01*
X46121380Y-6802952D01*
X46311857Y-6802952D01*
X46407095Y-6850571D01*
X46454714Y-6898190D01*
X46502333Y-6993429D01*
X46502333Y-7183905D01*
X46454714Y-7279143D01*
X46407095Y-7326762D01*
X46311857Y-7374381D01*
X46121380Y-7374381D01*
X46026142Y-7326762D01*
X45978523Y-7279143D01*
X45930904Y-7183905D01*
X45930904Y-6993429D01*
X45978523Y-6898190D01*
X46026142Y-6850571D01*
X46121380Y-6802952D01*
X52471047Y-21196381D02*
X52804381Y-20720190D01*
X53042476Y-21196381D02*
X53042476Y-20196381D01*
X52661523Y-20196381D01*
X52566285Y-20244000D01*
X52518666Y-20291619D01*
X52471047Y-20386857D01*
X52471047Y-20529714D01*
X52518666Y-20624952D01*
X52566285Y-20672571D01*
X52661523Y-20720190D01*
X53042476Y-20720190D01*
X52090095Y-20291619D02*
X52042476Y-20244000D01*
X51947238Y-20196381D01*
X51709142Y-20196381D01*
X51613904Y-20244000D01*
X51566285Y-20291619D01*
X51518666Y-20386857D01*
X51518666Y-20482095D01*
X51566285Y-20624952D01*
X52137714Y-21196381D01*
X51518666Y-21196381D01*
X51185333Y-20196381D02*
X50566285Y-20196381D01*
X50899619Y-20577333D01*
X50756761Y-20577333D01*
X50661523Y-20624952D01*
X50613904Y-20672571D01*
X50566285Y-20767810D01*
X50566285Y-21005905D01*
X50613904Y-21101143D01*
X50661523Y-21148762D01*
X50756761Y-21196381D01*
X51042476Y-21196381D01*
X51137714Y-21148762D01*
X51185333Y-21101143D01*
X50090095Y-21196381D02*
X49899619Y-21196381D01*
X49804380Y-21148762D01*
X49756761Y-21101143D01*
X49661523Y-20958286D01*
X49613904Y-20767810D01*
X49613904Y-20386857D01*
X49661523Y-20291619D01*
X49709142Y-20244000D01*
X49804380Y-20196381D01*
X49994857Y-20196381D01*
X50090095Y-20244000D01*
X50137714Y-20291619D01*
X50185333Y-20386857D01*
X50185333Y-20624952D01*
X50137714Y-20720190D01*
X50090095Y-20767810D01*
X49994857Y-20815429D01*
X49804380Y-20815429D01*
X49709142Y-20767810D01*
X49661523Y-20720190D01*
X49613904Y-20624952D01*
X48788047Y-18296381D02*
X49121381Y-17820190D01*
X49359476Y-18296381D02*
X49359476Y-17296381D01*
X48978523Y-17296381D01*
X48883285Y-17344000D01*
X48835666Y-17391619D01*
X48788047Y-17486857D01*
X48788047Y-17629714D01*
X48835666Y-17724952D01*
X48883285Y-17772571D01*
X48978523Y-17820190D01*
X49359476Y-17820190D01*
X48407095Y-17391619D02*
X48359476Y-17344000D01*
X48264238Y-17296381D01*
X48026142Y-17296381D01*
X47930904Y-17344000D01*
X47883285Y-17391619D01*
X47835666Y-17486857D01*
X47835666Y-17582095D01*
X47883285Y-17724952D01*
X48454714Y-18296381D01*
X47835666Y-18296381D01*
X46978523Y-17629714D02*
X46978523Y-18296381D01*
X47216619Y-17248762D02*
X47454714Y-17963048D01*
X46835666Y-17963048D01*
X46264238Y-17296381D02*
X46168999Y-17296381D01*
X46073761Y-17344000D01*
X46026142Y-17391619D01*
X45978523Y-17486857D01*
X45930904Y-17677333D01*
X45930904Y-17915429D01*
X45978523Y-18105905D01*
X46026142Y-18201143D01*
X46073761Y-18248762D01*
X46168999Y-18296381D01*
X46264238Y-18296381D01*
X46359476Y-18248762D01*
X46407095Y-18201143D01*
X46454714Y-18105905D01*
X46502333Y-17915429D01*
X46502333Y-17677333D01*
X46454714Y-17486857D01*
X46407095Y-17391619D01*
X46359476Y-17344000D01*
X46264238Y-17296381D01*
X59837047Y-10274381D02*
X60170381Y-9798190D01*
X60408476Y-10274381D02*
X60408476Y-9274381D01*
X60027523Y-9274381D01*
X59932285Y-9322000D01*
X59884666Y-9369619D01*
X59837047Y-9464857D01*
X59837047Y-9607714D01*
X59884666Y-9702952D01*
X59932285Y-9750571D01*
X60027523Y-9798190D01*
X60408476Y-9798190D01*
X59456095Y-9369619D02*
X59408476Y-9322000D01*
X59313238Y-9274381D01*
X59075142Y-9274381D01*
X58979904Y-9322000D01*
X58932285Y-9369619D01*
X58884666Y-9464857D01*
X58884666Y-9560095D01*
X58932285Y-9702952D01*
X59503714Y-10274381D01*
X58884666Y-10274381D01*
X58027523Y-9607714D02*
X58027523Y-10274381D01*
X58265619Y-9226762D02*
X58503714Y-9941048D01*
X57884666Y-9941048D01*
X56979904Y-10274381D02*
X57551333Y-10274381D01*
X57265619Y-10274381D02*
X57265619Y-9274381D01*
X57360857Y-9417238D01*
X57456095Y-9512476D01*
X57551333Y-9560095D01*
X56154047Y-7374381D02*
X56487381Y-6898190D01*
X56725476Y-7374381D02*
X56725476Y-6374381D01*
X56344523Y-6374381D01*
X56249285Y-6422000D01*
X56201666Y-6469619D01*
X56154047Y-6564857D01*
X56154047Y-6707714D01*
X56201666Y-6802952D01*
X56249285Y-6850571D01*
X56344523Y-6898190D01*
X56725476Y-6898190D01*
X55773095Y-6469619D02*
X55725476Y-6422000D01*
X55630238Y-6374381D01*
X55392142Y-6374381D01*
X55296904Y-6422000D01*
X55249285Y-6469619D01*
X55201666Y-6564857D01*
X55201666Y-6660095D01*
X55249285Y-6802952D01*
X55820714Y-7374381D01*
X55201666Y-7374381D01*
X54344523Y-6707714D02*
X54344523Y-7374381D01*
X54582619Y-6326762D02*
X54820714Y-7041048D01*
X54201666Y-7041048D01*
X53868333Y-6469619D02*
X53820714Y-6422000D01*
X53725476Y-6374381D01*
X53487380Y-6374381D01*
X53392142Y-6422000D01*
X53344523Y-6469619D01*
X53296904Y-6564857D01*
X53296904Y-6660095D01*
X53344523Y-6802952D01*
X53915952Y-7374381D01*
X53296904Y-7374381D01*
X59837047Y-21196381D02*
X60170381Y-20720190D01*
X60408476Y-21196381D02*
X60408476Y-20196381D01*
X60027523Y-20196381D01*
X59932285Y-20244000D01*
X59884666Y-20291619D01*
X59837047Y-20386857D01*
X59837047Y-20529714D01*
X59884666Y-20624952D01*
X59932285Y-20672571D01*
X60027523Y-20720190D01*
X60408476Y-20720190D01*
X59456095Y-20291619D02*
X59408476Y-20244000D01*
X59313238Y-20196381D01*
X59075142Y-20196381D01*
X58979904Y-20244000D01*
X58932285Y-20291619D01*
X58884666Y-20386857D01*
X58884666Y-20482095D01*
X58932285Y-20624952D01*
X59503714Y-21196381D01*
X58884666Y-21196381D01*
X58027523Y-20529714D02*
X58027523Y-21196381D01*
X58265619Y-20148762D02*
X58503714Y-20863048D01*
X57884666Y-20863048D01*
X57598952Y-20196381D02*
X56979904Y-20196381D01*
X57313238Y-20577333D01*
X57170380Y-20577333D01*
X57075142Y-20624952D01*
X57027523Y-20672571D01*
X56979904Y-20767810D01*
X56979904Y-21005905D01*
X57027523Y-21101143D01*
X57075142Y-21148762D01*
X57170380Y-21196381D01*
X57456095Y-21196381D01*
X57551333Y-21148762D01*
X57598952Y-21101143D01*
X56154047Y-18296381D02*
X56487381Y-17820190D01*
X56725476Y-18296381D02*
X56725476Y-17296381D01*
X56344523Y-17296381D01*
X56249285Y-17344000D01*
X56201666Y-17391619D01*
X56154047Y-17486857D01*
X56154047Y-17629714D01*
X56201666Y-17724952D01*
X56249285Y-17772571D01*
X56344523Y-17820190D01*
X56725476Y-17820190D01*
X55773095Y-17391619D02*
X55725476Y-17344000D01*
X55630238Y-17296381D01*
X55392142Y-17296381D01*
X55296904Y-17344000D01*
X55249285Y-17391619D01*
X55201666Y-17486857D01*
X55201666Y-17582095D01*
X55249285Y-17724952D01*
X55820714Y-18296381D01*
X55201666Y-18296381D01*
X54344523Y-17629714D02*
X54344523Y-18296381D01*
X54582619Y-17248762D02*
X54820714Y-17963048D01*
X54201666Y-17963048D01*
X53392142Y-17629714D02*
X53392142Y-18296381D01*
X53630238Y-17248762D02*
X53868333Y-17963048D01*
X53249285Y-17963048D01*
X70378047Y-32626381D02*
X70711381Y-32150190D01*
X70949476Y-32626381D02*
X70949476Y-31626381D01*
X70568523Y-31626381D01*
X70473285Y-31674000D01*
X70425666Y-31721619D01*
X70378047Y-31816857D01*
X70378047Y-31959714D01*
X70425666Y-32054952D01*
X70473285Y-32102571D01*
X70568523Y-32150190D01*
X70949476Y-32150190D01*
X69997095Y-31721619D02*
X69949476Y-31674000D01*
X69854238Y-31626381D01*
X69616142Y-31626381D01*
X69520904Y-31674000D01*
X69473285Y-31721619D01*
X69425666Y-31816857D01*
X69425666Y-31912095D01*
X69473285Y-32054952D01*
X70044714Y-32626381D01*
X69425666Y-32626381D01*
X68568523Y-31959714D02*
X68568523Y-32626381D01*
X68806619Y-31578762D02*
X69044714Y-32293048D01*
X68425666Y-32293048D01*
X67568523Y-31626381D02*
X68044714Y-31626381D01*
X68092333Y-32102571D01*
X68044714Y-32054952D01*
X67949476Y-32007333D01*
X67711380Y-32007333D01*
X67616142Y-32054952D01*
X67568523Y-32102571D01*
X67520904Y-32197810D01*
X67520904Y-32435905D01*
X67568523Y-32531143D01*
X67616142Y-32578762D01*
X67711380Y-32626381D01*
X67949476Y-32626381D01*
X68044714Y-32578762D01*
X68092333Y-32531143D01*
X66695047Y-29726381D02*
X67028381Y-29250190D01*
X67266476Y-29726381D02*
X67266476Y-28726381D01*
X66885523Y-28726381D01*
X66790285Y-28774000D01*
X66742666Y-28821619D01*
X66695047Y-28916857D01*
X66695047Y-29059714D01*
X66742666Y-29154952D01*
X66790285Y-29202571D01*
X66885523Y-29250190D01*
X67266476Y-29250190D01*
X66314095Y-28821619D02*
X66266476Y-28774000D01*
X66171238Y-28726381D01*
X65933142Y-28726381D01*
X65837904Y-28774000D01*
X65790285Y-28821619D01*
X65742666Y-28916857D01*
X65742666Y-29012095D01*
X65790285Y-29154952D01*
X66361714Y-29726381D01*
X65742666Y-29726381D01*
X64885523Y-29059714D02*
X64885523Y-29726381D01*
X65123619Y-28678762D02*
X65361714Y-29393048D01*
X64742666Y-29393048D01*
X63933142Y-28726381D02*
X64123619Y-28726381D01*
X64218857Y-28774000D01*
X64266476Y-28821619D01*
X64361714Y-28964476D01*
X64409333Y-29154952D01*
X64409333Y-29535905D01*
X64361714Y-29631143D01*
X64314095Y-29678762D01*
X64218857Y-29726381D01*
X64028380Y-29726381D01*
X63933142Y-29678762D01*
X63885523Y-29631143D01*
X63837904Y-29535905D01*
X63837904Y-29297810D01*
X63885523Y-29202571D01*
X63933142Y-29154952D01*
X64028380Y-29107333D01*
X64218857Y-29107333D01*
X64314095Y-29154952D01*
X64361714Y-29202571D01*
X64409333Y-29297810D01*
X63012047Y-32626381D02*
X63345381Y-32150190D01*
X63583476Y-32626381D02*
X63583476Y-31626381D01*
X63202523Y-31626381D01*
X63107285Y-31674000D01*
X63059666Y-31721619D01*
X63012047Y-31816857D01*
X63012047Y-31959714D01*
X63059666Y-32054952D01*
X63107285Y-32102571D01*
X63202523Y-32150190D01*
X63583476Y-32150190D01*
X62631095Y-31721619D02*
X62583476Y-31674000D01*
X62488238Y-31626381D01*
X62250142Y-31626381D01*
X62154904Y-31674000D01*
X62107285Y-31721619D01*
X62059666Y-31816857D01*
X62059666Y-31912095D01*
X62107285Y-32054952D01*
X62678714Y-32626381D01*
X62059666Y-32626381D01*
X61202523Y-31959714D02*
X61202523Y-32626381D01*
X61440619Y-31578762D02*
X61678714Y-32293048D01*
X61059666Y-32293048D01*
X60773952Y-31626381D02*
X60107285Y-31626381D01*
X60535857Y-32626381D01*
X59329047Y-29726381D02*
X59662381Y-29250190D01*
X59900476Y-29726381D02*
X59900476Y-28726381D01*
X59519523Y-28726381D01*
X59424285Y-28774000D01*
X59376666Y-28821619D01*
X59329047Y-28916857D01*
X59329047Y-29059714D01*
X59376666Y-29154952D01*
X59424285Y-29202571D01*
X59519523Y-29250190D01*
X59900476Y-29250190D01*
X58948095Y-28821619D02*
X58900476Y-28774000D01*
X58805238Y-28726381D01*
X58567142Y-28726381D01*
X58471904Y-28774000D01*
X58424285Y-28821619D01*
X58376666Y-28916857D01*
X58376666Y-29012095D01*
X58424285Y-29154952D01*
X58995714Y-29726381D01*
X58376666Y-29726381D01*
X57519523Y-29059714D02*
X57519523Y-29726381D01*
X57757619Y-28678762D02*
X57995714Y-29393048D01*
X57376666Y-29393048D01*
X56852857Y-29154952D02*
X56948095Y-29107333D01*
X56995714Y-29059714D01*
X57043333Y-28964476D01*
X57043333Y-28916857D01*
X56995714Y-28821619D01*
X56948095Y-28774000D01*
X56852857Y-28726381D01*
X56662380Y-28726381D01*
X56567142Y-28774000D01*
X56519523Y-28821619D01*
X56471904Y-28916857D01*
X56471904Y-28964476D01*
X56519523Y-29059714D01*
X56567142Y-29107333D01*
X56662380Y-29154952D01*
X56852857Y-29154952D01*
X56948095Y-29202571D01*
X56995714Y-29250190D01*
X57043333Y-29345429D01*
X57043333Y-29535905D01*
X56995714Y-29631143D01*
X56948095Y-29678762D01*
X56852857Y-29726381D01*
X56662380Y-29726381D01*
X56567142Y-29678762D01*
X56519523Y-29631143D01*
X56471904Y-29535905D01*
X56471904Y-29345429D01*
X56519523Y-29250190D01*
X56567142Y-29202571D01*
X56662380Y-29154952D01*
X55646047Y-32626381D02*
X55979381Y-32150190D01*
X56217476Y-32626381D02*
X56217476Y-31626381D01*
X55836523Y-31626381D01*
X55741285Y-31674000D01*
X55693666Y-31721619D01*
X55646047Y-31816857D01*
X55646047Y-31959714D01*
X55693666Y-32054952D01*
X55741285Y-32102571D01*
X55836523Y-32150190D01*
X56217476Y-32150190D01*
X55265095Y-31721619D02*
X55217476Y-31674000D01*
X55122238Y-31626381D01*
X54884142Y-31626381D01*
X54788904Y-31674000D01*
X54741285Y-31721619D01*
X54693666Y-31816857D01*
X54693666Y-31912095D01*
X54741285Y-32054952D01*
X55312714Y-32626381D01*
X54693666Y-32626381D01*
X53836523Y-31959714D02*
X53836523Y-32626381D01*
X54074619Y-31578762D02*
X54312714Y-32293048D01*
X53693666Y-32293048D01*
X53265095Y-32626381D02*
X53074619Y-32626381D01*
X52979380Y-32578762D01*
X52931761Y-32531143D01*
X52836523Y-32388286D01*
X52788904Y-32197810D01*
X52788904Y-31816857D01*
X52836523Y-31721619D01*
X52884142Y-31674000D01*
X52979380Y-31626381D01*
X53169857Y-31626381D01*
X53265095Y-31674000D01*
X53312714Y-31721619D01*
X53360333Y-31816857D01*
X53360333Y-32054952D01*
X53312714Y-32150190D01*
X53265095Y-32197810D01*
X53169857Y-32245429D01*
X52979380Y-32245429D01*
X52884142Y-32197810D01*
X52836523Y-32150190D01*
X52788904Y-32054952D01*
X51963047Y-29726381D02*
X52296381Y-29250190D01*
X52534476Y-29726381D02*
X52534476Y-28726381D01*
X52153523Y-28726381D01*
X52058285Y-28774000D01*
X52010666Y-28821619D01*
X51963047Y-28916857D01*
X51963047Y-29059714D01*
X52010666Y-29154952D01*
X52058285Y-29202571D01*
X52153523Y-29250190D01*
X52534476Y-29250190D01*
X51582095Y-28821619D02*
X51534476Y-28774000D01*
X51439238Y-28726381D01*
X51201142Y-28726381D01*
X51105904Y-28774000D01*
X51058285Y-28821619D01*
X51010666Y-28916857D01*
X51010666Y-29012095D01*
X51058285Y-29154952D01*
X51629714Y-29726381D01*
X51010666Y-29726381D01*
X50105904Y-28726381D02*
X50582095Y-28726381D01*
X50629714Y-29202571D01*
X50582095Y-29154952D01*
X50486857Y-29107333D01*
X50248761Y-29107333D01*
X50153523Y-29154952D01*
X50105904Y-29202571D01*
X50058285Y-29297810D01*
X50058285Y-29535905D01*
X50105904Y-29631143D01*
X50153523Y-29678762D01*
X50248761Y-29726381D01*
X50486857Y-29726381D01*
X50582095Y-29678762D01*
X50629714Y-29631143D01*
X49439238Y-28726381D02*
X49343999Y-28726381D01*
X49248761Y-28774000D01*
X49201142Y-28821619D01*
X49153523Y-28916857D01*
X49105904Y-29107333D01*
X49105904Y-29345429D01*
X49153523Y-29535905D01*
X49201142Y-29631143D01*
X49248761Y-29678762D01*
X49343999Y-29726381D01*
X49439238Y-29726381D01*
X49534476Y-29678762D01*
X49582095Y-29631143D01*
X49629714Y-29535905D01*
X49677333Y-29345429D01*
X49677333Y-29107333D01*
X49629714Y-28916857D01*
X49582095Y-28821619D01*
X49534476Y-28774000D01*
X49439238Y-28726381D01*
X48280047Y-32626381D02*
X48613381Y-32150190D01*
X48851476Y-32626381D02*
X48851476Y-31626381D01*
X48470523Y-31626381D01*
X48375285Y-31674000D01*
X48327666Y-31721619D01*
X48280047Y-31816857D01*
X48280047Y-31959714D01*
X48327666Y-32054952D01*
X48375285Y-32102571D01*
X48470523Y-32150190D01*
X48851476Y-32150190D01*
X47899095Y-31721619D02*
X47851476Y-31674000D01*
X47756238Y-31626381D01*
X47518142Y-31626381D01*
X47422904Y-31674000D01*
X47375285Y-31721619D01*
X47327666Y-31816857D01*
X47327666Y-31912095D01*
X47375285Y-32054952D01*
X47946714Y-32626381D01*
X47327666Y-32626381D01*
X46422904Y-31626381D02*
X46899095Y-31626381D01*
X46946714Y-32102571D01*
X46899095Y-32054952D01*
X46803857Y-32007333D01*
X46565761Y-32007333D01*
X46470523Y-32054952D01*
X46422904Y-32102571D01*
X46375285Y-32197810D01*
X46375285Y-32435905D01*
X46422904Y-32531143D01*
X46470523Y-32578762D01*
X46565761Y-32626381D01*
X46803857Y-32626381D01*
X46899095Y-32578762D01*
X46946714Y-32531143D01*
X45422904Y-32626381D02*
X45994333Y-32626381D01*
X45708619Y-32626381D02*
X45708619Y-31626381D01*
X45803857Y-31769238D01*
X45899095Y-31864476D01*
X45994333Y-31912095D01*
X44597047Y-29726381D02*
X44930381Y-29250190D01*
X45168476Y-29726381D02*
X45168476Y-28726381D01*
X44787523Y-28726381D01*
X44692285Y-28774000D01*
X44644666Y-28821619D01*
X44597047Y-28916857D01*
X44597047Y-29059714D01*
X44644666Y-29154952D01*
X44692285Y-29202571D01*
X44787523Y-29250190D01*
X45168476Y-29250190D01*
X44216095Y-28821619D02*
X44168476Y-28774000D01*
X44073238Y-28726381D01*
X43835142Y-28726381D01*
X43739904Y-28774000D01*
X43692285Y-28821619D01*
X43644666Y-28916857D01*
X43644666Y-29012095D01*
X43692285Y-29154952D01*
X44263714Y-29726381D01*
X43644666Y-29726381D01*
X42739904Y-28726381D02*
X43216095Y-28726381D01*
X43263714Y-29202571D01*
X43216095Y-29154952D01*
X43120857Y-29107333D01*
X42882761Y-29107333D01*
X42787523Y-29154952D01*
X42739904Y-29202571D01*
X42692285Y-29297810D01*
X42692285Y-29535905D01*
X42739904Y-29631143D01*
X42787523Y-29678762D01*
X42882761Y-29726381D01*
X43120857Y-29726381D01*
X43216095Y-29678762D01*
X43263714Y-29631143D01*
X42311333Y-28821619D02*
X42263714Y-28774000D01*
X42168476Y-28726381D01*
X41930380Y-28726381D01*
X41835142Y-28774000D01*
X41787523Y-28821619D01*
X41739904Y-28916857D01*
X41739904Y-29012095D01*
X41787523Y-29154952D01*
X42358952Y-29726381D01*
X41739904Y-29726381D01*
X40914047Y-32626381D02*
X41247381Y-32150190D01*
X41485476Y-32626381D02*
X41485476Y-31626381D01*
X41104523Y-31626381D01*
X41009285Y-31674000D01*
X40961666Y-31721619D01*
X40914047Y-31816857D01*
X40914047Y-31959714D01*
X40961666Y-32054952D01*
X41009285Y-32102571D01*
X41104523Y-32150190D01*
X41485476Y-32150190D01*
X40533095Y-31721619D02*
X40485476Y-31674000D01*
X40390238Y-31626381D01*
X40152142Y-31626381D01*
X40056904Y-31674000D01*
X40009285Y-31721619D01*
X39961666Y-31816857D01*
X39961666Y-31912095D01*
X40009285Y-32054952D01*
X40580714Y-32626381D01*
X39961666Y-32626381D01*
X39056904Y-31626381D02*
X39533095Y-31626381D01*
X39580714Y-32102571D01*
X39533095Y-32054952D01*
X39437857Y-32007333D01*
X39199761Y-32007333D01*
X39104523Y-32054952D01*
X39056904Y-32102571D01*
X39009285Y-32197810D01*
X39009285Y-32435905D01*
X39056904Y-32531143D01*
X39104523Y-32578762D01*
X39199761Y-32626381D01*
X39437857Y-32626381D01*
X39533095Y-32578762D01*
X39580714Y-32531143D01*
X38675952Y-31626381D02*
X38056904Y-31626381D01*
X38390238Y-32007333D01*
X38247380Y-32007333D01*
X38152142Y-32054952D01*
X38104523Y-32102571D01*
X38056904Y-32197810D01*
X38056904Y-32435905D01*
X38104523Y-32531143D01*
X38152142Y-32578762D01*
X38247380Y-32626381D01*
X38533095Y-32626381D01*
X38628333Y-32578762D01*
X38675952Y-32531143D01*
X37231047Y-29726381D02*
X37564381Y-29250190D01*
X37802476Y-29726381D02*
X37802476Y-28726381D01*
X37421523Y-28726381D01*
X37326285Y-28774000D01*
X37278666Y-28821619D01*
X37231047Y-28916857D01*
X37231047Y-29059714D01*
X37278666Y-29154952D01*
X37326285Y-29202571D01*
X37421523Y-29250190D01*
X37802476Y-29250190D01*
X36850095Y-28821619D02*
X36802476Y-28774000D01*
X36707238Y-28726381D01*
X36469142Y-28726381D01*
X36373904Y-28774000D01*
X36326285Y-28821619D01*
X36278666Y-28916857D01*
X36278666Y-29012095D01*
X36326285Y-29154952D01*
X36897714Y-29726381D01*
X36278666Y-29726381D01*
X35373904Y-28726381D02*
X35850095Y-28726381D01*
X35897714Y-29202571D01*
X35850095Y-29154952D01*
X35754857Y-29107333D01*
X35516761Y-29107333D01*
X35421523Y-29154952D01*
X35373904Y-29202571D01*
X35326285Y-29297810D01*
X35326285Y-29535905D01*
X35373904Y-29631143D01*
X35421523Y-29678762D01*
X35516761Y-29726381D01*
X35754857Y-29726381D01*
X35850095Y-29678762D01*
X35897714Y-29631143D01*
X34469142Y-29059714D02*
X34469142Y-29726381D01*
X34707238Y-28678762D02*
X34945333Y-29393048D01*
X34326285Y-29393048D01*
X33522647Y-32626381D02*
X33855981Y-32150190D01*
X34094076Y-32626381D02*
X34094076Y-31626381D01*
X33713123Y-31626381D01*
X33617885Y-31674000D01*
X33570266Y-31721619D01*
X33522647Y-31816857D01*
X33522647Y-31959714D01*
X33570266Y-32054952D01*
X33617885Y-32102571D01*
X33713123Y-32150190D01*
X34094076Y-32150190D01*
X33141695Y-31721619D02*
X33094076Y-31674000D01*
X32998838Y-31626381D01*
X32760742Y-31626381D01*
X32665504Y-31674000D01*
X32617885Y-31721619D01*
X32570266Y-31816857D01*
X32570266Y-31912095D01*
X32617885Y-32054952D01*
X33189314Y-32626381D01*
X32570266Y-32626381D01*
X31665504Y-31626381D02*
X32141695Y-31626381D01*
X32189314Y-32102571D01*
X32141695Y-32054952D01*
X32046457Y-32007333D01*
X31808361Y-32007333D01*
X31713123Y-32054952D01*
X31665504Y-32102571D01*
X31617885Y-32197810D01*
X31617885Y-32435905D01*
X31665504Y-32531143D01*
X31713123Y-32578762D01*
X31808361Y-32626381D01*
X32046457Y-32626381D01*
X32141695Y-32578762D01*
X32189314Y-32531143D01*
X30713123Y-31626381D02*
X31189314Y-31626381D01*
X31236933Y-32102571D01*
X31189314Y-32054952D01*
X31094076Y-32007333D01*
X30855980Y-32007333D01*
X30760742Y-32054952D01*
X30713123Y-32102571D01*
X30665504Y-32197810D01*
X30665504Y-32435905D01*
X30713123Y-32531143D01*
X30760742Y-32578762D01*
X30855980Y-32626381D01*
X31094076Y-32626381D01*
X31189314Y-32578762D01*
X31236933Y-32531143D01*
X29839647Y-29726381D02*
X30172981Y-29250190D01*
X30411076Y-29726381D02*
X30411076Y-28726381D01*
X30030123Y-28726381D01*
X29934885Y-28774000D01*
X29887266Y-28821619D01*
X29839647Y-28916857D01*
X29839647Y-29059714D01*
X29887266Y-29154952D01*
X29934885Y-29202571D01*
X30030123Y-29250190D01*
X30411076Y-29250190D01*
X29458695Y-28821619D02*
X29411076Y-28774000D01*
X29315838Y-28726381D01*
X29077742Y-28726381D01*
X28982504Y-28774000D01*
X28934885Y-28821619D01*
X28887266Y-28916857D01*
X28887266Y-29012095D01*
X28934885Y-29154952D01*
X29506314Y-29726381D01*
X28887266Y-29726381D01*
X27982504Y-28726381D02*
X28458695Y-28726381D01*
X28506314Y-29202571D01*
X28458695Y-29154952D01*
X28363457Y-29107333D01*
X28125361Y-29107333D01*
X28030123Y-29154952D01*
X27982504Y-29202571D01*
X27934885Y-29297810D01*
X27934885Y-29535905D01*
X27982504Y-29631143D01*
X28030123Y-29678762D01*
X28125361Y-29726381D01*
X28363457Y-29726381D01*
X28458695Y-29678762D01*
X28506314Y-29631143D01*
X27077742Y-28726381D02*
X27268219Y-28726381D01*
X27363457Y-28774000D01*
X27411076Y-28821619D01*
X27506314Y-28964476D01*
X27553933Y-29154952D01*
X27553933Y-29535905D01*
X27506314Y-29631143D01*
X27458695Y-29678762D01*
X27363457Y-29726381D01*
X27172980Y-29726381D01*
X27077742Y-29678762D01*
X27030123Y-29631143D01*
X26982504Y-29535905D01*
X26982504Y-29297810D01*
X27030123Y-29202571D01*
X27077742Y-29154952D01*
X27172980Y-29107333D01*
X27363457Y-29107333D01*
X27458695Y-29154952D01*
X27506314Y-29202571D01*
X27553933Y-29297810D01*
X96667047Y-21196381D02*
X97000381Y-20720190D01*
X97238476Y-21196381D02*
X97238476Y-20196381D01*
X96857523Y-20196381D01*
X96762285Y-20244000D01*
X96714666Y-20291619D01*
X96667047Y-20386857D01*
X96667047Y-20529714D01*
X96714666Y-20624952D01*
X96762285Y-20672571D01*
X96857523Y-20720190D01*
X97238476Y-20720190D01*
X96286095Y-20291619D02*
X96238476Y-20244000D01*
X96143238Y-20196381D01*
X95905142Y-20196381D01*
X95809904Y-20244000D01*
X95762285Y-20291619D01*
X95714666Y-20386857D01*
X95714666Y-20482095D01*
X95762285Y-20624952D01*
X96333714Y-21196381D01*
X95714666Y-21196381D01*
X94809904Y-20196381D02*
X95286095Y-20196381D01*
X95333714Y-20672571D01*
X95286095Y-20624952D01*
X95190857Y-20577333D01*
X94952761Y-20577333D01*
X94857523Y-20624952D01*
X94809904Y-20672571D01*
X94762285Y-20767810D01*
X94762285Y-21005905D01*
X94809904Y-21101143D01*
X94857523Y-21148762D01*
X94952761Y-21196381D01*
X95190857Y-21196381D01*
X95286095Y-21148762D01*
X95333714Y-21101143D01*
X94428952Y-20196381D02*
X93762285Y-20196381D01*
X94190857Y-21196381D01*
X92984047Y-18296381D02*
X93317381Y-17820190D01*
X93555476Y-18296381D02*
X93555476Y-17296381D01*
X93174523Y-17296381D01*
X93079285Y-17344000D01*
X93031666Y-17391619D01*
X92984047Y-17486857D01*
X92984047Y-17629714D01*
X93031666Y-17724952D01*
X93079285Y-17772571D01*
X93174523Y-17820190D01*
X93555476Y-17820190D01*
X92603095Y-17391619D02*
X92555476Y-17344000D01*
X92460238Y-17296381D01*
X92222142Y-17296381D01*
X92126904Y-17344000D01*
X92079285Y-17391619D01*
X92031666Y-17486857D01*
X92031666Y-17582095D01*
X92079285Y-17724952D01*
X92650714Y-18296381D01*
X92031666Y-18296381D01*
X91126904Y-17296381D02*
X91603095Y-17296381D01*
X91650714Y-17772571D01*
X91603095Y-17724952D01*
X91507857Y-17677333D01*
X91269761Y-17677333D01*
X91174523Y-17724952D01*
X91126904Y-17772571D01*
X91079285Y-17867810D01*
X91079285Y-18105905D01*
X91126904Y-18201143D01*
X91174523Y-18248762D01*
X91269761Y-18296381D01*
X91507857Y-18296381D01*
X91603095Y-18248762D01*
X91650714Y-18201143D01*
X90507857Y-17724952D02*
X90603095Y-17677333D01*
X90650714Y-17629714D01*
X90698333Y-17534476D01*
X90698333Y-17486857D01*
X90650714Y-17391619D01*
X90603095Y-17344000D01*
X90507857Y-17296381D01*
X90317380Y-17296381D01*
X90222142Y-17344000D01*
X90174523Y-17391619D01*
X90126904Y-17486857D01*
X90126904Y-17534476D01*
X90174523Y-17629714D01*
X90222142Y-17677333D01*
X90317380Y-17724952D01*
X90507857Y-17724952D01*
X90603095Y-17772571D01*
X90650714Y-17820190D01*
X90698333Y-17915429D01*
X90698333Y-18105905D01*
X90650714Y-18201143D01*
X90603095Y-18248762D01*
X90507857Y-18296381D01*
X90317380Y-18296381D01*
X90222142Y-18248762D01*
X90174523Y-18201143D01*
X90126904Y-18105905D01*
X90126904Y-17915429D01*
X90174523Y-17820190D01*
X90222142Y-17772571D01*
X90317380Y-17724952D01*
X96667047Y-10274381D02*
X97000381Y-9798190D01*
X97238476Y-10274381D02*
X97238476Y-9274381D01*
X96857523Y-9274381D01*
X96762285Y-9322000D01*
X96714666Y-9369619D01*
X96667047Y-9464857D01*
X96667047Y-9607714D01*
X96714666Y-9702952D01*
X96762285Y-9750571D01*
X96857523Y-9798190D01*
X97238476Y-9798190D01*
X96286095Y-9369619D02*
X96238476Y-9322000D01*
X96143238Y-9274381D01*
X95905142Y-9274381D01*
X95809904Y-9322000D01*
X95762285Y-9369619D01*
X95714666Y-9464857D01*
X95714666Y-9560095D01*
X95762285Y-9702952D01*
X96333714Y-10274381D01*
X95714666Y-10274381D01*
X94809904Y-9274381D02*
X95286095Y-9274381D01*
X95333714Y-9750571D01*
X95286095Y-9702952D01*
X95190857Y-9655333D01*
X94952761Y-9655333D01*
X94857523Y-9702952D01*
X94809904Y-9750571D01*
X94762285Y-9845810D01*
X94762285Y-10083905D01*
X94809904Y-10179143D01*
X94857523Y-10226762D01*
X94952761Y-10274381D01*
X95190857Y-10274381D01*
X95286095Y-10226762D01*
X95333714Y-10179143D01*
X94286095Y-10274381D02*
X94095619Y-10274381D01*
X94000380Y-10226762D01*
X93952761Y-10179143D01*
X93857523Y-10036286D01*
X93809904Y-9845810D01*
X93809904Y-9464857D01*
X93857523Y-9369619D01*
X93905142Y-9322000D01*
X94000380Y-9274381D01*
X94190857Y-9274381D01*
X94286095Y-9322000D01*
X94333714Y-9369619D01*
X94381333Y-9464857D01*
X94381333Y-9702952D01*
X94333714Y-9798190D01*
X94286095Y-9845810D01*
X94190857Y-9893429D01*
X94000380Y-9893429D01*
X93905142Y-9845810D01*
X93857523Y-9798190D01*
X93809904Y-9702952D01*
X92984047Y-7374381D02*
X93317381Y-6898190D01*
X93555476Y-7374381D02*
X93555476Y-6374381D01*
X93174523Y-6374381D01*
X93079285Y-6422000D01*
X93031666Y-6469619D01*
X92984047Y-6564857D01*
X92984047Y-6707714D01*
X93031666Y-6802952D01*
X93079285Y-6850571D01*
X93174523Y-6898190D01*
X93555476Y-6898190D01*
X92603095Y-6469619D02*
X92555476Y-6422000D01*
X92460238Y-6374381D01*
X92222142Y-6374381D01*
X92126904Y-6422000D01*
X92079285Y-6469619D01*
X92031666Y-6564857D01*
X92031666Y-6660095D01*
X92079285Y-6802952D01*
X92650714Y-7374381D01*
X92031666Y-7374381D01*
X91174523Y-6374381D02*
X91365000Y-6374381D01*
X91460238Y-6422000D01*
X91507857Y-6469619D01*
X91603095Y-6612476D01*
X91650714Y-6802952D01*
X91650714Y-7183905D01*
X91603095Y-7279143D01*
X91555476Y-7326762D01*
X91460238Y-7374381D01*
X91269761Y-7374381D01*
X91174523Y-7326762D01*
X91126904Y-7279143D01*
X91079285Y-7183905D01*
X91079285Y-6945810D01*
X91126904Y-6850571D01*
X91174523Y-6802952D01*
X91269761Y-6755333D01*
X91460238Y-6755333D01*
X91555476Y-6802952D01*
X91603095Y-6850571D01*
X91650714Y-6945810D01*
X90460238Y-6374381D02*
X90364999Y-6374381D01*
X90269761Y-6422000D01*
X90222142Y-6469619D01*
X90174523Y-6564857D01*
X90126904Y-6755333D01*
X90126904Y-6993429D01*
X90174523Y-7183905D01*
X90222142Y-7279143D01*
X90269761Y-7326762D01*
X90364999Y-7374381D01*
X90460238Y-7374381D01*
X90555476Y-7326762D01*
X90603095Y-7279143D01*
X90650714Y-7183905D01*
X90698333Y-6993429D01*
X90698333Y-6755333D01*
X90650714Y-6564857D01*
X90603095Y-6469619D01*
X90555476Y-6422000D01*
X90460238Y-6374381D01*
X89301047Y-21196381D02*
X89634381Y-20720190D01*
X89872476Y-21196381D02*
X89872476Y-20196381D01*
X89491523Y-20196381D01*
X89396285Y-20244000D01*
X89348666Y-20291619D01*
X89301047Y-20386857D01*
X89301047Y-20529714D01*
X89348666Y-20624952D01*
X89396285Y-20672571D01*
X89491523Y-20720190D01*
X89872476Y-20720190D01*
X88920095Y-20291619D02*
X88872476Y-20244000D01*
X88777238Y-20196381D01*
X88539142Y-20196381D01*
X88443904Y-20244000D01*
X88396285Y-20291619D01*
X88348666Y-20386857D01*
X88348666Y-20482095D01*
X88396285Y-20624952D01*
X88967714Y-21196381D01*
X88348666Y-21196381D01*
X87491523Y-20196381D02*
X87682000Y-20196381D01*
X87777238Y-20244000D01*
X87824857Y-20291619D01*
X87920095Y-20434476D01*
X87967714Y-20624952D01*
X87967714Y-21005905D01*
X87920095Y-21101143D01*
X87872476Y-21148762D01*
X87777238Y-21196381D01*
X87586761Y-21196381D01*
X87491523Y-21148762D01*
X87443904Y-21101143D01*
X87396285Y-21005905D01*
X87396285Y-20767810D01*
X87443904Y-20672571D01*
X87491523Y-20624952D01*
X87586761Y-20577333D01*
X87777238Y-20577333D01*
X87872476Y-20624952D01*
X87920095Y-20672571D01*
X87967714Y-20767810D01*
X86443904Y-21196381D02*
X87015333Y-21196381D01*
X86729619Y-21196381D02*
X86729619Y-20196381D01*
X86824857Y-20339238D01*
X86920095Y-20434476D01*
X87015333Y-20482095D01*
X85618047Y-18296381D02*
X85951381Y-17820190D01*
X86189476Y-18296381D02*
X86189476Y-17296381D01*
X85808523Y-17296381D01*
X85713285Y-17344000D01*
X85665666Y-17391619D01*
X85618047Y-17486857D01*
X85618047Y-17629714D01*
X85665666Y-17724952D01*
X85713285Y-17772571D01*
X85808523Y-17820190D01*
X86189476Y-17820190D01*
X85237095Y-17391619D02*
X85189476Y-17344000D01*
X85094238Y-17296381D01*
X84856142Y-17296381D01*
X84760904Y-17344000D01*
X84713285Y-17391619D01*
X84665666Y-17486857D01*
X84665666Y-17582095D01*
X84713285Y-17724952D01*
X85284714Y-18296381D01*
X84665666Y-18296381D01*
X83808523Y-17296381D02*
X83999000Y-17296381D01*
X84094238Y-17344000D01*
X84141857Y-17391619D01*
X84237095Y-17534476D01*
X84284714Y-17724952D01*
X84284714Y-18105905D01*
X84237095Y-18201143D01*
X84189476Y-18248762D01*
X84094238Y-18296381D01*
X83903761Y-18296381D01*
X83808523Y-18248762D01*
X83760904Y-18201143D01*
X83713285Y-18105905D01*
X83713285Y-17867810D01*
X83760904Y-17772571D01*
X83808523Y-17724952D01*
X83903761Y-17677333D01*
X84094238Y-17677333D01*
X84189476Y-17724952D01*
X84237095Y-17772571D01*
X84284714Y-17867810D01*
X83332333Y-17391619D02*
X83284714Y-17344000D01*
X83189476Y-17296381D01*
X82951380Y-17296381D01*
X82856142Y-17344000D01*
X82808523Y-17391619D01*
X82760904Y-17486857D01*
X82760904Y-17582095D01*
X82808523Y-17724952D01*
X83379952Y-18296381D01*
X82760904Y-18296381D01*
X89301047Y-10274381D02*
X89634381Y-9798190D01*
X89872476Y-10274381D02*
X89872476Y-9274381D01*
X89491523Y-9274381D01*
X89396285Y-9322000D01*
X89348666Y-9369619D01*
X89301047Y-9464857D01*
X89301047Y-9607714D01*
X89348666Y-9702952D01*
X89396285Y-9750571D01*
X89491523Y-9798190D01*
X89872476Y-9798190D01*
X88920095Y-9369619D02*
X88872476Y-9322000D01*
X88777238Y-9274381D01*
X88539142Y-9274381D01*
X88443904Y-9322000D01*
X88396285Y-9369619D01*
X88348666Y-9464857D01*
X88348666Y-9560095D01*
X88396285Y-9702952D01*
X88967714Y-10274381D01*
X88348666Y-10274381D01*
X87491523Y-9274381D02*
X87682000Y-9274381D01*
X87777238Y-9322000D01*
X87824857Y-9369619D01*
X87920095Y-9512476D01*
X87967714Y-9702952D01*
X87967714Y-10083905D01*
X87920095Y-10179143D01*
X87872476Y-10226762D01*
X87777238Y-10274381D01*
X87586761Y-10274381D01*
X87491523Y-10226762D01*
X87443904Y-10179143D01*
X87396285Y-10083905D01*
X87396285Y-9845810D01*
X87443904Y-9750571D01*
X87491523Y-9702952D01*
X87586761Y-9655333D01*
X87777238Y-9655333D01*
X87872476Y-9702952D01*
X87920095Y-9750571D01*
X87967714Y-9845810D01*
X87062952Y-9274381D02*
X86443904Y-9274381D01*
X86777238Y-9655333D01*
X86634380Y-9655333D01*
X86539142Y-9702952D01*
X86491523Y-9750571D01*
X86443904Y-9845810D01*
X86443904Y-10083905D01*
X86491523Y-10179143D01*
X86539142Y-10226762D01*
X86634380Y-10274381D01*
X86920095Y-10274381D01*
X87015333Y-10226762D01*
X87062952Y-10179143D01*
X85618047Y-7374381D02*
X85951381Y-6898190D01*
X86189476Y-7374381D02*
X86189476Y-6374381D01*
X85808523Y-6374381D01*
X85713285Y-6422000D01*
X85665666Y-6469619D01*
X85618047Y-6564857D01*
X85618047Y-6707714D01*
X85665666Y-6802952D01*
X85713285Y-6850571D01*
X85808523Y-6898190D01*
X86189476Y-6898190D01*
X85237095Y-6469619D02*
X85189476Y-6422000D01*
X85094238Y-6374381D01*
X84856142Y-6374381D01*
X84760904Y-6422000D01*
X84713285Y-6469619D01*
X84665666Y-6564857D01*
X84665666Y-6660095D01*
X84713285Y-6802952D01*
X85284714Y-7374381D01*
X84665666Y-7374381D01*
X83808523Y-6374381D02*
X83999000Y-6374381D01*
X84094238Y-6422000D01*
X84141857Y-6469619D01*
X84237095Y-6612476D01*
X84284714Y-6802952D01*
X84284714Y-7183905D01*
X84237095Y-7279143D01*
X84189476Y-7326762D01*
X84094238Y-7374381D01*
X83903761Y-7374381D01*
X83808523Y-7326762D01*
X83760904Y-7279143D01*
X83713285Y-7183905D01*
X83713285Y-6945810D01*
X83760904Y-6850571D01*
X83808523Y-6802952D01*
X83903761Y-6755333D01*
X84094238Y-6755333D01*
X84189476Y-6802952D01*
X84237095Y-6850571D01*
X84284714Y-6945810D01*
X82856142Y-6707714D02*
X82856142Y-7374381D01*
X83094238Y-6326762D02*
X83332333Y-7041048D01*
X82713285Y-7041048D01*
X81935047Y-21196381D02*
X82268381Y-20720190D01*
X82506476Y-21196381D02*
X82506476Y-20196381D01*
X82125523Y-20196381D01*
X82030285Y-20244000D01*
X81982666Y-20291619D01*
X81935047Y-20386857D01*
X81935047Y-20529714D01*
X81982666Y-20624952D01*
X82030285Y-20672571D01*
X82125523Y-20720190D01*
X82506476Y-20720190D01*
X81554095Y-20291619D02*
X81506476Y-20244000D01*
X81411238Y-20196381D01*
X81173142Y-20196381D01*
X81077904Y-20244000D01*
X81030285Y-20291619D01*
X80982666Y-20386857D01*
X80982666Y-20482095D01*
X81030285Y-20624952D01*
X81601714Y-21196381D01*
X80982666Y-21196381D01*
X80125523Y-20196381D02*
X80316000Y-20196381D01*
X80411238Y-20244000D01*
X80458857Y-20291619D01*
X80554095Y-20434476D01*
X80601714Y-20624952D01*
X80601714Y-21005905D01*
X80554095Y-21101143D01*
X80506476Y-21148762D01*
X80411238Y-21196381D01*
X80220761Y-21196381D01*
X80125523Y-21148762D01*
X80077904Y-21101143D01*
X80030285Y-21005905D01*
X80030285Y-20767810D01*
X80077904Y-20672571D01*
X80125523Y-20624952D01*
X80220761Y-20577333D01*
X80411238Y-20577333D01*
X80506476Y-20624952D01*
X80554095Y-20672571D01*
X80601714Y-20767810D01*
X79125523Y-20196381D02*
X79601714Y-20196381D01*
X79649333Y-20672571D01*
X79601714Y-20624952D01*
X79506476Y-20577333D01*
X79268380Y-20577333D01*
X79173142Y-20624952D01*
X79125523Y-20672571D01*
X79077904Y-20767810D01*
X79077904Y-21005905D01*
X79125523Y-21101143D01*
X79173142Y-21148762D01*
X79268380Y-21196381D01*
X79506476Y-21196381D01*
X79601714Y-21148762D01*
X79649333Y-21101143D01*
X78252047Y-18296381D02*
X78585381Y-17820190D01*
X78823476Y-18296381D02*
X78823476Y-17296381D01*
X78442523Y-17296381D01*
X78347285Y-17344000D01*
X78299666Y-17391619D01*
X78252047Y-17486857D01*
X78252047Y-17629714D01*
X78299666Y-17724952D01*
X78347285Y-17772571D01*
X78442523Y-17820190D01*
X78823476Y-17820190D01*
X77871095Y-17391619D02*
X77823476Y-17344000D01*
X77728238Y-17296381D01*
X77490142Y-17296381D01*
X77394904Y-17344000D01*
X77347285Y-17391619D01*
X77299666Y-17486857D01*
X77299666Y-17582095D01*
X77347285Y-17724952D01*
X77918714Y-18296381D01*
X77299666Y-18296381D01*
X76442523Y-17296381D02*
X76633000Y-17296381D01*
X76728238Y-17344000D01*
X76775857Y-17391619D01*
X76871095Y-17534476D01*
X76918714Y-17724952D01*
X76918714Y-18105905D01*
X76871095Y-18201143D01*
X76823476Y-18248762D01*
X76728238Y-18296381D01*
X76537761Y-18296381D01*
X76442523Y-18248762D01*
X76394904Y-18201143D01*
X76347285Y-18105905D01*
X76347285Y-17867810D01*
X76394904Y-17772571D01*
X76442523Y-17724952D01*
X76537761Y-17677333D01*
X76728238Y-17677333D01*
X76823476Y-17724952D01*
X76871095Y-17772571D01*
X76918714Y-17867810D01*
X75490142Y-17296381D02*
X75680619Y-17296381D01*
X75775857Y-17344000D01*
X75823476Y-17391619D01*
X75918714Y-17534476D01*
X75966333Y-17724952D01*
X75966333Y-18105905D01*
X75918714Y-18201143D01*
X75871095Y-18248762D01*
X75775857Y-18296381D01*
X75585380Y-18296381D01*
X75490142Y-18248762D01*
X75442523Y-18201143D01*
X75394904Y-18105905D01*
X75394904Y-17867810D01*
X75442523Y-17772571D01*
X75490142Y-17724952D01*
X75585380Y-17677333D01*
X75775857Y-17677333D01*
X75871095Y-17724952D01*
X75918714Y-17772571D01*
X75966333Y-17867810D01*
X81935047Y-10274381D02*
X82268381Y-9798190D01*
X82506476Y-10274381D02*
X82506476Y-9274381D01*
X82125523Y-9274381D01*
X82030285Y-9322000D01*
X81982666Y-9369619D01*
X81935047Y-9464857D01*
X81935047Y-9607714D01*
X81982666Y-9702952D01*
X82030285Y-9750571D01*
X82125523Y-9798190D01*
X82506476Y-9798190D01*
X81554095Y-9369619D02*
X81506476Y-9322000D01*
X81411238Y-9274381D01*
X81173142Y-9274381D01*
X81077904Y-9322000D01*
X81030285Y-9369619D01*
X80982666Y-9464857D01*
X80982666Y-9560095D01*
X81030285Y-9702952D01*
X81601714Y-10274381D01*
X80982666Y-10274381D01*
X80125523Y-9274381D02*
X80316000Y-9274381D01*
X80411238Y-9322000D01*
X80458857Y-9369619D01*
X80554095Y-9512476D01*
X80601714Y-9702952D01*
X80601714Y-10083905D01*
X80554095Y-10179143D01*
X80506476Y-10226762D01*
X80411238Y-10274381D01*
X80220761Y-10274381D01*
X80125523Y-10226762D01*
X80077904Y-10179143D01*
X80030285Y-10083905D01*
X80030285Y-9845810D01*
X80077904Y-9750571D01*
X80125523Y-9702952D01*
X80220761Y-9655333D01*
X80411238Y-9655333D01*
X80506476Y-9702952D01*
X80554095Y-9750571D01*
X80601714Y-9845810D01*
X79696952Y-9274381D02*
X79030285Y-9274381D01*
X79458857Y-10274381D01*
X78252047Y-7374381D02*
X78585381Y-6898190D01*
X78823476Y-7374381D02*
X78823476Y-6374381D01*
X78442523Y-6374381D01*
X78347285Y-6422000D01*
X78299666Y-6469619D01*
X78252047Y-6564857D01*
X78252047Y-6707714D01*
X78299666Y-6802952D01*
X78347285Y-6850571D01*
X78442523Y-6898190D01*
X78823476Y-6898190D01*
X77871095Y-6469619D02*
X77823476Y-6422000D01*
X77728238Y-6374381D01*
X77490142Y-6374381D01*
X77394904Y-6422000D01*
X77347285Y-6469619D01*
X77299666Y-6564857D01*
X77299666Y-6660095D01*
X77347285Y-6802952D01*
X77918714Y-7374381D01*
X77299666Y-7374381D01*
X76442523Y-6374381D02*
X76633000Y-6374381D01*
X76728238Y-6422000D01*
X76775857Y-6469619D01*
X76871095Y-6612476D01*
X76918714Y-6802952D01*
X76918714Y-7183905D01*
X76871095Y-7279143D01*
X76823476Y-7326762D01*
X76728238Y-7374381D01*
X76537761Y-7374381D01*
X76442523Y-7326762D01*
X76394904Y-7279143D01*
X76347285Y-7183905D01*
X76347285Y-6945810D01*
X76394904Y-6850571D01*
X76442523Y-6802952D01*
X76537761Y-6755333D01*
X76728238Y-6755333D01*
X76823476Y-6802952D01*
X76871095Y-6850571D01*
X76918714Y-6945810D01*
X75775857Y-6802952D02*
X75871095Y-6755333D01*
X75918714Y-6707714D01*
X75966333Y-6612476D01*
X75966333Y-6564857D01*
X75918714Y-6469619D01*
X75871095Y-6422000D01*
X75775857Y-6374381D01*
X75585380Y-6374381D01*
X75490142Y-6422000D01*
X75442523Y-6469619D01*
X75394904Y-6564857D01*
X75394904Y-6612476D01*
X75442523Y-6707714D01*
X75490142Y-6755333D01*
X75585380Y-6802952D01*
X75775857Y-6802952D01*
X75871095Y-6850571D01*
X75918714Y-6898190D01*
X75966333Y-6993429D01*
X75966333Y-7183905D01*
X75918714Y-7279143D01*
X75871095Y-7326762D01*
X75775857Y-7374381D01*
X75585380Y-7374381D01*
X75490142Y-7326762D01*
X75442523Y-7279143D01*
X75394904Y-7183905D01*
X75394904Y-6993429D01*
X75442523Y-6898190D01*
X75490142Y-6850571D01*
X75585380Y-6802952D01*
X74569047Y-21196381D02*
X74902381Y-20720190D01*
X75140476Y-21196381D02*
X75140476Y-20196381D01*
X74759523Y-20196381D01*
X74664285Y-20244000D01*
X74616666Y-20291619D01*
X74569047Y-20386857D01*
X74569047Y-20529714D01*
X74616666Y-20624952D01*
X74664285Y-20672571D01*
X74759523Y-20720190D01*
X75140476Y-20720190D01*
X74188095Y-20291619D02*
X74140476Y-20244000D01*
X74045238Y-20196381D01*
X73807142Y-20196381D01*
X73711904Y-20244000D01*
X73664285Y-20291619D01*
X73616666Y-20386857D01*
X73616666Y-20482095D01*
X73664285Y-20624952D01*
X74235714Y-21196381D01*
X73616666Y-21196381D01*
X72759523Y-20196381D02*
X72950000Y-20196381D01*
X73045238Y-20244000D01*
X73092857Y-20291619D01*
X73188095Y-20434476D01*
X73235714Y-20624952D01*
X73235714Y-21005905D01*
X73188095Y-21101143D01*
X73140476Y-21148762D01*
X73045238Y-21196381D01*
X72854761Y-21196381D01*
X72759523Y-21148762D01*
X72711904Y-21101143D01*
X72664285Y-21005905D01*
X72664285Y-20767810D01*
X72711904Y-20672571D01*
X72759523Y-20624952D01*
X72854761Y-20577333D01*
X73045238Y-20577333D01*
X73140476Y-20624952D01*
X73188095Y-20672571D01*
X73235714Y-20767810D01*
X72188095Y-21196381D02*
X71997619Y-21196381D01*
X71902380Y-21148762D01*
X71854761Y-21101143D01*
X71759523Y-20958286D01*
X71711904Y-20767810D01*
X71711904Y-20386857D01*
X71759523Y-20291619D01*
X71807142Y-20244000D01*
X71902380Y-20196381D01*
X72092857Y-20196381D01*
X72188095Y-20244000D01*
X72235714Y-20291619D01*
X72283333Y-20386857D01*
X72283333Y-20624952D01*
X72235714Y-20720190D01*
X72188095Y-20767810D01*
X72092857Y-20815429D01*
X71902380Y-20815429D01*
X71807142Y-20767810D01*
X71759523Y-20720190D01*
X71711904Y-20624952D01*
X70886047Y-18296381D02*
X71219381Y-17820190D01*
X71457476Y-18296381D02*
X71457476Y-17296381D01*
X71076523Y-17296381D01*
X70981285Y-17344000D01*
X70933666Y-17391619D01*
X70886047Y-17486857D01*
X70886047Y-17629714D01*
X70933666Y-17724952D01*
X70981285Y-17772571D01*
X71076523Y-17820190D01*
X71457476Y-17820190D01*
X70505095Y-17391619D02*
X70457476Y-17344000D01*
X70362238Y-17296381D01*
X70124142Y-17296381D01*
X70028904Y-17344000D01*
X69981285Y-17391619D01*
X69933666Y-17486857D01*
X69933666Y-17582095D01*
X69981285Y-17724952D01*
X70552714Y-18296381D01*
X69933666Y-18296381D01*
X69600333Y-17296381D02*
X68933666Y-17296381D01*
X69362238Y-18296381D01*
X68362238Y-17296381D02*
X68266999Y-17296381D01*
X68171761Y-17344000D01*
X68124142Y-17391619D01*
X68076523Y-17486857D01*
X68028904Y-17677333D01*
X68028904Y-17915429D01*
X68076523Y-18105905D01*
X68124142Y-18201143D01*
X68171761Y-18248762D01*
X68266999Y-18296381D01*
X68362238Y-18296381D01*
X68457476Y-18248762D01*
X68505095Y-18201143D01*
X68552714Y-18105905D01*
X68600333Y-17915429D01*
X68600333Y-17677333D01*
X68552714Y-17486857D01*
X68505095Y-17391619D01*
X68457476Y-17344000D01*
X68362238Y-17296381D01*
X74569047Y-10274381D02*
X74902381Y-9798190D01*
X75140476Y-10274381D02*
X75140476Y-9274381D01*
X74759523Y-9274381D01*
X74664285Y-9322000D01*
X74616666Y-9369619D01*
X74569047Y-9464857D01*
X74569047Y-9607714D01*
X74616666Y-9702952D01*
X74664285Y-9750571D01*
X74759523Y-9798190D01*
X75140476Y-9798190D01*
X74188095Y-9369619D02*
X74140476Y-9322000D01*
X74045238Y-9274381D01*
X73807142Y-9274381D01*
X73711904Y-9322000D01*
X73664285Y-9369619D01*
X73616666Y-9464857D01*
X73616666Y-9560095D01*
X73664285Y-9702952D01*
X74235714Y-10274381D01*
X73616666Y-10274381D01*
X73283333Y-9274381D02*
X72616666Y-9274381D01*
X73045238Y-10274381D01*
X71711904Y-10274381D02*
X72283333Y-10274381D01*
X71997619Y-10274381D02*
X71997619Y-9274381D01*
X72092857Y-9417238D01*
X72188095Y-9512476D01*
X72283333Y-9560095D01*
X70886047Y-7374381D02*
X71219381Y-6898190D01*
X71457476Y-7374381D02*
X71457476Y-6374381D01*
X71076523Y-6374381D01*
X70981285Y-6422000D01*
X70933666Y-6469619D01*
X70886047Y-6564857D01*
X70886047Y-6707714D01*
X70933666Y-6802952D01*
X70981285Y-6850571D01*
X71076523Y-6898190D01*
X71457476Y-6898190D01*
X70505095Y-6469619D02*
X70457476Y-6422000D01*
X70362238Y-6374381D01*
X70124142Y-6374381D01*
X70028904Y-6422000D01*
X69981285Y-6469619D01*
X69933666Y-6564857D01*
X69933666Y-6660095D01*
X69981285Y-6802952D01*
X70552714Y-7374381D01*
X69933666Y-7374381D01*
X69600333Y-6374381D02*
X68933666Y-6374381D01*
X69362238Y-7374381D01*
X68600333Y-6469619D02*
X68552714Y-6422000D01*
X68457476Y-6374381D01*
X68219380Y-6374381D01*
X68124142Y-6422000D01*
X68076523Y-6469619D01*
X68028904Y-6564857D01*
X68028904Y-6660095D01*
X68076523Y-6802952D01*
X68647952Y-7374381D01*
X68028904Y-7374381D01*
X67203047Y-21196381D02*
X67536381Y-20720190D01*
X67774476Y-21196381D02*
X67774476Y-20196381D01*
X67393523Y-20196381D01*
X67298285Y-20244000D01*
X67250666Y-20291619D01*
X67203047Y-20386857D01*
X67203047Y-20529714D01*
X67250666Y-20624952D01*
X67298285Y-20672571D01*
X67393523Y-20720190D01*
X67774476Y-20720190D01*
X66822095Y-20291619D02*
X66774476Y-20244000D01*
X66679238Y-20196381D01*
X66441142Y-20196381D01*
X66345904Y-20244000D01*
X66298285Y-20291619D01*
X66250666Y-20386857D01*
X66250666Y-20482095D01*
X66298285Y-20624952D01*
X66869714Y-21196381D01*
X66250666Y-21196381D01*
X65917333Y-20196381D02*
X65250666Y-20196381D01*
X65679238Y-21196381D01*
X64964952Y-20196381D02*
X64345904Y-20196381D01*
X64679238Y-20577333D01*
X64536380Y-20577333D01*
X64441142Y-20624952D01*
X64393523Y-20672571D01*
X64345904Y-20767810D01*
X64345904Y-21005905D01*
X64393523Y-21101143D01*
X64441142Y-21148762D01*
X64536380Y-21196381D01*
X64822095Y-21196381D01*
X64917333Y-21148762D01*
X64964952Y-21101143D01*
X63520047Y-18296381D02*
X63853381Y-17820190D01*
X64091476Y-18296381D02*
X64091476Y-17296381D01*
X63710523Y-17296381D01*
X63615285Y-17344000D01*
X63567666Y-17391619D01*
X63520047Y-17486857D01*
X63520047Y-17629714D01*
X63567666Y-17724952D01*
X63615285Y-17772571D01*
X63710523Y-17820190D01*
X64091476Y-17820190D01*
X63139095Y-17391619D02*
X63091476Y-17344000D01*
X62996238Y-17296381D01*
X62758142Y-17296381D01*
X62662904Y-17344000D01*
X62615285Y-17391619D01*
X62567666Y-17486857D01*
X62567666Y-17582095D01*
X62615285Y-17724952D01*
X63186714Y-18296381D01*
X62567666Y-18296381D01*
X62234333Y-17296381D02*
X61567666Y-17296381D01*
X61996238Y-18296381D01*
X60758142Y-17629714D02*
X60758142Y-18296381D01*
X60996238Y-17248762D02*
X61234333Y-17963048D01*
X60615285Y-17963048D01*
X67203047Y-10274381D02*
X67536381Y-9798190D01*
X67774476Y-10274381D02*
X67774476Y-9274381D01*
X67393523Y-9274381D01*
X67298285Y-9322000D01*
X67250666Y-9369619D01*
X67203047Y-9464857D01*
X67203047Y-9607714D01*
X67250666Y-9702952D01*
X67298285Y-9750571D01*
X67393523Y-9798190D01*
X67774476Y-9798190D01*
X66822095Y-9369619D02*
X66774476Y-9322000D01*
X66679238Y-9274381D01*
X66441142Y-9274381D01*
X66345904Y-9322000D01*
X66298285Y-9369619D01*
X66250666Y-9464857D01*
X66250666Y-9560095D01*
X66298285Y-9702952D01*
X66869714Y-10274381D01*
X66250666Y-10274381D01*
X65917333Y-9274381D02*
X65250666Y-9274381D01*
X65679238Y-10274381D01*
X64393523Y-9274381D02*
X64869714Y-9274381D01*
X64917333Y-9750571D01*
X64869714Y-9702952D01*
X64774476Y-9655333D01*
X64536380Y-9655333D01*
X64441142Y-9702952D01*
X64393523Y-9750571D01*
X64345904Y-9845810D01*
X64345904Y-10083905D01*
X64393523Y-10179143D01*
X64441142Y-10226762D01*
X64536380Y-10274381D01*
X64774476Y-10274381D01*
X64869714Y-10226762D01*
X64917333Y-10179143D01*
X63520047Y-7374381D02*
X63853381Y-6898190D01*
X64091476Y-7374381D02*
X64091476Y-6374381D01*
X63710523Y-6374381D01*
X63615285Y-6422000D01*
X63567666Y-6469619D01*
X63520047Y-6564857D01*
X63520047Y-6707714D01*
X63567666Y-6802952D01*
X63615285Y-6850571D01*
X63710523Y-6898190D01*
X64091476Y-6898190D01*
X63139095Y-6469619D02*
X63091476Y-6422000D01*
X62996238Y-6374381D01*
X62758142Y-6374381D01*
X62662904Y-6422000D01*
X62615285Y-6469619D01*
X62567666Y-6564857D01*
X62567666Y-6660095D01*
X62615285Y-6802952D01*
X63186714Y-7374381D01*
X62567666Y-7374381D01*
X62234333Y-6374381D02*
X61567666Y-6374381D01*
X61996238Y-7374381D01*
X60758142Y-6374381D02*
X60948619Y-6374381D01*
X61043857Y-6422000D01*
X61091476Y-6469619D01*
X61186714Y-6612476D01*
X61234333Y-6802952D01*
X61234333Y-7183905D01*
X61186714Y-7279143D01*
X61139095Y-7326762D01*
X61043857Y-7374381D01*
X60853380Y-7374381D01*
X60758142Y-7326762D01*
X60710523Y-7279143D01*
X60662904Y-7183905D01*
X60662904Y-6945810D01*
X60710523Y-6850571D01*
X60758142Y-6802952D01*
X60853380Y-6755333D01*
X61043857Y-6755333D01*
X61139095Y-6802952D01*
X61186714Y-6850571D01*
X61234333Y-6945810D01*
M02*
